# bomber/door_r_out — сгенерировано tools/gen_models.py, не править руками
mtllib bomber.mtl
v -1.7000 -0.8421 3.1000
v -3.0000 -0.6796 3.1000
v -3.0000 -0.6796 -1.6000
v -1.7000 -0.8421 -1.6000
v -1.7000 -0.8421 -1.6000
v -3.0000 -0.6796 -1.6000
v -3.0000 -0.6796 3.1000
v -1.7000 -0.8421 3.1000
vt 0.00049 0.78564
vt 0.09326 0.78564
vt 0.09326 0.94092
vt 0.00049 0.94092
vt 0.00049 0.94092
vt 0.09326 0.94092
vt 0.09326 0.78564
vt 0.00049 0.78564
vn 0.0000 -1.0000 0.0000
vn 0.0000 -1.0000 0.0000
vn 0.0000 -1.0000 0.0000
vn 0.0000 -1.0000 0.0000
vn -0.0000 1.0000 -0.0000
vn -0.0000 1.0000 -0.0000
vn -0.0000 1.0000 -0.0000
vn -0.0000 1.0000 -0.0000
usemtl paint
f 1/1/1 2/2/2 3/3/3 4/4/4
f 5/5/5 6/6/6 7/7/7 8/8/8
