# bomb/body, упрощённая копия — сгенерировано tools/gen_models.py, не править руками
mtllib bomb.mtl
v 0.0000 -0.0800 3.0667
v 0.0306 -0.0739 3.0667
v 0.0000 0.0000 3.1000
v 0.0000 0.0000 3.1000
v 0.0000 -0.2000 2.8667
v 0.0765 -0.1848 2.8667
v 0.0306 -0.0739 3.0667
v 0.0000 -0.0800 3.0667
v 0.0000 -0.3133 2.5333
v 0.1199 -0.2895 2.5333
v 0.0765 -0.1848 2.8667
v 0.0000 -0.2000 2.8667
v 0.0000 -0.3867 2.0667
v 0.1480 -0.3572 2.0667
v 0.1199 -0.2895 2.5333
v 0.0000 -0.3133 2.5333
v 0.0000 -0.4067 1.6000
v 0.1556 -0.3757 1.6000
v 0.1480 -0.3572 2.0667
v 0.0000 -0.3867 2.0667
v 0.0000 -0.4067 -2.0000
v 0.1556 -0.3757 -2.0000
v 0.1556 -0.3757 1.6000
v 0.0000 -0.4067 1.6000
v 0.0000 -0.3467 -2.6000
v 0.1327 -0.3203 -2.6000
v 0.1556 -0.3757 -2.0000
v 0.0000 -0.4067 -2.0000
v 0.0000 -0.2667 -2.9333
v 0.1020 -0.2464 -2.9333
v 0.1327 -0.3203 -2.6000
v 0.0000 -0.3467 -2.6000
v 0.0000 -0.2000 -3.0800
v 0.0765 -0.1848 -3.0800
v 0.1020 -0.2464 -2.9333
v 0.0000 -0.2667 -2.9333
v 0.0000 0.0000 -3.1000
v 0.0000 0.0000 -3.1000
v 0.0765 -0.1848 -3.0800
v 0.0000 -0.2000 -3.0800
v 0.0306 -0.0739 3.0667
v 0.0566 -0.0566 3.0667
v 0.0000 0.0000 3.1000
v 0.0000 0.0000 3.1000
v 0.0765 -0.1848 2.8667
v 0.1414 -0.1414 2.8667
v 0.0566 -0.0566 3.0667
v 0.0306 -0.0739 3.0667
v 0.1199 -0.2895 2.5333
v 0.2216 -0.2216 2.5333
v 0.1414 -0.1414 2.8667
v 0.0765 -0.1848 2.8667
v 0.1480 -0.3572 2.0667
v 0.2734 -0.2734 2.0667
v 0.2216 -0.2216 2.5333
v 0.1199 -0.2895 2.5333
v 0.1556 -0.3757 1.6000
v 0.2876 -0.2876 1.6000
v 0.2734 -0.2734 2.0667
v 0.1480 -0.3572 2.0667
v 0.1556 -0.3757 -2.0000
v 0.2876 -0.2876 -2.0000
v 0.2876 -0.2876 1.6000
v 0.1556 -0.3757 1.6000
v 0.1327 -0.3203 -2.6000
v 0.2451 -0.2451 -2.6000
v 0.2876 -0.2876 -2.0000
v 0.1556 -0.3757 -2.0000
v 0.1020 -0.2464 -2.9333
v 0.1886 -0.1886 -2.9333
v 0.2451 -0.2451 -2.6000
v 0.1327 -0.3203 -2.6000
v 0.0765 -0.1848 -3.0800
v 0.1414 -0.1414 -3.0800
v 0.1886 -0.1886 -2.9333
v 0.1020 -0.2464 -2.9333
v 0.0000 0.0000 -3.1000
v 0.0000 0.0000 -3.1000
v 0.1414 -0.1414 -3.0800
v 0.0765 -0.1848 -3.0800
v 0.0566 -0.0566 3.0667
v 0.0739 -0.0306 3.0667
v 0.0000 0.0000 3.1000
v 0.0000 0.0000 3.1000
v 0.1414 -0.1414 2.8667
v 0.1848 -0.0765 2.8667
v 0.0739 -0.0306 3.0667
v 0.0566 -0.0566 3.0667
v 0.2216 -0.2216 2.5333
v 0.2895 -0.1199 2.5333
v 0.1848 -0.0765 2.8667
v 0.1414 -0.1414 2.8667
v 0.2734 -0.2734 2.0667
v 0.3572 -0.1480 2.0667
v 0.2895 -0.1199 2.5333
v 0.2216 -0.2216 2.5333
v 0.2876 -0.2876 1.6000
v 0.3757 -0.1556 1.6000
v 0.3572 -0.1480 2.0667
v 0.2734 -0.2734 2.0667
v 0.2876 -0.2876 -2.0000
v 0.3757 -0.1556 -2.0000
v 0.3757 -0.1556 1.6000
v 0.2876 -0.2876 1.6000
v 0.2451 -0.2451 -2.6000
v 0.3203 -0.1327 -2.6000
v 0.3757 -0.1556 -2.0000
v 0.2876 -0.2876 -2.0000
v 0.1886 -0.1886 -2.9333
v 0.2464 -0.1020 -2.9333
v 0.3203 -0.1327 -2.6000
v 0.2451 -0.2451 -2.6000
v 0.1414 -0.1414 -3.0800
v 0.1848 -0.0765 -3.0800
v 0.2464 -0.1020 -2.9333
v 0.1886 -0.1886 -2.9333
v 0.0000 0.0000 -3.1000
v 0.0000 0.0000 -3.1000
v 0.1848 -0.0765 -3.0800
v 0.1414 -0.1414 -3.0800
v 0.0739 -0.0306 3.0667
v 0.0800 0.0000 3.0667
v 0.0000 0.0000 3.1000
v 0.0000 0.0000 3.1000
v 0.1848 -0.0765 2.8667
v 0.2000 0.0000 2.8667
v 0.0800 0.0000 3.0667
v 0.0739 -0.0306 3.0667
v 0.2895 -0.1199 2.5333
v 0.3133 0.0000 2.5333
v 0.2000 0.0000 2.8667
v 0.1848 -0.0765 2.8667
v 0.3572 -0.1480 2.0667
v 0.3867 0.0000 2.0667
v 0.3133 0.0000 2.5333
v 0.2895 -0.1199 2.5333
v 0.3757 -0.1556 1.6000
v 0.4067 0.0000 1.6000
v 0.3867 0.0000 2.0667
v 0.3572 -0.1480 2.0667
v 0.3757 -0.1556 -2.0000
v 0.4067 0.0000 -2.0000
v 0.4067 0.0000 1.6000
v 0.3757 -0.1556 1.6000
v 0.3203 -0.1327 -2.6000
v 0.3467 0.0000 -2.6000
v 0.4067 0.0000 -2.0000
v 0.3757 -0.1556 -2.0000
v 0.2464 -0.1020 -2.9333
v 0.2667 0.0000 -2.9333
v 0.3467 0.0000 -2.6000
v 0.3203 -0.1327 -2.6000
v 0.1848 -0.0765 -3.0800
v 0.2000 0.0000 -3.0800
v 0.2667 0.0000 -2.9333
v 0.2464 -0.1020 -2.9333
v 0.0000 0.0000 -3.1000
v 0.0000 0.0000 -3.1000
v 0.2000 0.0000 -3.0800
v 0.1848 -0.0765 -3.0800
v 0.0800 0.0000 3.0667
v 0.0739 0.0306 3.0667
v 0.0000 0.0000 3.1000
v 0.0000 0.0000 3.1000
v 0.2000 0.0000 2.8667
v 0.1848 0.0765 2.8667
v 0.0739 0.0306 3.0667
v 0.0800 0.0000 3.0667
v 0.3133 0.0000 2.5333
v 0.2895 0.1199 2.5333
v 0.1848 0.0765 2.8667
v 0.2000 0.0000 2.8667
v 0.3867 0.0000 2.0667
v 0.3572 0.1480 2.0667
v 0.2895 0.1199 2.5333
v 0.3133 0.0000 2.5333
v 0.4067 0.0000 1.6000
v 0.3757 0.1556 1.6000
v 0.3572 0.1480 2.0667
v 0.3867 0.0000 2.0667
v 0.4067 0.0000 -2.0000
v 0.3757 0.1556 -2.0000
v 0.3757 0.1556 1.6000
v 0.4067 0.0000 1.6000
v 0.3467 0.0000 -2.6000
v 0.3203 0.1327 -2.6000
v 0.3757 0.1556 -2.0000
v 0.4067 0.0000 -2.0000
v 0.2667 0.0000 -2.9333
v 0.2464 0.1020 -2.9333
v 0.3203 0.1327 -2.6000
v 0.3467 0.0000 -2.6000
v 0.2000 0.0000 -3.0800
v 0.1848 0.0765 -3.0800
v 0.2464 0.1020 -2.9333
v 0.2667 0.0000 -2.9333
v 0.0000 0.0000 -3.1000
v 0.0000 0.0000 -3.1000
v 0.1848 0.0765 -3.0800
v 0.2000 0.0000 -3.0800
v 0.0739 0.0306 3.0667
v 0.0566 0.0566 3.0667
v 0.0000 0.0000 3.1000
v 0.0000 0.0000 3.1000
v 0.1848 0.0765 2.8667
v 0.1414 0.1414 2.8667
v 0.0566 0.0566 3.0667
v 0.0739 0.0306 3.0667
v 0.2895 0.1199 2.5333
v 0.2216 0.2216 2.5333
v 0.1414 0.1414 2.8667
v 0.1848 0.0765 2.8667
v 0.3572 0.1480 2.0667
v 0.2734 0.2734 2.0667
v 0.2216 0.2216 2.5333
v 0.2895 0.1199 2.5333
v 0.3757 0.1556 1.6000
v 0.2876 0.2876 1.6000
v 0.2734 0.2734 2.0667
v 0.3572 0.1480 2.0667
v 0.3757 0.1556 -2.0000
v 0.2876 0.2876 -2.0000
v 0.2876 0.2876 1.6000
v 0.3757 0.1556 1.6000
v 0.3203 0.1327 -2.6000
v 0.2451 0.2451 -2.6000
v 0.2876 0.2876 -2.0000
v 0.3757 0.1556 -2.0000
v 0.2464 0.1020 -2.9333
v 0.1886 0.1886 -2.9333
v 0.2451 0.2451 -2.6000
v 0.3203 0.1327 -2.6000
v 0.1848 0.0765 -3.0800
v 0.1414 0.1414 -3.0800
v 0.1886 0.1886 -2.9333
v 0.2464 0.1020 -2.9333
v 0.0000 0.0000 -3.1000
v 0.0000 0.0000 -3.1000
v 0.1414 0.1414 -3.0800
v 0.1848 0.0765 -3.0800
v 0.0566 0.0566 3.0667
v 0.0306 0.0739 3.0667
v 0.0000 0.0000 3.1000
v 0.0000 0.0000 3.1000
v 0.1414 0.1414 2.8667
v 0.0765 0.1848 2.8667
v 0.0306 0.0739 3.0667
v 0.0566 0.0566 3.0667
v 0.2216 0.2216 2.5333
v 0.1199 0.2895 2.5333
v 0.0765 0.1848 2.8667
v 0.1414 0.1414 2.8667
v 0.2734 0.2734 2.0667
v 0.1480 0.3572 2.0667
v 0.1199 0.2895 2.5333
v 0.2216 0.2216 2.5333
v 0.2876 0.2876 1.6000
v 0.1556 0.3757 1.6000
v 0.1480 0.3572 2.0667
v 0.2734 0.2734 2.0667
v 0.2876 0.2876 -2.0000
v 0.1556 0.3757 -2.0000
v 0.1556 0.3757 1.6000
v 0.2876 0.2876 1.6000
v 0.2451 0.2451 -2.6000
v 0.1327 0.3203 -2.6000
v 0.1556 0.3757 -2.0000
v 0.2876 0.2876 -2.0000
v 0.1886 0.1886 -2.9333
v 0.1020 0.2464 -2.9333
v 0.1327 0.3203 -2.6000
v 0.2451 0.2451 -2.6000
v 0.1414 0.1414 -3.0800
v 0.0765 0.1848 -3.0800
v 0.1020 0.2464 -2.9333
v 0.1886 0.1886 -2.9333
v 0.0000 0.0000 -3.1000
v 0.0000 0.0000 -3.1000
v 0.0765 0.1848 -3.0800
v 0.1414 0.1414 -3.0800
v 0.0306 0.0739 3.0667
v 0.0000 0.0800 3.0667
v 0.0000 0.0000 3.1000
v 0.0000 0.0000 3.1000
v 0.0765 0.1848 2.8667
v 0.0000 0.2000 2.8667
v 0.0000 0.0800 3.0667
v 0.0306 0.0739 3.0667
v 0.1199 0.2895 2.5333
v 0.0000 0.3133 2.5333
v 0.0000 0.2000 2.8667
v 0.0765 0.1848 2.8667
v 0.1480 0.3572 2.0667
v 0.0000 0.3867 2.0667
v 0.0000 0.3133 2.5333
v 0.1199 0.2895 2.5333
v 0.1556 0.3757 1.6000
v 0.0000 0.4067 1.6000
v 0.0000 0.3867 2.0667
v 0.1480 0.3572 2.0667
v 0.1556 0.3757 -2.0000
v 0.0000 0.4067 -2.0000
v 0.0000 0.4067 1.6000
v 0.1556 0.3757 1.6000
v 0.1327 0.3203 -2.6000
v 0.0000 0.3467 -2.6000
v 0.0000 0.4067 -2.0000
v 0.1556 0.3757 -2.0000
v 0.1020 0.2464 -2.9333
v 0.0000 0.2667 -2.9333
v 0.0000 0.3467 -2.6000
v 0.1327 0.3203 -2.6000
v 0.0765 0.1848 -3.0800
v 0.0000 0.2000 -3.0800
v 0.0000 0.2667 -2.9333
v 0.1020 0.2464 -2.9333
v 0.0000 0.0000 -3.1000
v 0.0000 0.0000 -3.1000
v 0.0000 0.2000 -3.0800
v 0.0765 0.1848 -3.0800
v 0.0000 0.0800 3.0667
v -0.0306 0.0739 3.0667
v 0.0000 0.0000 3.1000
v 0.0000 0.0000 3.1000
v 0.0000 0.2000 2.8667
v -0.0765 0.1848 2.8667
v -0.0306 0.0739 3.0667
v 0.0000 0.0800 3.0667
v 0.0000 0.3133 2.5333
v -0.1199 0.2895 2.5333
v -0.0765 0.1848 2.8667
v 0.0000 0.2000 2.8667
v 0.0000 0.3867 2.0667
v -0.1480 0.3572 2.0667
v -0.1199 0.2895 2.5333
v 0.0000 0.3133 2.5333
v 0.0000 0.4067 1.6000
v -0.1556 0.3757 1.6000
v -0.1480 0.3572 2.0667
v 0.0000 0.3867 2.0667
v 0.0000 0.4067 -2.0000
v -0.1556 0.3757 -2.0000
v -0.1556 0.3757 1.6000
v 0.0000 0.4067 1.6000
v 0.0000 0.3467 -2.6000
v -0.1327 0.3203 -2.6000
v -0.1556 0.3757 -2.0000
v 0.0000 0.4067 -2.0000
v 0.0000 0.2667 -2.9333
v -0.1020 0.2464 -2.9333
v -0.1327 0.3203 -2.6000
v 0.0000 0.3467 -2.6000
v 0.0000 0.2000 -3.0800
v -0.0765 0.1848 -3.0800
v -0.1020 0.2464 -2.9333
v 0.0000 0.2667 -2.9333
v 0.0000 0.0000 -3.1000
v 0.0000 0.0000 -3.1000
v -0.0765 0.1848 -3.0800
v 0.0000 0.2000 -3.0800
v -0.0306 0.0739 3.0667
v -0.0566 0.0566 3.0667
v 0.0000 0.0000 3.1000
v 0.0000 0.0000 3.1000
v -0.0765 0.1848 2.8667
v -0.1414 0.1414 2.8667
v -0.0566 0.0566 3.0667
v -0.0306 0.0739 3.0667
v -0.1199 0.2895 2.5333
v -0.2216 0.2216 2.5333
v -0.1414 0.1414 2.8667
v -0.0765 0.1848 2.8667
v -0.1480 0.3572 2.0667
v -0.2734 0.2734 2.0667
v -0.2216 0.2216 2.5333
v -0.1199 0.2895 2.5333
v -0.1556 0.3757 1.6000
v -0.2876 0.2876 1.6000
v -0.2734 0.2734 2.0667
v -0.1480 0.3572 2.0667
v -0.1556 0.3757 -2.0000
v -0.2876 0.2876 -2.0000
v -0.2876 0.2876 1.6000
v -0.1556 0.3757 1.6000
v -0.1327 0.3203 -2.6000
v -0.2451 0.2451 -2.6000
v -0.2876 0.2876 -2.0000
v -0.1556 0.3757 -2.0000
v -0.1020 0.2464 -2.9333
v -0.1886 0.1886 -2.9333
v -0.2451 0.2451 -2.6000
v -0.1327 0.3203 -2.6000
v -0.0765 0.1848 -3.0800
v -0.1414 0.1414 -3.0800
v -0.1886 0.1886 -2.9333
v -0.1020 0.2464 -2.9333
v 0.0000 0.0000 -3.1000
v 0.0000 0.0000 -3.1000
v -0.1414 0.1414 -3.0800
v -0.0765 0.1848 -3.0800
v -0.0566 0.0566 3.0667
v -0.0739 0.0306 3.0667
v 0.0000 0.0000 3.1000
v 0.0000 0.0000 3.1000
v -0.1414 0.1414 2.8667
v -0.1848 0.0765 2.8667
v -0.0739 0.0306 3.0667
v -0.0566 0.0566 3.0667
v -0.2216 0.2216 2.5333
v -0.2895 0.1199 2.5333
v -0.1848 0.0765 2.8667
v -0.1414 0.1414 2.8667
v -0.2734 0.2734 2.0667
v -0.3572 0.1480 2.0667
v -0.2895 0.1199 2.5333
v -0.2216 0.2216 2.5333
v -0.2876 0.2876 1.6000
v -0.3757 0.1556 1.6000
v -0.3572 0.1480 2.0667
v -0.2734 0.2734 2.0667
v -0.2876 0.2876 -2.0000
v -0.3757 0.1556 -2.0000
v -0.3757 0.1556 1.6000
v -0.2876 0.2876 1.6000
v -0.2451 0.2451 -2.6000
v -0.3203 0.1327 -2.6000
v -0.3757 0.1556 -2.0000
v -0.2876 0.2876 -2.0000
v -0.1886 0.1886 -2.9333
v -0.2464 0.1020 -2.9333
v -0.3203 0.1327 -2.6000
v -0.2451 0.2451 -2.6000
v -0.1414 0.1414 -3.0800
v -0.1848 0.0765 -3.0800
v -0.2464 0.1020 -2.9333
v -0.1886 0.1886 -2.9333
v 0.0000 0.0000 -3.1000
v 0.0000 0.0000 -3.1000
v -0.1848 0.0765 -3.0800
v -0.1414 0.1414 -3.0800
v -0.0739 0.0306 3.0667
v -0.0800 0.0000 3.0667
v 0.0000 0.0000 3.1000
v 0.0000 0.0000 3.1000
v -0.1848 0.0765 2.8667
v -0.2000 0.0000 2.8667
v -0.0800 0.0000 3.0667
v -0.0739 0.0306 3.0667
v -0.2895 0.1199 2.5333
v -0.3133 0.0000 2.5333
v -0.2000 0.0000 2.8667
v -0.1848 0.0765 2.8667
v -0.3572 0.1480 2.0667
v -0.3867 0.0000 2.0667
v -0.3133 0.0000 2.5333
v -0.2895 0.1199 2.5333
v -0.3757 0.1556 1.6000
v -0.4067 0.0000 1.6000
v -0.3867 0.0000 2.0667
v -0.3572 0.1480 2.0667
v -0.3757 0.1556 -2.0000
v -0.4067 0.0000 -2.0000
v -0.4067 0.0000 1.6000
v -0.3757 0.1556 1.6000
v -0.3203 0.1327 -2.6000
v -0.3467 0.0000 -2.6000
v -0.4067 0.0000 -2.0000
v -0.3757 0.1556 -2.0000
v -0.2464 0.1020 -2.9333
v -0.2667 0.0000 -2.9333
v -0.3467 0.0000 -2.6000
v -0.3203 0.1327 -2.6000
v -0.1848 0.0765 -3.0800
v -0.2000 0.0000 -3.0800
v -0.2667 0.0000 -2.9333
v -0.2464 0.1020 -2.9333
v 0.0000 0.0000 -3.1000
v 0.0000 0.0000 -3.1000
v -0.2000 0.0000 -3.0800
v -0.1848 0.0765 -3.0800
v -0.0800 0.0000 3.0667
v -0.0739 -0.0306 3.0667
v 0.0000 0.0000 3.1000
v 0.0000 0.0000 3.1000
v -0.2000 0.0000 2.8667
v -0.1848 -0.0765 2.8667
v -0.0739 -0.0306 3.0667
v -0.0800 0.0000 3.0667
v -0.3133 0.0000 2.5333
v -0.2895 -0.1199 2.5333
v -0.1848 -0.0765 2.8667
v -0.2000 0.0000 2.8667
v -0.3867 0.0000 2.0667
v -0.3572 -0.1480 2.0667
v -0.2895 -0.1199 2.5333
v -0.3133 0.0000 2.5333
v -0.4067 0.0000 1.6000
v -0.3757 -0.1556 1.6000
v -0.3572 -0.1480 2.0667
v -0.3867 0.0000 2.0667
v -0.4067 0.0000 -2.0000
v -0.3757 -0.1556 -2.0000
v -0.3757 -0.1556 1.6000
v -0.4067 0.0000 1.6000
v -0.3467 0.0000 -2.6000
v -0.3203 -0.1327 -2.6000
v -0.3757 -0.1556 -2.0000
v -0.4067 0.0000 -2.0000
v -0.2667 0.0000 -2.9333
v -0.2464 -0.1020 -2.9333
v -0.3203 -0.1327 -2.6000
v -0.3467 0.0000 -2.6000
v -0.2000 0.0000 -3.0800
v -0.1848 -0.0765 -3.0800
v -0.2464 -0.1020 -2.9333
v -0.2667 0.0000 -2.9333
v 0.0000 0.0000 -3.1000
v 0.0000 0.0000 -3.1000
v -0.1848 -0.0765 -3.0800
v -0.2000 0.0000 -3.0800
v -0.0739 -0.0306 3.0667
v -0.0566 -0.0566 3.0667
v 0.0000 0.0000 3.1000
v 0.0000 0.0000 3.1000
v -0.1848 -0.0765 2.8667
v -0.1414 -0.1414 2.8667
v -0.0566 -0.0566 3.0667
v -0.0739 -0.0306 3.0667
v -0.2895 -0.1199 2.5333
v -0.2216 -0.2216 2.5333
v -0.1414 -0.1414 2.8667
v -0.1848 -0.0765 2.8667
v -0.3572 -0.1480 2.0667
v -0.2734 -0.2734 2.0667
v -0.2216 -0.2216 2.5333
v -0.2895 -0.1199 2.5333
v -0.3757 -0.1556 1.6000
v -0.2876 -0.2876 1.6000
v -0.2734 -0.2734 2.0667
v -0.3572 -0.1480 2.0667
v -0.3757 -0.1556 -2.0000
v -0.2876 -0.2876 -2.0000
v -0.2876 -0.2876 1.6000
v -0.3757 -0.1556 1.6000
v -0.3203 -0.1327 -2.6000
v -0.2451 -0.2451 -2.6000
v -0.2876 -0.2876 -2.0000
v -0.3757 -0.1556 -2.0000
v -0.2464 -0.1020 -2.9333
v -0.1886 -0.1886 -2.9333
v -0.2451 -0.2451 -2.6000
v -0.3203 -0.1327 -2.6000
v -0.1848 -0.0765 -3.0800
v -0.1414 -0.1414 -3.0800
v -0.1886 -0.1886 -2.9333
v -0.2464 -0.1020 -2.9333
v 0.0000 0.0000 -3.1000
v 0.0000 0.0000 -3.1000
v -0.1414 -0.1414 -3.0800
v -0.1848 -0.0765 -3.0800
v -0.0566 -0.0566 3.0667
v -0.0306 -0.0739 3.0667
v 0.0000 0.0000 3.1000
v 0.0000 0.0000 3.1000
v -0.1414 -0.1414 2.8667
v -0.0765 -0.1848 2.8667
v -0.0306 -0.0739 3.0667
v -0.0566 -0.0566 3.0667
v -0.2216 -0.2216 2.5333
v -0.1199 -0.2895 2.5333
v -0.0765 -0.1848 2.8667
v -0.1414 -0.1414 2.8667
v -0.2734 -0.2734 2.0667
v -0.1480 -0.3572 2.0667
v -0.1199 -0.2895 2.5333
v -0.2216 -0.2216 2.5333
v -0.2876 -0.2876 1.6000
v -0.1556 -0.3757 1.6000
v -0.1480 -0.3572 2.0667
v -0.2734 -0.2734 2.0667
v -0.2876 -0.2876 -2.0000
v -0.1556 -0.3757 -2.0000
v -0.1556 -0.3757 1.6000
v -0.2876 -0.2876 1.6000
v -0.2451 -0.2451 -2.6000
v -0.1327 -0.3203 -2.6000
v -0.1556 -0.3757 -2.0000
v -0.2876 -0.2876 -2.0000
v -0.1886 -0.1886 -2.9333
v -0.1020 -0.2464 -2.9333
v -0.1327 -0.3203 -2.6000
v -0.2451 -0.2451 -2.6000
v -0.1414 -0.1414 -3.0800
v -0.0765 -0.1848 -3.0800
v -0.1020 -0.2464 -2.9333
v -0.1886 -0.1886 -2.9333
v 0.0000 0.0000 -3.1000
v 0.0000 0.0000 -3.1000
v -0.0765 -0.1848 -3.0800
v -0.1414 -0.1414 -3.0800
v -0.0306 -0.0739 3.0667
v -0.0000 -0.0800 3.0667
v 0.0000 0.0000 3.1000
v 0.0000 0.0000 3.1000
v -0.0765 -0.1848 2.8667
v -0.0000 -0.2000 2.8667
v -0.0000 -0.0800 3.0667
v -0.0306 -0.0739 3.0667
v -0.1199 -0.2895 2.5333
v -0.0000 -0.3133 2.5333
v -0.0000 -0.2000 2.8667
v -0.0765 -0.1848 2.8667
v -0.1480 -0.3572 2.0667
v -0.0000 -0.3867 2.0667
v -0.0000 -0.3133 2.5333
v -0.1199 -0.2895 2.5333
v -0.1556 -0.3757 1.6000
v -0.0000 -0.4067 1.6000
v -0.0000 -0.3867 2.0667
v -0.1480 -0.3572 2.0667
v -0.1556 -0.3757 -2.0000
v -0.0000 -0.4067 -2.0000
v -0.0000 -0.4067 1.6000
v -0.1556 -0.3757 1.6000
v -0.1327 -0.3203 -2.6000
v -0.0000 -0.3467 -2.6000
v -0.0000 -0.4067 -2.0000
v -0.1556 -0.3757 -2.0000
v -0.1020 -0.2464 -2.9333
v -0.0000 -0.2667 -2.9333
v -0.0000 -0.3467 -2.6000
v -0.1327 -0.3203 -2.6000
v -0.0765 -0.1848 -3.0800
v -0.0000 -0.2000 -3.0800
v -0.0000 -0.2667 -2.9333
v -0.1020 -0.2464 -2.9333
v 0.0000 0.0000 -3.1000
v 0.0000 0.0000 -3.1000
v -0.0000 -0.2000 -3.0800
v -0.0765 -0.1848 -3.0800
v 0.3667 0.0000 -0.1333
v 0.6333 0.0000 -0.3333
v 0.6333 -0.0000 -1.2667
v 0.3667 -0.0000 -1.3333
v 0.3667 0.0000 -1.3333
v 0.6333 0.0000 -1.2667
v 0.6333 0.0000 -0.3333
v 0.3667 0.0000 -0.1333
v 0.4573 -0.0613 -2.7333
v 0.9287 0.4101 -2.7333
v 0.4101 0.9287 -2.7333
v -0.0613 0.4573 -2.7333
v -0.0613 0.4573 -2.7333
v 0.4101 0.9287 -2.7333
v 0.9287 0.4101 -2.7333
v 0.4573 -0.0613 -2.7333
v -0.0613 0.4573 -2.7333
v 0.4101 0.9287 -2.7333
v 0.4101 0.9287 -3.0667
v -0.0613 0.4573 -3.0667
v -0.0613 0.4573 -3.0667
v 0.4101 0.9287 -3.0667
v 0.4101 0.9287 -2.7333
v -0.0613 0.4573 -2.7333
v 0.4573 -0.0613 -3.0667
v 0.9287 0.4101 -3.0667
v 0.9287 0.4101 -2.7333
v 0.4573 -0.0613 -2.7333
v 0.4573 -0.0613 -2.7333
v 0.9287 0.4101 -2.7333
v 0.9287 0.4101 -3.0667
v 0.4573 -0.0613 -3.0667
v 0.4101 0.9287 -2.7333
v 0.9287 0.4101 -2.7333
v 0.9287 0.4101 -3.0667
v 0.4101 0.9287 -3.0667
v 0.4101 0.9287 -3.0667
v 0.9287 0.4101 -3.0667
v 0.9287 0.4101 -2.7333
v 0.4101 0.9287 -2.7333
v 0.0000 0.3667 -0.1333
v 0.0000 0.6333 -0.3333
v 0.0000 0.6333 -1.2667
v 0.0000 0.3667 -1.3333
v 0.0000 0.3667 -1.3333
v 0.0000 0.6333 -1.2667
v 0.0000 0.6333 -0.3333
v 0.0000 0.3667 -0.1333
v 0.0613 0.4573 -2.7333
v -0.4101 0.9287 -2.7333
v -0.9287 0.4101 -2.7333
v -0.4573 -0.0613 -2.7333
v -0.4573 -0.0613 -2.7333
v -0.9287 0.4101 -2.7333
v -0.4101 0.9287 -2.7333
v 0.0613 0.4573 -2.7333
v -0.4573 -0.0613 -2.7333
v -0.9287 0.4101 -2.7333
v -0.9287 0.4101 -3.0667
v -0.4573 -0.0613 -3.0667
v -0.4573 -0.0613 -3.0667
v -0.9287 0.4101 -3.0667
v -0.9287 0.4101 -2.7333
v -0.4573 -0.0613 -2.7333
v 0.0613 0.4573 -3.0667
v -0.4101 0.9287 -3.0667
v -0.4101 0.9287 -2.7333
v 0.0613 0.4573 -2.7333
v 0.0613 0.4573 -2.7333
v -0.4101 0.9287 -2.7333
v -0.4101 0.9287 -3.0667
v 0.0613 0.4573 -3.0667
v -0.9287 0.4101 -2.7333
v -0.4101 0.9287 -2.7333
v -0.4101 0.9287 -3.0667
v -0.9287 0.4101 -3.0667
v -0.9287 0.4101 -3.0667
v -0.4101 0.9287 -3.0667
v -0.4101 0.9287 -2.7333
v -0.9287 0.4101 -2.7333
v -0.3667 0.0000 -0.1333
v -0.6333 0.0000 -0.3333
v -0.6333 0.0000 -1.2667
v -0.3667 0.0000 -1.3333
v -0.3667 0.0000 -1.3333
v -0.6333 0.0000 -1.2667
v -0.6333 0.0000 -0.3333
v -0.3667 0.0000 -0.1333
v -0.4573 0.0613 -2.7333
v -0.9287 -0.4101 -2.7333
v -0.4101 -0.9287 -2.7333
v 0.0613 -0.4573 -2.7333
v 0.0613 -0.4573 -2.7333
v -0.4101 -0.9287 -2.7333
v -0.9287 -0.4101 -2.7333
v -0.4573 0.0613 -2.7333
v 0.0613 -0.4573 -2.7333
v -0.4101 -0.9287 -2.7333
v -0.4101 -0.9287 -3.0667
v 0.0613 -0.4573 -3.0667
v 0.0613 -0.4573 -3.0667
v -0.4101 -0.9287 -3.0667
v -0.4101 -0.9287 -2.7333
v 0.0613 -0.4573 -2.7333
v -0.4573 0.0613 -3.0667
v -0.9287 -0.4101 -3.0667
v -0.9287 -0.4101 -2.7333
v -0.4573 0.0613 -2.7333
v -0.4573 0.0613 -2.7333
v -0.9287 -0.4101 -2.7333
v -0.9287 -0.4101 -3.0667
v -0.4573 0.0613 -3.0667
v -0.4101 -0.9287 -2.7333
v -0.9287 -0.4101 -2.7333
v -0.9287 -0.4101 -3.0667
v -0.4101 -0.9287 -3.0667
v -0.4101 -0.9287 -3.0667
v -0.9287 -0.4101 -3.0667
v -0.9287 -0.4101 -2.7333
v -0.4101 -0.9287 -2.7333
v -0.0000 -0.3667 -0.1333
v -0.0000 -0.6333 -0.3333
v -0.0000 -0.6333 -1.2667
v -0.0000 -0.3667 -1.3333
v -0.0000 -0.3667 -1.3333
v -0.0000 -0.6333 -1.2667
v -0.0000 -0.6333 -0.3333
v -0.0000 -0.3667 -0.1333
v -0.0613 -0.4573 -2.7333
v 0.4101 -0.9287 -2.7333
v 0.9287 -0.4101 -2.7333
v 0.4573 0.0613 -2.7333
v 0.4573 0.0613 -2.7333
v 0.9287 -0.4101 -2.7333
v 0.4101 -0.9287 -2.7333
v -0.0613 -0.4573 -2.7333
v 0.4573 0.0613 -2.7333
v 0.9287 -0.4101 -2.7333
v 0.9287 -0.4101 -3.0667
v 0.4573 0.0613 -3.0667
v 0.4573 0.0613 -3.0667
v 0.9287 -0.4101 -3.0667
v 0.9287 -0.4101 -2.7333
v 0.4573 0.0613 -2.7333
v -0.0613 -0.4573 -3.0667
v 0.4101 -0.9287 -3.0667
v 0.4101 -0.9287 -2.7333
v -0.0613 -0.4573 -2.7333
v -0.0613 -0.4573 -2.7333
v 0.4101 -0.9287 -2.7333
v 0.4101 -0.9287 -3.0667
v -0.0613 -0.4573 -3.0667
v 0.9287 -0.4101 -2.7333
v 0.4101 -0.9287 -2.7333
v 0.4101 -0.9287 -3.0667
v 0.9287 -0.4101 -3.0667
v 0.9287 -0.4101 -3.0667
v 0.4101 -0.9287 -3.0667
v 0.4101 -0.9287 -2.7333
v 0.9287 -0.4101 -2.7333
vt 0.00098 0.01436
vt 0.03210 0.01436
vt 0.03210 0.00195
vt 0.00098 0.00195
vt 0.00098 0.04776
vt 0.03210 0.04776
vt 0.03210 0.01436
vt 0.00098 0.01436
vt 0.00098 0.09818
vt 0.03210 0.09818
vt 0.03210 0.04776
vt 0.00098 0.04776
vt 0.00098 0.16583
vt 0.03210 0.16583
vt 0.03210 0.09818
vt 0.00098 0.09818
vt 0.00098 0.23272
vt 0.03210 0.23272
vt 0.03210 0.16583
vt 0.00098 0.16583
vt 0.00098 0.74825
vt 0.03210 0.74825
vt 0.03210 0.23272
vt 0.00098 0.23272
vt 0.00098 0.83460
vt 0.03210 0.83460
vt 0.03210 0.74825
vt 0.00098 0.74825
vt 0.00098 0.88369
vt 0.03210 0.88369
vt 0.03210 0.83460
vt 0.00098 0.83460
vt 0.00098 0.90676
vt 0.03210 0.90676
vt 0.03210 0.88369
vt 0.00098 0.88369
vt 0.00098 0.93555
vt 0.03210 0.93555
vt 0.03210 0.90676
vt 0.00098 0.90676
vt 0.03210 0.01436
vt 0.06323 0.01436
vt 0.06323 0.00195
vt 0.03210 0.00195
vt 0.03210 0.04776
vt 0.06323 0.04776
vt 0.06323 0.01436
vt 0.03210 0.01436
vt 0.03210 0.09818
vt 0.06323 0.09818
vt 0.06323 0.04776
vt 0.03210 0.04776
vt 0.03210 0.16583
vt 0.06323 0.16583
vt 0.06323 0.09818
vt 0.03210 0.09818
vt 0.03210 0.23272
vt 0.06323 0.23272
vt 0.06323 0.16583
vt 0.03210 0.16583
vt 0.03210 0.74825
vt 0.06323 0.74825
vt 0.06323 0.23272
vt 0.03210 0.23272
vt 0.03210 0.83460
vt 0.06323 0.83460
vt 0.06323 0.74825
vt 0.03210 0.74825
vt 0.03210 0.88369
vt 0.06323 0.88369
vt 0.06323 0.83460
vt 0.03210 0.83460
vt 0.03210 0.90676
vt 0.06323 0.90676
vt 0.06323 0.88369
vt 0.03210 0.88369
vt 0.03210 0.93555
vt 0.06323 0.93555
vt 0.06323 0.90676
vt 0.03210 0.90676
vt 0.06323 0.01436
vt 0.09436 0.01436
vt 0.09436 0.00195
vt 0.06323 0.00195
vt 0.06323 0.04776
vt 0.09436 0.04776
vt 0.09436 0.01436
vt 0.06323 0.01436
vt 0.06323 0.09818
vt 0.09436 0.09818
vt 0.09436 0.04776
vt 0.06323 0.04776
vt 0.06323 0.16583
vt 0.09436 0.16583
vt 0.09436 0.09818
vt 0.06323 0.09818
vt 0.06323 0.23272
vt 0.09436 0.23272
vt 0.09436 0.16583
vt 0.06323 0.16583
vt 0.06323 0.74825
vt 0.09436 0.74825
vt 0.09436 0.23272
vt 0.06323 0.23272
vt 0.06323 0.83460
vt 0.09436 0.83460
vt 0.09436 0.74825
vt 0.06323 0.74825
vt 0.06323 0.88369
vt 0.09436 0.88369
vt 0.09436 0.83460
vt 0.06323 0.83460
vt 0.06323 0.90676
vt 0.09436 0.90676
vt 0.09436 0.88369
vt 0.06323 0.88369
vt 0.06323 0.93555
vt 0.09436 0.93555
vt 0.09436 0.90676
vt 0.06323 0.90676
vt 0.09436 0.01436
vt 0.12549 0.01436
vt 0.12549 0.00195
vt 0.09436 0.00195
vt 0.09436 0.04776
vt 0.12549 0.04776
vt 0.12549 0.01436
vt 0.09436 0.01436
vt 0.09436 0.09818
vt 0.12549 0.09818
vt 0.12549 0.04776
vt 0.09436 0.04776
vt 0.09436 0.16583
vt 0.12549 0.16583
vt 0.12549 0.09818
vt 0.09436 0.09818
vt 0.09436 0.23272
vt 0.12549 0.23272
vt 0.12549 0.16583
vt 0.09436 0.16583
vt 0.09436 0.74825
vt 0.12549 0.74825
vt 0.12549 0.23272
vt 0.09436 0.23272
vt 0.09436 0.83460
vt 0.12549 0.83460
vt 0.12549 0.74825
vt 0.09436 0.74825
vt 0.09436 0.88369
vt 0.12549 0.88369
vt 0.12549 0.83460
vt 0.09436 0.83460
vt 0.09436 0.90676
vt 0.12549 0.90676
vt 0.12549 0.88369
vt 0.09436 0.88369
vt 0.09436 0.93555
vt 0.12549 0.93555
vt 0.12549 0.90676
vt 0.09436 0.90676
vt 0.12549 0.01436
vt 0.15662 0.01436
vt 0.15662 0.00195
vt 0.12549 0.00195
vt 0.12549 0.04776
vt 0.15662 0.04776
vt 0.15662 0.01436
vt 0.12549 0.01436
vt 0.12549 0.09818
vt 0.15662 0.09818
vt 0.15662 0.04776
vt 0.12549 0.04776
vt 0.12549 0.16583
vt 0.15662 0.16583
vt 0.15662 0.09818
vt 0.12549 0.09818
vt 0.12549 0.23272
vt 0.15662 0.23272
vt 0.15662 0.16583
vt 0.12549 0.16583
vt 0.12549 0.74825
vt 0.15662 0.74825
vt 0.15662 0.23272
vt 0.12549 0.23272
vt 0.12549 0.83460
vt 0.15662 0.83460
vt 0.15662 0.74825
vt 0.12549 0.74825
vt 0.12549 0.88369
vt 0.15662 0.88369
vt 0.15662 0.83460
vt 0.12549 0.83460
vt 0.12549 0.90676
vt 0.15662 0.90676
vt 0.15662 0.88369
vt 0.12549 0.88369
vt 0.12549 0.93555
vt 0.15662 0.93555
vt 0.15662 0.90676
vt 0.12549 0.90676
vt 0.15662 0.01436
vt 0.18774 0.01436
vt 0.18774 0.00195
vt 0.15662 0.00195
vt 0.15662 0.04776
vt 0.18774 0.04776
vt 0.18774 0.01436
vt 0.15662 0.01436
vt 0.15662 0.09818
vt 0.18774 0.09818
vt 0.18774 0.04776
vt 0.15662 0.04776
vt 0.15662 0.16583
vt 0.18774 0.16583
vt 0.18774 0.09818
vt 0.15662 0.09818
vt 0.15662 0.23272
vt 0.18774 0.23272
vt 0.18774 0.16583
vt 0.15662 0.16583
vt 0.15662 0.74825
vt 0.18774 0.74825
vt 0.18774 0.23272
vt 0.15662 0.23272
vt 0.15662 0.83460
vt 0.18774 0.83460
vt 0.18774 0.74825
vt 0.15662 0.74825
vt 0.15662 0.88369
vt 0.18774 0.88369
vt 0.18774 0.83460
vt 0.15662 0.83460
vt 0.15662 0.90676
vt 0.18774 0.90676
vt 0.18774 0.88369
vt 0.15662 0.88369
vt 0.15662 0.93555
vt 0.18774 0.93555
vt 0.18774 0.90676
vt 0.15662 0.90676
vt 0.18774 0.01436
vt 0.21887 0.01436
vt 0.21887 0.00195
vt 0.18774 0.00195
vt 0.18774 0.04776
vt 0.21887 0.04776
vt 0.21887 0.01436
vt 0.18774 0.01436
vt 0.18774 0.09818
vt 0.21887 0.09818
vt 0.21887 0.04776
vt 0.18774 0.04776
vt 0.18774 0.16583
vt 0.21887 0.16583
vt 0.21887 0.09818
vt 0.18774 0.09818
vt 0.18774 0.23272
vt 0.21887 0.23272
vt 0.21887 0.16583
vt 0.18774 0.16583
vt 0.18774 0.74825
vt 0.21887 0.74825
vt 0.21887 0.23272
vt 0.18774 0.23272
vt 0.18774 0.83460
vt 0.21887 0.83460
vt 0.21887 0.74825
vt 0.18774 0.74825
vt 0.18774 0.88369
vt 0.21887 0.88369
vt 0.21887 0.83460
vt 0.18774 0.83460
vt 0.18774 0.90676
vt 0.21887 0.90676
vt 0.21887 0.88369
vt 0.18774 0.88369
vt 0.18774 0.93555
vt 0.21887 0.93555
vt 0.21887 0.90676
vt 0.18774 0.90676
vt 0.21887 0.01436
vt 0.25000 0.01436
vt 0.25000 0.00195
vt 0.21887 0.00195
vt 0.21887 0.04776
vt 0.25000 0.04776
vt 0.25000 0.01436
vt 0.21887 0.01436
vt 0.21887 0.09818
vt 0.25000 0.09818
vt 0.25000 0.04776
vt 0.21887 0.04776
vt 0.21887 0.16583
vt 0.25000 0.16583
vt 0.25000 0.09818
vt 0.21887 0.09818
vt 0.21887 0.23272
vt 0.25000 0.23272
vt 0.25000 0.16583
vt 0.21887 0.16583
vt 0.21887 0.74825
vt 0.25000 0.74825
vt 0.25000 0.23272
vt 0.21887 0.23272
vt 0.21887 0.83460
vt 0.25000 0.83460
vt 0.25000 0.74825
vt 0.21887 0.74825
vt 0.21887 0.88369
vt 0.25000 0.88369
vt 0.25000 0.83460
vt 0.21887 0.83460
vt 0.21887 0.90676
vt 0.25000 0.90676
vt 0.25000 0.88369
vt 0.21887 0.88369
vt 0.21887 0.93555
vt 0.25000 0.93555
vt 0.25000 0.90676
vt 0.21887 0.90676
vt 0.25000 0.01436
vt 0.28113 0.01436
vt 0.28113 0.00195
vt 0.25000 0.00195
vt 0.25000 0.04776
vt 0.28113 0.04776
vt 0.28113 0.01436
vt 0.25000 0.01436
vt 0.25000 0.09818
vt 0.28113 0.09818
vt 0.28113 0.04776
vt 0.25000 0.04776
vt 0.25000 0.16583
vt 0.28113 0.16583
vt 0.28113 0.09818
vt 0.25000 0.09818
vt 0.25000 0.23272
vt 0.28113 0.23272
vt 0.28113 0.16583
vt 0.25000 0.16583
vt 0.25000 0.74825
vt 0.28113 0.74825
vt 0.28113 0.23272
vt 0.25000 0.23272
vt 0.25000 0.83460
vt 0.28113 0.83460
vt 0.28113 0.74825
vt 0.25000 0.74825
vt 0.25000 0.88369
vt 0.28113 0.88369
vt 0.28113 0.83460
vt 0.25000 0.83460
vt 0.25000 0.90676
vt 0.28113 0.90676
vt 0.28113 0.88369
vt 0.25000 0.88369
vt 0.25000 0.93555
vt 0.28113 0.93555
vt 0.28113 0.90676
vt 0.25000 0.90676
vt 0.28113 0.01436
vt 0.31226 0.01436
vt 0.31226 0.00195
vt 0.28113 0.00195
vt 0.28113 0.04776
vt 0.31226 0.04776
vt 0.31226 0.01436
vt 0.28113 0.01436
vt 0.28113 0.09818
vt 0.31226 0.09818
vt 0.31226 0.04776
vt 0.28113 0.04776
vt 0.28113 0.16583
vt 0.31226 0.16583
vt 0.31226 0.09818
vt 0.28113 0.09818
vt 0.28113 0.23272
vt 0.31226 0.23272
vt 0.31226 0.16583
vt 0.28113 0.16583
vt 0.28113 0.74825
vt 0.31226 0.74825
vt 0.31226 0.23272
vt 0.28113 0.23272
vt 0.28113 0.83460
vt 0.31226 0.83460
vt 0.31226 0.74825
vt 0.28113 0.74825
vt 0.28113 0.88369
vt 0.31226 0.88369
vt 0.31226 0.83460
vt 0.28113 0.83460
vt 0.28113 0.90676
vt 0.31226 0.90676
vt 0.31226 0.88369
vt 0.28113 0.88369
vt 0.28113 0.93555
vt 0.31226 0.93555
vt 0.31226 0.90676
vt 0.28113 0.90676
vt 0.31226 0.01436
vt 0.34338 0.01436
vt 0.34338 0.00195
vt 0.31226 0.00195
vt 0.31226 0.04776
vt 0.34338 0.04776
vt 0.34338 0.01436
vt 0.31226 0.01436
vt 0.31226 0.09818
vt 0.34338 0.09818
vt 0.34338 0.04776
vt 0.31226 0.04776
vt 0.31226 0.16583
vt 0.34338 0.16583
vt 0.34338 0.09818
vt 0.31226 0.09818
vt 0.31226 0.23272
vt 0.34338 0.23272
vt 0.34338 0.16583
vt 0.31226 0.16583
vt 0.31226 0.74825
vt 0.34338 0.74825
vt 0.34338 0.23272
vt 0.31226 0.23272
vt 0.31226 0.83460
vt 0.34338 0.83460
vt 0.34338 0.74825
vt 0.31226 0.74825
vt 0.31226 0.88369
vt 0.34338 0.88369
vt 0.34338 0.83460
vt 0.31226 0.83460
vt 0.31226 0.90676
vt 0.34338 0.90676
vt 0.34338 0.88369
vt 0.31226 0.88369
vt 0.31226 0.93555
vt 0.34338 0.93555
vt 0.34338 0.90676
vt 0.31226 0.90676
vt 0.34338 0.01436
vt 0.37451 0.01436
vt 0.37451 0.00195
vt 0.34338 0.00195
vt 0.34338 0.04776
vt 0.37451 0.04776
vt 0.37451 0.01436
vt 0.34338 0.01436
vt 0.34338 0.09818
vt 0.37451 0.09818
vt 0.37451 0.04776
vt 0.34338 0.04776
vt 0.34338 0.16583
vt 0.37451 0.16583
vt 0.37451 0.09818
vt 0.34338 0.09818
vt 0.34338 0.23272
vt 0.37451 0.23272
vt 0.37451 0.16583
vt 0.34338 0.16583
vt 0.34338 0.74825
vt 0.37451 0.74825
vt 0.37451 0.23272
vt 0.34338 0.23272
vt 0.34338 0.83460
vt 0.37451 0.83460
vt 0.37451 0.74825
vt 0.34338 0.74825
vt 0.34338 0.88369
vt 0.37451 0.88369
vt 0.37451 0.83460
vt 0.34338 0.83460
vt 0.34338 0.90676
vt 0.37451 0.90676
vt 0.37451 0.88369
vt 0.34338 0.88369
vt 0.34338 0.93555
vt 0.37451 0.93555
vt 0.37451 0.90676
vt 0.34338 0.90676
vt 0.37451 0.01436
vt 0.40564 0.01436
vt 0.40564 0.00195
vt 0.37451 0.00195
vt 0.37451 0.04776
vt 0.40564 0.04776
vt 0.40564 0.01436
vt 0.37451 0.01436
vt 0.37451 0.09818
vt 0.40564 0.09818
vt 0.40564 0.04776
vt 0.37451 0.04776
vt 0.37451 0.16583
vt 0.40564 0.16583
vt 0.40564 0.09818
vt 0.37451 0.09818
vt 0.37451 0.23272
vt 0.40564 0.23272
vt 0.40564 0.16583
vt 0.37451 0.16583
vt 0.37451 0.74825
vt 0.40564 0.74825
vt 0.40564 0.23272
vt 0.37451 0.23272
vt 0.37451 0.83460
vt 0.40564 0.83460
vt 0.40564 0.74825
vt 0.37451 0.74825
vt 0.37451 0.88369
vt 0.40564 0.88369
vt 0.40564 0.83460
vt 0.37451 0.83460
vt 0.37451 0.90676
vt 0.40564 0.90676
vt 0.40564 0.88369
vt 0.37451 0.88369
vt 0.37451 0.93555
vt 0.40564 0.93555
vt 0.40564 0.90676
vt 0.37451 0.90676
vt 0.40564 0.01436
vt 0.43677 0.01436
vt 0.43677 0.00195
vt 0.40564 0.00195
vt 0.40564 0.04776
vt 0.43677 0.04776
vt 0.43677 0.01436
vt 0.40564 0.01436
vt 0.40564 0.09818
vt 0.43677 0.09818
vt 0.43677 0.04776
vt 0.40564 0.04776
vt 0.40564 0.16583
vt 0.43677 0.16583
vt 0.43677 0.09818
vt 0.40564 0.09818
vt 0.40564 0.23272
vt 0.43677 0.23272
vt 0.43677 0.16583
vt 0.40564 0.16583
vt 0.40564 0.74825
vt 0.43677 0.74825
vt 0.43677 0.23272
vt 0.40564 0.23272
vt 0.40564 0.83460
vt 0.43677 0.83460
vt 0.43677 0.74825
vt 0.40564 0.74825
vt 0.40564 0.88369
vt 0.43677 0.88369
vt 0.43677 0.83460
vt 0.40564 0.83460
vt 0.40564 0.90676
vt 0.43677 0.90676
vt 0.43677 0.88369
vt 0.40564 0.88369
vt 0.40564 0.93555
vt 0.43677 0.93555
vt 0.43677 0.90676
vt 0.40564 0.90676
vt 0.43677 0.01436
vt 0.46790 0.01436
vt 0.46790 0.00195
vt 0.43677 0.00195
vt 0.43677 0.04776
vt 0.46790 0.04776
vt 0.46790 0.01436
vt 0.43677 0.01436
vt 0.43677 0.09818
vt 0.46790 0.09818
vt 0.46790 0.04776
vt 0.43677 0.04776
vt 0.43677 0.16583
vt 0.46790 0.16583
vt 0.46790 0.09818
vt 0.43677 0.09818
vt 0.43677 0.23272
vt 0.46790 0.23272
vt 0.46790 0.16583
vt 0.43677 0.16583
vt 0.43677 0.74825
vt 0.46790 0.74825
vt 0.46790 0.23272
vt 0.43677 0.23272
vt 0.43677 0.83460
vt 0.46790 0.83460
vt 0.46790 0.74825
vt 0.43677 0.74825
vt 0.43677 0.88369
vt 0.46790 0.88369
vt 0.46790 0.83460
vt 0.43677 0.83460
vt 0.43677 0.90676
vt 0.46790 0.90676
vt 0.46790 0.88369
vt 0.43677 0.88369
vt 0.43677 0.93555
vt 0.46790 0.93555
vt 0.46790 0.90676
vt 0.43677 0.90676
vt 0.46790 0.01436
vt 0.49902 0.01436
vt 0.49902 0.00195
vt 0.46790 0.00195
vt 0.46790 0.04776
vt 0.49902 0.04776
vt 0.49902 0.01436
vt 0.46790 0.01436
vt 0.46790 0.09818
vt 0.49902 0.09818
vt 0.49902 0.04776
vt 0.46790 0.04776
vt 0.46790 0.16583
vt 0.49902 0.16583
vt 0.49902 0.09818
vt 0.46790 0.09818
vt 0.46790 0.23272
vt 0.49902 0.23272
vt 0.49902 0.16583
vt 0.46790 0.16583
vt 0.46790 0.74825
vt 0.49902 0.74825
vt 0.49902 0.23272
vt 0.46790 0.23272
vt 0.46790 0.83460
vt 0.49902 0.83460
vt 0.49902 0.74825
vt 0.46790 0.74825
vt 0.46790 0.88369
vt 0.49902 0.88369
vt 0.49902 0.83460
vt 0.46790 0.83460
vt 0.46790 0.90676
vt 0.49902 0.90676
vt 0.49902 0.88369
vt 0.46790 0.88369
vt 0.46790 0.93555
vt 0.49902 0.93555
vt 0.49902 0.90676
vt 0.46790 0.90676
vt 0.50488 0.00195
vt 0.69043 0.00195
vt 0.69043 0.12500
vt 0.50488 0.12500
vt 0.50488 0.24805
vt 0.69043 0.24805
vt 0.69043 0.12500
vt 0.50488 0.12500
vt 0.69629 0.37305
vt 0.88184 0.37305
vt 0.88184 0.00195
vt 0.69629 0.00195
vt 0.69629 0.00195
vt 0.88184 0.00195
vt 0.88184 0.37305
vt 0.69629 0.37305
vt 0.50488 0.24805
vt 0.69043 0.24805
vt 0.69043 0.00195
vt 0.50488 0.00195
vt 0.50488 0.00195
vt 0.69043 0.00195
vt 0.69043 0.24805
vt 0.50488 0.24805
vt 0.50488 0.00195
vt 0.69043 0.00195
vt 0.69043 0.24805
vt 0.50488 0.24805
vt 0.50488 0.24805
vt 0.69043 0.24805
vt 0.69043 0.00195
vt 0.50488 0.00195
vt 0.50488 0.00195
vt 0.69043 0.00195
vt 0.69043 0.24805
vt 0.50488 0.24805
vt 0.50488 0.24805
vt 0.69043 0.24805
vt 0.69043 0.00195
vt 0.50488 0.00195
vt 0.50488 0.00195
vt 0.69043 0.00195
vt 0.69043 0.12500
vt 0.50488 0.12500
vt 0.50488 0.24805
vt 0.69043 0.24805
vt 0.69043 0.12500
vt 0.50488 0.12500
vt 0.69629 0.37305
vt 0.88184 0.37305
vt 0.88184 0.00195
vt 0.69629 0.00195
vt 0.69629 0.00195
vt 0.88184 0.00195
vt 0.88184 0.37305
vt 0.69629 0.37305
vt 0.50488 0.24805
vt 0.69043 0.24805
vt 0.69043 0.00195
vt 0.50488 0.00195
vt 0.50488 0.00195
vt 0.69043 0.00195
vt 0.69043 0.24805
vt 0.50488 0.24805
vt 0.50488 0.00195
vt 0.69043 0.00195
vt 0.69043 0.24805
vt 0.50488 0.24805
vt 0.50488 0.24805
vt 0.69043 0.24805
vt 0.69043 0.00195
vt 0.50488 0.00195
vt 0.50488 0.00195
vt 0.69043 0.00195
vt 0.69043 0.24805
vt 0.50488 0.24805
vt 0.50488 0.24805
vt 0.69043 0.24805
vt 0.69043 0.00195
vt 0.50488 0.00195
vt 0.50488 0.00195
vt 0.69043 0.00195
vt 0.69043 0.12500
vt 0.50488 0.12500
vt 0.50488 0.24805
vt 0.69043 0.24805
vt 0.69043 0.12500
vt 0.50488 0.12500
vt 0.69629 0.37305
vt 0.88184 0.37305
vt 0.88184 0.00195
vt 0.69629 0.00195
vt 0.69629 0.00195
vt 0.88184 0.00195
vt 0.88184 0.37305
vt 0.69629 0.37305
vt 0.50488 0.24805
vt 0.69043 0.24805
vt 0.69043 0.00195
vt 0.50488 0.00195
vt 0.50488 0.00195
vt 0.69043 0.00195
vt 0.69043 0.24805
vt 0.50488 0.24805
vt 0.50488 0.00195
vt 0.69043 0.00195
vt 0.69043 0.24805
vt 0.50488 0.24805
vt 0.50488 0.24805
vt 0.69043 0.24805
vt 0.69043 0.00195
vt 0.50488 0.00195
vt 0.50488 0.00195
vt 0.69043 0.00195
vt 0.69043 0.24805
vt 0.50488 0.24805
vt 0.50488 0.24805
vt 0.69043 0.24805
vt 0.69043 0.00195
vt 0.50488 0.00195
vt 0.50488 0.00195
vt 0.69043 0.00195
vt 0.69043 0.12500
vt 0.50488 0.12500
vt 0.50488 0.24805
vt 0.69043 0.24805
vt 0.69043 0.12500
vt 0.50488 0.12500
vt 0.69629 0.37305
vt 0.88184 0.37305
vt 0.88184 0.00195
vt 0.69629 0.00195
vt 0.69629 0.00195
vt 0.88184 0.00195
vt 0.88184 0.37305
vt 0.69629 0.37305
vt 0.50488 0.24805
vt 0.69043 0.24805
vt 0.69043 0.00195
vt 0.50488 0.00195
vt 0.50488 0.00195
vt 0.69043 0.00195
vt 0.69043 0.24805
vt 0.50488 0.24805
vt 0.50488 0.00195
vt 0.69043 0.00195
vt 0.69043 0.24805
vt 0.50488 0.24805
vt 0.50488 0.24805
vt 0.69043 0.24805
vt 0.69043 0.00195
vt 0.50488 0.00195
vt 0.50488 0.00195
vt 0.69043 0.00195
vt 0.69043 0.24805
vt 0.50488 0.24805
vt 0.50488 0.24805
vt 0.69043 0.24805
vt 0.69043 0.00195
vt 0.50488 0.00195
vn 0.0746 -0.7571 0.6490
vn 0.2906 -0.7015 0.6508
vn 0.0000 0.0000 1.0000
vn 0.0000 0.0000 1.0000
vn 0.0899 -0.9125 0.3992
vn 0.3506 -0.8464 0.4008
vn 0.2906 -0.7015 0.6508
vn 0.0746 -0.7571 0.6490
vn 0.0955 -0.9694 0.2262
vn 0.3727 -0.8997 0.2272
vn 0.3506 -0.8464 0.4008
vn 0.0899 -0.9125 0.3992
vn 0.0975 -0.9903 0.0990
vn 0.3808 -0.9193 0.0995
vn 0.3727 -0.8997 0.2272
vn 0.0955 -0.9694 0.2262
vn 0.0980 -0.9952 0.0049
vn 0.3827 -0.9239 0.0049
vn 0.3808 -0.9193 0.0995
vn 0.0975 -0.9903 0.0990
vn 0.0980 -0.9951 -0.0142
vn 0.3826 -0.9238 -0.0143
vn 0.3827 -0.9239 0.0049
vn 0.0980 -0.9952 0.0049
vn 0.0969 -0.9843 -0.1476
vn 0.3784 -0.9137 -0.1483
vn 0.3826 -0.9238 -0.0143
vn 0.0980 -0.9951 -0.0142
vn 0.0938 -0.9521 -0.2909
vn 0.3660 -0.8836 -0.2922
vn 0.3784 -0.9137 -0.1483
vn 0.0969 -0.9843 -0.1476
vn 0.0521 -0.5293 -0.8468
vn 0.2028 -0.4897 -0.8480
vn 0.3660 -0.8836 -0.2922
vn 0.0938 -0.9521 -0.2909
vn 0.0000 0.0000 -1.0000
vn 0.0000 0.0000 -1.0000
vn 0.2028 -0.4897 -0.8480
vn 0.0521 -0.5293 -0.8468
vn 0.2906 -0.7015 0.6508
vn 0.5369 -0.5369 0.6508
vn 0.0000 0.0000 1.0000
vn 0.0000 0.0000 1.0000
vn 0.3506 -0.8464 0.4008
vn 0.6478 -0.6478 0.4008
vn 0.5369 -0.5369 0.6508
vn 0.2906 -0.7015 0.6508
vn 0.3727 -0.8997 0.2272
vn 0.6886 -0.6886 0.2272
vn 0.6478 -0.6478 0.4008
vn 0.3506 -0.8464 0.4008
vn 0.3808 -0.9193 0.0995
vn 0.7036 -0.7036 0.0995
vn 0.6886 -0.6886 0.2272
vn 0.3727 -0.8997 0.2272
vn 0.3827 -0.9239 0.0049
vn 0.7071 -0.7071 0.0049
vn 0.7036 -0.7036 0.0995
vn 0.3808 -0.9193 0.0995
vn 0.3826 -0.9238 -0.0143
vn 0.7070 -0.7070 -0.0143
vn 0.7071 -0.7071 0.0049
vn 0.3827 -0.9239 0.0049
vn 0.3784 -0.9137 -0.1483
vn 0.6993 -0.6993 -0.1483
vn 0.7070 -0.7070 -0.0143
vn 0.3826 -0.9238 -0.0143
vn 0.3660 -0.8836 -0.2922
vn 0.6762 -0.6762 -0.2922
vn 0.6993 -0.6993 -0.1483
vn 0.3784 -0.9137 -0.1483
vn 0.2028 -0.4897 -0.8480
vn 0.3748 -0.3748 -0.8480
vn 0.6762 -0.6762 -0.2922
vn 0.3660 -0.8836 -0.2922
vn 0.0000 0.0000 -1.0000
vn 0.0000 0.0000 -1.0000
vn 0.3748 -0.3748 -0.8480
vn 0.2028 -0.4897 -0.8480
vn 0.5369 -0.5369 0.6508
vn 0.7015 -0.2906 0.6508
vn 0.0000 0.0000 1.0000
vn 0.0000 0.0000 1.0000
vn 0.6478 -0.6478 0.4008
vn 0.8464 -0.3506 0.4008
vn 0.7015 -0.2906 0.6508
vn 0.5369 -0.5369 0.6508
vn 0.6886 -0.6886 0.2272
vn 0.8997 -0.3727 0.2272
vn 0.8464 -0.3506 0.4008
vn 0.6478 -0.6478 0.4008
vn 0.7036 -0.7036 0.0995
vn 0.9193 -0.3808 0.0995
vn 0.8997 -0.3727 0.2272
vn 0.6886 -0.6886 0.2272
vn 0.7071 -0.7071 0.0049
vn 0.9239 -0.3827 0.0049
vn 0.9193 -0.3808 0.0995
vn 0.7036 -0.7036 0.0995
vn 0.7070 -0.7070 -0.0143
vn 0.9238 -0.3826 -0.0143
vn 0.9239 -0.3827 0.0049
vn 0.7071 -0.7071 0.0049
vn 0.6993 -0.6993 -0.1483
vn 0.9137 -0.3784 -0.1483
vn 0.9238 -0.3826 -0.0143
vn 0.7070 -0.7070 -0.0143
vn 0.6762 -0.6762 -0.2922
vn 0.8836 -0.3660 -0.2922
vn 0.9137 -0.3784 -0.1483
vn 0.6993 -0.6993 -0.1483
vn 0.3748 -0.3748 -0.8480
vn 0.4897 -0.2028 -0.8480
vn 0.8836 -0.3660 -0.2922
vn 0.6762 -0.6762 -0.2922
vn 0.0000 0.0000 -1.0000
vn 0.0000 0.0000 -1.0000
vn 0.4897 -0.2028 -0.8480
vn 0.3748 -0.3748 -0.8480
vn 0.7015 -0.2906 0.6508
vn 0.7593 -0.0000 0.6508
vn 0.0000 0.0000 1.0000
vn 0.0000 0.0000 1.0000
vn 0.8464 -0.3506 0.4008
vn 0.9162 -0.0000 0.4008
vn 0.7593 -0.0000 0.6508
vn 0.7015 -0.2906 0.6508
vn 0.8997 -0.3727 0.2272
vn 0.9738 -0.0000 0.2272
vn 0.9162 -0.0000 0.4008
vn 0.8464 -0.3506 0.4008
vn 0.9193 -0.3808 0.0995
vn 0.9950 -0.0000 0.0995
vn 0.9738 -0.0000 0.2272
vn 0.8997 -0.3727 0.2272
vn 0.9239 -0.3827 0.0049
vn 1.0000 -0.0000 0.0049
vn 0.9950 -0.0000 0.0995
vn 0.9193 -0.3808 0.0995
vn 0.9238 -0.3826 -0.0143
vn 0.9999 -0.0000 -0.0143
vn 1.0000 -0.0000 0.0049
vn 0.9239 -0.3827 0.0049
vn 0.9137 -0.3784 -0.1483
vn 0.9889 -0.0000 -0.1483
vn 0.9999 -0.0000 -0.0143
vn 0.9238 -0.3826 -0.0143
vn 0.8836 -0.3660 -0.2922
vn 0.9564 -0.0000 -0.2922
vn 0.9889 -0.0000 -0.1483
vn 0.9137 -0.3784 -0.1483
vn 0.4897 -0.2028 -0.8480
vn 0.5300 -0.0000 -0.8480
vn 0.9564 -0.0000 -0.2922
vn 0.8836 -0.3660 -0.2922
vn 0.0000 0.0000 -1.0000
vn 0.0000 0.0000 -1.0000
vn 0.5300 -0.0000 -0.8480
vn 0.4897 -0.2028 -0.8480
vn 0.7593 -0.0000 0.6508
vn 0.7015 0.2906 0.6508
vn 0.0000 0.0000 1.0000
vn 0.0000 0.0000 1.0000
vn 0.9162 -0.0000 0.4008
vn 0.8464 0.3506 0.4008
vn 0.7015 0.2906 0.6508
vn 0.7593 -0.0000 0.6508
vn 0.9738 -0.0000 0.2272
vn 0.8997 0.3727 0.2272
vn 0.8464 0.3506 0.4008
vn 0.9162 -0.0000 0.4008
vn 0.9950 -0.0000 0.0995
vn 0.9193 0.3808 0.0995
vn 0.8997 0.3727 0.2272
vn 0.9738 -0.0000 0.2272
vn 1.0000 -0.0000 0.0049
vn 0.9239 0.3827 0.0049
vn 0.9193 0.3808 0.0995
vn 0.9950 -0.0000 0.0995
vn 0.9999 -0.0000 -0.0143
vn 0.9238 0.3826 -0.0143
vn 0.9239 0.3827 0.0049
vn 1.0000 -0.0000 0.0049
vn 0.9889 -0.0000 -0.1483
vn 0.9137 0.3784 -0.1483
vn 0.9238 0.3826 -0.0143
vn 0.9999 -0.0000 -0.0143
vn 0.9564 -0.0000 -0.2922
vn 0.8836 0.3660 -0.2922
vn 0.9137 0.3784 -0.1483
vn 0.9889 -0.0000 -0.1483
vn 0.5300 -0.0000 -0.8480
vn 0.4897 0.2028 -0.8480
vn 0.8836 0.3660 -0.2922
vn 0.9564 -0.0000 -0.2922
vn 0.0000 0.0000 -1.0000
vn 0.0000 0.0000 -1.0000
vn 0.4897 0.2028 -0.8480
vn 0.5300 -0.0000 -0.8480
vn 0.7015 0.2906 0.6508
vn 0.5369 0.5369 0.6508
vn 0.0000 0.0000 1.0000
vn 0.0000 0.0000 1.0000
vn 0.8464 0.3506 0.4008
vn 0.6478 0.6478 0.4008
vn 0.5369 0.5369 0.6508
vn 0.7015 0.2906 0.6508
vn 0.8997 0.3727 0.2272
vn 0.6886 0.6886 0.2272
vn 0.6478 0.6478 0.4008
vn 0.8464 0.3506 0.4008
vn 0.9193 0.3808 0.0995
vn 0.7036 0.7036 0.0995
vn 0.6886 0.6886 0.2272
vn 0.8997 0.3727 0.2272
vn 0.9239 0.3827 0.0049
vn 0.7071 0.7071 0.0049
vn 0.7036 0.7036 0.0995
vn 0.9193 0.3808 0.0995
vn 0.9238 0.3826 -0.0143
vn 0.7070 0.7070 -0.0143
vn 0.7071 0.7071 0.0049
vn 0.9239 0.3827 0.0049
vn 0.9137 0.3784 -0.1483
vn 0.6993 0.6993 -0.1483
vn 0.7070 0.7070 -0.0143
vn 0.9238 0.3826 -0.0143
vn 0.8836 0.3660 -0.2922
vn 0.6762 0.6762 -0.2922
vn 0.6993 0.6993 -0.1483
vn 0.9137 0.3784 -0.1483
vn 0.4897 0.2028 -0.8480
vn 0.3748 0.3748 -0.8480
vn 0.6762 0.6762 -0.2922
vn 0.8836 0.3660 -0.2922
vn 0.0000 0.0000 -1.0000
vn 0.0000 0.0000 -1.0000
vn 0.3748 0.3748 -0.8480
vn 0.4897 0.2028 -0.8480
vn 0.5369 0.5369 0.6508
vn 0.2906 0.7015 0.6508
vn 0.0000 0.0000 1.0000
vn 0.0000 0.0000 1.0000
vn 0.6478 0.6478 0.4008
vn 0.3506 0.8464 0.4008
vn 0.2906 0.7015 0.6508
vn 0.5369 0.5369 0.6508
vn 0.6886 0.6886 0.2272
vn 0.3727 0.8997 0.2272
vn 0.3506 0.8464 0.4008
vn 0.6478 0.6478 0.4008
vn 0.7036 0.7036 0.0995
vn 0.3808 0.9193 0.0995
vn 0.3727 0.8997 0.2272
vn 0.6886 0.6886 0.2272
vn 0.7071 0.7071 0.0049
vn 0.3827 0.9239 0.0049
vn 0.3808 0.9193 0.0995
vn 0.7036 0.7036 0.0995
vn 0.7070 0.7070 -0.0143
vn 0.3826 0.9238 -0.0143
vn 0.3827 0.9239 0.0049
vn 0.7071 0.7071 0.0049
vn 0.6993 0.6993 -0.1483
vn 0.3784 0.9137 -0.1483
vn 0.3826 0.9238 -0.0143
vn 0.7070 0.7070 -0.0143
vn 0.6762 0.6762 -0.2922
vn 0.3660 0.8836 -0.2922
vn 0.3784 0.9137 -0.1483
vn 0.6993 0.6993 -0.1483
vn 0.3748 0.3748 -0.8480
vn 0.2028 0.4897 -0.8480
vn 0.3660 0.8836 -0.2922
vn 0.6762 0.6762 -0.2922
vn 0.0000 0.0000 -1.0000
vn 0.0000 0.0000 -1.0000
vn 0.2028 0.4897 -0.8480
vn 0.3748 0.3748 -0.8480
vn 0.2906 0.7015 0.6508
vn 0.0000 0.7593 0.6508
vn 0.0000 0.0000 1.0000
vn 0.0000 0.0000 1.0000
vn 0.3506 0.8464 0.4008
vn 0.0000 0.9162 0.4008
vn 0.0000 0.7593 0.6508
vn 0.2906 0.7015 0.6508
vn 0.3727 0.8997 0.2272
vn 0.0000 0.9738 0.2272
vn 0.0000 0.9162 0.4008
vn 0.3506 0.8464 0.4008
vn 0.3808 0.9193 0.0995
vn 0.0000 0.9950 0.0995
vn 0.0000 0.9738 0.2272
vn 0.3727 0.8997 0.2272
vn 0.3827 0.9239 0.0049
vn 0.0000 1.0000 0.0049
vn 0.0000 0.9950 0.0995
vn 0.3808 0.9193 0.0995
vn 0.3826 0.9238 -0.0143
vn -0.0000 0.9999 -0.0143
vn 0.0000 1.0000 0.0049
vn 0.3827 0.9239 0.0049
vn 0.3784 0.9137 -0.1483
vn -0.0000 0.9889 -0.1483
vn -0.0000 0.9999 -0.0143
vn 0.3826 0.9238 -0.0143
vn 0.3660 0.8836 -0.2922
vn -0.0000 0.9564 -0.2922
vn -0.0000 0.9889 -0.1483
vn 0.3784 0.9137 -0.1483
vn 0.2028 0.4897 -0.8480
vn -0.0000 0.5300 -0.8480
vn -0.0000 0.9564 -0.2922
vn 0.3660 0.8836 -0.2922
vn 0.0000 0.0000 -1.0000
vn 0.0000 0.0000 -1.0000
vn -0.0000 0.5300 -0.8480
vn 0.2028 0.4897 -0.8480
vn 0.0000 0.7593 0.6508
vn -0.2906 0.7015 0.6508
vn 0.0000 0.0000 1.0000
vn 0.0000 0.0000 1.0000
vn 0.0000 0.9162 0.4008
vn -0.3506 0.8464 0.4008
vn -0.2906 0.7015 0.6508
vn 0.0000 0.7593 0.6508
vn 0.0000 0.9738 0.2272
vn -0.3727 0.8997 0.2272
vn -0.3506 0.8464 0.4008
vn 0.0000 0.9162 0.4008
vn 0.0000 0.9950 0.0995
vn -0.3808 0.9193 0.0995
vn -0.3727 0.8997 0.2272
vn 0.0000 0.9738 0.2272
vn 0.0000 1.0000 0.0049
vn -0.3827 0.9239 0.0049
vn -0.3808 0.9193 0.0995
vn 0.0000 0.9950 0.0995
vn -0.0000 0.9999 -0.0143
vn -0.3826 0.9238 -0.0143
vn -0.3827 0.9239 0.0049
vn 0.0000 1.0000 0.0049
vn -0.0000 0.9889 -0.1483
vn -0.3784 0.9137 -0.1483
vn -0.3826 0.9238 -0.0143
vn -0.0000 0.9999 -0.0143
vn -0.0000 0.9564 -0.2922
vn -0.3660 0.8836 -0.2922
vn -0.3784 0.9137 -0.1483
vn -0.0000 0.9889 -0.1483
vn -0.0000 0.5300 -0.8480
vn -0.2028 0.4897 -0.8480
vn -0.3660 0.8836 -0.2922
vn -0.0000 0.9564 -0.2922
vn 0.0000 0.0000 -1.0000
vn 0.0000 0.0000 -1.0000
vn -0.2028 0.4897 -0.8480
vn -0.0000 0.5300 -0.8480
vn -0.2906 0.7015 0.6508
vn -0.5369 0.5369 0.6508
vn 0.0000 0.0000 1.0000
vn 0.0000 0.0000 1.0000
vn -0.3506 0.8464 0.4008
vn -0.6478 0.6478 0.4008
vn -0.5369 0.5369 0.6508
vn -0.2906 0.7015 0.6508
vn -0.3727 0.8997 0.2272
vn -0.6886 0.6886 0.2272
vn -0.6478 0.6478 0.4008
vn -0.3506 0.8464 0.4008
vn -0.3808 0.9193 0.0995
vn -0.7036 0.7036 0.0995
vn -0.6886 0.6886 0.2272
vn -0.3727 0.8997 0.2272
vn -0.3827 0.9239 0.0049
vn -0.7071 0.7071 0.0049
vn -0.7036 0.7036 0.0995
vn -0.3808 0.9193 0.0995
vn -0.3826 0.9238 -0.0143
vn -0.7070 0.7070 -0.0143
vn -0.7071 0.7071 0.0049
vn -0.3827 0.9239 0.0049
vn -0.3784 0.9137 -0.1483
vn -0.6993 0.6993 -0.1483
vn -0.7070 0.7070 -0.0143
vn -0.3826 0.9238 -0.0143
vn -0.3660 0.8836 -0.2922
vn -0.6762 0.6762 -0.2922
vn -0.6993 0.6993 -0.1483
vn -0.3784 0.9137 -0.1483
vn -0.2028 0.4897 -0.8480
vn -0.3748 0.3748 -0.8480
vn -0.6762 0.6762 -0.2922
vn -0.3660 0.8836 -0.2922
vn 0.0000 0.0000 -1.0000
vn 0.0000 0.0000 -1.0000
vn -0.3748 0.3748 -0.8480
vn -0.2028 0.4897 -0.8480
vn -0.5369 0.5369 0.6508
vn -0.7015 0.2906 0.6508
vn 0.0000 0.0000 1.0000
vn 0.0000 0.0000 1.0000
vn -0.6478 0.6478 0.4008
vn -0.8464 0.3506 0.4008
vn -0.7015 0.2906 0.6508
vn -0.5369 0.5369 0.6508
vn -0.6886 0.6886 0.2272
vn -0.8997 0.3727 0.2272
vn -0.8464 0.3506 0.4008
vn -0.6478 0.6478 0.4008
vn -0.7036 0.7036 0.0995
vn -0.9193 0.3808 0.0995
vn -0.8997 0.3727 0.2272
vn -0.6886 0.6886 0.2272
vn -0.7071 0.7071 0.0049
vn -0.9239 0.3827 0.0049
vn -0.9193 0.3808 0.0995
vn -0.7036 0.7036 0.0995
vn -0.7070 0.7070 -0.0143
vn -0.9238 0.3826 -0.0143
vn -0.9239 0.3827 0.0049
vn -0.7071 0.7071 0.0049
vn -0.6993 0.6993 -0.1483
vn -0.9137 0.3784 -0.1483
vn -0.9238 0.3826 -0.0143
vn -0.7070 0.7070 -0.0143
vn -0.6762 0.6762 -0.2922
vn -0.8836 0.3660 -0.2922
vn -0.9137 0.3784 -0.1483
vn -0.6993 0.6993 -0.1483
vn -0.3748 0.3748 -0.8480
vn -0.4897 0.2028 -0.8480
vn -0.8836 0.3660 -0.2922
vn -0.6762 0.6762 -0.2922
vn 0.0000 0.0000 -1.0000
vn 0.0000 0.0000 -1.0000
vn -0.4897 0.2028 -0.8480
vn -0.3748 0.3748 -0.8480
vn -0.7015 0.2906 0.6508
vn -0.7593 -0.0000 0.6508
vn 0.0000 0.0000 1.0000
vn 0.0000 0.0000 1.0000
vn -0.8464 0.3506 0.4008
vn -0.9162 -0.0000 0.4008
vn -0.7593 -0.0000 0.6508
vn -0.7015 0.2906 0.6508
vn -0.8997 0.3727 0.2272
vn -0.9738 -0.0000 0.2272
vn -0.9162 -0.0000 0.4008
vn -0.8464 0.3506 0.4008
vn -0.9193 0.3808 0.0995
vn -0.9950 -0.0000 0.0995
vn -0.9738 -0.0000 0.2272
vn -0.8997 0.3727 0.2272
vn -0.9239 0.3827 0.0049
vn -1.0000 -0.0000 0.0049
vn -0.9950 -0.0000 0.0995
vn -0.9193 0.3808 0.0995
vn -0.9238 0.3826 -0.0143
vn -0.9999 -0.0000 -0.0143
vn -1.0000 -0.0000 0.0049
vn -0.9239 0.3827 0.0049
vn -0.9137 0.3784 -0.1483
vn -0.9889 -0.0000 -0.1483
vn -0.9999 -0.0000 -0.0143
vn -0.9238 0.3826 -0.0143
vn -0.8836 0.3660 -0.2922
vn -0.9564 -0.0000 -0.2922
vn -0.9889 -0.0000 -0.1483
vn -0.9137 0.3784 -0.1483
vn -0.4897 0.2028 -0.8480
vn -0.5300 -0.0000 -0.8480
vn -0.9564 -0.0000 -0.2922
vn -0.8836 0.3660 -0.2922
vn 0.0000 0.0000 -1.0000
vn 0.0000 0.0000 -1.0000
vn -0.5300 -0.0000 -0.8480
vn -0.4897 0.2028 -0.8480
vn -0.7593 -0.0000 0.6508
vn -0.7015 -0.2906 0.6508
vn 0.0000 0.0000 1.0000
vn 0.0000 0.0000 1.0000
vn -0.9162 -0.0000 0.4008
vn -0.8464 -0.3506 0.4008
vn -0.7015 -0.2906 0.6508
vn -0.7593 -0.0000 0.6508
vn -0.9738 -0.0000 0.2272
vn -0.8997 -0.3727 0.2272
vn -0.8464 -0.3506 0.4008
vn -0.9162 -0.0000 0.4008
vn -0.9950 -0.0000 0.0995
vn -0.9193 -0.3808 0.0995
vn -0.8997 -0.3727 0.2272
vn -0.9738 -0.0000 0.2272
vn -1.0000 -0.0000 0.0049
vn -0.9239 -0.3827 0.0049
vn -0.9193 -0.3808 0.0995
vn -0.9950 -0.0000 0.0995
vn -0.9999 -0.0000 -0.0143
vn -0.9238 -0.3826 -0.0143
vn -0.9239 -0.3827 0.0049
vn -1.0000 -0.0000 0.0049
vn -0.9889 -0.0000 -0.1483
vn -0.9137 -0.3784 -0.1483
vn -0.9238 -0.3826 -0.0143
vn -0.9999 -0.0000 -0.0143
vn -0.9564 -0.0000 -0.2922
vn -0.8836 -0.3660 -0.2922
vn -0.9137 -0.3784 -0.1483
vn -0.9889 -0.0000 -0.1483
vn -0.5300 -0.0000 -0.8480
vn -0.4897 -0.2028 -0.8480
vn -0.8836 -0.3660 -0.2922
vn -0.9564 -0.0000 -0.2922
vn 0.0000 0.0000 -1.0000
vn 0.0000 0.0000 -1.0000
vn -0.4897 -0.2028 -0.8480
vn -0.5300 -0.0000 -0.8480
vn -0.7015 -0.2906 0.6508
vn -0.5369 -0.5369 0.6508
vn 0.0000 0.0000 1.0000
vn 0.0000 0.0000 1.0000
vn -0.8464 -0.3506 0.4008
vn -0.6478 -0.6478 0.4008
vn -0.5369 -0.5369 0.6508
vn -0.7015 -0.2906 0.6508
vn -0.8997 -0.3727 0.2272
vn -0.6886 -0.6886 0.2272
vn -0.6478 -0.6478 0.4008
vn -0.8464 -0.3506 0.4008
vn -0.9193 -0.3808 0.0995
vn -0.7036 -0.7036 0.0995
vn -0.6886 -0.6886 0.2272
vn -0.8997 -0.3727 0.2272
vn -0.9239 -0.3827 0.0049
vn -0.7071 -0.7071 0.0049
vn -0.7036 -0.7036 0.0995
vn -0.9193 -0.3808 0.0995
vn -0.9238 -0.3826 -0.0143
vn -0.7070 -0.7070 -0.0143
vn -0.7071 -0.7071 0.0049
vn -0.9239 -0.3827 0.0049
vn -0.9137 -0.3784 -0.1483
vn -0.6993 -0.6993 -0.1483
vn -0.7070 -0.7070 -0.0143
vn -0.9238 -0.3826 -0.0143
vn -0.8836 -0.3660 -0.2922
vn -0.6762 -0.6762 -0.2922
vn -0.6993 -0.6993 -0.1483
vn -0.9137 -0.3784 -0.1483
vn -0.4897 -0.2028 -0.8480
vn -0.3748 -0.3748 -0.8480
vn -0.6762 -0.6762 -0.2922
vn -0.8836 -0.3660 -0.2922
vn 0.0000 0.0000 -1.0000
vn 0.0000 0.0000 -1.0000
vn -0.3748 -0.3748 -0.8480
vn -0.4897 -0.2028 -0.8480
vn -0.5369 -0.5369 0.6508
vn -0.2906 -0.7015 0.6508
vn 0.0000 0.0000 1.0000
vn 0.0000 0.0000 1.0000
vn -0.6478 -0.6478 0.4008
vn -0.3506 -0.8464 0.4008
vn -0.2906 -0.7015 0.6508
vn -0.5369 -0.5369 0.6508
vn -0.6886 -0.6886 0.2272
vn -0.3727 -0.8997 0.2272
vn -0.3506 -0.8464 0.4008
vn -0.6478 -0.6478 0.4008
vn -0.7036 -0.7036 0.0995
vn -0.3808 -0.9193 0.0995
vn -0.3727 -0.8997 0.2272
vn -0.6886 -0.6886 0.2272
vn -0.7071 -0.7071 0.0049
vn -0.3827 -0.9239 0.0049
vn -0.3808 -0.9193 0.0995
vn -0.7036 -0.7036 0.0995
vn -0.7070 -0.7070 -0.0143
vn -0.3826 -0.9238 -0.0143
vn -0.3827 -0.9239 0.0049
vn -0.7071 -0.7071 0.0049
vn -0.6993 -0.6993 -0.1483
vn -0.3784 -0.9137 -0.1483
vn -0.3826 -0.9238 -0.0143
vn -0.7070 -0.7070 -0.0143
vn -0.6762 -0.6762 -0.2922
vn -0.3660 -0.8836 -0.2922
vn -0.3784 -0.9137 -0.1483
vn -0.6993 -0.6993 -0.1483
vn -0.3748 -0.3748 -0.8480
vn -0.2028 -0.4897 -0.8480
vn -0.3660 -0.8836 -0.2922
vn -0.6762 -0.6762 -0.2922
vn 0.0000 0.0000 -1.0000
vn 0.0000 0.0000 -1.0000
vn -0.2028 -0.4897 -0.8480
vn -0.3748 -0.3748 -0.8480
vn -0.2906 -0.7015 0.6508
vn -0.0746 -0.7571 0.6490
vn 0.0000 0.0000 1.0000
vn 0.0000 0.0000 1.0000
vn -0.3506 -0.8464 0.4008
vn -0.0899 -0.9125 0.3992
vn -0.0746 -0.7571 0.6490
vn -0.2906 -0.7015 0.6508
vn -0.3727 -0.8997 0.2272
vn -0.0955 -0.9694 0.2262
vn -0.0899 -0.9125 0.3992
vn -0.3506 -0.8464 0.4008
vn -0.3808 -0.9193 0.0995
vn -0.0975 -0.9903 0.0990
vn -0.0955 -0.9694 0.2262
vn -0.3727 -0.8997 0.2272
vn -0.3827 -0.9239 0.0049
vn -0.0980 -0.9952 0.0049
vn -0.0975 -0.9903 0.0990
vn -0.3808 -0.9193 0.0995
vn -0.3826 -0.9238 -0.0143
vn -0.0980 -0.9951 -0.0142
vn -0.0980 -0.9952 0.0049
vn -0.3827 -0.9239 0.0049
vn -0.3784 -0.9137 -0.1483
vn -0.0969 -0.9843 -0.1476
vn -0.0980 -0.9951 -0.0142
vn -0.3826 -0.9238 -0.0143
vn -0.3660 -0.8836 -0.2922
vn -0.0938 -0.9521 -0.2909
vn -0.0969 -0.9843 -0.1476
vn -0.3784 -0.9137 -0.1483
vn -0.2028 -0.4897 -0.8480
vn -0.0521 -0.5293 -0.8468
vn -0.0938 -0.9521 -0.2909
vn -0.3660 -0.8836 -0.2922
vn 0.0000 0.0000 -1.0000
vn 0.0000 0.0000 -1.0000
vn -0.0521 -0.5293 -0.8468
vn -0.2028 -0.4897 -0.8480
vn -0.0000 1.0000 -0.0000
vn -0.0000 1.0000 -0.0000
vn -0.0000 1.0000 -0.0000
vn -0.0000 1.0000 -0.0000
vn -0.0000 -1.0000 -0.0000
vn -0.0000 -1.0000 -0.0000
vn -0.0000 -1.0000 -0.0000
vn -0.0000 -1.0000 -0.0000
vn 0.0000 0.0000 1.0000
vn 0.0000 0.0000 1.0000
vn 0.0000 0.0000 1.0000
vn 0.0000 0.0000 1.0000
vn -0.0000 -0.0000 -1.0000
vn -0.0000 -0.0000 -1.0000
vn -0.0000 -0.0000 -1.0000
vn -0.0000 -0.0000 -1.0000
vn -0.7071 0.7071 0.0000
vn -0.7071 0.7071 0.0000
vn -0.7071 0.7071 0.0000
vn -0.7071 0.7071 0.0000
vn 0.7071 -0.7071 -0.0000
vn 0.7071 -0.7071 -0.0000
vn 0.7071 -0.7071 -0.0000
vn 0.7071 -0.7071 -0.0000
vn 0.7071 -0.7071 -0.0000
vn 0.7071 -0.7071 -0.0000
vn 0.7071 -0.7071 -0.0000
vn 0.7071 -0.7071 -0.0000
vn -0.7071 0.7071 0.0000
vn -0.7071 0.7071 0.0000
vn -0.7071 0.7071 0.0000
vn -0.7071 0.7071 0.0000
vn 0.7071 0.7071 0.0000
vn 0.7071 0.7071 0.0000
vn 0.7071 0.7071 0.0000
vn 0.7071 0.7071 0.0000
vn -0.7071 -0.7071 -0.0000
vn -0.7071 -0.7071 -0.0000
vn -0.7071 -0.7071 -0.0000
vn -0.7071 -0.7071 -0.0000
vn -1.0000 0.0000 -0.0000
vn -1.0000 0.0000 -0.0000
vn -1.0000 0.0000 -0.0000
vn -1.0000 0.0000 -0.0000
vn 1.0000 -0.0000 -0.0000
vn 1.0000 -0.0000 -0.0000
vn 1.0000 -0.0000 -0.0000
vn 1.0000 -0.0000 -0.0000
vn 0.0000 0.0000 1.0000
vn 0.0000 0.0000 1.0000
vn 0.0000 0.0000 1.0000
vn 0.0000 0.0000 1.0000
vn -0.0000 -0.0000 -1.0000
vn -0.0000 -0.0000 -1.0000
vn -0.0000 -0.0000 -1.0000
vn -0.0000 -0.0000 -1.0000
vn -0.7071 -0.7071 0.0000
vn -0.7071 -0.7071 0.0000
vn -0.7071 -0.7071 0.0000
vn -0.7071 -0.7071 0.0000
vn 0.7071 0.7071 -0.0000
vn 0.7071 0.7071 -0.0000
vn 0.7071 0.7071 -0.0000
vn 0.7071 0.7071 -0.0000
vn 0.7071 0.7071 -0.0000
vn 0.7071 0.7071 -0.0000
vn 0.7071 0.7071 -0.0000
vn 0.7071 0.7071 -0.0000
vn -0.7071 -0.7071 0.0000
vn -0.7071 -0.7071 0.0000
vn -0.7071 -0.7071 0.0000
vn -0.7071 -0.7071 0.0000
vn -0.7071 0.7071 0.0000
vn -0.7071 0.7071 0.0000
vn -0.7071 0.7071 0.0000
vn -0.7071 0.7071 0.0000
vn 0.7071 -0.7071 -0.0000
vn 0.7071 -0.7071 -0.0000
vn 0.7071 -0.7071 -0.0000
vn 0.7071 -0.7071 -0.0000
vn -0.0000 -1.0000 -0.0000
vn -0.0000 -1.0000 -0.0000
vn -0.0000 -1.0000 -0.0000
vn -0.0000 -1.0000 -0.0000
vn 0.0000 1.0000 -0.0000
vn 0.0000 1.0000 -0.0000
vn 0.0000 1.0000 -0.0000
vn 0.0000 1.0000 -0.0000
vn 0.0000 0.0000 1.0000
vn 0.0000 0.0000 1.0000
vn 0.0000 0.0000 1.0000
vn 0.0000 0.0000 1.0000
vn -0.0000 -0.0000 -1.0000
vn -0.0000 -0.0000 -1.0000
vn -0.0000 -0.0000 -1.0000
vn -0.0000 -0.0000 -1.0000
vn 0.7071 -0.7071 0.0000
vn 0.7071 -0.7071 0.0000
vn 0.7071 -0.7071 0.0000
vn 0.7071 -0.7071 0.0000
vn -0.7071 0.7071 -0.0000
vn -0.7071 0.7071 -0.0000
vn -0.7071 0.7071 -0.0000
vn -0.7071 0.7071 -0.0000
vn -0.7071 0.7071 -0.0000
vn -0.7071 0.7071 -0.0000
vn -0.7071 0.7071 -0.0000
vn -0.7071 0.7071 -0.0000
vn 0.7071 -0.7071 0.0000
vn 0.7071 -0.7071 0.0000
vn 0.7071 -0.7071 0.0000
vn 0.7071 -0.7071 0.0000
vn -0.7071 -0.7071 0.0000
vn -0.7071 -0.7071 0.0000
vn -0.7071 -0.7071 0.0000
vn -0.7071 -0.7071 0.0000
vn 0.7071 0.7071 -0.0000
vn 0.7071 0.7071 -0.0000
vn 0.7071 0.7071 -0.0000
vn 0.7071 0.7071 -0.0000
vn 1.0000 -0.0000 -0.0000
vn 1.0000 -0.0000 -0.0000
vn 1.0000 -0.0000 -0.0000
vn 1.0000 -0.0000 -0.0000
vn -1.0000 0.0000 -0.0000
vn -1.0000 0.0000 -0.0000
vn -1.0000 0.0000 -0.0000
vn -1.0000 0.0000 -0.0000
vn 0.0000 0.0000 1.0000
vn 0.0000 0.0000 1.0000
vn 0.0000 0.0000 1.0000
vn 0.0000 0.0000 1.0000
vn -0.0000 -0.0000 -1.0000
vn -0.0000 -0.0000 -1.0000
vn -0.0000 -0.0000 -1.0000
vn -0.0000 -0.0000 -1.0000
vn 0.7071 0.7071 0.0000
vn 0.7071 0.7071 0.0000
vn 0.7071 0.7071 0.0000
vn 0.7071 0.7071 0.0000
vn -0.7071 -0.7071 -0.0000
vn -0.7071 -0.7071 -0.0000
vn -0.7071 -0.7071 -0.0000
vn -0.7071 -0.7071 -0.0000
vn -0.7071 -0.7071 -0.0000
vn -0.7071 -0.7071 -0.0000
vn -0.7071 -0.7071 -0.0000
vn -0.7071 -0.7071 -0.0000
vn 0.7071 0.7071 0.0000
vn 0.7071 0.7071 0.0000
vn 0.7071 0.7071 0.0000
vn 0.7071 0.7071 0.0000
vn 0.7071 -0.7071 0.0000
vn 0.7071 -0.7071 0.0000
vn 0.7071 -0.7071 0.0000
vn 0.7071 -0.7071 0.0000
vn -0.7071 0.7071 -0.0000
vn -0.7071 0.7071 -0.0000
vn -0.7071 0.7071 -0.0000
vn -0.7071 0.7071 -0.0000
usemtl paint
f 1/1/1 2/2/2 3/3/3 4/4/4
f 5/5/5 6/6/6 7/7/7 8/8/8
f 9/9/9 10/10/10 11/11/11 12/12/12
f 13/13/13 14/14/14 15/15/15 16/16/16
f 17/17/17 18/18/18 19/19/19 20/20/20
f 21/21/21 22/22/22 23/23/23 24/24/24
f 25/25/25 26/26/26 27/27/27 28/28/28
f 29/29/29 30/30/30 31/31/31 32/32/32
f 33/33/33 34/34/34 35/35/35 36/36/36
f 37/37/37 38/38/38 39/39/39 40/40/40
f 41/41/41 42/42/42 43/43/43 44/44/44
f 45/45/45 46/46/46 47/47/47 48/48/48
f 49/49/49 50/50/50 51/51/51 52/52/52
f 53/53/53 54/54/54 55/55/55 56/56/56
f 57/57/57 58/58/58 59/59/59 60/60/60
f 61/61/61 62/62/62 63/63/63 64/64/64
f 65/65/65 66/66/66 67/67/67 68/68/68
f 69/69/69 70/70/70 71/71/71 72/72/72
f 73/73/73 74/74/74 75/75/75 76/76/76
f 77/77/77 78/78/78 79/79/79 80/80/80
f 81/81/81 82/82/82 83/83/83 84/84/84
f 85/85/85 86/86/86 87/87/87 88/88/88
f 89/89/89 90/90/90 91/91/91 92/92/92
f 93/93/93 94/94/94 95/95/95 96/96/96
f 97/97/97 98/98/98 99/99/99 100/100/100
f 101/101/101 102/102/102 103/103/103 104/104/104
f 105/105/105 106/106/106 107/107/107 108/108/108
f 109/109/109 110/110/110 111/111/111 112/112/112
f 113/113/113 114/114/114 115/115/115 116/116/116
f 117/117/117 118/118/118 119/119/119 120/120/120
f 121/121/121 122/122/122 123/123/123 124/124/124
f 125/125/125 126/126/126 127/127/127 128/128/128
f 129/129/129 130/130/130 131/131/131 132/132/132
f 133/133/133 134/134/134 135/135/135 136/136/136
f 137/137/137 138/138/138 139/139/139 140/140/140
f 141/141/141 142/142/142 143/143/143 144/144/144
f 145/145/145 146/146/146 147/147/147 148/148/148
f 149/149/149 150/150/150 151/151/151 152/152/152
f 153/153/153 154/154/154 155/155/155 156/156/156
f 157/157/157 158/158/158 159/159/159 160/160/160
f 161/161/161 162/162/162 163/163/163 164/164/164
f 165/165/165 166/166/166 167/167/167 168/168/168
f 169/169/169 170/170/170 171/171/171 172/172/172
f 173/173/173 174/174/174 175/175/175 176/176/176
f 177/177/177 178/178/178 179/179/179 180/180/180
f 181/181/181 182/182/182 183/183/183 184/184/184
f 185/185/185 186/186/186 187/187/187 188/188/188
f 189/189/189 190/190/190 191/191/191 192/192/192
f 193/193/193 194/194/194 195/195/195 196/196/196
f 197/197/197 198/198/198 199/199/199 200/200/200
f 201/201/201 202/202/202 203/203/203 204/204/204
f 205/205/205 206/206/206 207/207/207 208/208/208
f 209/209/209 210/210/210 211/211/211 212/212/212
f 213/213/213 214/214/214 215/215/215 216/216/216
f 217/217/217 218/218/218 219/219/219 220/220/220
f 221/221/221 222/222/222 223/223/223 224/224/224
f 225/225/225 226/226/226 227/227/227 228/228/228
f 229/229/229 230/230/230 231/231/231 232/232/232
f 233/233/233 234/234/234 235/235/235 236/236/236
f 237/237/237 238/238/238 239/239/239 240/240/240
f 241/241/241 242/242/242 243/243/243 244/244/244
f 245/245/245 246/246/246 247/247/247 248/248/248
f 249/249/249 250/250/250 251/251/251 252/252/252
f 253/253/253 254/254/254 255/255/255 256/256/256
f 257/257/257 258/258/258 259/259/259 260/260/260
f 261/261/261 262/262/262 263/263/263 264/264/264
f 265/265/265 266/266/266 267/267/267 268/268/268
f 269/269/269 270/270/270 271/271/271 272/272/272
f 273/273/273 274/274/274 275/275/275 276/276/276
f 277/277/277 278/278/278 279/279/279 280/280/280
f 281/281/281 282/282/282 283/283/283 284/284/284
f 285/285/285 286/286/286 287/287/287 288/288/288
f 289/289/289 290/290/290 291/291/291 292/292/292
f 293/293/293 294/294/294 295/295/295 296/296/296
f 297/297/297 298/298/298 299/299/299 300/300/300
f 301/301/301 302/302/302 303/303/303 304/304/304
f 305/305/305 306/306/306 307/307/307 308/308/308
f 309/309/309 310/310/310 311/311/311 312/312/312
f 313/313/313 314/314/314 315/315/315 316/316/316
f 317/317/317 318/318/318 319/319/319 320/320/320
f 321/321/321 322/322/322 323/323/323 324/324/324
f 325/325/325 326/326/326 327/327/327 328/328/328
f 329/329/329 330/330/330 331/331/331 332/332/332
f 333/333/333 334/334/334 335/335/335 336/336/336
f 337/337/337 338/338/338 339/339/339 340/340/340
f 341/341/341 342/342/342 343/343/343 344/344/344
f 345/345/345 346/346/346 347/347/347 348/348/348
f 349/349/349 350/350/350 351/351/351 352/352/352
f 353/353/353 354/354/354 355/355/355 356/356/356
f 357/357/357 358/358/358 359/359/359 360/360/360
f 361/361/361 362/362/362 363/363/363 364/364/364
f 365/365/365 366/366/366 367/367/367 368/368/368
f 369/369/369 370/370/370 371/371/371 372/372/372
f 373/373/373 374/374/374 375/375/375 376/376/376
f 377/377/377 378/378/378 379/379/379 380/380/380
f 381/381/381 382/382/382 383/383/383 384/384/384
f 385/385/385 386/386/386 387/387/387 388/388/388
f 389/389/389 390/390/390 391/391/391 392/392/392
f 393/393/393 394/394/394 395/395/395 396/396/396
f 397/397/397 398/398/398 399/399/399 400/400/400
f 401/401/401 402/402/402 403/403/403 404/404/404
f 405/405/405 406/406/406 407/407/407 408/408/408
f 409/409/409 410/410/410 411/411/411 412/412/412
f 413/413/413 414/414/414 415/415/415 416/416/416
f 417/417/417 418/418/418 419/419/419 420/420/420
f 421/421/421 422/422/422 423/423/423 424/424/424
f 425/425/425 426/426/426 427/427/427 428/428/428
f 429/429/429 430/430/430 431/431/431 432/432/432
f 433/433/433 434/434/434 435/435/435 436/436/436
f 437/437/437 438/438/438 439/439/439 440/440/440
f 441/441/441 442/442/442 443/443/443 444/444/444
f 445/445/445 446/446/446 447/447/447 448/448/448
f 449/449/449 450/450/450 451/451/451 452/452/452
f 453/453/453 454/454/454 455/455/455 456/456/456
f 457/457/457 458/458/458 459/459/459 460/460/460
f 461/461/461 462/462/462 463/463/463 464/464/464
f 465/465/465 466/466/466 467/467/467 468/468/468
f 469/469/469 470/470/470 471/471/471 472/472/472
f 473/473/473 474/474/474 475/475/475 476/476/476
f 477/477/477 478/478/478 479/479/479 480/480/480
f 481/481/481 482/482/482 483/483/483 484/484/484
f 485/485/485 486/486/486 487/487/487 488/488/488
f 489/489/489 490/490/490 491/491/491 492/492/492
f 493/493/493 494/494/494 495/495/495 496/496/496
f 497/497/497 498/498/498 499/499/499 500/500/500
f 501/501/501 502/502/502 503/503/503 504/504/504
f 505/505/505 506/506/506 507/507/507 508/508/508
f 509/509/509 510/510/510 511/511/511 512/512/512
f 513/513/513 514/514/514 515/515/515 516/516/516
f 517/517/517 518/518/518 519/519/519 520/520/520
f 521/521/521 522/522/522 523/523/523 524/524/524
f 525/525/525 526/526/526 527/527/527 528/528/528
f 529/529/529 530/530/530 531/531/531 532/532/532
f 533/533/533 534/534/534 535/535/535 536/536/536
f 537/537/537 538/538/538 539/539/539 540/540/540
f 541/541/541 542/542/542 543/543/543 544/544/544
f 545/545/545 546/546/546 547/547/547 548/548/548
f 549/549/549 550/550/550 551/551/551 552/552/552
f 553/553/553 554/554/554 555/555/555 556/556/556
f 557/557/557 558/558/558 559/559/559 560/560/560
f 561/561/561 562/562/562 563/563/563 564/564/564
f 565/565/565 566/566/566 567/567/567 568/568/568
f 569/569/569 570/570/570 571/571/571 572/572/572
f 573/573/573 574/574/574 575/575/575 576/576/576
f 577/577/577 578/578/578 579/579/579 580/580/580
f 581/581/581 582/582/582 583/583/583 584/584/584
f 585/585/585 586/586/586 587/587/587 588/588/588
f 589/589/589 590/590/590 591/591/591 592/592/592
f 593/593/593 594/594/594 595/595/595 596/596/596
f 597/597/597 598/598/598 599/599/599 600/600/600
f 601/601/601 602/602/602 603/603/603 604/604/604
f 605/605/605 606/606/606 607/607/607 608/608/608
f 609/609/609 610/610/610 611/611/611 612/612/612
f 613/613/613 614/614/614 615/615/615 616/616/616
f 617/617/617 618/618/618 619/619/619 620/620/620
f 621/621/621 622/622/622 623/623/623 624/624/624
f 625/625/625 626/626/626 627/627/627 628/628/628
f 629/629/629 630/630/630 631/631/631 632/632/632
f 633/633/633 634/634/634 635/635/635 636/636/636
f 637/637/637 638/638/638 639/639/639 640/640/640
f 641/641/641 642/642/642 643/643/643 644/644/644
f 645/645/645 646/646/646 647/647/647 648/648/648
f 649/649/649 650/650/650 651/651/651 652/652/652
f 653/653/653 654/654/654 655/655/655 656/656/656
f 657/657/657 658/658/658 659/659/659 660/660/660
f 661/661/661 662/662/662 663/663/663 664/664/664
f 665/665/665 666/666/666 667/667/667 668/668/668
f 669/669/669 670/670/670 671/671/671 672/672/672
f 673/673/673 674/674/674 675/675/675 676/676/676
f 677/677/677 678/678/678 679/679/679 680/680/680
f 681/681/681 682/682/682 683/683/683 684/684/684
f 685/685/685 686/686/686 687/687/687 688/688/688
f 689/689/689 690/690/690 691/691/691 692/692/692
f 693/693/693 694/694/694 695/695/695 696/696/696
f 697/697/697 698/698/698 699/699/699 700/700/700
f 701/701/701 702/702/702 703/703/703 704/704/704
f 705/705/705 706/706/706 707/707/707 708/708/708
f 709/709/709 710/710/710 711/711/711 712/712/712
f 713/713/713 714/714/714 715/715/715 716/716/716
f 717/717/717 718/718/718 719/719/719 720/720/720
f 721/721/721 722/722/722 723/723/723 724/724/724
f 725/725/725 726/726/726 727/727/727 728/728/728
f 729/729/729 730/730/730 731/731/731 732/732/732
f 733/733/733 734/734/734 735/735/735 736/736/736
f 737/737/737 738/738/738 739/739/739 740/740/740
f 741/741/741 742/742/742 743/743/743 744/744/744
f 745/745/745 746/746/746 747/747/747 748/748/748
f 749/749/749 750/750/750 751/751/751 752/752/752
f 753/753/753 754/754/754 755/755/755 756/756/756
f 757/757/757 758/758/758 759/759/759 760/760/760
f 761/761/761 762/762/762 763/763/763 764/764/764
f 765/765/765 766/766/766 767/767/767 768/768/768
f 769/769/769 770/770/770 771/771/771 772/772/772
f 773/773/773 774/774/774 775/775/775 776/776/776
f 777/777/777 778/778/778 779/779/779 780/780/780
f 781/781/781 782/782/782 783/783/783 784/784/784
f 785/785/785 786/786/786 787/787/787 788/788/788
f 789/789/789 790/790/790 791/791/791 792/792/792
f 793/793/793 794/794/794 795/795/795 796/796/796
f 797/797/797 798/798/798 799/799/799 800/800/800
