# bomber/body, упрощённая копия — сгенерировано tools/gen_models.py, не править руками
mtllib bomber.mtl
v -26.2000 0.0000 -6.5300
v -16.3000 0.0000 -0.0950
v -16.3000 0.0688 -0.1125
v -26.2000 0.0471 -6.5465
v -26.2000 0.0471 -6.5465
v -16.3000 0.0688 -0.1125
v -16.3000 0.1849 -0.2494
v -26.2000 0.1265 -6.6754
v -26.2000 0.1265 -6.6754
v -16.3000 0.1849 -0.2494
v -16.3000 0.2577 -0.5067
v -26.2000 0.1763 -6.9176
v -26.2000 0.1763 -6.9176
v -16.3000 0.2577 -0.5067
v -16.3000 0.2736 -0.6713
v -26.2000 0.1871 -7.0725
v -26.2000 0.1871 -7.0725
v -16.3000 0.2736 -0.6713
v -16.3000 0.2647 -1.0474
v -26.2000 0.1811 -7.4266
v -26.2000 0.1811 -7.4266
v -16.3000 0.2647 -1.0474
v -16.3000 0.2144 -1.4476
v -26.2000 0.1466 -7.8034
v -26.2000 0.1466 -7.8034
v -16.3000 0.2144 -1.4476
v -16.3000 0.1071 -1.9883
v -26.2000 0.0733 -8.3124
v -26.2000 0.0733 -8.3124
v -16.3000 0.1071 -1.9883
v -16.3000 -0.0000 -2.4000
v -26.2000 -0.0000 -8.7000
v -16.3000 0.0000 -0.0950
v -9.7000 0.0000 4.1950
v -9.7000 0.0856 4.1138
v -16.3000 0.0688 -0.1125
v -16.3000 0.0688 -0.1125
v -9.7000 0.0856 4.1138
v -9.7000 0.2299 3.4786
v -16.3000 0.1849 -0.2494
v -16.3000 0.1849 -0.2494
v -9.7000 0.2299 3.4786
v -9.7000 0.3205 2.2848
v -16.3000 0.2577 -0.5067
v -16.3000 0.2577 -0.5067
v -9.7000 0.3205 2.2848
v -9.7000 0.3403 1.5213
v -16.3000 0.2736 -0.6713
v -16.3000 0.2736 -0.6713
v -9.7000 0.3403 1.5213
v -9.7000 0.3292 -0.2239
v -16.3000 0.2647 -1.0474
v -16.3000 0.2647 -1.0474
v -9.7000 0.3292 -0.2239
v -9.7000 0.2666 -2.0811
v -16.3000 0.2144 -1.4476
v -16.3000 0.2144 -1.4476
v -9.7000 0.2666 -2.0811
v -9.7000 0.1332 -4.5898
v -16.3000 0.1071 -1.9883
v -16.3000 0.1071 -1.9883
v -9.7000 0.1332 -4.5898
v -9.7000 0.0000 -6.5000
v -16.3000 -0.0000 -2.4000
v -9.7000 0.0000 4.1950
v -6.1130 0.0000 6.5265
v -6.1130 0.1480 6.4456
v -9.7000 0.0856 4.1138
v -9.7000 0.0856 4.1138
v -6.1130 0.1480 6.4456
v -6.1130 0.3979 5.8125
v -9.7000 0.2299 3.4786
v -9.7000 0.2299 3.4786
v -6.1130 0.3979 5.8125
v -6.1130 0.5597 4.6228
v -9.7000 0.3205 2.2848
v -9.7000 0.3205 2.2848
v -6.1130 0.5597 4.6228
v -6.1130 0.6061 3.8618
v -9.7000 0.3403 1.5213
v -9.7000 0.3403 1.5213
v -6.1130 0.6061 3.8618
v -6.1130 0.6165 2.1225
v -9.7000 0.3292 -0.2239
v -9.7000 0.3292 -0.2239
v -6.1130 0.6165 2.1225
v -6.1130 0.5123 0.2715
v -9.7000 0.2666 -2.0811
v -9.7000 0.2666 -2.0811
v -6.1130 0.5123 0.2715
v -6.1130 0.2719 -2.2288
v -9.7000 0.1332 -4.5898
v -9.7000 0.1332 -4.5898
v -6.1130 0.2719 -2.2288
v -6.1130 0.0063 -4.1326
v -9.7000 0.0000 -6.5000
v -6.1130 0.0000 6.5265
v -4.7000 0.0001 7.4450
v -4.7000 0.2296 7.3641
v -6.1130 0.1480 6.4456
v -6.1130 0.1480 6.4456
v -4.7000 0.2296 7.3641
v -4.7000 0.6168 6.7319
v -6.1130 0.3979 5.8125
v -6.1130 0.3979 5.8125
v -4.7000 0.6168 6.7319
v -4.7000 0.8632 5.5437
v -6.1130 0.5597 4.6228
v -6.1130 0.5597 4.6228
v -4.7000 0.8632 5.5437
v -4.7000 0.9449 4.7838
v -6.1130 0.6061 3.8618
v -6.1130 0.6061 3.8618
v -4.7000 0.9449 4.7838
v -4.7000 1.1856 3.0467
v -6.1130 0.6165 2.1225
v -6.1130 0.6165 2.1225
v -4.7000 1.1856 3.0467
v -4.7000 1.1599 1.1983
v -6.1130 0.5123 0.2715
v -6.1130 0.5123 0.2715
v -4.7000 1.1599 1.1983
v -4.7000 0.7914 -1.2987
v -6.1130 0.2719 -2.2288
v -6.1130 0.2719 -2.2288
v -4.7000 0.7914 -1.2987
v -4.7000 0.2019 -3.2000
v -6.1130 0.0063 -4.1326
v -4.7000 0.0001 7.4450
v -1.0000 0.0155 9.8500
v -1.0000 0.5683 9.7329
v -4.7000 0.2296 7.3641
v -4.7000 0.2296 7.3641
v -1.0000 0.5683 9.7329
v -1.0000 1.5469 8.8176
v -4.7000 0.6168 6.7319
v -4.7000 0.6168 6.7319
v -1.0000 1.5469 8.8176
v -1.0000 2.3276 7.0974
v -4.7000 0.8632 5.5437
v -4.7000 0.8632 5.5437
v -1.0000 2.3276 7.0974
v -1.0000 2.4771 5.9971
v -4.7000 0.9449 4.7838
v -4.7000 0.9449 4.7838
v -1.0000 2.4771 5.9971
v -1.0000 2.1500 3.4823
v -4.7000 1.1856 3.0467
v -4.7000 1.1856 3.0467
v -1.0000 2.1500 3.4823
v -1.0000 1.7123 0.8060
v -4.7000 1.1599 1.1983
v -4.7000 1.1599 1.1983
v -1.0000 1.7123 0.8060
v -1.0000 0.8554 -2.8091
v -4.7000 0.7914 -1.2987
v -4.7000 0.7914 -1.2987
v -1.0000 0.8554 -2.8091
v -1.0000 0.0000 -5.5617
v -4.7000 0.2019 -3.2000
v -1.0000 0.0155 9.8500
v 0.0000 0.0067 10.5000
v 0.0000 0.5864 10.3731
v -1.0000 0.5683 9.7329
v -1.0000 0.5683 9.7329
v 0.0000 0.5864 10.3731
v 0.0000 1.6011 9.3813
v -1.0000 1.5469 8.8176
v -1.0000 1.5469 8.8176
v 0.0000 1.6011 9.3813
v 0.0000 2.4932 7.5173
v -1.0000 2.3276 7.0974
v -1.0000 2.3276 7.0974
v 0.0000 2.4932 7.5173
v 0.0000 2.7465 6.3250
v -1.0000 2.4771 5.9971
v -1.0000 2.4771 5.9971
v 0.0000 2.7465 6.3250
v 0.0000 2.2858 3.6000
v -1.0000 2.1500 3.4823
v -1.0000 2.1500 3.4823
v 0.0000 2.2858 3.6000
v 0.0000 1.8001 0.7000
v -1.0000 1.7123 0.8060
v -1.0000 1.7123 0.8060
v 0.0000 1.8001 0.7000
v 0.0000 0.8993 -3.2173
v -1.0000 0.8554 -2.8091
v -1.0000 0.8554 -2.8091
v 0.0000 0.8993 -3.2173
v 0.0000 0.0000 -6.2000
v -1.0000 0.0000 -5.5617
v 0.0000 0.0067 10.5000
v 1.0000 0.0155 9.8500
v 1.0000 0.5683 9.7329
v 0.0000 0.5864 10.3731
v 0.0000 0.5864 10.3731
v 1.0000 0.5683 9.7329
v 1.0000 1.5469 8.8176
v 0.0000 1.6011 9.3813
v 0.0000 1.6011 9.3813
v 1.0000 1.5469 8.8176
v 1.0000 2.3276 7.0974
v 0.0000 2.4932 7.5173
v 0.0000 2.4932 7.5173
v 1.0000 2.3276 7.0974
v 1.0000 2.4771 5.9971
v 0.0000 2.7465 6.3250
v 0.0000 2.7465 6.3250
v 1.0000 2.4771 5.9971
v 1.0000 2.1500 3.4823
v 0.0000 2.2858 3.6000
v 0.0000 2.2858 3.6000
v 1.0000 2.1500 3.4823
v 1.0000 1.7123 0.8060
v 0.0000 1.8001 0.7000
v 0.0000 1.8001 0.7000
v 1.0000 1.7123 0.8060
v 1.0000 0.8554 -2.8091
v 0.0000 0.8993 -3.2173
v 0.0000 0.8993 -3.2173
v 1.0000 0.8554 -2.8091
v 1.0000 0.0000 -5.5617
v 0.0000 0.0000 -6.2000
v 1.0000 0.0155 9.8500
v 4.7000 0.0001 7.4450
v 4.7000 0.2296 7.3641
v 1.0000 0.5683 9.7329
v 1.0000 0.5683 9.7329
v 4.7000 0.2296 7.3641
v 4.7000 0.6168 6.7319
v 1.0000 1.5469 8.8176
v 1.0000 1.5469 8.8176
v 4.7000 0.6168 6.7319
v 4.7000 0.8632 5.5437
v 1.0000 2.3276 7.0974
v 1.0000 2.3276 7.0974
v 4.7000 0.8632 5.5437
v 4.7000 0.9449 4.7838
v 1.0000 2.4771 5.9971
v 1.0000 2.4771 5.9971
v 4.7000 0.9449 4.7838
v 4.7000 1.1856 3.0467
v 1.0000 2.1500 3.4823
v 1.0000 2.1500 3.4823
v 4.7000 1.1856 3.0467
v 4.7000 1.1599 1.1983
v 1.0000 1.7123 0.8060
v 1.0000 1.7123 0.8060
v 4.7000 1.1599 1.1983
v 4.7000 0.7914 -1.2987
v 1.0000 0.8554 -2.8091
v 1.0000 0.8554 -2.8091
v 4.7000 0.7914 -1.2987
v 4.7000 0.2019 -3.2000
v 1.0000 0.0000 -5.5617
v 4.7000 0.0001 7.4450
v 6.1130 0.0000 6.5265
v 6.1130 0.1480 6.4456
v 4.7000 0.2296 7.3641
v 4.7000 0.2296 7.3641
v 6.1130 0.1480 6.4456
v 6.1130 0.3979 5.8125
v 4.7000 0.6168 6.7319
v 4.7000 0.6168 6.7319
v 6.1130 0.3979 5.8125
v 6.1130 0.5597 4.6228
v 4.7000 0.8632 5.5437
v 4.7000 0.8632 5.5437
v 6.1130 0.5597 4.6228
v 6.1130 0.6061 3.8618
v 4.7000 0.9449 4.7838
v 4.7000 0.9449 4.7838
v 6.1130 0.6061 3.8618
v 6.1130 0.6165 2.1225
v 4.7000 1.1856 3.0467
v 4.7000 1.1856 3.0467
v 6.1130 0.6165 2.1225
v 6.1130 0.5123 0.2715
v 4.7000 1.1599 1.1983
v 4.7000 1.1599 1.1983
v 6.1130 0.5123 0.2715
v 6.1130 0.2719 -2.2288
v 4.7000 0.7914 -1.2987
v 4.7000 0.7914 -1.2987
v 6.1130 0.2719 -2.2288
v 6.1130 0.0063 -4.1326
v 4.7000 0.2019 -3.2000
v 6.1130 0.0000 6.5265
v 9.7000 0.0000 4.1950
v 9.7000 0.0856 4.1138
v 6.1130 0.1480 6.4456
v 6.1130 0.1480 6.4456
v 9.7000 0.0856 4.1138
v 9.7000 0.2299 3.4786
v 6.1130 0.3979 5.8125
v 6.1130 0.3979 5.8125
v 9.7000 0.2299 3.4786
v 9.7000 0.3205 2.2848
v 6.1130 0.5597 4.6228
v 6.1130 0.5597 4.6228
v 9.7000 0.3205 2.2848
v 9.7000 0.3403 1.5213
v 6.1130 0.6061 3.8618
v 6.1130 0.6061 3.8618
v 9.7000 0.3403 1.5213
v 9.7000 0.3292 -0.2239
v 6.1130 0.6165 2.1225
v 6.1130 0.6165 2.1225
v 9.7000 0.3292 -0.2239
v 9.7000 0.2666 -2.0811
v 6.1130 0.5123 0.2715
v 6.1130 0.5123 0.2715
v 9.7000 0.2666 -2.0811
v 9.7000 0.1332 -4.5898
v 6.1130 0.2719 -2.2288
v 6.1130 0.2719 -2.2288
v 9.7000 0.1332 -4.5898
v 9.7000 0.0000 -6.5000
v 6.1130 0.0063 -4.1326
v 9.7000 0.0000 4.1950
v 16.3000 0.0000 -0.0950
v 16.3000 0.0688 -0.1125
v 9.7000 0.0856 4.1138
v 9.7000 0.0856 4.1138
v 16.3000 0.0688 -0.1125
v 16.3000 0.1849 -0.2494
v 9.7000 0.2299 3.4786
v 9.7000 0.2299 3.4786
v 16.3000 0.1849 -0.2494
v 16.3000 0.2577 -0.5067
v 9.7000 0.3205 2.2848
v 9.7000 0.3205 2.2848
v 16.3000 0.2577 -0.5067
v 16.3000 0.2736 -0.6713
v 9.7000 0.3403 1.5213
v 9.7000 0.3403 1.5213
v 16.3000 0.2736 -0.6713
v 16.3000 0.2647 -1.0474
v 9.7000 0.3292 -0.2239
v 9.7000 0.3292 -0.2239
v 16.3000 0.2647 -1.0474
v 16.3000 0.2144 -1.4476
v 9.7000 0.2666 -2.0811
v 9.7000 0.2666 -2.0811
v 16.3000 0.2144 -1.4476
v 16.3000 0.1071 -1.9883
v 9.7000 0.1332 -4.5898
v 9.7000 0.1332 -4.5898
v 16.3000 0.1071 -1.9883
v 16.3000 -0.0000 -2.4000
v 9.7000 0.0000 -6.5000
v 16.3000 0.0000 -0.0950
v 26.2000 0.0000 -6.5300
v 26.2000 0.0471 -6.5465
v 16.3000 0.0688 -0.1125
v 16.3000 0.0688 -0.1125
v 26.2000 0.0471 -6.5465
v 26.2000 0.1265 -6.6754
v 16.3000 0.1849 -0.2494
v 16.3000 0.1849 -0.2494
v 26.2000 0.1265 -6.6754
v 26.2000 0.1763 -6.9176
v 16.3000 0.2577 -0.5067
v 16.3000 0.2577 -0.5067
v 26.2000 0.1763 -6.9176
v 26.2000 0.1871 -7.0725
v 16.3000 0.2736 -0.6713
v 16.3000 0.2736 -0.6713
v 26.2000 0.1871 -7.0725
v 26.2000 0.1811 -7.4266
v 16.3000 0.2647 -1.0474
v 16.3000 0.2647 -1.0474
v 26.2000 0.1811 -7.4266
v 26.2000 0.1466 -7.8034
v 16.3000 0.2144 -1.4476
v 16.3000 0.2144 -1.4476
v 26.2000 0.1466 -7.8034
v 26.2000 0.0733 -8.3124
v 16.3000 0.1071 -1.9883
v 16.3000 0.1071 -1.9883
v 26.2000 0.0733 -8.3124
v 26.2000 -0.0000 -8.7000
v 16.3000 -0.0000 -2.4000
v -26.2000 -0.0522 -6.5954
v -16.3000 -0.0719 -0.1645
v -16.3000 -0.0000 -0.0950
v -26.2000 -0.0000 -6.5300
v -26.2000 -0.0907 -6.7838
v -16.3000 -0.1249 -0.3646
v -16.3000 -0.0719 -0.1645
v -26.2000 -0.0522 -6.5954
v -26.2000 -0.1097 -7.2439
v -16.3000 -0.1511 -0.8533
v -16.3000 -0.1249 -0.3646
v -26.2000 -0.0907 -6.7838
v -26.2000 -0.0718 -7.9861
v -16.3000 -0.0989 -1.6417
v -16.3000 -0.1511 -0.8533
v -26.2000 -0.1097 -7.2439
v -26.2000 0.0000 -8.7000
v -16.3000 0.0000 -2.4000
v -16.3000 -0.0989 -1.6417
v -26.2000 -0.0718 -7.9861
v -16.3000 -0.0719 -0.1645
v -9.7000 -0.0885 3.8725
v -9.7000 -0.0000 4.1950
v -16.3000 -0.0000 -0.0950
v -16.3000 -0.1249 -0.3646
v -9.7000 -0.1537 2.9439
v -9.7000 -0.0885 3.8725
v -16.3000 -0.0719 -0.1645
v -16.3000 -0.1511 -0.8533
v -9.7000 -0.1859 0.6765
v -9.7000 -0.1537 2.9439
v -16.3000 -0.1249 -0.3646
v -16.3000 -0.0989 -1.6417
v -9.7000 -0.1217 -2.9815
v -9.7000 -0.1859 0.6765
v -16.3000 -0.1511 -0.8533
v -16.3000 0.0000 -2.4000
v -9.7000 0.0000 -6.5000
v -9.7000 -0.1217 -2.9815
v -16.3000 -0.0989 -1.6417
v -9.7000 -0.0885 3.8725
v -4.7000 -0.2146 7.1240
v -4.7000 -0.0000 7.4450
v -9.7000 -0.0000 4.1950
v -9.7000 -0.1537 2.9439
v -4.7000 -0.3728 6.1998
v -4.7000 -0.2146 7.1240
v -9.7000 -0.0885 3.8725
v -9.7000 -0.1859 0.6765
v -4.7000 -0.4508 3.9429
v -4.7000 -0.3728 6.1998
v -9.7000 -0.1537 2.9439
v -9.7000 -0.1217 -2.9815
v -4.7000 -0.2950 0.3021
v -4.7000 -0.4508 3.9429
v -9.7000 -0.1859 0.6765
v -9.7000 0.0000 -6.5000
v -4.7000 0.0000 -3.2000
v -4.7000 -0.2950 0.3021
v -9.7000 -0.1217 -2.9815
v -4.7000 -0.2146 7.1240
v 0.0000 -0.4602 9.9964
v 0.0000 -0.0000 10.5000
v -4.7000 -0.0000 7.4450
v -4.7000 -0.3728 6.1998
v 0.0000 -0.7996 8.5465
v 0.0000 -0.4602 9.9964
v -4.7000 -0.2146 7.1240
v -4.7000 -0.4508 3.9429
v 0.0000 -0.9671 5.0059
v 0.0000 -0.7996 8.5465
v -4.7000 -0.3728 6.1998
v -4.7000 -0.2950 0.3021
v 0.0000 -0.6328 -0.7059
v 0.0000 -0.9671 5.0059
v -4.7000 -0.4508 3.9429
v -4.7000 0.0000 -3.2000
v 0.0000 0.0000 -6.2000
v 0.0000 -0.6328 -0.7059
v -4.7000 -0.2950 0.3021
v 0.0000 -0.4602 9.9964
v 4.7000 -0.2146 7.1240
v 4.7000 -0.0000 7.4450
v 0.0000 -0.0000 10.5000
v 0.0000 -0.7996 8.5465
v 4.7000 -0.3728 6.1998
v 4.7000 -0.2146 7.1240
v 0.0000 -0.4602 9.9964
v 0.0000 -0.9671 5.0059
v 4.7000 -0.4508 3.9429
v 4.7000 -0.3728 6.1998
v 0.0000 -0.7996 8.5465
v 0.0000 -0.6328 -0.7059
v 4.7000 -0.2950 0.3021
v 4.7000 -0.4508 3.9429
v 0.0000 -0.9671 5.0059
v 0.0000 0.0000 -6.2000
v 4.7000 0.0000 -3.2000
v 4.7000 -0.2950 0.3021
v 0.0000 -0.6328 -0.7059
v 4.7000 -0.2146 7.1240
v 9.7000 -0.0885 3.8725
v 9.7000 -0.0000 4.1950
v 4.7000 -0.0000 7.4450
v 4.7000 -0.3728 6.1998
v 9.7000 -0.1537 2.9439
v 9.7000 -0.0885 3.8725
v 4.7000 -0.2146 7.1240
v 4.7000 -0.4508 3.9429
v 9.7000 -0.1859 0.6765
v 9.7000 -0.1537 2.9439
v 4.7000 -0.3728 6.1998
v 4.7000 -0.2950 0.3021
v 9.7000 -0.1217 -2.9815
v 9.7000 -0.1859 0.6765
v 4.7000 -0.4508 3.9429
v 4.7000 0.0000 -3.2000
v 9.7000 0.0000 -6.5000
v 9.7000 -0.1217 -2.9815
v 4.7000 -0.2950 0.3021
v 9.7000 -0.0885 3.8725
v 16.3000 -0.0719 -0.1645
v 16.3000 -0.0000 -0.0950
v 9.7000 -0.0000 4.1950
v 9.7000 -0.1537 2.9439
v 16.3000 -0.1249 -0.3646
v 16.3000 -0.0719 -0.1645
v 9.7000 -0.0885 3.8725
v 9.7000 -0.1859 0.6765
v 16.3000 -0.1511 -0.8533
v 16.3000 -0.1249 -0.3646
v 9.7000 -0.1537 2.9439
v 9.7000 -0.1217 -2.9815
v 16.3000 -0.0989 -1.6417
v 16.3000 -0.1511 -0.8533
v 9.7000 -0.1859 0.6765
v 9.7000 0.0000 -6.5000
v 16.3000 0.0000 -2.4000
v 16.3000 -0.0989 -1.6417
v 9.7000 -0.1217 -2.9815
v 16.3000 -0.0719 -0.1645
v 26.2000 -0.0522 -6.5954
v 26.2000 -0.0000 -6.5300
v 16.3000 -0.0000 -0.0950
v 16.3000 -0.1249 -0.3646
v 26.2000 -0.0907 -6.7838
v 26.2000 -0.0522 -6.5954
v 16.3000 -0.0719 -0.1645
v 16.3000 -0.1511 -0.8533
v 26.2000 -0.1097 -7.2439
v 26.2000 -0.0907 -6.7838
v 16.3000 -0.1249 -0.3646
v 16.3000 -0.0989 -1.6417
v 26.2000 -0.0718 -7.9861
v 26.2000 -0.1097 -7.2439
v 16.3000 -0.1511 -0.8533
v 16.3000 0.0000 -2.4000
v 26.2000 0.0000 -8.7000
v 26.2000 -0.0718 -7.9861
v 16.3000 -0.0989 -1.6417
v -26.2000 0.1884 -7.2439
v -26.2000 -0.1097 -7.2439
v -26.2000 -0.0000 -6.5300
v -26.2000 0.0000 -6.5300
v -26.2000 -0.0000 -8.7000
v -26.2000 0.0000 -8.7000
v -26.2000 -0.1097 -7.2439
v -26.2000 0.1884 -7.2439
v 26.2000 0.0000 -6.5300
v 26.2000 -0.0000 -6.5300
v 26.2000 -0.1097 -7.2439
v 26.2000 0.1884 -7.2439
v 26.2000 0.1884 -7.2439
v 26.2000 -0.1097 -7.2439
v 26.2000 0.0000 -8.7000
v 26.2000 -0.0000 -8.7000
vt 0.00049 0.34431
vt 0.18924 0.21439
vt 0.18924 0.21474
vt 0.00049 0.34464
vt 0.00049 0.34464
vt 0.18924 0.21474
vt 0.18924 0.21751
vt 0.00049 0.34724
vt 0.00049 0.34724
vt 0.18924 0.21751
vt 0.18924 0.22270
vt 0.00049 0.35213
vt 0.00049 0.35213
vt 0.18924 0.22270
vt 0.18924 0.22603
vt 0.00049 0.35526
vt 0.00049 0.35526
vt 0.18924 0.22603
vt 0.18924 0.23362
vt 0.00049 0.36241
vt 0.00049 0.36241
vt 0.18924 0.23362
vt 0.18924 0.24170
vt 0.00049 0.37002
vt 0.00049 0.37002
vt 0.18924 0.24170
vt 0.18924 0.25262
vt 0.00049 0.38029
vt 0.00049 0.38029
vt 0.18924 0.25262
vt 0.18924 0.26093
vt 0.00049 0.38812
vt 0.18924 0.21439
vt 0.31507 0.12778
vt 0.31507 0.12942
vt 0.18924 0.21474
vt 0.18924 0.21474
vt 0.31507 0.12942
vt 0.31507 0.14224
vt 0.18924 0.21751
vt 0.18924 0.21751
vt 0.31507 0.14224
vt 0.31507 0.16635
vt 0.18924 0.22270
vt 0.18924 0.22270
vt 0.31507 0.16635
vt 0.31507 0.18176
vt 0.18924 0.22603
vt 0.18924 0.22603
vt 0.31507 0.18176
vt 0.31507 0.21699
vt 0.18924 0.23362
vt 0.18924 0.23362
vt 0.31507 0.21699
vt 0.31507 0.25449
vt 0.18924 0.24170
vt 0.18924 0.24170
vt 0.31507 0.25449
vt 0.31507 0.30514
vt 0.18924 0.25262
vt 0.18924 0.25262
vt 0.31507 0.30514
vt 0.31507 0.34370
vt 0.18924 0.26093
vt 0.31507 0.12778
vt 0.38345 0.08071
vt 0.38345 0.08234
vt 0.31507 0.12942
vt 0.31507 0.12942
vt 0.38345 0.08234
vt 0.38345 0.09512
vt 0.31507 0.14224
vt 0.31507 0.14224
vt 0.38345 0.09512
vt 0.38345 0.11914
vt 0.31507 0.16635
vt 0.31507 0.16635
vt 0.38345 0.11914
vt 0.38345 0.13451
vt 0.31507 0.18176
vt 0.31507 0.18176
vt 0.38345 0.13451
vt 0.38345 0.16962
vt 0.31507 0.21699
vt 0.31507 0.21699
vt 0.38345 0.16962
vt 0.38345 0.20699
vt 0.31507 0.25449
vt 0.31507 0.25449
vt 0.38345 0.20699
vt 0.38345 0.25747
vt 0.31507 0.30514
vt 0.31507 0.30514
vt 0.38345 0.25747
vt 0.38345 0.29591
vt 0.31507 0.34370
vt 0.38345 0.08071
vt 0.41039 0.06217
vt 0.41039 0.06380
vt 0.38345 0.08234
vt 0.38345 0.08234
vt 0.41039 0.06380
vt 0.41039 0.07656
vt 0.38345 0.09512
vt 0.38345 0.09512
vt 0.41039 0.07656
vt 0.41039 0.10055
vt 0.38345 0.11914
vt 0.38345 0.11914
vt 0.41039 0.10055
vt 0.41039 0.11589
vt 0.38345 0.13451
vt 0.38345 0.13451
vt 0.41039 0.11589
vt 0.41039 0.15096
vt 0.38345 0.16962
vt 0.38345 0.16962
vt 0.41039 0.15096
vt 0.41039 0.18828
vt 0.38345 0.20699
vt 0.38345 0.20699
vt 0.41039 0.18828
vt 0.41039 0.23869
vt 0.38345 0.25747
vt 0.38345 0.25747
vt 0.41039 0.23869
vt 0.41039 0.27708
vt 0.38345 0.29591
vt 0.41039 0.06217
vt 0.48093 0.01361
vt 0.48093 0.01597
vt 0.41039 0.06380
vt 0.41039 0.06380
vt 0.48093 0.01597
vt 0.48093 0.03445
vt 0.41039 0.07656
vt 0.41039 0.07656
vt 0.48093 0.03445
vt 0.48093 0.06918
vt 0.41039 0.10055
vt 0.41039 0.10055
vt 0.48093 0.06918
vt 0.48093 0.09140
vt 0.41039 0.11589
vt 0.41039 0.11589
vt 0.48093 0.09140
vt 0.48093 0.14217
vt 0.41039 0.15096
vt 0.41039 0.15096
vt 0.48093 0.14217
vt 0.48093 0.19620
vt 0.41039 0.18828
vt 0.41039 0.18828
vt 0.48093 0.19620
vt 0.48093 0.26919
vt 0.41039 0.23869
vt 0.41039 0.23869
vt 0.48093 0.26919
vt 0.48093 0.32476
vt 0.41039 0.27708
vt 0.48093 0.01361
vt 0.50000 0.00049
vt 0.50000 0.00305
vt 0.48093 0.01597
vt 0.48093 0.01597
vt 0.50000 0.00305
vt 0.50000 0.02307
vt 0.48093 0.03445
vt 0.48093 0.03445
vt 0.50000 0.02307
vt 0.50000 0.06071
vt 0.48093 0.06918
vt 0.48093 0.06918
vt 0.50000 0.06071
vt 0.50000 0.08478
vt 0.48093 0.09140
vt 0.48093 0.09140
vt 0.50000 0.08478
vt 0.50000 0.13979
vt 0.48093 0.14217
vt 0.48093 0.14217
vt 0.50000 0.13979
vt 0.50000 0.19834
vt 0.48093 0.19620
vt 0.48093 0.19620
vt 0.50000 0.19834
vt 0.50000 0.27743
vt 0.48093 0.26919
vt 0.48093 0.26919
vt 0.50000 0.27743
vt 0.50000 0.33765
vt 0.48093 0.32476
vt 0.50000 0.00049
vt 0.51907 0.01361
vt 0.51907 0.01597
vt 0.50000 0.00305
vt 0.50000 0.00305
vt 0.51907 0.01597
vt 0.51907 0.03445
vt 0.50000 0.02307
vt 0.50000 0.02307
vt 0.51907 0.03445
vt 0.51907 0.06918
vt 0.50000 0.06071
vt 0.50000 0.06071
vt 0.51907 0.06918
vt 0.51907 0.09140
vt 0.50000 0.08478
vt 0.50000 0.08478
vt 0.51907 0.09140
vt 0.51907 0.14217
vt 0.50000 0.13979
vt 0.50000 0.13979
vt 0.51907 0.14217
vt 0.51907 0.19620
vt 0.50000 0.19834
vt 0.50000 0.19834
vt 0.51907 0.19620
vt 0.51907 0.26919
vt 0.50000 0.27743
vt 0.50000 0.27743
vt 0.51907 0.26919
vt 0.51907 0.32476
vt 0.50000 0.33765
vt 0.51907 0.01361
vt 0.58961 0.06217
vt 0.58961 0.06380
vt 0.51907 0.01597
vt 0.51907 0.01597
vt 0.58961 0.06380
vt 0.58961 0.07656
vt 0.51907 0.03445
vt 0.51907 0.03445
vt 0.58961 0.07656
vt 0.58961 0.10055
vt 0.51907 0.06918
vt 0.51907 0.06918
vt 0.58961 0.10055
vt 0.58961 0.11589
vt 0.51907 0.09140
vt 0.51907 0.09140
vt 0.58961 0.11589
vt 0.58961 0.15096
vt 0.51907 0.14217
vt 0.51907 0.14217
vt 0.58961 0.15096
vt 0.58961 0.18828
vt 0.51907 0.19620
vt 0.51907 0.19620
vt 0.58961 0.18828
vt 0.58961 0.23869
vt 0.51907 0.26919
vt 0.51907 0.26919
vt 0.58961 0.23869
vt 0.58961 0.27708
vt 0.51907 0.32476
vt 0.58961 0.06217
vt 0.61655 0.08071
vt 0.61655 0.08234
vt 0.58961 0.06380
vt 0.58961 0.06380
vt 0.61655 0.08234
vt 0.61655 0.09512
vt 0.58961 0.07656
vt 0.58961 0.07656
vt 0.61655 0.09512
vt 0.61655 0.11914
vt 0.58961 0.10055
vt 0.58961 0.10055
vt 0.61655 0.11914
vt 0.61655 0.13451
vt 0.58961 0.11589
vt 0.58961 0.11589
vt 0.61655 0.13451
vt 0.61655 0.16962
vt 0.58961 0.15096
vt 0.58961 0.15096
vt 0.61655 0.16962
vt 0.61655 0.20699
vt 0.58961 0.18828
vt 0.58961 0.18828
vt 0.61655 0.20699
vt 0.61655 0.25747
vt 0.58961 0.23869
vt 0.58961 0.23869
vt 0.61655 0.25747
vt 0.61655 0.29591
vt 0.58961 0.27708
vt 0.61655 0.08071
vt 0.68493 0.12778
vt 0.68493 0.12942
vt 0.61655 0.08234
vt 0.61655 0.08234
vt 0.68493 0.12942
vt 0.68493 0.14224
vt 0.61655 0.09512
vt 0.61655 0.09512
vt 0.68493 0.14224
vt 0.68493 0.16635
vt 0.61655 0.11914
vt 0.61655 0.11914
vt 0.68493 0.16635
vt 0.68493 0.18176
vt 0.61655 0.13451
vt 0.61655 0.13451
vt 0.68493 0.18176
vt 0.68493 0.21699
vt 0.61655 0.16962
vt 0.61655 0.16962
vt 0.68493 0.21699
vt 0.68493 0.25449
vt 0.61655 0.20699
vt 0.61655 0.20699
vt 0.68493 0.25449
vt 0.68493 0.30514
vt 0.61655 0.25747
vt 0.61655 0.25747
vt 0.68493 0.30514
vt 0.68493 0.34370
vt 0.61655 0.29591
vt 0.68493 0.12778
vt 0.81076 0.21439
vt 0.81076 0.21474
vt 0.68493 0.12942
vt 0.68493 0.12942
vt 0.81076 0.21474
vt 0.81076 0.21751
vt 0.68493 0.14224
vt 0.68493 0.14224
vt 0.81076 0.21751
vt 0.81076 0.22270
vt 0.68493 0.16635
vt 0.68493 0.16635
vt 0.81076 0.22270
vt 0.81076 0.22603
vt 0.68493 0.18176
vt 0.68493 0.18176
vt 0.81076 0.22603
vt 0.81076 0.23362
vt 0.68493 0.21699
vt 0.68493 0.21699
vt 0.81076 0.23362
vt 0.81076 0.24170
vt 0.68493 0.25449
vt 0.68493 0.25449
vt 0.81076 0.24170
vt 0.81076 0.25262
vt 0.68493 0.30514
vt 0.68493 0.30514
vt 0.81076 0.25262
vt 0.81076 0.26093
vt 0.68493 0.34370
vt 0.81076 0.21439
vt 0.99951 0.34431
vt 0.99951 0.34464
vt 0.81076 0.21474
vt 0.81076 0.21474
vt 0.99951 0.34464
vt 0.99951 0.34724
vt 0.81076 0.21751
vt 0.81076 0.21751
vt 0.99951 0.34724
vt 0.99951 0.35213
vt 0.81076 0.22270
vt 0.81076 0.22270
vt 0.99951 0.35213
vt 0.99951 0.35526
vt 0.81076 0.22603
vt 0.81076 0.22603
vt 0.99951 0.35526
vt 0.99951 0.36241
vt 0.81076 0.23362
vt 0.81076 0.23362
vt 0.99951 0.36241
vt 0.99951 0.37002
vt 0.81076 0.24170
vt 0.81076 0.24170
vt 0.99951 0.37002
vt 0.99951 0.38029
vt 0.81076 0.25262
vt 0.81076 0.25262
vt 0.99951 0.38029
vt 0.99951 0.38812
vt 0.81076 0.26093
vt 0.00049 0.73821
vt 0.18924 0.60837
vt 0.18924 0.60697
vt 0.00049 0.73689
vt 0.00049 0.74201
vt 0.18924 0.61241
vt 0.18924 0.60837
vt 0.00049 0.73821
vt 0.00049 0.75130
vt 0.18924 0.62228
vt 0.18924 0.61241
vt 0.00049 0.74201
vt 0.00049 0.76628
vt 0.18924 0.63820
vt 0.18924 0.62228
vt 0.00049 0.75130
vt 0.00049 0.78070
vt 0.18924 0.65350
vt 0.18924 0.63820
vt 0.00049 0.76628
vt 0.18924 0.60837
vt 0.31507 0.52687
vt 0.31507 0.52036
vt 0.18924 0.60697
vt 0.18924 0.61241
vt 0.31507 0.54562
vt 0.31507 0.52687
vt 0.18924 0.60837
vt 0.18924 0.62228
vt 0.31507 0.59139
vt 0.31507 0.54562
vt 0.18924 0.61241
vt 0.18924 0.63820
vt 0.31507 0.66524
vt 0.31507 0.59139
vt 0.18924 0.62228
vt 0.18924 0.65350
vt 0.31507 0.73628
vt 0.31507 0.66524
vt 0.18924 0.63820
vt 0.31507 0.52687
vt 0.41039 0.46122
vt 0.41039 0.45474
vt 0.31507 0.52036
vt 0.31507 0.54562
vt 0.41039 0.47988
vt 0.41039 0.46122
vt 0.31507 0.52687
vt 0.31507 0.59139
vt 0.41039 0.52545
vt 0.41039 0.47988
vt 0.31507 0.54562
vt 0.31507 0.66524
vt 0.41039 0.59895
vt 0.41039 0.52545
vt 0.31507 0.59139
vt 0.31507 0.73628
vt 0.41039 0.66966
vt 0.41039 0.59895
vt 0.31507 0.66524
vt 0.41039 0.46122
vt 0.50000 0.40323
vt 0.50000 0.39307
vt 0.41039 0.45474
vt 0.41039 0.47988
vt 0.50000 0.43251
vt 0.50000 0.40323
vt 0.41039 0.46122
vt 0.41039 0.52545
vt 0.50000 0.50399
vt 0.50000 0.43251
vt 0.41039 0.47988
vt 0.41039 0.59895
vt 0.50000 0.61930
vt 0.50000 0.50399
vt 0.41039 0.52545
vt 0.41039 0.66966
vt 0.50000 0.73022
vt 0.50000 0.61930
vt 0.41039 0.59895
vt 0.50000 0.40323
vt 0.58961 0.46122
vt 0.58961 0.45474
vt 0.50000 0.39307
vt 0.50000 0.43251
vt 0.58961 0.47988
vt 0.58961 0.46122
vt 0.50000 0.40323
vt 0.50000 0.50399
vt 0.58961 0.52545
vt 0.58961 0.47988
vt 0.50000 0.43251
vt 0.50000 0.61930
vt 0.58961 0.59895
vt 0.58961 0.52545
vt 0.50000 0.50399
vt 0.50000 0.73022
vt 0.58961 0.66966
vt 0.58961 0.59895
vt 0.50000 0.61930
vt 0.58961 0.46122
vt 0.68493 0.52687
vt 0.68493 0.52036
vt 0.58961 0.45474
vt 0.58961 0.47988
vt 0.68493 0.54562
vt 0.68493 0.52687
vt 0.58961 0.46122
vt 0.58961 0.52545
vt 0.68493 0.59139
vt 0.68493 0.54562
vt 0.58961 0.47988
vt 0.58961 0.59895
vt 0.68493 0.66524
vt 0.68493 0.59139
vt 0.58961 0.52545
vt 0.58961 0.66966
vt 0.68493 0.73628
vt 0.68493 0.66524
vt 0.58961 0.59895
vt 0.68493 0.52687
vt 0.81076 0.60837
vt 0.81076 0.60697
vt 0.68493 0.52036
vt 0.68493 0.54562
vt 0.81076 0.61241
vt 0.81076 0.60837
vt 0.68493 0.52687
vt 0.68493 0.59139
vt 0.81076 0.62228
vt 0.81076 0.61241
vt 0.68493 0.54562
vt 0.68493 0.66524
vt 0.81076 0.63820
vt 0.81076 0.62228
vt 0.68493 0.59139
vt 0.68493 0.73628
vt 0.81076 0.65350
vt 0.81076 0.63820
vt 0.68493 0.66524
vt 0.81076 0.60837
vt 0.99951 0.73821
vt 0.99951 0.73689
vt 0.81076 0.60697
vt 0.81076 0.61241
vt 0.99951 0.74201
vt 0.99951 0.73821
vt 0.81076 0.60837
vt 0.81076 0.62228
vt 0.99951 0.75130
vt 0.99951 0.74201
vt 0.81076 0.61241
vt 0.81076 0.63820
vt 0.99951 0.76628
vt 0.99951 0.75130
vt 0.81076 0.62228
vt 0.81076 0.65350
vt 0.99951 0.78070
vt 0.99951 0.76628
vt 0.81076 0.63820
vt 0.00049 0.35872
vt 0.00049 0.75130
vt 0.00049 0.73689
vt 0.00049 0.34431
vt 0.00049 0.38812
vt 0.00049 0.78070
vt 0.00049 0.75130
vt 0.00049 0.35872
vt 0.99951 0.34431
vt 0.99951 0.73689
vt 0.99951 0.75130
vt 0.99951 0.35872
vt 0.99951 0.35872
vt 0.99951 0.75130
vt 0.99951 0.78070
vt 0.99951 0.38812
vn -0.5229 0.2818 0.8045
vn -0.5330 0.2087 0.8200
vn -0.4949 0.4070 0.7677
vn -0.4657 0.5216 0.7148
vn -0.4657 0.5216 0.7148
vn -0.4949 0.4070 0.7677
vn -0.2546 0.8708 0.4206
vn -0.2153 0.9214 0.3234
vn -0.2153 0.9214 0.3234
vn -0.2546 0.8708 0.4206
vn -0.0815 0.9857 0.1473
vn -0.0778 0.9911 0.1076
vn -0.0778 0.9911 0.1076
vn -0.0815 0.9857 0.1473
vn -0.0311 0.9982 0.0511
vn -0.0328 0.9988 0.0372
vn -0.0328 0.9988 0.0372
vn -0.0311 0.9982 0.0511
vn 0.0158 0.9966 -0.0810
vn 0.0295 0.9978 -0.0589
vn 0.0295 0.9978 -0.0589
vn 0.0158 0.9966 -0.0810
vn 0.0172 0.9873 -0.1582
vn 0.0673 0.9910 -0.1154
vn 0.0673 0.9910 -0.1154
vn 0.0172 0.9873 -0.1582
vn -0.0140 0.9742 -0.2253
vn 0.1020 0.9810 -0.1649
vn 0.1020 0.9810 -0.1649
vn -0.0140 0.9742 -0.2253
vn -0.0552 0.9592 -0.2772
vn 0.1297 0.9704 -0.2037
vn -0.5330 0.2087 0.8200
vn -0.4264 0.6228 0.6560
vn -0.2811 0.8564 0.4330
vn -0.4949 0.4070 0.7677
vn -0.4949 0.4070 0.7677
vn -0.2811 0.8564 0.4330
vn -0.0841 0.9882 0.1279
vn -0.2546 0.8708 0.4206
vn -0.2546 0.8708 0.4206
vn -0.0841 0.9882 0.1279
vn -0.0329 0.9987 0.0400
vn -0.0815 0.9857 0.1473
vn -0.0815 0.9857 0.1473
vn -0.0329 0.9987 0.0400
vn -0.0210 0.9997 0.0137
vn -0.0311 0.9982 0.0511
vn -0.0311 0.9982 0.0511
vn -0.0210 0.9997 0.0137
vn -0.0115 0.9997 -0.0218
vn 0.0158 0.9966 -0.0810
vn 0.0158 0.9966 -0.0810
vn -0.0115 0.9997 -0.0218
vn -0.0132 0.9990 -0.0429
vn 0.0172 0.9873 -0.1582
vn 0.0172 0.9873 -0.1582
vn -0.0132 0.9990 -0.0429
vn -0.0237 0.9978 -0.0619
vn -0.0140 0.9742 -0.2253
vn -0.0140 0.9742 -0.2253
vn -0.0237 0.9978 -0.0619
vn -0.0374 0.9963 -0.0772
vn -0.0552 0.9592 -0.2772
vn -0.4264 0.6228 0.6560
vn -0.4954 0.4168 0.7621
vn -0.4139 0.6842 0.6005
vn -0.2811 0.8564 0.4330
vn -0.2811 0.8564 0.4330
vn -0.4139 0.6842 0.6005
vn -0.2273 0.9499 0.2145
vn -0.0841 0.9882 0.1279
vn -0.0841 0.9882 0.1279
vn -0.2273 0.9499 0.2145
vn -0.1829 0.9799 0.0795
vn -0.0329 0.9987 0.0400
vn -0.0329 0.9987 0.0400
vn -0.1829 0.9799 0.0795
vn -0.1805 0.9827 0.0417
vn -0.0210 0.9997 0.0137
vn -0.0210 0.9997 0.0137
vn -0.1805 0.9827 0.0417
vn -0.1692 0.9852 -0.0288
vn -0.0115 0.9997 -0.0218
vn -0.0115 0.9997 -0.0218
vn -0.1692 0.9852 -0.0288
vn -0.1217 0.9898 -0.0737
vn -0.0132 0.9990 -0.0429
vn -0.0132 0.9990 -0.0429
vn -0.1217 0.9898 -0.0737
vn -0.0283 0.9924 -0.1201
vn -0.0237 0.9978 -0.0619
vn -0.0237 0.9978 -0.0619
vn -0.0283 0.9924 -0.1201
vn 0.0864 0.9856 -0.1451
vn -0.0374 0.9963 -0.0772
vn -0.4954 0.4168 0.7621
vn -0.5227 0.2833 0.8041
vn -0.4914 0.5153 0.7021
vn -0.4139 0.6842 0.6005
vn -0.4139 0.6842 0.6005
vn -0.4914 0.5153 0.7021
vn -0.3622 0.8800 0.3072
vn -0.2273 0.9499 0.2145
vn -0.2273 0.9499 0.2145
vn -0.3622 0.8800 0.3072
vn -0.3208 0.9392 0.1226
vn -0.1829 0.9799 0.0795
vn -0.1829 0.9799 0.0795
vn -0.3208 0.9392 0.1226
vn -0.3166 0.9416 0.1146
vn -0.1805 0.9827 0.0417
vn -0.1805 0.9827 0.0417
vn -0.3166 0.9416 0.1146
vn -0.4015 0.9121 0.0834
vn -0.1692 0.9852 -0.0288
vn -0.1692 0.9852 -0.0288
vn -0.4015 0.9121 0.0834
vn -0.4098 0.9080 -0.0877
vn -0.1217 0.9898 -0.0737
vn -0.1217 0.9898 -0.0737
vn -0.4098 0.9080 -0.0877
vn -0.3044 0.9332 -0.1909
vn -0.0283 0.9924 -0.1201
vn -0.0283 0.9924 -0.1201
vn -0.3044 0.9332 -0.1909
vn -0.0635 0.9273 -0.3690
vn 0.0864 0.9856 -0.1451
vn -0.5227 0.2833 0.8041
vn -0.5363 0.1749 0.8257
vn -0.5209 0.3416 0.7823
vn -0.4914 0.5153 0.7021
vn -0.4914 0.5153 0.7021
vn -0.5209 0.3416 0.7823
vn -0.4205 0.7545 0.5039
vn -0.3622 0.8800 0.3072
vn -0.3622 0.8800 0.3072
vn -0.4205 0.7545 0.5039
vn -0.4455 0.8694 0.2136
vn -0.3208 0.9392 0.1226
vn -0.3208 0.9392 0.1226
vn -0.4455 0.8694 0.2136
vn -0.4372 0.8993 0.0117
vn -0.3166 0.9416 0.1146
vn -0.3166 0.9416 0.1146
vn -0.4372 0.8993 0.0117
vn -0.2358 0.9602 -0.1495
vn -0.4015 0.9121 0.0834
vn -0.4015 0.9121 0.0834
vn -0.2358 0.9602 -0.1495
vn -0.1985 0.9624 -0.1854
vn -0.4098 0.9080 -0.0877
vn -0.4098 0.9080 -0.0877
vn -0.1985 0.9624 -0.1854
vn -0.1938 0.9456 -0.2613
vn -0.3044 0.9332 -0.1909
vn -0.3044 0.9332 -0.1909
vn -0.1938 0.9456 -0.2613
vn -0.2038 0.9254 -0.3194
vn -0.0635 0.9273 -0.3690
vn -0.5363 0.1749 0.8257
vn -0.0000 0.2138 0.9769
vn -0.0000 0.4126 0.9109
vn -0.5209 0.3416 0.7823
vn -0.5209 0.3416 0.7823
vn -0.0000 0.4126 0.9109
vn -0.0000 0.8401 0.5424
vn -0.4205 0.7545 0.5039
vn -0.4205 0.7545 0.5039
vn -0.0000 0.8401 0.5424
vn -0.0000 0.9548 0.2973
vn -0.4455 0.8694 0.2136
vn -0.4455 0.8694 0.2136
vn -0.0000 0.9548 0.2973
vn -0.0000 0.9993 0.0384
vn -0.4372 0.8993 0.0117
vn -0.4372 0.8993 0.0117
vn -0.0000 0.9993 0.0384
vn 0.0000 0.9825 -0.1861
vn -0.2358 0.9602 -0.1495
vn -0.2358 0.9602 -0.1495
vn 0.0000 0.9825 -0.1861
vn 0.0000 0.9829 -0.1842
vn -0.1985 0.9624 -0.1854
vn -0.1985 0.9624 -0.1854
vn 0.0000 0.9829 -0.1842
vn 0.0000 0.9659 -0.2589
vn -0.1938 0.9456 -0.2613
vn -0.1938 0.9456 -0.2613
vn 0.0000 0.9659 -0.2589
vn 0.0000 0.9482 -0.3176
vn -0.2038 0.9254 -0.3194
vn -0.0000 0.2138 0.9769
vn 0.5363 0.1749 0.8257
vn 0.5209 0.3416 0.7823
vn -0.0000 0.4126 0.9109
vn -0.0000 0.4126 0.9109
vn 0.5209 0.3416 0.7823
vn 0.4205 0.7545 0.5039
vn -0.0000 0.8401 0.5424
vn -0.0000 0.8401 0.5424
vn 0.4205 0.7545 0.5039
vn 0.4455 0.8694 0.2136
vn -0.0000 0.9548 0.2973
vn -0.0000 0.9548 0.2973
vn 0.4455 0.8694 0.2136
vn 0.4372 0.8993 0.0117
vn -0.0000 0.9993 0.0384
vn -0.0000 0.9993 0.0384
vn 0.4372 0.8993 0.0117
vn 0.2358 0.9602 -0.1495
vn 0.0000 0.9825 -0.1861
vn 0.0000 0.9825 -0.1861
vn 0.2358 0.9602 -0.1495
vn 0.1985 0.9624 -0.1854
vn 0.0000 0.9829 -0.1842
vn 0.0000 0.9829 -0.1842
vn 0.1985 0.9624 -0.1854
vn 0.1938 0.9456 -0.2613
vn 0.0000 0.9659 -0.2589
vn 0.0000 0.9659 -0.2589
vn 0.1938 0.9456 -0.2613
vn 0.2038 0.9254 -0.3194
vn 0.0000 0.9482 -0.3176
vn 0.5363 0.1749 0.8257
vn 0.5227 0.2833 0.8041
vn 0.4914 0.5153 0.7021
vn 0.5209 0.3416 0.7823
vn 0.5209 0.3416 0.7823
vn 0.4914 0.5153 0.7021
vn 0.3622 0.8800 0.3072
vn 0.4205 0.7545 0.5039
vn 0.4205 0.7545 0.5039
vn 0.3622 0.8800 0.3072
vn 0.3208 0.9392 0.1226
vn 0.4455 0.8694 0.2136
vn 0.4455 0.8694 0.2136
vn 0.3208 0.9392 0.1226
vn 0.3166 0.9416 0.1146
vn 0.4372 0.8993 0.0117
vn 0.4372 0.8993 0.0117
vn 0.3166 0.9416 0.1146
vn 0.4015 0.9121 0.0834
vn 0.2358 0.9602 -0.1495
vn 0.2358 0.9602 -0.1495
vn 0.4015 0.9121 0.0834
vn 0.4098 0.9080 -0.0877
vn 0.1985 0.9624 -0.1854
vn 0.1985 0.9624 -0.1854
vn 0.4098 0.9080 -0.0877
vn 0.3044 0.9332 -0.1909
vn 0.1938 0.9456 -0.2613
vn 0.1938 0.9456 -0.2613
vn 0.3044 0.9332 -0.1909
vn 0.0635 0.9273 -0.3690
vn 0.2038 0.9254 -0.3194
vn 0.5227 0.2833 0.8041
vn 0.4954 0.4168 0.7621
vn 0.4139 0.6842 0.6005
vn 0.4914 0.5153 0.7021
vn 0.4914 0.5153 0.7021
vn 0.4139 0.6842 0.6005
vn 0.2273 0.9499 0.2145
vn 0.3622 0.8800 0.3072
vn 0.3622 0.8800 0.3072
vn 0.2273 0.9499 0.2145
vn 0.1829 0.9799 0.0795
vn 0.3208 0.9392 0.1226
vn 0.3208 0.9392 0.1226
vn 0.1829 0.9799 0.0795
vn 0.1805 0.9827 0.0417
vn 0.3166 0.9416 0.1146
vn 0.3166 0.9416 0.1146
vn 0.1805 0.9827 0.0417
vn 0.1692 0.9852 -0.0288
vn 0.4015 0.9121 0.0834
vn 0.4015 0.9121 0.0834
vn 0.1692 0.9852 -0.0288
vn 0.1217 0.9898 -0.0737
vn 0.4098 0.9080 -0.0877
vn 0.4098 0.9080 -0.0877
vn 0.1217 0.9898 -0.0737
vn 0.0283 0.9924 -0.1201
vn 0.3044 0.9332 -0.1909
vn 0.3044 0.9332 -0.1909
vn 0.0283 0.9924 -0.1201
vn -0.0864 0.9856 -0.1451
vn 0.0635 0.9273 -0.3690
vn 0.4954 0.4168 0.7621
vn 0.4264 0.6228 0.6560
vn 0.2811 0.8564 0.4330
vn 0.4139 0.6842 0.6005
vn 0.4139 0.6842 0.6005
vn 0.2811 0.8564 0.4330
vn 0.0841 0.9882 0.1279
vn 0.2273 0.9499 0.2145
vn 0.2273 0.9499 0.2145
vn 0.0841 0.9882 0.1279
vn 0.0329 0.9987 0.0400
vn 0.1829 0.9799 0.0795
vn 0.1829 0.9799 0.0795
vn 0.0329 0.9987 0.0400
vn 0.0210 0.9997 0.0137
vn 0.1805 0.9827 0.0417
vn 0.1805 0.9827 0.0417
vn 0.0210 0.9997 0.0137
vn 0.0115 0.9997 -0.0218
vn 0.1692 0.9852 -0.0288
vn 0.1692 0.9852 -0.0288
vn 0.0115 0.9997 -0.0218
vn 0.0132 0.9990 -0.0429
vn 0.1217 0.9898 -0.0737
vn 0.1217 0.9898 -0.0737
vn 0.0132 0.9990 -0.0429
vn 0.0237 0.9978 -0.0619
vn 0.0283 0.9924 -0.1201
vn 0.0283 0.9924 -0.1201
vn 0.0237 0.9978 -0.0619
vn 0.0374 0.9963 -0.0772
vn -0.0864 0.9856 -0.1451
vn 0.4264 0.6228 0.6560
vn 0.5330 0.2087 0.8200
vn 0.4949 0.4070 0.7677
vn 0.2811 0.8564 0.4330
vn 0.2811 0.8564 0.4330
vn 0.4949 0.4070 0.7677
vn 0.2546 0.8708 0.4206
vn 0.0841 0.9882 0.1279
vn 0.0841 0.9882 0.1279
vn 0.2546 0.8708 0.4206
vn 0.0815 0.9857 0.1473
vn 0.0329 0.9987 0.0400
vn 0.0329 0.9987 0.0400
vn 0.0815 0.9857 0.1473
vn 0.0311 0.9982 0.0511
vn 0.0210 0.9997 0.0137
vn 0.0210 0.9997 0.0137
vn 0.0311 0.9982 0.0511
vn -0.0158 0.9966 -0.0810
vn 0.0115 0.9997 -0.0218
vn 0.0115 0.9997 -0.0218
vn -0.0158 0.9966 -0.0810
vn -0.0172 0.9873 -0.1582
vn 0.0132 0.9990 -0.0429
vn 0.0132 0.9990 -0.0429
vn -0.0172 0.9873 -0.1582
vn 0.0140 0.9742 -0.2253
vn 0.0237 0.9978 -0.0619
vn 0.0237 0.9978 -0.0619
vn 0.0140 0.9742 -0.2253
vn 0.0552 0.9592 -0.2772
vn 0.0374 0.9963 -0.0772
vn 0.5330 0.2087 0.8200
vn 0.5229 0.2818 0.8045
vn 0.4657 0.5216 0.7148
vn 0.4949 0.4070 0.7677
vn 0.4949 0.4070 0.7677
vn 0.4657 0.5216 0.7148
vn 0.2153 0.9214 0.3234
vn 0.2546 0.8708 0.4206
vn 0.2546 0.8708 0.4206
vn 0.2153 0.9214 0.3234
vn 0.0778 0.9911 0.1076
vn 0.0815 0.9857 0.1473
vn 0.0815 0.9857 0.1473
vn 0.0778 0.9911 0.1076
vn 0.0328 0.9988 0.0372
vn 0.0311 0.9982 0.0511
vn 0.0311 0.9982 0.0511
vn 0.0328 0.9988 0.0372
vn -0.0295 0.9978 -0.0589
vn -0.0158 0.9966 -0.0810
vn -0.0158 0.9966 -0.0810
vn -0.0295 0.9978 -0.0589
vn -0.0673 0.9910 -0.1154
vn -0.0172 0.9873 -0.1582
vn -0.0172 0.9873 -0.1582
vn -0.0673 0.9910 -0.1154
vn -0.1020 0.9810 -0.1649
vn 0.0140 0.9742 -0.2253
vn 0.0140 0.9742 -0.2253
vn -0.1020 0.9810 -0.1649
vn -0.1297 0.9704 -0.2037
vn 0.0552 0.9592 -0.2772
vn -0.2159 -0.9191 0.3296
vn -0.2563 -0.8764 0.4076
vn -0.5079 -0.3625 0.7814
vn -0.4866 -0.4505 0.7485
vn -0.0803 -0.9897 0.1185
vn -0.0876 -0.9844 0.1529
vn -0.2563 -0.8764 0.4076
vn -0.2159 -0.9191 0.3296
vn 0.0023 -0.9999 -0.0100
vn 0.0006 -0.9999 -0.0130
vn -0.0876 -0.9844 0.1529
vn -0.0803 -0.9897 0.1185
vn 0.0480 -0.9957 -0.0791
vn 0.0055 -0.9947 -0.1025
vn 0.0006 -0.9999 -0.0130
vn 0.0023 -0.9999 -0.0100
vn 0.0770 -0.9897 -0.1209
vn -0.0312 -0.9872 -0.1565
vn 0.0055 -0.9947 -0.1025
vn 0.0480 -0.9957 -0.0791
vn -0.2563 -0.8764 0.4076
vn -0.0796 -0.9893 0.1220
vn -0.3070 -0.8263 0.4722
vn -0.5079 -0.3625 0.7814
vn -0.0876 -0.9844 0.1529
vn -0.0290 -0.9987 0.0411
vn -0.0796 -0.9893 0.1220
vn -0.2563 -0.8764 0.4076
vn 0.0006 -0.9999 -0.0130
vn -0.0084 -1.0000 -0.0034
vn -0.0290 -0.9987 0.0411
vn -0.0876 -0.9844 0.1529
vn 0.0055 -0.9947 -0.1025
vn -0.0092 -0.9996 -0.0273
vn -0.0084 -1.0000 -0.0034
vn 0.0006 -0.9999 -0.0130
vn -0.0312 -0.9872 -0.1565
vn -0.0204 -0.9989 -0.0420
vn -0.0092 -0.9996 -0.0273
vn 0.0055 -0.9947 -0.1025
vn -0.0796 -0.9893 0.1220
vn -0.2306 -0.9319 0.2800
vn -0.4669 -0.5158 0.7183
vn -0.3070 -0.8263 0.4722
vn -0.0290 -0.9987 0.0411
vn -0.1551 -0.9830 0.0986
vn -0.2306 -0.9319 0.2800
vn -0.0796 -0.9893 0.1220
vn -0.0084 -1.0000 -0.0034
vn -0.1144 -0.9934 -0.0083
vn -0.1551 -0.9830 0.0986
vn -0.0290 -0.9987 0.0411
vn -0.0092 -0.9996 -0.0273
vn -0.0573 -0.9962 -0.0663
vn -0.1144 -0.9934 -0.0083
vn -0.0084 -1.0000 -0.0034
vn -0.0204 -0.9989 -0.0420
vn 0.0143 -0.9947 -0.1019
vn -0.0573 -0.9962 -0.0663
vn -0.0092 -0.9996 -0.0273
vn -0.2306 -0.9319 0.2800
vn -0.0000 -0.9250 0.3800
vn -0.0000 -0.4650 0.8853
vn -0.4669 -0.5158 0.7183
vn -0.1551 -0.9830 0.0986
vn -0.0000 -0.9907 0.1359
vn -0.0000 -0.9250 0.3800
vn -0.2306 -0.9319 0.2800
vn -0.1144 -0.9934 -0.0083
vn 0.0000 -0.9999 -0.0115
vn -0.0000 -0.9907 0.1359
vn -0.1551 -0.9830 0.0986
vn -0.0573 -0.9962 -0.0663
vn 0.0000 -0.9959 -0.0907
vn 0.0000 -0.9999 -0.0115
vn -0.1144 -0.9934 -0.0083
vn 0.0143 -0.9947 -0.1019
vn 0.0000 -0.9903 -0.1387
vn 0.0000 -0.9959 -0.0907
vn -0.0573 -0.9962 -0.0663
vn -0.0000 -0.9250 0.3800
vn 0.2306 -0.9319 0.2800
vn 0.4669 -0.5158 0.7183
vn -0.0000 -0.4650 0.8853
vn -0.0000 -0.9907 0.1359
vn 0.1551 -0.9830 0.0986
vn 0.2306 -0.9319 0.2800
vn -0.0000 -0.9250 0.3800
vn 0.0000 -0.9999 -0.0115
vn 0.1144 -0.9934 -0.0083
vn 0.1551 -0.9830 0.0986
vn -0.0000 -0.9907 0.1359
vn 0.0000 -0.9959 -0.0907
vn 0.0573 -0.9962 -0.0663
vn 0.1144 -0.9934 -0.0083
vn 0.0000 -0.9999 -0.0115
vn 0.0000 -0.9903 -0.1387
vn -0.0143 -0.9947 -0.1019
vn 0.0573 -0.9962 -0.0663
vn 0.0000 -0.9959 -0.0907
vn 0.2306 -0.9319 0.2800
vn 0.0796 -0.9893 0.1220
vn 0.3070 -0.8263 0.4722
vn 0.4669 -0.5158 0.7183
vn 0.1551 -0.9830 0.0986
vn 0.0290 -0.9987 0.0411
vn 0.0796 -0.9893 0.1220
vn 0.2306 -0.9319 0.2800
vn 0.1144 -0.9934 -0.0083
vn 0.0084 -1.0000 -0.0034
vn 0.0290 -0.9987 0.0411
vn 0.1551 -0.9830 0.0986
vn 0.0573 -0.9962 -0.0663
vn 0.0092 -0.9996 -0.0273
vn 0.0084 -1.0000 -0.0034
vn 0.1144 -0.9934 -0.0083
vn -0.0143 -0.9947 -0.1019
vn 0.0204 -0.9989 -0.0420
vn 0.0092 -0.9996 -0.0273
vn 0.0573 -0.9962 -0.0663
vn 0.0796 -0.9893 0.1220
vn 0.2563 -0.8764 0.4076
vn 0.5079 -0.3625 0.7814
vn 0.3070 -0.8263 0.4722
vn 0.0290 -0.9987 0.0411
vn 0.0876 -0.9844 0.1529
vn 0.2563 -0.8764 0.4076
vn 0.0796 -0.9893 0.1220
vn 0.0084 -1.0000 -0.0034
vn -0.0006 -0.9999 -0.0130
vn 0.0876 -0.9844 0.1529
vn 0.0290 -0.9987 0.0411
vn 0.0092 -0.9996 -0.0273
vn -0.0055 -0.9947 -0.1025
vn -0.0006 -0.9999 -0.0130
vn 0.0084 -1.0000 -0.0034
vn 0.0204 -0.9989 -0.0420
vn 0.0312 -0.9872 -0.1565
vn -0.0055 -0.9947 -0.1025
vn 0.0092 -0.9996 -0.0273
vn 0.2563 -0.8764 0.4076
vn 0.2159 -0.9191 0.3296
vn 0.4866 -0.4505 0.7485
vn 0.5079 -0.3625 0.7814
vn 0.0876 -0.9844 0.1529
vn 0.0803 -0.9897 0.1185
vn 0.2159 -0.9191 0.3296
vn 0.2563 -0.8764 0.4076
vn -0.0006 -0.9999 -0.0130
vn -0.0023 -0.9999 -0.0100
vn 0.0803 -0.9897 0.1185
vn 0.0876 -0.9844 0.1529
vn -0.0055 -0.9947 -0.1025
vn -0.0480 -0.9957 -0.0791
vn -0.0023 -0.9999 -0.0100
vn -0.0006 -0.9999 -0.0130
vn 0.0312 -0.9872 -0.1565
vn -0.0770 -0.9897 -0.1209
vn -0.0480 -0.9957 -0.0791
vn -0.0055 -0.9947 -0.1025
vn -1.0000 -0.0000 -0.0000
vn -1.0000 -0.0000 -0.0000
vn -1.0000 -0.0000 -0.0000
vn -1.0000 -0.0000 -0.0000
vn -1.0000 -0.0000 -0.0000
vn -1.0000 -0.0000 -0.0000
vn -1.0000 -0.0000 -0.0000
vn -1.0000 -0.0000 -0.0000
vn 1.0000 0.0000 0.0000
vn 1.0000 0.0000 0.0000
vn 1.0000 0.0000 0.0000
vn 1.0000 0.0000 0.0000
vn 1.0000 0.0000 0.0000
vn 1.0000 0.0000 0.0000
vn 1.0000 0.0000 0.0000
vn 1.0000 0.0000 0.0000
usemtl paint
f 1/1/1 2/2/2 3/3/3 4/4/4
f 5/5/5 6/6/6 7/7/7 8/8/8
f 9/9/9 10/10/10 11/11/11 12/12/12
f 13/13/13 14/14/14 15/15/15 16/16/16
f 17/17/17 18/18/18 19/19/19 20/20/20
f 21/21/21 22/22/22 23/23/23 24/24/24
f 25/25/25 26/26/26 27/27/27 28/28/28
f 29/29/29 30/30/30 31/31/31 32/32/32
f 33/33/33 34/34/34 35/35/35 36/36/36
f 37/37/37 38/38/38 39/39/39 40/40/40
f 41/41/41 42/42/42 43/43/43 44/44/44
f 45/45/45 46/46/46 47/47/47 48/48/48
f 49/49/49 50/50/50 51/51/51 52/52/52
f 53/53/53 54/54/54 55/55/55 56/56/56
f 57/57/57 58/58/58 59/59/59 60/60/60
f 61/61/61 62/62/62 63/63/63 64/64/64
f 65/65/65 66/66/66 67/67/67 68/68/68
f 69/69/69 70/70/70 71/71/71 72/72/72
f 73/73/73 74/74/74 75/75/75 76/76/76
f 77/77/77 78/78/78 79/79/79 80/80/80
f 81/81/81 82/82/82 83/83/83 84/84/84
f 85/85/85 86/86/86 87/87/87 88/88/88
f 89/89/89 90/90/90 91/91/91 92/92/92
f 93/93/93 94/94/94 95/95/95 96/96/96
f 97/97/97 98/98/98 99/99/99 100/100/100
f 101/101/101 102/102/102 103/103/103 104/104/104
f 105/105/105 106/106/106 107/107/107 108/108/108
f 109/109/109 110/110/110 111/111/111 112/112/112
f 113/113/113 114/114/114 115/115/115 116/116/116
f 117/117/117 118/118/118 119/119/119 120/120/120
f 121/121/121 122/122/122 123/123/123 124/124/124
f 125/125/125 126/126/126 127/127/127 128/128/128
f 129/129/129 130/130/130 131/131/131 132/132/132
f 133/133/133 134/134/134 135/135/135 136/136/136
f 137/137/137 138/138/138 139/139/139 140/140/140
f 141/141/141 142/142/142 143/143/143 144/144/144
f 145/145/145 146/146/146 147/147/147 148/148/148
f 149/149/149 150/150/150 151/151/151 152/152/152
f 153/153/153 154/154/154 155/155/155 156/156/156
f 157/157/157 158/158/158 159/159/159 160/160/160
f 161/161/161 162/162/162 163/163/163 164/164/164
f 165/165/165 166/166/166 167/167/167 168/168/168
f 169/169/169 170/170/170 171/171/171 172/172/172
f 173/173/173 174/174/174 175/175/175 176/176/176
f 177/177/177 178/178/178 179/179/179 180/180/180
f 181/181/181 182/182/182 183/183/183 184/184/184
f 185/185/185 186/186/186 187/187/187 188/188/188
f 189/189/189 190/190/190 191/191/191 192/192/192
f 193/193/193 194/194/194 195/195/195 196/196/196
f 197/197/197 198/198/198 199/199/199 200/200/200
f 201/201/201 202/202/202 203/203/203 204/204/204
f 205/205/205 206/206/206 207/207/207 208/208/208
f 209/209/209 210/210/210 211/211/211 212/212/212
f 213/213/213 214/214/214 215/215/215 216/216/216
f 217/217/217 218/218/218 219/219/219 220/220/220
f 221/221/221 222/222/222 223/223/223 224/224/224
f 225/225/225 226/226/226 227/227/227 228/228/228
f 229/229/229 230/230/230 231/231/231 232/232/232
f 233/233/233 234/234/234 235/235/235 236/236/236
f 237/237/237 238/238/238 239/239/239 240/240/240
f 241/241/241 242/242/242 243/243/243 244/244/244
f 245/245/245 246/246/246 247/247/247 248/248/248
f 249/249/249 250/250/250 251/251/251 252/252/252
f 253/253/253 254/254/254 255/255/255 256/256/256
f 257/257/257 258/258/258 259/259/259 260/260/260
f 261/261/261 262/262/262 263/263/263 264/264/264
f 265/265/265 266/266/266 267/267/267 268/268/268
f 269/269/269 270/270/270 271/271/271 272/272/272
f 273/273/273 274/274/274 275/275/275 276/276/276
f 277/277/277 278/278/278 279/279/279 280/280/280
f 281/281/281 282/282/282 283/283/283 284/284/284
f 285/285/285 286/286/286 287/287/287 288/288/288
f 289/289/289 290/290/290 291/291/291 292/292/292
f 293/293/293 294/294/294 295/295/295 296/296/296
f 297/297/297 298/298/298 299/299/299 300/300/300
f 301/301/301 302/302/302 303/303/303 304/304/304
f 305/305/305 306/306/306 307/307/307 308/308/308
f 309/309/309 310/310/310 311/311/311 312/312/312
f 313/313/313 314/314/314 315/315/315 316/316/316
f 317/317/317 318/318/318 319/319/319 320/320/320
f 321/321/321 322/322/322 323/323/323 324/324/324
f 325/325/325 326/326/326 327/327/327 328/328/328
f 329/329/329 330/330/330 331/331/331 332/332/332
f 333/333/333 334/334/334 335/335/335 336/336/336
f 337/337/337 338/338/338 339/339/339 340/340/340
f 341/341/341 342/342/342 343/343/343 344/344/344
f 345/345/345 346/346/346 347/347/347 348/348/348
f 349/349/349 350/350/350 351/351/351 352/352/352
f 353/353/353 354/354/354 355/355/355 356/356/356
f 357/357/357 358/358/358 359/359/359 360/360/360
f 361/361/361 362/362/362 363/363/363 364/364/364
f 365/365/365 366/366/366 367/367/367 368/368/368
f 369/369/369 370/370/370 371/371/371 372/372/372
f 373/373/373 374/374/374 375/375/375 376/376/376
f 377/377/377 378/378/378 379/379/379 380/380/380
f 381/381/381 382/382/382 383/383/383 384/384/384
f 385/385/385 386/386/386 387/387/387 388/388/388
f 389/389/389 390/390/390 391/391/391 392/392/392
f 393/393/393 394/394/394 395/395/395 396/396/396
f 397/397/397 398/398/398 399/399/399 400/400/400
f 401/401/401 402/402/402 403/403/403 404/404/404
f 405/405/405 406/406/406 407/407/407 408/408/408
f 409/409/409 410/410/410 411/411/411 412/412/412
f 413/413/413 414/414/414 415/415/415 416/416/416
f 417/417/417 418/418/418 419/419/419 420/420/420
f 421/421/421 422/422/422 423/423/423 424/424/424
f 425/425/425 426/426/426 427/427/427 428/428/428
f 429/429/429 430/430/430 431/431/431 432/432/432
f 433/433/433 434/434/434 435/435/435 436/436/436
f 437/437/437 438/438/438 439/439/439 440/440/440
f 441/441/441 442/442/442 443/443/443 444/444/444
f 445/445/445 446/446/446 447/447/447 448/448/448
f 449/449/449 450/450/450 451/451/451 452/452/452
f 453/453/453 454/454/454 455/455/455 456/456/456
f 457/457/457 458/458/458 459/459/459 460/460/460
f 461/461/461 462/462/462 463/463/463 464/464/464
f 465/465/465 466/466/466 467/467/467 468/468/468
f 469/469/469 470/470/470 471/471/471 472/472/472
f 473/473/473 474/474/474 475/475/475 476/476/476
f 477/477/477 478/478/478 479/479/479 480/480/480
f 481/481/481 482/482/482 483/483/483 484/484/484
f 485/485/485 486/486/486 487/487/487 488/488/488
f 489/489/489 490/490/490 491/491/491 492/492/492
f 493/493/493 494/494/494 495/495/495 496/496/496
f 497/497/497 498/498/498 499/499/499 500/500/500
f 501/501/501 502/502/502 503/503/503 504/504/504
f 505/505/505 506/506/506 507/507/507 508/508/508
f 509/509/509 510/510/510 511/511/511 512/512/512
f 513/513/513 514/514/514 515/515/515 516/516/516
f 517/517/517 518/518/518 519/519/519 520/520/520
f 521/521/521 522/522/522 523/523/523 524/524/524
f 525/525/525 526/526/526 527/527/527 528/528/528
f 529/529/529 530/530/530 531/531/531 532/532/532
f 533/533/533 534/534/534 535/535/535 536/536/536
f 537/537/537 538/538/538 539/539/539 540/540/540
f 541/541/541 542/542/542 543/543/543 544/544/544
f 545/545/545 546/546/546 547/547/547 548/548/548
f 549/549/549 550/550/550 551/551/551 552/552/552
f 553/553/553 554/554/554 555/555/555 556/556/556
f 557/557/557 558/558/558 559/559/559 560/560/560
