# drone/disc — сгенерировано tools/gen_models.py, не править руками
mtllib drone.mtl
v 0.4750 -0.4750 -1.6850
v -0.4750 -0.4750 -1.6850
v -0.4750 0.4750 -1.6850
v 0.4750 0.4750 -1.6850
v 0.4750 0.4750 -1.6850
v -0.4750 0.4750 -1.6850
v -0.4750 -0.4750 -1.6850
v 0.4750 -0.4750 -1.6850
vt 0.00098 0.92122
vt 0.24902 0.92122
vt 0.24902 0.75586
vt 0.00098 0.75586
vt 0.00098 0.75586
vt 0.24902 0.75586
vt 0.24902 0.92122
vt 0.00098 0.92122
vn 0.0000 0.0000 -1.0000
vn 0.0000 0.0000 -1.0000
vn 0.0000 0.0000 -1.0000
vn 0.0000 0.0000 -1.0000
vn -0.0000 -0.0000 1.0000
vn -0.0000 -0.0000 1.0000
vn -0.0000 -0.0000 1.0000
vn -0.0000 -0.0000 1.0000
usemtl paint
f 1/1/1 2/2/2 3/3/3 4/4/4
f 5/5/5 6/6/6 7/7/7 8/8/8
