# drone/prop, упрощённая копия — сгенерировано tools/gen_models.py, не править руками
mtllib drone.mtl
v 0.0300 -0.0250 -1.6651
v 0.4600 -0.0337 -1.6741
v 0.4600 -0.0200 -1.6800
v 0.0300 0.0000 -1.6800
v 0.0300 -0.1000 -1.6800
v 0.4600 -0.0750 -1.6800
v 0.4600 -0.0337 -1.6741
v 0.0300 -0.0250 -1.6651
v 0.0300 0.0000 -1.6800
v 0.4600 -0.0200 -1.6800
v 0.4600 -0.0337 -1.6859
v 0.0300 -0.0250 -1.6949
v 0.0300 -0.0250 -1.6949
v 0.4600 -0.0337 -1.6859
v 0.4600 -0.0750 -1.6800
v 0.0300 -0.1000 -1.6800
v -0.0300 0.0250 -1.6651
v -0.4600 0.0337 -1.6741
v -0.4600 0.0200 -1.6800
v -0.0300 0.0000 -1.6800
v -0.0300 0.1000 -1.6800
v -0.4600 0.0750 -1.6800
v -0.4600 0.0337 -1.6741
v -0.0300 0.0250 -1.6651
v -0.0300 0.0000 -1.6800
v -0.4600 0.0200 -1.6800
v -0.4600 0.0337 -1.6859
v -0.0300 0.0250 -1.6949
v -0.0300 0.0250 -1.6949
v -0.4600 0.0337 -1.6859
v -0.4600 0.0750 -1.6800
v -0.0300 0.1000 -1.6800
vt 0.69629 0.43018
vt 0.81934 0.43018
vt 0.81934 0.41992
vt 0.69629 0.41992
vt 0.69629 0.46094
vt 0.81934 0.46094
vt 0.81934 0.43018
vt 0.69629 0.43018
vt 0.69629 0.46094
vt 0.81934 0.46094
vt 0.81934 0.47119
vt 0.69629 0.47119
vt 0.69629 0.47119
vt 0.81934 0.47119
vt 0.81934 0.50195
vt 0.69629 0.50195
vt 0.69629 0.43018
vt 0.81934 0.43018
vt 0.81934 0.41992
vt 0.69629 0.41992
vt 0.69629 0.46094
vt 0.81934 0.46094
vt 0.81934 0.43018
vt 0.69629 0.43018
vt 0.69629 0.46094
vt 0.81934 0.46094
vt 0.81934 0.47119
vt 0.69629 0.47119
vt 0.69629 0.47119
vt 0.81934 0.47119
vt 0.81934 0.50195
vt 0.69629 0.50195
vn 0.0222 0.0732 0.9971
vn 0.0218 0.0533 0.9983
vn 0.0342 0.7363 0.6758
vn 0.0387 0.8311 0.5547
vn 0.0191 -0.3288 0.9442
vn 0.0143 -0.2455 0.9693
vn 0.0218 0.0533 0.9983
vn 0.0222 0.0732 0.9971
vn 0.0387 0.8311 -0.5547
vn 0.0342 0.7363 -0.6758
vn 0.0218 0.0533 -0.9983
vn 0.0222 0.0732 -0.9971
vn 0.0222 0.0732 -0.9971
vn 0.0218 0.0533 -0.9983
vn 0.0143 -0.2455 -0.9693
vn 0.0191 -0.3288 -0.9442
vn -0.0222 -0.0732 0.9971
vn -0.0218 -0.0533 0.9983
vn -0.0342 -0.7363 0.6758
vn -0.0387 -0.8311 0.5547
vn -0.0191 0.3288 0.9442
vn -0.0143 0.2455 0.9693
vn -0.0218 -0.0533 0.9983
vn -0.0222 -0.0732 0.9971
vn -0.0387 -0.8311 -0.5547
vn -0.0342 -0.7363 -0.6758
vn -0.0218 -0.0533 -0.9983
vn -0.0222 -0.0732 -0.9971
vn -0.0222 -0.0732 -0.9971
vn -0.0218 -0.0533 -0.9983
vn -0.0143 0.2455 -0.9693
vn -0.0191 0.3288 -0.9442
usemtl paint
f 1/1/1 2/2/2 3/3/3 4/4/4
f 5/5/5 6/6/6 7/7/7 8/8/8
f 9/9/9 10/10/10 11/11/11 12/12/12
f 13/13/13 14/14/14 15/15/15 16/16/16
f 17/17/17 18/18/18 19/19/19 20/20/20
f 21/21/21 22/22/22 23/23/23 24/24/24
f 25/25/25 26/26/26 27/27/27 28/28/28
f 29/29/29 30/30/30 31/31/31 32/32/32
