# drone/prop — сгенерировано tools/gen_models.py, не править руками
mtllib drone.mtl
v 0.0600 -0.0134 -3.3399
v 0.2750 -0.0219 -3.3429
v 0.2750 -0.0100 -3.3600
v 0.0600 0.0000 -3.3600
v 0.0600 -0.0500 -3.3303
v 0.2750 -0.0544 -3.3348
v 0.2750 -0.0219 -3.3429
v 0.0600 -0.0134 -3.3399
v 0.0600 -0.1000 -3.3336
v 0.2750 -0.0987 -3.3375
v 0.2750 -0.0544 -3.3348
v 0.0600 -0.0500 -3.3303
v 0.0600 -0.1500 -3.3444
v 0.2750 -0.1431 -3.3467
v 0.2750 -0.0987 -3.3375
v 0.0600 -0.1000 -3.3336
v 0.0600 -0.1866 -3.3553
v 0.2750 -0.1756 -3.3560
v 0.2750 -0.1431 -3.3467
v 0.0600 -0.1500 -3.3444
v 0.0600 -0.2000 -3.3600
v 0.2750 -0.1875 -3.3600
v 0.2750 -0.1756 -3.3560
v 0.0600 -0.1866 -3.3553
v 0.2750 -0.0219 -3.3429
v 0.4900 -0.0304 -3.3459
v 0.4900 -0.0200 -3.3600
v 0.2750 -0.0100 -3.3600
v 0.2750 -0.0544 -3.3348
v 0.4900 -0.0587 -3.3392
v 0.4900 -0.0304 -3.3459
v 0.2750 -0.0219 -3.3429
v 0.2750 -0.0987 -3.3375
v 0.4900 -0.0975 -3.3415
v 0.4900 -0.0587 -3.3392
v 0.2750 -0.0544 -3.3348
v 0.2750 -0.1431 -3.3467
v 0.4900 -0.1362 -3.3491
v 0.4900 -0.0975 -3.3415
v 0.2750 -0.0987 -3.3375
v 0.2750 -0.1756 -3.3560
v 0.4900 -0.1646 -3.3567
v 0.4900 -0.1362 -3.3491
v 0.2750 -0.1431 -3.3467
v 0.2750 -0.1875 -3.3600
v 0.4900 -0.1750 -3.3600
v 0.4900 -0.1646 -3.3567
v 0.2750 -0.1756 -3.3560
v 0.4900 -0.0304 -3.3459
v 0.7050 -0.0389 -3.3490
v 0.7050 -0.0300 -3.3600
v 0.4900 -0.0200 -3.3600
v 0.4900 -0.0587 -3.3392
v 0.7050 -0.0631 -3.3437
v 0.7050 -0.0389 -3.3490
v 0.4900 -0.0304 -3.3459
v 0.4900 -0.0975 -3.3415
v 0.7050 -0.0962 -3.3455
v 0.7050 -0.0631 -3.3437
v 0.4900 -0.0587 -3.3392
v 0.4900 -0.1362 -3.3491
v 0.7050 -0.1294 -3.3514
v 0.7050 -0.0962 -3.3455
v 0.4900 -0.0975 -3.3415
v 0.4900 -0.1646 -3.3567
v 0.7050 -0.1536 -3.3574
v 0.7050 -0.1294 -3.3514
v 0.4900 -0.1362 -3.3491
v 0.4900 -0.1750 -3.3600
v 0.7050 -0.1625 -3.3600
v 0.7050 -0.1536 -3.3574
v 0.4900 -0.1646 -3.3567
v 0.7050 -0.0389 -3.3490
v 0.9200 -0.0474 -3.3520
v 0.9200 -0.0400 -3.3600
v 0.7050 -0.0300 -3.3600
v 0.7050 -0.0631 -3.3437
v 0.9200 -0.0675 -3.3481
v 0.9200 -0.0474 -3.3520
v 0.7050 -0.0389 -3.3490
v 0.7050 -0.0962 -3.3455
v 0.9200 -0.0950 -3.3494
v 0.9200 -0.0675 -3.3481
v 0.7050 -0.0631 -3.3437
v 0.7050 -0.1294 -3.3514
v 0.9200 -0.1225 -3.3538
v 0.9200 -0.0950 -3.3494
v 0.7050 -0.0962 -3.3455
v 0.7050 -0.1536 -3.3574
v 0.9200 -0.1426 -3.3581
v 0.9200 -0.1225 -3.3538
v 0.7050 -0.1294 -3.3514
v 0.7050 -0.1625 -3.3600
v 0.9200 -0.1500 -3.3600
v 0.9200 -0.1426 -3.3581
v 0.7050 -0.1536 -3.3574
v 0.0600 0.0000 -3.3600
v 0.2750 -0.0100 -3.3600
v 0.2750 -0.0219 -3.3771
v 0.0600 -0.0134 -3.3801
v 0.0600 -0.0134 -3.3801
v 0.2750 -0.0219 -3.3771
v 0.2750 -0.0544 -3.3852
v 0.0600 -0.0500 -3.3897
v 0.0600 -0.0500 -3.3897
v 0.2750 -0.0544 -3.3852
v 0.2750 -0.0987 -3.3825
v 0.0600 -0.1000 -3.3864
v 0.0600 -0.1000 -3.3864
v 0.2750 -0.0987 -3.3825
v 0.2750 -0.1431 -3.3733
v 0.0600 -0.1500 -3.3756
v 0.0600 -0.1500 -3.3756
v 0.2750 -0.1431 -3.3733
v 0.2750 -0.1756 -3.3640
v 0.0600 -0.1866 -3.3647
v 0.0600 -0.1866 -3.3647
v 0.2750 -0.1756 -3.3640
v 0.2750 -0.1875 -3.3600
v 0.0600 -0.2000 -3.3600
v 0.2750 -0.0100 -3.3600
v 0.4900 -0.0200 -3.3600
v 0.4900 -0.0304 -3.3741
v 0.2750 -0.0219 -3.3771
v 0.2750 -0.0219 -3.3771
v 0.4900 -0.0304 -3.3741
v 0.4900 -0.0587 -3.3808
v 0.2750 -0.0544 -3.3852
v 0.2750 -0.0544 -3.3852
v 0.4900 -0.0587 -3.3808
v 0.4900 -0.0975 -3.3785
v 0.2750 -0.0987 -3.3825
v 0.2750 -0.0987 -3.3825
v 0.4900 -0.0975 -3.3785
v 0.4900 -0.1362 -3.3709
v 0.2750 -0.1431 -3.3733
v 0.2750 -0.1431 -3.3733
v 0.4900 -0.1362 -3.3709
v 0.4900 -0.1646 -3.3633
v 0.2750 -0.1756 -3.3640
v 0.2750 -0.1756 -3.3640
v 0.4900 -0.1646 -3.3633
v 0.4900 -0.1750 -3.3600
v 0.2750 -0.1875 -3.3600
v 0.4900 -0.0200 -3.3600
v 0.7050 -0.0300 -3.3600
v 0.7050 -0.0389 -3.3710
v 0.4900 -0.0304 -3.3741
v 0.4900 -0.0304 -3.3741
v 0.7050 -0.0389 -3.3710
v 0.7050 -0.0631 -3.3763
v 0.4900 -0.0587 -3.3808
v 0.4900 -0.0587 -3.3808
v 0.7050 -0.0631 -3.3763
v 0.7050 -0.0962 -3.3745
v 0.4900 -0.0975 -3.3785
v 0.4900 -0.0975 -3.3785
v 0.7050 -0.0962 -3.3745
v 0.7050 -0.1294 -3.3686
v 0.4900 -0.1362 -3.3709
v 0.4900 -0.1362 -3.3709
v 0.7050 -0.1294 -3.3686
v 0.7050 -0.1536 -3.3626
v 0.4900 -0.1646 -3.3633
v 0.4900 -0.1646 -3.3633
v 0.7050 -0.1536 -3.3626
v 0.7050 -0.1625 -3.3600
v 0.4900 -0.1750 -3.3600
v 0.7050 -0.0300 -3.3600
v 0.9200 -0.0400 -3.3600
v 0.9200 -0.0474 -3.3680
v 0.7050 -0.0389 -3.3710
v 0.7050 -0.0389 -3.3710
v 0.9200 -0.0474 -3.3680
v 0.9200 -0.0675 -3.3719
v 0.7050 -0.0631 -3.3763
v 0.7050 -0.0631 -3.3763
v 0.9200 -0.0675 -3.3719
v 0.9200 -0.0950 -3.3706
v 0.7050 -0.0962 -3.3745
v 0.7050 -0.0962 -3.3745
v 0.9200 -0.0950 -3.3706
v 0.9200 -0.1225 -3.3662
v 0.7050 -0.1294 -3.3686
v 0.7050 -0.1294 -3.3686
v 0.9200 -0.1225 -3.3662
v 0.9200 -0.1426 -3.3619
v 0.7050 -0.1536 -3.3626
v 0.7050 -0.1536 -3.3626
v 0.9200 -0.1426 -3.3619
v 0.9200 -0.1500 -3.3600
v 0.7050 -0.1625 -3.3600
v 0.9200 -0.0474 -3.3520
v 0.9200 -0.0474 -3.3680
v 0.9200 -0.0400 -3.3600
v 0.9200 -0.0400 -3.3600
v 0.9200 -0.0675 -3.3481
v 0.9200 -0.0675 -3.3719
v 0.9200 -0.0474 -3.3680
v 0.9200 -0.0474 -3.3520
v 0.9200 -0.0950 -3.3494
v 0.9200 -0.0950 -3.3706
v 0.9200 -0.0675 -3.3719
v 0.9200 -0.0675 -3.3481
v 0.9200 -0.1225 -3.3538
v 0.9200 -0.1225 -3.3662
v 0.9200 -0.0950 -3.3706
v 0.9200 -0.0950 -3.3494
v 0.9200 -0.1426 -3.3581
v 0.9200 -0.1426 -3.3619
v 0.9200 -0.1225 -3.3662
v 0.9200 -0.1225 -3.3538
v 0.9200 -0.1500 -3.3600
v 0.9200 -0.1500 -3.3600
v 0.9200 -0.1426 -3.3619
v 0.9200 -0.1426 -3.3581
v -0.0600 0.0134 -3.3399
v -0.2750 0.0219 -3.3429
v -0.2750 0.0100 -3.3600
v -0.0600 0.0000 -3.3600
v -0.0600 0.0500 -3.3303
v -0.2750 0.0544 -3.3348
v -0.2750 0.0219 -3.3429
v -0.0600 0.0134 -3.3399
v -0.0600 0.1000 -3.3336
v -0.2750 0.0987 -3.3375
v -0.2750 0.0544 -3.3348
v -0.0600 0.0500 -3.3303
v -0.0600 0.1500 -3.3444
v -0.2750 0.1431 -3.3467
v -0.2750 0.0987 -3.3375
v -0.0600 0.1000 -3.3336
v -0.0600 0.1866 -3.3553
v -0.2750 0.1756 -3.3560
v -0.2750 0.1431 -3.3467
v -0.0600 0.1500 -3.3444
v -0.0600 0.2000 -3.3600
v -0.2750 0.1875 -3.3600
v -0.2750 0.1756 -3.3560
v -0.0600 0.1866 -3.3553
v -0.2750 0.0219 -3.3429
v -0.4900 0.0304 -3.3459
v -0.4900 0.0200 -3.3600
v -0.2750 0.0100 -3.3600
v -0.2750 0.0544 -3.3348
v -0.4900 0.0587 -3.3392
v -0.4900 0.0304 -3.3459
v -0.2750 0.0219 -3.3429
v -0.2750 0.0987 -3.3375
v -0.4900 0.0975 -3.3415
v -0.4900 0.0587 -3.3392
v -0.2750 0.0544 -3.3348
v -0.2750 0.1431 -3.3467
v -0.4900 0.1362 -3.3491
v -0.4900 0.0975 -3.3415
v -0.2750 0.0987 -3.3375
v -0.2750 0.1756 -3.3560
v -0.4900 0.1646 -3.3567
v -0.4900 0.1362 -3.3491
v -0.2750 0.1431 -3.3467
v -0.2750 0.1875 -3.3600
v -0.4900 0.1750 -3.3600
v -0.4900 0.1646 -3.3567
v -0.2750 0.1756 -3.3560
v -0.4900 0.0304 -3.3459
v -0.7050 0.0389 -3.3490
v -0.7050 0.0300 -3.3600
v -0.4900 0.0200 -3.3600
v -0.4900 0.0587 -3.3392
v -0.7050 0.0631 -3.3437
v -0.7050 0.0389 -3.3490
v -0.4900 0.0304 -3.3459
v -0.4900 0.0975 -3.3415
v -0.7050 0.0962 -3.3455
v -0.7050 0.0631 -3.3437
v -0.4900 0.0587 -3.3392
v -0.4900 0.1362 -3.3491
v -0.7050 0.1294 -3.3514
v -0.7050 0.0962 -3.3455
v -0.4900 0.0975 -3.3415
v -0.4900 0.1646 -3.3567
v -0.7050 0.1536 -3.3574
v -0.7050 0.1294 -3.3514
v -0.4900 0.1362 -3.3491
v -0.4900 0.1750 -3.3600
v -0.7050 0.1625 -3.3600
v -0.7050 0.1536 -3.3574
v -0.4900 0.1646 -3.3567
v -0.7050 0.0389 -3.3490
v -0.9200 0.0474 -3.3520
v -0.9200 0.0400 -3.3600
v -0.7050 0.0300 -3.3600
v -0.7050 0.0631 -3.3437
v -0.9200 0.0675 -3.3481
v -0.9200 0.0474 -3.3520
v -0.7050 0.0389 -3.3490
v -0.7050 0.0962 -3.3455
v -0.9200 0.0950 -3.3494
v -0.9200 0.0675 -3.3481
v -0.7050 0.0631 -3.3437
v -0.7050 0.1294 -3.3514
v -0.9200 0.1225 -3.3538
v -0.9200 0.0950 -3.3494
v -0.7050 0.0962 -3.3455
v -0.7050 0.1536 -3.3574
v -0.9200 0.1426 -3.3581
v -0.9200 0.1225 -3.3538
v -0.7050 0.1294 -3.3514
v -0.7050 0.1625 -3.3600
v -0.9200 0.1500 -3.3600
v -0.9200 0.1426 -3.3581
v -0.7050 0.1536 -3.3574
v -0.0600 0.0000 -3.3600
v -0.2750 0.0100 -3.3600
v -0.2750 0.0219 -3.3771
v -0.0600 0.0134 -3.3801
v -0.0600 0.0134 -3.3801
v -0.2750 0.0219 -3.3771
v -0.2750 0.0544 -3.3852
v -0.0600 0.0500 -3.3897
v -0.0600 0.0500 -3.3897
v -0.2750 0.0544 -3.3852
v -0.2750 0.0987 -3.3825
v -0.0600 0.1000 -3.3864
v -0.0600 0.1000 -3.3864
v -0.2750 0.0987 -3.3825
v -0.2750 0.1431 -3.3733
v -0.0600 0.1500 -3.3756
v -0.0600 0.1500 -3.3756
v -0.2750 0.1431 -3.3733
v -0.2750 0.1756 -3.3640
v -0.0600 0.1866 -3.3647
v -0.0600 0.1866 -3.3647
v -0.2750 0.1756 -3.3640
v -0.2750 0.1875 -3.3600
v -0.0600 0.2000 -3.3600
v -0.2750 0.0100 -3.3600
v -0.4900 0.0200 -3.3600
v -0.4900 0.0304 -3.3741
v -0.2750 0.0219 -3.3771
v -0.2750 0.0219 -3.3771
v -0.4900 0.0304 -3.3741
v -0.4900 0.0587 -3.3808
v -0.2750 0.0544 -3.3852
v -0.2750 0.0544 -3.3852
v -0.4900 0.0587 -3.3808
v -0.4900 0.0975 -3.3785
v -0.2750 0.0987 -3.3825
v -0.2750 0.0987 -3.3825
v -0.4900 0.0975 -3.3785
v -0.4900 0.1362 -3.3709
v -0.2750 0.1431 -3.3733
v -0.2750 0.1431 -3.3733
v -0.4900 0.1362 -3.3709
v -0.4900 0.1646 -3.3633
v -0.2750 0.1756 -3.3640
v -0.2750 0.1756 -3.3640
v -0.4900 0.1646 -3.3633
v -0.4900 0.1750 -3.3600
v -0.2750 0.1875 -3.3600
v -0.4900 0.0200 -3.3600
v -0.7050 0.0300 -3.3600
v -0.7050 0.0389 -3.3710
v -0.4900 0.0304 -3.3741
v -0.4900 0.0304 -3.3741
v -0.7050 0.0389 -3.3710
v -0.7050 0.0631 -3.3763
v -0.4900 0.0587 -3.3808
v -0.4900 0.0587 -3.3808
v -0.7050 0.0631 -3.3763
v -0.7050 0.0962 -3.3745
v -0.4900 0.0975 -3.3785
v -0.4900 0.0975 -3.3785
v -0.7050 0.0962 -3.3745
v -0.7050 0.1294 -3.3686
v -0.4900 0.1362 -3.3709
v -0.4900 0.1362 -3.3709
v -0.7050 0.1294 -3.3686
v -0.7050 0.1536 -3.3626
v -0.4900 0.1646 -3.3633
v -0.4900 0.1646 -3.3633
v -0.7050 0.1536 -3.3626
v -0.7050 0.1625 -3.3600
v -0.4900 0.1750 -3.3600
v -0.7050 0.0300 -3.3600
v -0.9200 0.0400 -3.3600
v -0.9200 0.0474 -3.3680
v -0.7050 0.0389 -3.3710
v -0.7050 0.0389 -3.3710
v -0.9200 0.0474 -3.3680
v -0.9200 0.0675 -3.3719
v -0.7050 0.0631 -3.3763
v -0.7050 0.0631 -3.3763
v -0.9200 0.0675 -3.3719
v -0.9200 0.0950 -3.3706
v -0.7050 0.0962 -3.3745
v -0.7050 0.0962 -3.3745
v -0.9200 0.0950 -3.3706
v -0.9200 0.1225 -3.3662
v -0.7050 0.1294 -3.3686
v -0.7050 0.1294 -3.3686
v -0.9200 0.1225 -3.3662
v -0.9200 0.1426 -3.3619
v -0.7050 0.1536 -3.3626
v -0.7050 0.1536 -3.3626
v -0.9200 0.1426 -3.3619
v -0.9200 0.1500 -3.3600
v -0.7050 0.1625 -3.3600
v -0.9200 0.0474 -3.3520
v -0.9200 0.0474 -3.3680
v -0.9200 0.0400 -3.3600
v -0.9200 0.0400 -3.3600
v -0.9200 0.0675 -3.3481
v -0.9200 0.0675 -3.3719
v -0.9200 0.0474 -3.3680
v -0.9200 0.0474 -3.3520
v -0.9200 0.0950 -3.3494
v -0.9200 0.0950 -3.3706
v -0.9200 0.0675 -3.3719
v -0.9200 0.0675 -3.3481
v -0.9200 0.1225 -3.3538
v -0.9200 0.1225 -3.3662
v -0.9200 0.0950 -3.3706
v -0.9200 0.0950 -3.3494
v -0.9200 0.1426 -3.3581
v -0.9200 0.1426 -3.3619
v -0.9200 0.1225 -3.3662
v -0.9200 0.1225 -3.3538
v -0.9200 0.1500 -3.3600
v -0.9200 0.1500 -3.3600
v -0.9200 0.1426 -3.3619
v -0.9200 0.1426 -3.3581
vt 0.69629 0.42267
vt 0.72705 0.42267
vt 0.72705 0.41992
vt 0.69629 0.41992
vt 0.69629 0.43018
vt 0.72705 0.43018
vt 0.72705 0.42267
vt 0.69629 0.42267
vt 0.69629 0.44043
vt 0.72705 0.44043
vt 0.72705 0.43018
vt 0.69629 0.43018
vt 0.69629 0.45068
vt 0.72705 0.45068
vt 0.72705 0.44043
vt 0.69629 0.44043
vt 0.69629 0.45819
vt 0.72705 0.45819
vt 0.72705 0.45068
vt 0.69629 0.45068
vt 0.69629 0.46094
vt 0.72705 0.46094
vt 0.72705 0.45819
vt 0.69629 0.45819
vt 0.72705 0.42267
vt 0.75781 0.42267
vt 0.75781 0.41992
vt 0.72705 0.41992
vt 0.72705 0.43018
vt 0.75781 0.43018
vt 0.75781 0.42267
vt 0.72705 0.42267
vt 0.72705 0.44043
vt 0.75781 0.44043
vt 0.75781 0.43018
vt 0.72705 0.43018
vt 0.72705 0.45068
vt 0.75781 0.45068
vt 0.75781 0.44043
vt 0.72705 0.44043
vt 0.72705 0.45819
vt 0.75781 0.45819
vt 0.75781 0.45068
vt 0.72705 0.45068
vt 0.72705 0.46094
vt 0.75781 0.46094
vt 0.75781 0.45819
vt 0.72705 0.45819
vt 0.75781 0.42267
vt 0.78857 0.42267
vt 0.78857 0.41992
vt 0.75781 0.41992
vt 0.75781 0.43018
vt 0.78857 0.43018
vt 0.78857 0.42267
vt 0.75781 0.42267
vt 0.75781 0.44043
vt 0.78857 0.44043
vt 0.78857 0.43018
vt 0.75781 0.43018
vt 0.75781 0.45068
vt 0.78857 0.45068
vt 0.78857 0.44043
vt 0.75781 0.44043
vt 0.75781 0.45819
vt 0.78857 0.45819
vt 0.78857 0.45068
vt 0.75781 0.45068
vt 0.75781 0.46094
vt 0.78857 0.46094
vt 0.78857 0.45819
vt 0.75781 0.45819
vt 0.78857 0.42267
vt 0.81934 0.42267
vt 0.81934 0.41992
vt 0.78857 0.41992
vt 0.78857 0.43018
vt 0.81934 0.43018
vt 0.81934 0.42267
vt 0.78857 0.42267
vt 0.78857 0.44043
vt 0.81934 0.44043
vt 0.81934 0.43018
vt 0.78857 0.43018
vt 0.78857 0.45068
vt 0.81934 0.45068
vt 0.81934 0.44043
vt 0.78857 0.44043
vt 0.78857 0.45819
vt 0.81934 0.45819
vt 0.81934 0.45068
vt 0.78857 0.45068
vt 0.78857 0.46094
vt 0.81934 0.46094
vt 0.81934 0.45819
vt 0.78857 0.45819
vt 0.69629 0.46094
vt 0.72705 0.46094
vt 0.72705 0.46369
vt 0.69629 0.46369
vt 0.69629 0.46369
vt 0.72705 0.46369
vt 0.72705 0.47119
vt 0.69629 0.47119
vt 0.69629 0.47119
vt 0.72705 0.47119
vt 0.72705 0.48145
vt 0.69629 0.48145
vt 0.69629 0.48145
vt 0.72705 0.48145
vt 0.72705 0.49170
vt 0.69629 0.49170
vt 0.69629 0.49170
vt 0.72705 0.49170
vt 0.72705 0.49921
vt 0.69629 0.49921
vt 0.69629 0.49921
vt 0.72705 0.49921
vt 0.72705 0.50195
vt 0.69629 0.50195
vt 0.72705 0.46094
vt 0.75781 0.46094
vt 0.75781 0.46369
vt 0.72705 0.46369
vt 0.72705 0.46369
vt 0.75781 0.46369
vt 0.75781 0.47119
vt 0.72705 0.47119
vt 0.72705 0.47119
vt 0.75781 0.47119
vt 0.75781 0.48145
vt 0.72705 0.48145
vt 0.72705 0.48145
vt 0.75781 0.48145
vt 0.75781 0.49170
vt 0.72705 0.49170
vt 0.72705 0.49170
vt 0.75781 0.49170
vt 0.75781 0.49921
vt 0.72705 0.49921
vt 0.72705 0.49921
vt 0.75781 0.49921
vt 0.75781 0.50195
vt 0.72705 0.50195
vt 0.75781 0.46094
vt 0.78857 0.46094
vt 0.78857 0.46369
vt 0.75781 0.46369
vt 0.75781 0.46369
vt 0.78857 0.46369
vt 0.78857 0.47119
vt 0.75781 0.47119
vt 0.75781 0.47119
vt 0.78857 0.47119
vt 0.78857 0.48145
vt 0.75781 0.48145
vt 0.75781 0.48145
vt 0.78857 0.48145
vt 0.78857 0.49170
vt 0.75781 0.49170
vt 0.75781 0.49170
vt 0.78857 0.49170
vt 0.78857 0.49921
vt 0.75781 0.49921
vt 0.75781 0.49921
vt 0.78857 0.49921
vt 0.78857 0.50195
vt 0.75781 0.50195
vt 0.78857 0.46094
vt 0.81934 0.46094
vt 0.81934 0.46369
vt 0.78857 0.46369
vt 0.78857 0.46369
vt 0.81934 0.46369
vt 0.81934 0.47119
vt 0.78857 0.47119
vt 0.78857 0.47119
vt 0.81934 0.47119
vt 0.81934 0.48145
vt 0.78857 0.48145
vt 0.78857 0.48145
vt 0.81934 0.48145
vt 0.81934 0.49170
vt 0.78857 0.49170
vt 0.78857 0.49170
vt 0.81934 0.49170
vt 0.81934 0.49921
vt 0.78857 0.49921
vt 0.78857 0.49921
vt 0.81934 0.49921
vt 0.81934 0.50195
vt 0.78857 0.50195
vt 0.81934 0.42267
vt 0.81934 0.46369
vt 0.81934 0.46094
vt 0.81934 0.41992
vt 0.81934 0.43018
vt 0.81934 0.47119
vt 0.81934 0.46369
vt 0.81934 0.42267
vt 0.81934 0.44043
vt 0.81934 0.48145
vt 0.81934 0.47119
vt 0.81934 0.43018
vt 0.81934 0.45068
vt 0.81934 0.49170
vt 0.81934 0.48145
vt 0.81934 0.44043
vt 0.81934 0.45819
vt 0.81934 0.49921
vt 0.81934 0.49170
vt 0.81934 0.45068
vt 0.81934 0.46094
vt 0.81934 0.50195
vt 0.81934 0.49921
vt 0.81934 0.45819
vt 0.69629 0.42267
vt 0.72705 0.42267
vt 0.72705 0.41992
vt 0.69629 0.41992
vt 0.69629 0.43018
vt 0.72705 0.43018
vt 0.72705 0.42267
vt 0.69629 0.42267
vt 0.69629 0.44043
vt 0.72705 0.44043
vt 0.72705 0.43018
vt 0.69629 0.43018
vt 0.69629 0.45068
vt 0.72705 0.45068
vt 0.72705 0.44043
vt 0.69629 0.44043
vt 0.69629 0.45819
vt 0.72705 0.45819
vt 0.72705 0.45068
vt 0.69629 0.45068
vt 0.69629 0.46094
vt 0.72705 0.46094
vt 0.72705 0.45819
vt 0.69629 0.45819
vt 0.72705 0.42267
vt 0.75781 0.42267
vt 0.75781 0.41992
vt 0.72705 0.41992
vt 0.72705 0.43018
vt 0.75781 0.43018
vt 0.75781 0.42267
vt 0.72705 0.42267
vt 0.72705 0.44043
vt 0.75781 0.44043
vt 0.75781 0.43018
vt 0.72705 0.43018
vt 0.72705 0.45068
vt 0.75781 0.45068
vt 0.75781 0.44043
vt 0.72705 0.44043
vt 0.72705 0.45819
vt 0.75781 0.45819
vt 0.75781 0.45068
vt 0.72705 0.45068
vt 0.72705 0.46094
vt 0.75781 0.46094
vt 0.75781 0.45819
vt 0.72705 0.45819
vt 0.75781 0.42267
vt 0.78857 0.42267
vt 0.78857 0.41992
vt 0.75781 0.41992
vt 0.75781 0.43018
vt 0.78857 0.43018
vt 0.78857 0.42267
vt 0.75781 0.42267
vt 0.75781 0.44043
vt 0.78857 0.44043
vt 0.78857 0.43018
vt 0.75781 0.43018
vt 0.75781 0.45068
vt 0.78857 0.45068
vt 0.78857 0.44043
vt 0.75781 0.44043
vt 0.75781 0.45819
vt 0.78857 0.45819
vt 0.78857 0.45068
vt 0.75781 0.45068
vt 0.75781 0.46094
vt 0.78857 0.46094
vt 0.78857 0.45819
vt 0.75781 0.45819
vt 0.78857 0.42267
vt 0.81934 0.42267
vt 0.81934 0.41992
vt 0.78857 0.41992
vt 0.78857 0.43018
vt 0.81934 0.43018
vt 0.81934 0.42267
vt 0.78857 0.42267
vt 0.78857 0.44043
vt 0.81934 0.44043
vt 0.81934 0.43018
vt 0.78857 0.43018
vt 0.78857 0.45068
vt 0.81934 0.45068
vt 0.81934 0.44043
vt 0.78857 0.44043
vt 0.78857 0.45819
vt 0.81934 0.45819
vt 0.81934 0.45068
vt 0.78857 0.45068
vt 0.78857 0.46094
vt 0.81934 0.46094
vt 0.81934 0.45819
vt 0.78857 0.45819
vt 0.69629 0.46094
vt 0.72705 0.46094
vt 0.72705 0.46369
vt 0.69629 0.46369
vt 0.69629 0.46369
vt 0.72705 0.46369
vt 0.72705 0.47119
vt 0.69629 0.47119
vt 0.69629 0.47119
vt 0.72705 0.47119
vt 0.72705 0.48145
vt 0.69629 0.48145
vt 0.69629 0.48145
vt 0.72705 0.48145
vt 0.72705 0.49170
vt 0.69629 0.49170
vt 0.69629 0.49170
vt 0.72705 0.49170
vt 0.72705 0.49921
vt 0.69629 0.49921
vt 0.69629 0.49921
vt 0.72705 0.49921
vt 0.72705 0.50195
vt 0.69629 0.50195
vt 0.72705 0.46094
vt 0.75781 0.46094
vt 0.75781 0.46369
vt 0.72705 0.46369
vt 0.72705 0.46369
vt 0.75781 0.46369
vt 0.75781 0.47119
vt 0.72705 0.47119
vt 0.72705 0.47119
vt 0.75781 0.47119
vt 0.75781 0.48145
vt 0.72705 0.48145
vt 0.72705 0.48145
vt 0.75781 0.48145
vt 0.75781 0.49170
vt 0.72705 0.49170
vt 0.72705 0.49170
vt 0.75781 0.49170
vt 0.75781 0.49921
vt 0.72705 0.49921
vt 0.72705 0.49921
vt 0.75781 0.49921
vt 0.75781 0.50195
vt 0.72705 0.50195
vt 0.75781 0.46094
vt 0.78857 0.46094
vt 0.78857 0.46369
vt 0.75781 0.46369
vt 0.75781 0.46369
vt 0.78857 0.46369
vt 0.78857 0.47119
vt 0.75781 0.47119
vt 0.75781 0.47119
vt 0.78857 0.47119
vt 0.78857 0.48145
vt 0.75781 0.48145
vt 0.75781 0.48145
vt 0.78857 0.48145
vt 0.78857 0.49170
vt 0.75781 0.49170
vt 0.75781 0.49170
vt 0.78857 0.49170
vt 0.78857 0.49921
vt 0.75781 0.49921
vt 0.75781 0.49921
vt 0.78857 0.49921
vt 0.78857 0.50195
vt 0.75781 0.50195
vt 0.78857 0.46094
vt 0.81934 0.46094
vt 0.81934 0.46369
vt 0.78857 0.46369
vt 0.78857 0.46369
vt 0.81934 0.46369
vt 0.81934 0.47119
vt 0.78857 0.47119
vt 0.78857 0.47119
vt 0.81934 0.47119
vt 0.81934 0.48145
vt 0.78857 0.48145
vt 0.78857 0.48145
vt 0.81934 0.48145
vt 0.81934 0.49170
vt 0.78857 0.49170
vt 0.78857 0.49170
vt 0.81934 0.49170
vt 0.81934 0.49921
vt 0.78857 0.49921
vt 0.78857 0.49921
vt 0.81934 0.49921
vt 0.81934 0.50195
vt 0.78857 0.50195
vt 0.81934 0.42267
vt 0.81934 0.46369
vt 0.81934 0.46094
vt 0.81934 0.41992
vt 0.81934 0.43018
vt 0.81934 0.47119
vt 0.81934 0.46369
vt 0.81934 0.42267
vt 0.81934 0.44043
vt 0.81934 0.48145
vt 0.81934 0.47119
vt 0.81934 0.43018
vt 0.81934 0.45068
vt 0.81934 0.49170
vt 0.81934 0.48145
vt 0.81934 0.44043
vt 0.81934 0.45819
vt 0.81934 0.49921
vt 0.81934 0.49170
vt 0.81934 0.45068
vt 0.81934 0.46094
vt 0.81934 0.50195
vt 0.81934 0.49921
vt 0.81934 0.45819
vn 0.0322 0.5105 0.8593
vn 0.0317 0.4943 0.8687
vn 0.0381 0.8198 0.5713
vn 0.0387 0.8311 0.5547
vn 0.0222 0.0732 0.9971
vn 0.0221 0.0701 0.9973
vn 0.0317 0.4943 0.8687
vn 0.0322 0.5105 0.8593
vn 0.0191 -0.1396 0.9900
vn 0.0190 -0.1338 0.9908
vn 0.0221 0.0701 0.9973
vn 0.0222 0.0732 0.9971
vn 0.0183 -0.2437 0.9697
vn 0.0181 -0.2340 0.9721
vn 0.0190 -0.1338 0.9908
vn 0.0191 -0.1396 0.9900
vn 0.0183 -0.2978 0.9544
vn 0.0178 -0.2863 0.9580
vn 0.0181 -0.2340 0.9721
vn 0.0183 -0.2437 0.9697
vn 0.0191 -0.3288 0.9442
vn 0.0184 -0.3164 0.9485
vn 0.0178 -0.2863 0.9580
vn 0.0183 -0.2978 0.9544
vn 0.0317 0.4943 0.8687
vn 0.0310 0.4726 0.8807
vn 0.0374 0.8037 0.5939
vn 0.0381 0.8198 0.5713
vn 0.0221 0.0701 0.9973
vn 0.0220 0.0662 0.9976
vn 0.0310 0.4726 0.8807
vn 0.0317 0.4943 0.8687
vn 0.0190 -0.1338 0.9908
vn 0.0190 -0.1263 0.9918
vn 0.0220 0.0662 0.9976
vn 0.0221 0.0701 0.9973
vn 0.0181 -0.2340 0.9721
vn 0.0177 -0.2213 0.9750
vn 0.0190 -0.1263 0.9918
vn 0.0190 -0.1338 0.9908
vn 0.0178 -0.2863 0.9580
vn 0.0170 -0.2712 0.9624
vn 0.0177 -0.2213 0.9750
vn 0.0181 -0.2340 0.9721
vn 0.0184 -0.3164 0.9485
vn 0.0174 -0.3000 0.9538
vn 0.0170 -0.2712 0.9624
vn 0.0178 -0.2863 0.9580
vn 0.0310 0.4726 0.8807
vn 0.0300 0.4421 0.8965
vn 0.0362 0.7788 0.6262
vn 0.0374 0.8037 0.5939
vn 0.0220 0.0662 0.9976
vn 0.0219 0.0608 0.9979
vn 0.0300 0.4421 0.8965
vn 0.0310 0.4726 0.8807
vn 0.0190 -0.1263 0.9918
vn 0.0190 -0.1163 0.9930
vn 0.0219 0.0608 0.9979
vn 0.0220 0.0662 0.9976
vn 0.0177 -0.2213 0.9750
vn 0.0172 -0.2042 0.9788
vn 0.0190 -0.1163 0.9930
vn 0.0190 -0.1263 0.9918
vn 0.0170 -0.2712 0.9624
vn 0.0160 -0.2507 0.9679
vn 0.0172 -0.2042 0.9788
vn 0.0177 -0.2213 0.9750
vn 0.0174 -0.3000 0.9538
vn 0.0161 -0.2777 0.9605
vn 0.0160 -0.2507 0.9679
vn 0.0170 -0.2712 0.9624
vn 0.0300 0.4421 0.8965
vn 0.0285 0.3965 0.9176
vn 0.0342 0.7363 0.6758
vn 0.0362 0.7788 0.6262
vn 0.0219 0.0608 0.9979
vn 0.0218 0.0533 0.9983
vn 0.0285 0.3965 0.9176
vn 0.0300 0.4421 0.8965
vn 0.0190 -0.1163 0.9930
vn 0.0189 -0.1020 0.9946
vn 0.0218 0.0533 0.9983
vn 0.0219 0.0608 0.9979
vn 0.0172 -0.2042 0.9788
vn 0.0165 -0.1798 0.9836
vn 0.0189 -0.1020 0.9946
vn 0.0190 -0.1163 0.9930
vn 0.0160 -0.2507 0.9679
vn 0.0145 -0.2213 0.9751
vn 0.0165 -0.1798 0.9836
vn 0.0172 -0.2042 0.9788
vn 0.0161 -0.2777 0.9605
vn 0.0143 -0.2455 0.9693
vn 0.0145 -0.2213 0.9751
vn 0.0160 -0.2507 0.9679
vn 0.0387 0.8311 -0.5547
vn 0.0381 0.8198 -0.5713
vn 0.0317 0.4943 -0.8687
vn 0.0322 0.5105 -0.8593
vn 0.0322 0.5105 -0.8593
vn 0.0317 0.4943 -0.8687
vn 0.0221 0.0701 -0.9973
vn 0.0222 0.0732 -0.9971
vn 0.0222 0.0732 -0.9971
vn 0.0221 0.0701 -0.9973
vn 0.0190 -0.1338 -0.9908
vn 0.0191 -0.1396 -0.9900
vn 0.0191 -0.1396 -0.9900
vn 0.0190 -0.1338 -0.9908
vn 0.0181 -0.2340 -0.9721
vn 0.0183 -0.2437 -0.9697
vn 0.0183 -0.2437 -0.9697
vn 0.0181 -0.2340 -0.9721
vn 0.0178 -0.2863 -0.9580
vn 0.0183 -0.2978 -0.9544
vn 0.0183 -0.2978 -0.9544
vn 0.0178 -0.2863 -0.9580
vn 0.0184 -0.3164 -0.9485
vn 0.0191 -0.3288 -0.9442
vn 0.0381 0.8198 -0.5713
vn 0.0374 0.8037 -0.5939
vn 0.0310 0.4726 -0.8807
vn 0.0317 0.4943 -0.8687
vn 0.0317 0.4943 -0.8687
vn 0.0310 0.4726 -0.8807
vn 0.0220 0.0662 -0.9976
vn 0.0221 0.0701 -0.9973
vn 0.0221 0.0701 -0.9973
vn 0.0220 0.0662 -0.9976
vn 0.0190 -0.1263 -0.9918
vn 0.0190 -0.1338 -0.9908
vn 0.0190 -0.1338 -0.9908
vn 0.0190 -0.1263 -0.9918
vn 0.0177 -0.2213 -0.9750
vn 0.0181 -0.2340 -0.9721
vn 0.0181 -0.2340 -0.9721
vn 0.0177 -0.2213 -0.9750
vn 0.0170 -0.2712 -0.9624
vn 0.0178 -0.2863 -0.9580
vn 0.0178 -0.2863 -0.9580
vn 0.0170 -0.2712 -0.9624
vn 0.0174 -0.3000 -0.9538
vn 0.0184 -0.3164 -0.9485
vn 0.0374 0.8037 -0.5939
vn 0.0362 0.7788 -0.6262
vn 0.0300 0.4421 -0.8965
vn 0.0310 0.4726 -0.8807
vn 0.0310 0.4726 -0.8807
vn 0.0300 0.4421 -0.8965
vn 0.0219 0.0608 -0.9979
vn 0.0220 0.0662 -0.9976
vn 0.0220 0.0662 -0.9976
vn 0.0219 0.0608 -0.9979
vn 0.0190 -0.1163 -0.9930
vn 0.0190 -0.1263 -0.9918
vn 0.0190 -0.1263 -0.9918
vn 0.0190 -0.1163 -0.9930
vn 0.0172 -0.2042 -0.9788
vn 0.0177 -0.2213 -0.9750
vn 0.0177 -0.2213 -0.9750
vn 0.0172 -0.2042 -0.9788
vn 0.0160 -0.2507 -0.9679
vn 0.0170 -0.2712 -0.9624
vn 0.0170 -0.2712 -0.9624
vn 0.0160 -0.2507 -0.9679
vn 0.0161 -0.2777 -0.9605
vn 0.0174 -0.3000 -0.9538
vn 0.0362 0.7788 -0.6262
vn 0.0342 0.7363 -0.6758
vn 0.0285 0.3965 -0.9176
vn 0.0300 0.4421 -0.8965
vn 0.0300 0.4421 -0.8965
vn 0.0285 0.3965 -0.9176
vn 0.0218 0.0533 -0.9983
vn 0.0219 0.0608 -0.9979
vn 0.0219 0.0608 -0.9979
vn 0.0218 0.0533 -0.9983
vn 0.0189 -0.1020 -0.9946
vn 0.0190 -0.1163 -0.9930
vn 0.0190 -0.1163 -0.9930
vn 0.0189 -0.1020 -0.9946
vn 0.0165 -0.1798 -0.9836
vn 0.0172 -0.2042 -0.9788
vn 0.0172 -0.2042 -0.9788
vn 0.0165 -0.1798 -0.9836
vn 0.0145 -0.2213 -0.9751
vn 0.0160 -0.2507 -0.9679
vn 0.0160 -0.2507 -0.9679
vn 0.0145 -0.2213 -0.9751
vn 0.0143 -0.2455 -0.9693
vn 0.0161 -0.2777 -0.9605
vn 1.0000 -0.0000 -0.0000
vn 1.0000 -0.0000 -0.0000
vn 1.0000 -0.0000 -0.0000
vn 1.0000 -0.0000 -0.0000
vn 1.0000 -0.0000 -0.0000
vn 1.0000 -0.0000 -0.0000
vn 1.0000 -0.0000 -0.0000
vn 1.0000 -0.0000 -0.0000
vn 1.0000 -0.0000 -0.0000
vn 1.0000 -0.0000 -0.0000
vn 1.0000 -0.0000 -0.0000
vn 1.0000 -0.0000 -0.0000
vn 1.0000 -0.0000 -0.0000
vn 1.0000 -0.0000 -0.0000
vn 1.0000 -0.0000 -0.0000
vn 1.0000 -0.0000 -0.0000
vn 1.0000 -0.0000 -0.0000
vn 1.0000 -0.0000 -0.0000
vn 1.0000 -0.0000 -0.0000
vn 1.0000 -0.0000 -0.0000
vn 1.0000 -0.0000 -0.0000
vn 1.0000 -0.0000 -0.0000
vn 1.0000 -0.0000 -0.0000
vn 1.0000 -0.0000 -0.0000
vn -0.0322 -0.5105 0.8593
vn -0.0317 -0.4943 0.8687
vn -0.0381 -0.8198 0.5713
vn -0.0387 -0.8311 0.5547
vn -0.0222 -0.0732 0.9971
vn -0.0221 -0.0701 0.9973
vn -0.0317 -0.4943 0.8687
vn -0.0322 -0.5105 0.8593
vn -0.0191 0.1396 0.9900
vn -0.0190 0.1338 0.9908
vn -0.0221 -0.0701 0.9973
vn -0.0222 -0.0732 0.9971
vn -0.0183 0.2437 0.9697
vn -0.0181 0.2340 0.9721
vn -0.0190 0.1338 0.9908
vn -0.0191 0.1396 0.9900
vn -0.0183 0.2978 0.9544
vn -0.0178 0.2863 0.9580
vn -0.0181 0.2340 0.9721
vn -0.0183 0.2437 0.9697
vn -0.0191 0.3288 0.9442
vn -0.0184 0.3164 0.9485
vn -0.0178 0.2863 0.9580
vn -0.0183 0.2978 0.9544
vn -0.0317 -0.4943 0.8687
vn -0.0310 -0.4726 0.8807
vn -0.0374 -0.8037 0.5939
vn -0.0381 -0.8198 0.5713
vn -0.0221 -0.0701 0.9973
vn -0.0220 -0.0662 0.9976
vn -0.0310 -0.4726 0.8807
vn -0.0317 -0.4943 0.8687
vn -0.0190 0.1338 0.9908
vn -0.0190 0.1263 0.9918
vn -0.0220 -0.0662 0.9976
vn -0.0221 -0.0701 0.9973
vn -0.0181 0.2340 0.9721
vn -0.0177 0.2213 0.9750
vn -0.0190 0.1263 0.9918
vn -0.0190 0.1338 0.9908
vn -0.0178 0.2863 0.9580
vn -0.0170 0.2712 0.9624
vn -0.0177 0.2213 0.9750
vn -0.0181 0.2340 0.9721
vn -0.0184 0.3164 0.9485
vn -0.0174 0.3000 0.9538
vn -0.0170 0.2712 0.9624
vn -0.0178 0.2863 0.9580
vn -0.0310 -0.4726 0.8807
vn -0.0300 -0.4421 0.8965
vn -0.0362 -0.7788 0.6262
vn -0.0374 -0.8037 0.5939
vn -0.0220 -0.0662 0.9976
vn -0.0219 -0.0608 0.9979
vn -0.0300 -0.4421 0.8965
vn -0.0310 -0.4726 0.8807
vn -0.0190 0.1263 0.9918
vn -0.0190 0.1163 0.9930
vn -0.0219 -0.0608 0.9979
vn -0.0220 -0.0662 0.9976
vn -0.0177 0.2213 0.9750
vn -0.0172 0.2042 0.9788
vn -0.0190 0.1163 0.9930
vn -0.0190 0.1263 0.9918
vn -0.0170 0.2712 0.9624
vn -0.0160 0.2507 0.9679
vn -0.0172 0.2042 0.9788
vn -0.0177 0.2213 0.9750
vn -0.0174 0.3000 0.9538
vn -0.0161 0.2777 0.9605
vn -0.0160 0.2507 0.9679
vn -0.0170 0.2712 0.9624
vn -0.0300 -0.4421 0.8965
vn -0.0285 -0.3965 0.9176
vn -0.0342 -0.7363 0.6758
vn -0.0362 -0.7788 0.6262
vn -0.0219 -0.0608 0.9979
vn -0.0218 -0.0533 0.9983
vn -0.0285 -0.3965 0.9176
vn -0.0300 -0.4421 0.8965
vn -0.0190 0.1163 0.9930
vn -0.0189 0.1020 0.9946
vn -0.0218 -0.0533 0.9983
vn -0.0219 -0.0608 0.9979
vn -0.0172 0.2042 0.9788
vn -0.0165 0.1798 0.9836
vn -0.0189 0.1020 0.9946
vn -0.0190 0.1163 0.9930
vn -0.0160 0.2507 0.9679
vn -0.0145 0.2213 0.9751
vn -0.0165 0.1798 0.9836
vn -0.0172 0.2042 0.9788
vn -0.0161 0.2777 0.9605
vn -0.0143 0.2455 0.9693
vn -0.0145 0.2213 0.9751
vn -0.0160 0.2507 0.9679
vn -0.0387 -0.8311 -0.5547
vn -0.0381 -0.8198 -0.5713
vn -0.0317 -0.4943 -0.8687
vn -0.0322 -0.5105 -0.8593
vn -0.0322 -0.5105 -0.8593
vn -0.0317 -0.4943 -0.8687
vn -0.0221 -0.0701 -0.9973
vn -0.0222 -0.0732 -0.9971
vn -0.0222 -0.0732 -0.9971
vn -0.0221 -0.0701 -0.9973
vn -0.0190 0.1338 -0.9908
vn -0.0191 0.1396 -0.9900
vn -0.0191 0.1396 -0.9900
vn -0.0190 0.1338 -0.9908
vn -0.0181 0.2340 -0.9721
vn -0.0183 0.2437 -0.9697
vn -0.0183 0.2437 -0.9697
vn -0.0181 0.2340 -0.9721
vn -0.0178 0.2863 -0.9580
vn -0.0183 0.2978 -0.9544
vn -0.0183 0.2978 -0.9544
vn -0.0178 0.2863 -0.9580
vn -0.0184 0.3164 -0.9485
vn -0.0191 0.3288 -0.9442
vn -0.0381 -0.8198 -0.5713
vn -0.0374 -0.8037 -0.5939
vn -0.0310 -0.4726 -0.8807
vn -0.0317 -0.4943 -0.8687
vn -0.0317 -0.4943 -0.8687
vn -0.0310 -0.4726 -0.8807
vn -0.0220 -0.0662 -0.9976
vn -0.0221 -0.0701 -0.9973
vn -0.0221 -0.0701 -0.9973
vn -0.0220 -0.0662 -0.9976
vn -0.0190 0.1263 -0.9918
vn -0.0190 0.1338 -0.9908
vn -0.0190 0.1338 -0.9908
vn -0.0190 0.1263 -0.9918
vn -0.0177 0.2213 -0.9750
vn -0.0181 0.2340 -0.9721
vn -0.0181 0.2340 -0.9721
vn -0.0177 0.2213 -0.9750
vn -0.0170 0.2712 -0.9624
vn -0.0178 0.2863 -0.9580
vn -0.0178 0.2863 -0.9580
vn -0.0170 0.2712 -0.9624
vn -0.0174 0.3000 -0.9538
vn -0.0184 0.3164 -0.9485
vn -0.0374 -0.8037 -0.5939
vn -0.0362 -0.7788 -0.6262
vn -0.0300 -0.4421 -0.8965
vn -0.0310 -0.4726 -0.8807
vn -0.0310 -0.4726 -0.8807
vn -0.0300 -0.4421 -0.8965
vn -0.0219 -0.0608 -0.9979
vn -0.0220 -0.0662 -0.9976
vn -0.0220 -0.0662 -0.9976
vn -0.0219 -0.0608 -0.9979
vn -0.0190 0.1163 -0.9930
vn -0.0190 0.1263 -0.9918
vn -0.0190 0.1263 -0.9918
vn -0.0190 0.1163 -0.9930
vn -0.0172 0.2042 -0.9788
vn -0.0177 0.2213 -0.9750
vn -0.0177 0.2213 -0.9750
vn -0.0172 0.2042 -0.9788
vn -0.0160 0.2507 -0.9679
vn -0.0170 0.2712 -0.9624
vn -0.0170 0.2712 -0.9624
vn -0.0160 0.2507 -0.9679
vn -0.0161 0.2777 -0.9605
vn -0.0174 0.3000 -0.9538
vn -0.0362 -0.7788 -0.6262
vn -0.0342 -0.7363 -0.6758
vn -0.0285 -0.3965 -0.9176
vn -0.0300 -0.4421 -0.8965
vn -0.0300 -0.4421 -0.8965
vn -0.0285 -0.3965 -0.9176
vn -0.0218 -0.0533 -0.9983
vn -0.0219 -0.0608 -0.9979
vn -0.0219 -0.0608 -0.9979
vn -0.0218 -0.0533 -0.9983
vn -0.0189 0.1020 -0.9946
vn -0.0190 0.1163 -0.9930
vn -0.0190 0.1163 -0.9930
vn -0.0189 0.1020 -0.9946
vn -0.0165 0.1798 -0.9836
vn -0.0172 0.2042 -0.9788
vn -0.0172 0.2042 -0.9788
vn -0.0165 0.1798 -0.9836
vn -0.0145 0.2213 -0.9751
vn -0.0160 0.2507 -0.9679
vn -0.0160 0.2507 -0.9679
vn -0.0145 0.2213 -0.9751
vn -0.0143 0.2455 -0.9693
vn -0.0161 0.2777 -0.9605
vn -1.0000 -0.0000 -0.0000
vn -1.0000 -0.0000 -0.0000
vn -1.0000 -0.0000 -0.0000
vn -1.0000 -0.0000 -0.0000
vn -1.0000 -0.0000 -0.0000
vn -1.0000 -0.0000 -0.0000
vn -1.0000 -0.0000 -0.0000
vn -1.0000 -0.0000 -0.0000
vn -1.0000 -0.0000 -0.0000
vn -1.0000 -0.0000 -0.0000
vn -1.0000 -0.0000 -0.0000
vn -1.0000 -0.0000 -0.0000
vn -1.0000 -0.0000 -0.0000
vn -1.0000 -0.0000 -0.0000
vn -1.0000 -0.0000 -0.0000
vn -1.0000 -0.0000 -0.0000
vn -1.0000 -0.0000 -0.0000
vn -1.0000 -0.0000 -0.0000
vn -1.0000 -0.0000 -0.0000
vn -1.0000 -0.0000 -0.0000
vn -1.0000 -0.0000 -0.0000
vn -1.0000 -0.0000 -0.0000
vn -1.0000 -0.0000 -0.0000
vn -1.0000 -0.0000 -0.0000
usemtl paint
f 1/1/1 2/2/2 3/3/3 4/4/4
f 5/5/5 6/6/6 7/7/7 8/8/8
f 9/9/9 10/10/10 11/11/11 12/12/12
f 13/13/13 14/14/14 15/15/15 16/16/16
f 17/17/17 18/18/18 19/19/19 20/20/20
f 21/21/21 22/22/22 23/23/23 24/24/24
f 25/25/25 26/26/26 27/27/27 28/28/28
f 29/29/29 30/30/30 31/31/31 32/32/32
f 33/33/33 34/34/34 35/35/35 36/36/36
f 37/37/37 38/38/38 39/39/39 40/40/40
f 41/41/41 42/42/42 43/43/43 44/44/44
f 45/45/45 46/46/46 47/47/47 48/48/48
f 49/49/49 50/50/50 51/51/51 52/52/52
f 53/53/53 54/54/54 55/55/55 56/56/56
f 57/57/57 58/58/58 59/59/59 60/60/60
f 61/61/61 62/62/62 63/63/63 64/64/64
f 65/65/65 66/66/66 67/67/67 68/68/68
f 69/69/69 70/70/70 71/71/71 72/72/72
f 73/73/73 74/74/74 75/75/75 76/76/76
f 77/77/77 78/78/78 79/79/79 80/80/80
f 81/81/81 82/82/82 83/83/83 84/84/84
f 85/85/85 86/86/86 87/87/87 88/88/88
f 89/89/89 90/90/90 91/91/91 92/92/92
f 93/93/93 94/94/94 95/95/95 96/96/96
f 97/97/97 98/98/98 99/99/99 100/100/100
f 101/101/101 102/102/102 103/103/103 104/104/104
f 105/105/105 106/106/106 107/107/107 108/108/108
f 109/109/109 110/110/110 111/111/111 112/112/112
f 113/113/113 114/114/114 115/115/115 116/116/116
f 117/117/117 118/118/118 119/119/119 120/120/120
f 121/121/121 122/122/122 123/123/123 124/124/124
f 125/125/125 126/126/126 127/127/127 128/128/128
f 129/129/129 130/130/130 131/131/131 132/132/132
f 133/133/133 134/134/134 135/135/135 136/136/136
f 137/137/137 138/138/138 139/139/139 140/140/140
f 141/141/141 142/142/142 143/143/143 144/144/144
f 145/145/145 146/146/146 147/147/147 148/148/148
f 149/149/149 150/150/150 151/151/151 152/152/152
f 153/153/153 154/154/154 155/155/155 156/156/156
f 157/157/157 158/158/158 159/159/159 160/160/160
f 161/161/161 162/162/162 163/163/163 164/164/164
f 165/165/165 166/166/166 167/167/167 168/168/168
f 169/169/169 170/170/170 171/171/171 172/172/172
f 173/173/173 174/174/174 175/175/175 176/176/176
f 177/177/177 178/178/178 179/179/179 180/180/180
f 181/181/181 182/182/182 183/183/183 184/184/184
f 185/185/185 186/186/186 187/187/187 188/188/188
f 189/189/189 190/190/190 191/191/191 192/192/192
f 193/193/193 194/194/194 195/195/195 196/196/196
f 197/197/197 198/198/198 199/199/199 200/200/200
f 201/201/201 202/202/202 203/203/203 204/204/204
f 205/205/205 206/206/206 207/207/207 208/208/208
f 209/209/209 210/210/210 211/211/211 212/212/212
f 213/213/213 214/214/214 215/215/215 216/216/216
f 217/217/217 218/218/218 219/219/219 220/220/220
f 221/221/221 222/222/222 223/223/223 224/224/224
f 225/225/225 226/226/226 227/227/227 228/228/228
f 229/229/229 230/230/230 231/231/231 232/232/232
f 233/233/233 234/234/234 235/235/235 236/236/236
f 237/237/237 238/238/238 239/239/239 240/240/240
f 241/241/241 242/242/242 243/243/243 244/244/244
f 245/245/245 246/246/246 247/247/247 248/248/248
f 249/249/249 250/250/250 251/251/251 252/252/252
f 253/253/253 254/254/254 255/255/255 256/256/256
f 257/257/257 258/258/258 259/259/259 260/260/260
f 261/261/261 262/262/262 263/263/263 264/264/264
f 265/265/265 266/266/266 267/267/267 268/268/268
f 269/269/269 270/270/270 271/271/271 272/272/272
f 273/273/273 274/274/274 275/275/275 276/276/276
f 277/277/277 278/278/278 279/279/279 280/280/280
f 281/281/281 282/282/282 283/283/283 284/284/284
f 285/285/285 286/286/286 287/287/287 288/288/288
f 289/289/289 290/290/290 291/291/291 292/292/292
f 293/293/293 294/294/294 295/295/295 296/296/296
f 297/297/297 298/298/298 299/299/299 300/300/300
f 301/301/301 302/302/302 303/303/303 304/304/304
f 305/305/305 306/306/306 307/307/307 308/308/308
f 309/309/309 310/310/310 311/311/311 312/312/312
f 313/313/313 314/314/314 315/315/315 316/316/316
f 317/317/317 318/318/318 319/319/319 320/320/320
f 321/321/321 322/322/322 323/323/323 324/324/324
f 325/325/325 326/326/326 327/327/327 328/328/328
f 329/329/329 330/330/330 331/331/331 332/332/332
f 333/333/333 334/334/334 335/335/335 336/336/336
f 337/337/337 338/338/338 339/339/339 340/340/340
f 341/341/341 342/342/342 343/343/343 344/344/344
f 345/345/345 346/346/346 347/347/347 348/348/348
f 349/349/349 350/350/350 351/351/351 352/352/352
f 353/353/353 354/354/354 355/355/355 356/356/356
f 357/357/357 358/358/358 359/359/359 360/360/360
f 361/361/361 362/362/362 363/363/363 364/364/364
f 365/365/365 366/366/366 367/367/367 368/368/368
f 369/369/369 370/370/370 371/371/371 372/372/372
f 373/373/373 374/374/374 375/375/375 376/376/376
f 377/377/377 378/378/378 379/379/379 380/380/380
f 381/381/381 382/382/382 383/383/383 384/384/384
f 385/385/385 386/386/386 387/387/387 388/388/388
f 389/389/389 390/390/390 391/391/391 392/392/392
f 393/393/393 394/394/394 395/395/395 396/396/396
f 397/397/397 398/398/398 399/399/399 400/400/400
f 401/401/401 402/402/402 403/403/403 404/404/404
f 405/405/405 406/406/406 407/407/407 408/408/408
f 409/409/409 410/410/410 411/411/411 412/412/412
f 413/413/413 414/414/414 415/415/415 416/416/416
f 417/417/417 418/418/418 419/419/419 420/420/420
f 421/421/421 422/422/422 423/423/423 424/424/424
f 425/425/425 426/426/426 427/427/427 428/428/428
f 429/429/429 430/430/430 431/431/431 432/432/432
