# drone/body, упрощённая копия — сгенерировано tools/gen_models.py, не править руками
mtllib drone.mtl
v 0.0000 -0.0500 1.7900
v 0.0171 -0.0470 1.7900
v 0.0000 0.0000 1.8100
v 0.0000 0.0000 1.8100
v 0.0000 -0.1050 1.7400
v 0.0342 -0.0987 1.7400
v 0.0171 -0.0470 1.7900
v 0.0000 -0.0500 1.7900
v 0.0000 -0.1500 1.6500
v 0.0479 -0.1410 1.6500
v 0.0342 -0.0987 1.7400
v 0.0000 -0.1050 1.7400
v 0.0000 -0.1800 1.5000
v 0.0564 -0.1691 1.5000
v 0.0479 -0.1410 1.6500
v 0.0000 -0.1500 1.6500
v 0.0000 -0.1900 0.5000
v 0.0599 -0.1785 0.5000
v 0.0564 -0.1691 1.5000
v 0.0000 -0.1800 1.5000
v 0.0000 -0.1900 -0.7500
v 0.0599 -0.1785 -0.7500
v 0.0599 -0.1785 0.5000
v 0.0000 -0.1900 0.5000
v 0.0000 -0.1750 -1.2500
v 0.0564 -0.1644 -1.2500
v 0.0599 -0.1785 -0.7500
v 0.0000 -0.1900 -0.7500
v 0.0000 -0.1400 -1.4500
v 0.0462 -0.1316 -1.4500
v 0.0564 -0.1644 -1.2500
v 0.0000 -0.1750 -1.2500
v 0.0000 -0.1100 -1.5400
v 0.0376 -0.1034 -1.5400
v 0.0462 -0.1316 -1.4500
v 0.0000 -0.1400 -1.4500
v 0.0000 -0.0500 -1.6000
v 0.0171 -0.0470 -1.6000
v 0.0376 -0.1034 -1.5400
v 0.0000 -0.1100 -1.5400
v 0.0000 0.0000 -1.7600
v 0.0000 0.0000 -1.7600
v 0.0171 -0.0470 -1.6000
v 0.0000 -0.0500 -1.6000
v 0.0171 -0.0470 1.7900
v 0.0321 -0.0383 1.7900
v 0.0000 0.0000 1.8100
v 0.0000 0.0000 1.8100
v 0.0342 -0.0987 1.7400
v 0.0643 -0.0804 1.7400
v 0.0321 -0.0383 1.7900
v 0.0171 -0.0470 1.7900
v 0.0479 -0.1410 1.6500
v 0.0900 -0.1149 1.6500
v 0.0643 -0.0804 1.7400
v 0.0342 -0.0987 1.7400
v 0.0564 -0.1691 1.5000
v 0.1061 -0.1379 1.5000
v 0.0900 -0.1149 1.6500
v 0.0479 -0.1410 1.6500
v 0.0599 -0.1785 0.5000
v 0.1125 -0.1455 0.5000
v 0.1061 -0.1379 1.5000
v 0.0564 -0.1691 1.5000
v 0.0599 -0.1785 -0.7500
v 0.1125 -0.1455 -0.7500
v 0.1125 -0.1455 0.5000
v 0.0599 -0.1785 0.5000
v 0.0564 -0.1644 -1.2500
v 0.1061 -0.1341 -1.2500
v 0.1125 -0.1455 -0.7500
v 0.0599 -0.1785 -0.7500
v 0.0462 -0.1316 -1.4500
v 0.0868 -0.1072 -1.4500
v 0.1061 -0.1341 -1.2500
v 0.0564 -0.1644 -1.2500
v 0.0376 -0.1034 -1.5400
v 0.0707 -0.0843 -1.5400
v 0.0868 -0.1072 -1.4500
v 0.0462 -0.1316 -1.4500
v 0.0171 -0.0470 -1.6000
v 0.0321 -0.0383 -1.6000
v 0.0707 -0.0843 -1.5400
v 0.0376 -0.1034 -1.5400
v 0.0000 0.0000 -1.7600
v 0.0000 0.0000 -1.7600
v 0.0321 -0.0383 -1.6000
v 0.0171 -0.0470 -1.6000
v 0.0321 -0.0383 1.7900
v 0.0470 -0.0171 1.7900
v 0.0000 0.0000 1.8100
v 0.0000 0.0000 1.8100
v 0.0643 -0.0804 1.7400
v 0.0940 -0.0359 1.7400
v 0.0470 -0.0171 1.7900
v 0.0321 -0.0383 1.7900
v 0.0900 -0.1149 1.6500
v 0.1316 -0.0513 1.6500
v 0.0940 -0.0359 1.7400
v 0.0643 -0.0804 1.7400
v 0.1061 -0.1379 1.5000
v 0.1550 -0.0616 1.5000
v 0.1316 -0.0513 1.6500
v 0.0900 -0.1149 1.6500
v 0.1125 -0.1455 0.5000
v 0.1644 -0.0650 0.5000
v 0.1550 -0.0616 1.5000
v 0.1061 -0.1379 1.5000
v 0.1125 -0.1455 -0.7500
v 0.1644 -0.0650 -0.7500
v 0.1644 -0.0650 0.5000
v 0.1125 -0.1455 0.5000
v 0.1061 -0.1341 -1.2500
v 0.1550 -0.0599 -1.2500
v 0.1644 -0.0650 -0.7500
v 0.1125 -0.1455 -0.7500
v 0.0868 -0.1072 -1.4500
v 0.1269 -0.0479 -1.4500
v 0.1550 -0.0599 -1.2500
v 0.1061 -0.1341 -1.2500
v 0.0707 -0.0843 -1.5400
v 0.1034 -0.0376 -1.5400
v 0.1269 -0.0479 -1.4500
v 0.0868 -0.1072 -1.4500
v 0.0321 -0.0383 -1.6000
v 0.0470 -0.0171 -1.6000
v 0.1034 -0.0376 -1.5400
v 0.0707 -0.0843 -1.5400
v 0.0000 0.0000 -1.7600
v 0.0000 0.0000 -1.7600
v 0.0470 -0.0171 -1.6000
v 0.0321 -0.0383 -1.6000
v 0.0470 -0.0171 1.7900
v 0.0500 0.0000 1.7900
v 0.0000 0.0000 1.8100
v 0.0000 0.0000 1.8100
v 0.0940 -0.0359 1.7400
v 0.1000 0.0000 1.7400
v 0.0500 0.0000 1.7900
v 0.0470 -0.0171 1.7900
v 0.1316 -0.0513 1.6500
v 0.1400 0.0000 1.6500
v 0.1000 0.0000 1.7400
v 0.0940 -0.0359 1.7400
v 0.1550 -0.0616 1.5000
v 0.1650 0.0000 1.5000
v 0.1400 0.0000 1.6500
v 0.1316 -0.0513 1.6500
v 0.1644 -0.0650 0.5000
v 0.1750 0.0000 0.5000
v 0.1650 0.0000 1.5000
v 0.1550 -0.0616 1.5000
v 0.1644 -0.0650 -0.7500
v 0.1750 0.0000 -0.7500
v 0.1750 0.0000 0.5000
v 0.1644 -0.0650 0.5000
v 0.1550 -0.0599 -1.2500
v 0.1650 0.0000 -1.2500
v 0.1750 0.0000 -0.7500
v 0.1644 -0.0650 -0.7500
v 0.1269 -0.0479 -1.4500
v 0.1350 0.0000 -1.4500
v 0.1650 0.0000 -1.2500
v 0.1550 -0.0599 -1.2500
v 0.1034 -0.0376 -1.5400
v 0.1100 0.0000 -1.5400
v 0.1350 0.0000 -1.4500
v 0.1269 -0.0479 -1.4500
v 0.0470 -0.0171 -1.6000
v 0.0500 0.0000 -1.6000
v 0.1100 0.0000 -1.5400
v 0.1034 -0.0376 -1.5400
v 0.0000 0.0000 -1.7600
v 0.0000 0.0000 -1.7600
v 0.0500 0.0000 -1.6000
v 0.0470 -0.0171 -1.6000
v 0.0500 0.0000 1.7900
v 0.0470 0.0171 1.7900
v 0.0000 0.0000 1.8100
v 0.0000 0.0000 1.8100
v 0.1000 0.0000 1.7400
v 0.0940 0.0359 1.7400
v 0.0470 0.0171 1.7900
v 0.0500 0.0000 1.7900
v 0.1400 0.0000 1.6500
v 0.1316 0.0513 1.6500
v 0.0940 0.0359 1.7400
v 0.1000 0.0000 1.7400
v 0.1650 0.0000 1.5000
v 0.1550 0.0616 1.5000
v 0.1316 0.0513 1.6500
v 0.1400 0.0000 1.6500
v 0.1750 0.0000 0.5000
v 0.1644 0.0650 0.5000
v 0.1550 0.0616 1.5000
v 0.1650 0.0000 1.5000
v 0.1750 0.0000 -0.7500
v 0.1644 0.0650 -0.7500
v 0.1644 0.0650 0.5000
v 0.1750 0.0000 0.5000
v 0.1650 0.0000 -1.2500
v 0.1550 0.0599 -1.2500
v 0.1644 0.0650 -0.7500
v 0.1750 0.0000 -0.7500
v 0.1350 0.0000 -1.4500
v 0.1269 0.0479 -1.4500
v 0.1550 0.0599 -1.2500
v 0.1650 0.0000 -1.2500
v 0.1100 0.0000 -1.5400
v 0.1034 0.0376 -1.5400
v 0.1269 0.0479 -1.4500
v 0.1350 0.0000 -1.4500
v 0.0500 0.0000 -1.6000
v 0.0470 0.0171 -1.6000
v 0.1034 0.0376 -1.5400
v 0.1100 0.0000 -1.5400
v 0.0000 0.0000 -1.7600
v 0.0000 0.0000 -1.7600
v 0.0470 0.0171 -1.6000
v 0.0500 0.0000 -1.6000
v 0.0470 0.0171 1.7900
v 0.0383 0.0321 1.7900
v 0.0000 0.0000 1.8100
v 0.0000 0.0000 1.8100
v 0.0940 0.0359 1.7400
v 0.0766 0.0675 1.7400
v 0.0383 0.0321 1.7900
v 0.0470 0.0171 1.7900
v 0.1316 0.0513 1.6500
v 0.1072 0.0964 1.6500
v 0.0766 0.0675 1.7400
v 0.0940 0.0359 1.7400
v 0.1550 0.0616 1.5000
v 0.1264 0.1157 1.5000
v 0.1072 0.0964 1.6500
v 0.1316 0.0513 1.6500
v 0.1644 0.0650 0.5000
v 0.1341 0.1221 0.5000
v 0.1264 0.1157 1.5000
v 0.1550 0.0616 1.5000
v 0.1644 0.0650 -0.7500
v 0.1341 0.1221 -0.7500
v 0.1341 0.1221 0.5000
v 0.1644 0.0650 0.5000
v 0.1550 0.0599 -1.2500
v 0.1264 0.1125 -1.2500
v 0.1341 0.1221 -0.7500
v 0.1644 0.0650 -0.7500
v 0.1269 0.0479 -1.4500
v 0.1034 0.0900 -1.4500
v 0.1264 0.1125 -1.2500
v 0.1550 0.0599 -1.2500
v 0.1034 0.0376 -1.5400
v 0.0843 0.0707 -1.5400
v 0.1034 0.0900 -1.4500
v 0.1269 0.0479 -1.4500
v 0.0470 0.0171 -1.6000
v 0.0383 0.0321 -1.6000
v 0.0843 0.0707 -1.5400
v 0.1034 0.0376 -1.5400
v 0.0000 0.0000 -1.7600
v 0.0000 0.0000 -1.7600
v 0.0383 0.0321 -1.6000
v 0.0470 0.0171 -1.6000
v 0.0383 0.0321 1.7900
v 0.0171 0.0470 1.7900
v 0.0000 0.0000 1.8100
v 0.0000 0.0000 1.8100
v 0.0766 0.0675 1.7400
v 0.0342 0.0987 1.7400
v 0.0171 0.0470 1.7900
v 0.0383 0.0321 1.7900
v 0.1072 0.0964 1.6500
v 0.0479 0.1410 1.6500
v 0.0342 0.0987 1.7400
v 0.0766 0.0675 1.7400
v 0.1264 0.1157 1.5000
v 0.0564 0.1691 1.5000
v 0.0479 0.1410 1.6500
v 0.1072 0.0964 1.6500
v 0.1341 0.1221 0.5000
v 0.0599 0.1785 0.5000
v 0.0564 0.1691 1.5000
v 0.1264 0.1157 1.5000
v 0.1341 0.1221 -0.7500
v 0.0599 0.1785 -0.7500
v 0.0599 0.1785 0.5000
v 0.1341 0.1221 0.5000
v 0.1264 0.1125 -1.2500
v 0.0564 0.1644 -1.2500
v 0.0599 0.1785 -0.7500
v 0.1341 0.1221 -0.7500
v 0.1034 0.0900 -1.4500
v 0.0462 0.1316 -1.4500
v 0.0564 0.1644 -1.2500
v 0.1264 0.1125 -1.2500
v 0.0843 0.0707 -1.5400
v 0.0376 0.1034 -1.5400
v 0.0462 0.1316 -1.4500
v 0.1034 0.0900 -1.4500
v 0.0383 0.0321 -1.6000
v 0.0171 0.0470 -1.6000
v 0.0376 0.1034 -1.5400
v 0.0843 0.0707 -1.5400
v 0.0000 0.0000 -1.7600
v 0.0000 0.0000 -1.7600
v 0.0171 0.0470 -1.6000
v 0.0383 0.0321 -1.6000
v 0.0171 0.0470 1.7900
v 0.0000 0.0500 1.7900
v 0.0000 0.0000 1.8100
v 0.0000 0.0000 1.8100
v 0.0342 0.0987 1.7400
v 0.0000 0.1050 1.7400
v 0.0000 0.0500 1.7900
v 0.0171 0.0470 1.7900
v 0.0479 0.1410 1.6500
v 0.0000 0.1500 1.6500
v 0.0000 0.1050 1.7400
v 0.0342 0.0987 1.7400
v 0.0564 0.1691 1.5000
v 0.0000 0.1800 1.5000
v 0.0000 0.1500 1.6500
v 0.0479 0.1410 1.6500
v 0.0599 0.1785 0.5000
v 0.0000 0.1900 0.5000
v 0.0000 0.1800 1.5000
v 0.0564 0.1691 1.5000
v 0.0599 0.1785 -0.7500
v 0.0000 0.1900 -0.7500
v 0.0000 0.1900 0.5000
v 0.0599 0.1785 0.5000
v 0.0564 0.1644 -1.2500
v 0.0000 0.1750 -1.2500
v 0.0000 0.1900 -0.7500
v 0.0599 0.1785 -0.7500
v 0.0462 0.1316 -1.4500
v 0.0000 0.1400 -1.4500
v 0.0000 0.1750 -1.2500
v 0.0564 0.1644 -1.2500
v 0.0376 0.1034 -1.5400
v 0.0000 0.1100 -1.5400
v 0.0000 0.1400 -1.4500
v 0.0462 0.1316 -1.4500
v 0.0171 0.0470 -1.6000
v 0.0000 0.0500 -1.6000
v 0.0000 0.1100 -1.5400
v 0.0376 0.1034 -1.5400
v 0.0000 0.0000 -1.7600
v 0.0000 0.0000 -1.7600
v 0.0000 0.0500 -1.6000
v 0.0171 0.0470 -1.6000
v 0.0000 0.0500 1.7900
v -0.0171 0.0470 1.7900
v 0.0000 0.0000 1.8100
v 0.0000 0.0000 1.8100
v 0.0000 0.1050 1.7400
v -0.0342 0.0987 1.7400
v -0.0171 0.0470 1.7900
v 0.0000 0.0500 1.7900
v 0.0000 0.1500 1.6500
v -0.0479 0.1410 1.6500
v -0.0342 0.0987 1.7400
v 0.0000 0.1050 1.7400
v 0.0000 0.1800 1.5000
v -0.0564 0.1691 1.5000
v -0.0479 0.1410 1.6500
v 0.0000 0.1500 1.6500
v 0.0000 0.1900 0.5000
v -0.0599 0.1785 0.5000
v -0.0564 0.1691 1.5000
v 0.0000 0.1800 1.5000
v 0.0000 0.1900 -0.7500
v -0.0599 0.1785 -0.7500
v -0.0599 0.1785 0.5000
v 0.0000 0.1900 0.5000
v 0.0000 0.1750 -1.2500
v -0.0564 0.1644 -1.2500
v -0.0599 0.1785 -0.7500
v 0.0000 0.1900 -0.7500
v 0.0000 0.1400 -1.4500
v -0.0462 0.1316 -1.4500
v -0.0564 0.1644 -1.2500
v 0.0000 0.1750 -1.2500
v 0.0000 0.1100 -1.5400
v -0.0376 0.1034 -1.5400
v -0.0462 0.1316 -1.4500
v 0.0000 0.1400 -1.4500
v 0.0000 0.0500 -1.6000
v -0.0171 0.0470 -1.6000
v -0.0376 0.1034 -1.5400
v 0.0000 0.1100 -1.5400
v 0.0000 0.0000 -1.7600
v 0.0000 0.0000 -1.7600
v -0.0171 0.0470 -1.6000
v 0.0000 0.0500 -1.6000
v -0.0171 0.0470 1.7900
v -0.0321 0.0383 1.7900
v 0.0000 0.0000 1.8100
v 0.0000 0.0000 1.8100
v -0.0342 0.0987 1.7400
v -0.0643 0.0804 1.7400
v -0.0321 0.0383 1.7900
v -0.0171 0.0470 1.7900
v -0.0479 0.1410 1.6500
v -0.0900 0.1149 1.6500
v -0.0643 0.0804 1.7400
v -0.0342 0.0987 1.7400
v -0.0564 0.1691 1.5000
v -0.1061 0.1379 1.5000
v -0.0900 0.1149 1.6500
v -0.0479 0.1410 1.6500
v -0.0599 0.1785 0.5000
v -0.1125 0.1455 0.5000
v -0.1061 0.1379 1.5000
v -0.0564 0.1691 1.5000
v -0.0599 0.1785 -0.7500
v -0.1125 0.1455 -0.7500
v -0.1125 0.1455 0.5000
v -0.0599 0.1785 0.5000
v -0.0564 0.1644 -1.2500
v -0.1061 0.1341 -1.2500
v -0.1125 0.1455 -0.7500
v -0.0599 0.1785 -0.7500
v -0.0462 0.1316 -1.4500
v -0.0868 0.1072 -1.4500
v -0.1061 0.1341 -1.2500
v -0.0564 0.1644 -1.2500
v -0.0376 0.1034 -1.5400
v -0.0707 0.0843 -1.5400
v -0.0868 0.1072 -1.4500
v -0.0462 0.1316 -1.4500
v -0.0171 0.0470 -1.6000
v -0.0321 0.0383 -1.6000
v -0.0707 0.0843 -1.5400
v -0.0376 0.1034 -1.5400
v 0.0000 0.0000 -1.7600
v 0.0000 0.0000 -1.7600
v -0.0321 0.0383 -1.6000
v -0.0171 0.0470 -1.6000
v -0.0321 0.0383 1.7900
v -0.0433 0.0250 1.7900
v 0.0000 0.0000 1.8100
v 0.0000 0.0000 1.8100
v -0.0643 0.0804 1.7400
v -0.0866 0.0525 1.7400
v -0.0433 0.0250 1.7900
v -0.0321 0.0383 1.7900
v -0.0900 0.1149 1.6500
v -0.1212 0.0750 1.6500
v -0.0866 0.0525 1.7400
v -0.0643 0.0804 1.7400
v -0.1061 0.1379 1.5000
v -0.1429 0.0900 1.5000
v -0.1212 0.0750 1.6500
v -0.0900 0.1149 1.6500
v -0.1125 0.1455 0.5000
v -0.1516 0.0950 0.5000
v -0.1429 0.0900 1.5000
v -0.1061 0.1379 1.5000
v -0.1125 0.1455 -0.7500
v -0.1516 0.0950 -0.7500
v -0.1516 0.0950 0.5000
v -0.1125 0.1455 0.5000
v -0.1061 0.1341 -1.2500
v -0.1429 0.0875 -1.2500
v -0.1516 0.0950 -0.7500
v -0.1125 0.1455 -0.7500
v -0.0868 0.1072 -1.4500
v -0.1169 0.0700 -1.4500
v -0.1429 0.0875 -1.2500
v -0.1061 0.1341 -1.2500
v -0.0707 0.0843 -1.5400
v -0.0953 0.0550 -1.5400
v -0.1169 0.0700 -1.4500
v -0.0868 0.1072 -1.4500
v -0.0321 0.0383 -1.6000
v -0.0433 0.0250 -1.6000
v -0.0953 0.0550 -1.5400
v -0.0707 0.0843 -1.5400
v 0.0000 0.0000 -1.7600
v 0.0000 0.0000 -1.7600
v -0.0433 0.0250 -1.6000
v -0.0321 0.0383 -1.6000
v -0.0433 0.0250 1.7900
v -0.0500 0.0000 1.7900
v 0.0000 0.0000 1.8100
v 0.0000 0.0000 1.8100
v -0.0866 0.0525 1.7400
v -0.1000 0.0000 1.7400
v -0.0500 0.0000 1.7900
v -0.0433 0.0250 1.7900
v -0.1212 0.0750 1.6500
v -0.1400 0.0000 1.6500
v -0.1000 0.0000 1.7400
v -0.0866 0.0525 1.7400
v -0.1429 0.0900 1.5000
v -0.1650 0.0000 1.5000
v -0.1400 0.0000 1.6500
v -0.1212 0.0750 1.6500
v -0.1516 0.0950 0.5000
v -0.1750 0.0000 0.5000
v -0.1650 0.0000 1.5000
v -0.1429 0.0900 1.5000
v -0.1516 0.0950 -0.7500
v -0.1750 0.0000 -0.7500
v -0.1750 0.0000 0.5000
v -0.1516 0.0950 0.5000
v -0.1429 0.0875 -1.2500
v -0.1650 0.0000 -1.2500
v -0.1750 0.0000 -0.7500
v -0.1516 0.0950 -0.7500
v -0.1169 0.0700 -1.4500
v -0.1350 0.0000 -1.4500
v -0.1650 0.0000 -1.2500
v -0.1429 0.0875 -1.2500
v -0.0953 0.0550 -1.5400
v -0.1100 0.0000 -1.5400
v -0.1350 0.0000 -1.4500
v -0.1169 0.0700 -1.4500
v -0.0433 0.0250 -1.6000
v -0.0500 0.0000 -1.6000
v -0.1100 0.0000 -1.5400
v -0.0953 0.0550 -1.5400
v 0.0000 0.0000 -1.7600
v 0.0000 0.0000 -1.7600
v -0.0500 0.0000 -1.6000
v -0.0433 0.0250 -1.6000
v -0.0500 0.0000 1.7900
v -0.0470 -0.0171 1.7900
v 0.0000 0.0000 1.8100
v 0.0000 0.0000 1.8100
v -0.1000 0.0000 1.7400
v -0.0940 -0.0359 1.7400
v -0.0470 -0.0171 1.7900
v -0.0500 0.0000 1.7900
v -0.1400 0.0000 1.6500
v -0.1316 -0.0513 1.6500
v -0.0940 -0.0359 1.7400
v -0.1000 0.0000 1.7400
v -0.1650 0.0000 1.5000
v -0.1550 -0.0616 1.5000
v -0.1316 -0.0513 1.6500
v -0.1400 0.0000 1.6500
v -0.1750 0.0000 0.5000
v -0.1644 -0.0650 0.5000
v -0.1550 -0.0616 1.5000
v -0.1650 0.0000 1.5000
v -0.1750 0.0000 -0.7500
v -0.1644 -0.0650 -0.7500
v -0.1644 -0.0650 0.5000
v -0.1750 0.0000 0.5000
v -0.1650 0.0000 -1.2500
v -0.1550 -0.0599 -1.2500
v -0.1644 -0.0650 -0.7500
v -0.1750 0.0000 -0.7500
v -0.1350 0.0000 -1.4500
v -0.1269 -0.0479 -1.4500
v -0.1550 -0.0599 -1.2500
v -0.1650 0.0000 -1.2500
v -0.1100 0.0000 -1.5400
v -0.1034 -0.0376 -1.5400
v -0.1269 -0.0479 -1.4500
v -0.1350 0.0000 -1.4500
v -0.0500 0.0000 -1.6000
v -0.0470 -0.0171 -1.6000
v -0.1034 -0.0376 -1.5400
v -0.1100 0.0000 -1.5400
v 0.0000 0.0000 -1.7600
v 0.0000 0.0000 -1.7600
v -0.0470 -0.0171 -1.6000
v -0.0500 0.0000 -1.6000
v -0.0470 -0.0171 1.7900
v -0.0383 -0.0321 1.7900
v 0.0000 0.0000 1.8100
v 0.0000 0.0000 1.8100
v -0.0940 -0.0359 1.7400
v -0.0766 -0.0675 1.7400
v -0.0383 -0.0321 1.7900
v -0.0470 -0.0171 1.7900
v -0.1316 -0.0513 1.6500
v -0.1072 -0.0964 1.6500
v -0.0766 -0.0675 1.7400
v -0.0940 -0.0359 1.7400
v -0.1550 -0.0616 1.5000
v -0.1264 -0.1157 1.5000
v -0.1072 -0.0964 1.6500
v -0.1316 -0.0513 1.6500
v -0.1644 -0.0650 0.5000
v -0.1341 -0.1221 0.5000
v -0.1264 -0.1157 1.5000
v -0.1550 -0.0616 1.5000
v -0.1644 -0.0650 -0.7500
v -0.1341 -0.1221 -0.7500
v -0.1341 -0.1221 0.5000
v -0.1644 -0.0650 0.5000
v -0.1550 -0.0599 -1.2500
v -0.1264 -0.1125 -1.2500
v -0.1341 -0.1221 -0.7500
v -0.1644 -0.0650 -0.7500
v -0.1269 -0.0479 -1.4500
v -0.1034 -0.0900 -1.4500
v -0.1264 -0.1125 -1.2500
v -0.1550 -0.0599 -1.2500
v -0.1034 -0.0376 -1.5400
v -0.0843 -0.0707 -1.5400
v -0.1034 -0.0900 -1.4500
v -0.1269 -0.0479 -1.4500
v -0.0470 -0.0171 -1.6000
v -0.0383 -0.0321 -1.6000
v -0.0843 -0.0707 -1.5400
v -0.1034 -0.0376 -1.5400
v 0.0000 0.0000 -1.7600
v 0.0000 0.0000 -1.7600
v -0.0383 -0.0321 -1.6000
v -0.0470 -0.0171 -1.6000
v -0.0383 -0.0321 1.7900
v -0.0250 -0.0433 1.7900
v 0.0000 0.0000 1.8100
v 0.0000 0.0000 1.8100
v -0.0766 -0.0675 1.7400
v -0.0500 -0.0909 1.7400
v -0.0250 -0.0433 1.7900
v -0.0383 -0.0321 1.7900
v -0.1072 -0.0964 1.6500
v -0.0700 -0.1299 1.6500
v -0.0500 -0.0909 1.7400
v -0.0766 -0.0675 1.7400
v -0.1264 -0.1157 1.5000
v -0.0825 -0.1559 1.5000
v -0.0700 -0.1299 1.6500
v -0.1072 -0.0964 1.6500
v -0.1341 -0.1221 0.5000
v -0.0875 -0.1645 0.5000
v -0.0825 -0.1559 1.5000
v -0.1264 -0.1157 1.5000
v -0.1341 -0.1221 -0.7500
v -0.0875 -0.1645 -0.7500
v -0.0875 -0.1645 0.5000
v -0.1341 -0.1221 0.5000
v -0.1264 -0.1125 -1.2500
v -0.0825 -0.1516 -1.2500
v -0.0875 -0.1645 -0.7500
v -0.1341 -0.1221 -0.7500
v -0.1034 -0.0900 -1.4500
v -0.0675 -0.1212 -1.4500
v -0.0825 -0.1516 -1.2500
v -0.1264 -0.1125 -1.2500
v -0.0843 -0.0707 -1.5400
v -0.0550 -0.0953 -1.5400
v -0.0675 -0.1212 -1.4500
v -0.1034 -0.0900 -1.4500
v -0.0383 -0.0321 -1.6000
v -0.0250 -0.0433 -1.6000
v -0.0550 -0.0953 -1.5400
v -0.0843 -0.0707 -1.5400
v 0.0000 0.0000 -1.7600
v 0.0000 0.0000 -1.7600
v -0.0250 -0.0433 -1.6000
v -0.0383 -0.0321 -1.6000
v -0.0250 -0.0433 1.7900
v -0.0000 -0.0500 1.7900
v 0.0000 0.0000 1.8100
v 0.0000 0.0000 1.8100
v -0.0500 -0.0909 1.7400
v -0.0000 -0.1050 1.7400
v -0.0000 -0.0500 1.7900
v -0.0250 -0.0433 1.7900
v -0.0700 -0.1299 1.6500
v -0.0000 -0.1500 1.6500
v -0.0000 -0.1050 1.7400
v -0.0500 -0.0909 1.7400
v -0.0825 -0.1559 1.5000
v -0.0000 -0.1800 1.5000
v -0.0000 -0.1500 1.6500
v -0.0700 -0.1299 1.6500
v -0.0875 -0.1645 0.5000
v -0.0000 -0.1900 0.5000
v -0.0000 -0.1800 1.5000
v -0.0825 -0.1559 1.5000
v -0.0875 -0.1645 -0.7500
v -0.0000 -0.1900 -0.7500
v -0.0000 -0.1900 0.5000
v -0.0875 -0.1645 0.5000
v -0.0825 -0.1516 -1.2500
v -0.0000 -0.1750 -1.2500
v -0.0000 -0.1900 -0.7500
v -0.0875 -0.1645 -0.7500
v -0.0675 -0.1212 -1.4500
v -0.0000 -0.1400 -1.4500
v -0.0000 -0.1750 -1.2500
v -0.0825 -0.1516 -1.2500
v -0.0550 -0.0953 -1.5400
v -0.0000 -0.1100 -1.5400
v -0.0000 -0.1400 -1.4500
v -0.0675 -0.1212 -1.4500
v -0.0250 -0.0433 -1.6000
v -0.0000 -0.0500 -1.6000
v -0.0000 -0.1100 -1.5400
v -0.0550 -0.0953 -1.5400
v 0.0000 0.0000 -1.7600
v 0.0000 0.0000 -1.7600
v -0.0000 -0.0500 -1.6000
v -0.0250 -0.0433 -1.6000
v 0.1250 -0.0600 0.7250
v 1.2750 -0.0600 -1.0000
v 1.2750 -0.0518 -1.0089
v 0.1250 -0.0399 0.6862
v 0.1250 -0.0399 0.6862
v 1.2750 -0.0518 -1.0089
v 1.2750 -0.0449 -1.0352
v 0.1250 -0.0232 0.5726
v 0.1250 -0.0232 0.5726
v 1.2750 -0.0449 -1.0352
v 1.2750 -0.0377 -1.1312
v 0.1250 -0.0055 0.1563
v 0.1250 -0.0055 0.1563
v 1.2750 -0.0377 -1.1312
v 1.2750 -0.0439 -1.3304
v 0.1250 -0.0206 -0.7069
v 0.1250 -0.0206 -0.7069
v 1.2750 -0.0439 -1.3304
v 1.2750 -0.0600 -1.5250
v 0.1250 -0.0600 -1.5500
v 0.1250 -0.0801 0.6862
v 1.2750 -0.0682 -1.0089
v 1.2750 -0.0600 -1.0000
v 0.1250 -0.0600 0.7250
v 0.1250 -0.0968 0.5726
v 1.2750 -0.0751 -1.0352
v 1.2750 -0.0682 -1.0089
v 0.1250 -0.0801 0.6862
v 0.1250 -0.1145 0.1563
v 1.2750 -0.0823 -1.1312
v 1.2750 -0.0751 -1.0352
v 0.1250 -0.0968 0.5726
v 0.1250 -0.0994 -0.7069
v 1.2750 -0.0761 -1.3304
v 1.2750 -0.0823 -1.1312
v 0.1250 -0.1145 0.1563
v 0.1250 -0.0600 -1.5500
v 1.2750 -0.0600 -1.5250
v 1.2750 -0.0761 -1.3304
v 0.1250 -0.0994 -0.7069
v 1.2750 -0.0600 -1.0000
v 1.2750 -0.0600 -1.0000
v 1.2750 -0.0823 -1.1312
v 1.2750 -0.0377 -1.1312
v 1.2750 -0.0377 -1.1312
v 1.2750 -0.0823 -1.1312
v 1.2750 -0.0600 -1.5250
v 1.2750 -0.0600 -1.5250
v -0.1250 -0.0399 0.6862
v -1.2750 -0.0518 -1.0089
v -1.2750 -0.0600 -1.0000
v -0.1250 -0.0600 0.7250
v -0.1250 -0.0232 0.5726
v -1.2750 -0.0449 -1.0352
v -1.2750 -0.0518 -1.0089
v -0.1250 -0.0399 0.6862
v -0.1250 -0.0055 0.1563
v -1.2750 -0.0377 -1.1312
v -1.2750 -0.0449 -1.0352
v -0.1250 -0.0232 0.5726
v -0.1250 -0.0206 -0.7069
v -1.2750 -0.0439 -1.3304
v -1.2750 -0.0377 -1.1312
v -0.1250 -0.0055 0.1563
v -0.1250 -0.0600 -1.5500
v -1.2750 -0.0600 -1.5250
v -1.2750 -0.0439 -1.3304
v -0.1250 -0.0206 -0.7069
v -0.1250 -0.0600 0.7250
v -1.2750 -0.0600 -1.0000
v -1.2750 -0.0682 -1.0089
v -0.1250 -0.0801 0.6862
v -0.1250 -0.0801 0.6862
v -1.2750 -0.0682 -1.0089
v -1.2750 -0.0751 -1.0352
v -0.1250 -0.0968 0.5726
v -0.1250 -0.0968 0.5726
v -1.2750 -0.0751 -1.0352
v -1.2750 -0.0823 -1.1312
v -0.1250 -0.1145 0.1563
v -0.1250 -0.1145 0.1563
v -1.2750 -0.0823 -1.1312
v -1.2750 -0.0761 -1.3304
v -0.1250 -0.0994 -0.7069
v -0.1250 -0.0994 -0.7069
v -1.2750 -0.0761 -1.3304
v -1.2750 -0.0600 -1.5250
v -0.1250 -0.0600 -1.5500
v -1.2750 -0.0377 -1.1312
v -1.2750 -0.0823 -1.1312
v -1.2750 -0.0600 -1.0000
v -1.2750 -0.0600 -1.0000
v -1.2750 -0.0600 -1.5250
v -1.2750 -0.0600 -1.5250
v -1.2750 -0.0823 -1.1312
v -1.2750 -0.0377 -1.1312
v 1.3071 -0.2900 -1.0570
v 1.3005 0.3700 -1.2021
v 1.2850 0.3700 -1.1450
v 1.2850 -0.2900 -0.9750
v 1.3100 -0.2900 -1.1478
v 1.3025 0.3700 -1.2654
v 1.3005 0.3700 -1.2021
v 1.3071 -0.2900 -1.0570
v 1.2850 -0.2900 -1.5350
v 1.2850 0.3700 -1.5350
v 1.3025 0.3700 -1.2654
v 1.3100 -0.2900 -1.1478
v 1.2850 -0.2900 -0.9750
v 1.2850 0.3700 -1.1450
v 1.2695 0.3700 -1.2021
v 1.2629 -0.2900 -1.0570
v 1.2629 -0.2900 -1.0570
v 1.2695 0.3700 -1.2021
v 1.2675 0.3700 -1.2654
v 1.2600 -0.2900 -1.1478
v 1.2600 -0.2900 -1.1478
v 1.2675 0.3700 -1.2654
v 1.2850 0.3700 -1.5350
v 1.2850 -0.2900 -1.5350
v 1.3025 0.3700 -1.2654
v 1.2675 0.3700 -1.2654
v 1.2850 0.3700 -1.1450
v 1.2850 0.3700 -1.1450
v 1.2850 0.3700 -1.5350
v 1.2850 0.3700 -1.5350
v 1.2675 0.3700 -1.2654
v 1.3025 0.3700 -1.2654
v -1.2850 -0.2900 -0.9750
v -1.2850 0.3700 -1.1450
v -1.3005 0.3700 -1.2021
v -1.3071 -0.2900 -1.0570
v -1.3071 -0.2900 -1.0570
v -1.3005 0.3700 -1.2021
v -1.3025 0.3700 -1.2654
v -1.3100 -0.2900 -1.1478
v -1.3100 -0.2900 -1.1478
v -1.3025 0.3700 -1.2654
v -1.2850 0.3700 -1.5350
v -1.2850 -0.2900 -1.5350
v -1.2629 -0.2900 -1.0570
v -1.2695 0.3700 -1.2021
v -1.2850 0.3700 -1.1450
v -1.2850 -0.2900 -0.9750
v -1.2600 -0.2900 -1.1478
v -1.2675 0.3700 -1.2654
v -1.2695 0.3700 -1.2021
v -1.2629 -0.2900 -1.0570
v -1.2850 -0.2900 -1.5350
v -1.2850 0.3700 -1.5350
v -1.2675 0.3700 -1.2654
v -1.2600 -0.2900 -1.1478
v -1.2850 0.3700 -1.1450
v -1.2850 0.3700 -1.1450
v -1.2675 0.3700 -1.2654
v -1.3025 0.3700 -1.2654
v -1.3025 0.3700 -1.2654
v -1.2675 0.3700 -1.2654
v -1.2850 0.3700 -1.5350
v -1.2850 0.3700 -1.5350
vt 0.00098 0.00673
vt 0.02865 0.00673
vt 0.02865 0.00065
vt 0.00098 0.00065
vt 0.00098 0.01492
vt 0.02865 0.01492
vt 0.02865 0.00673
vt 0.00098 0.00673
vt 0.00098 0.02616
vt 0.02865 0.02616
vt 0.02865 0.01492
vt 0.00098 0.01492
vt 0.00098 0.04338
vt 0.02865 0.04338
vt 0.02865 0.02616
vt 0.00098 0.02616
vt 0.00098 0.15631
vt 0.02865 0.15631
vt 0.02865 0.04338
vt 0.00098 0.04338
vt 0.00098 0.29746
vt 0.02865 0.29746
vt 0.02865 0.15631
vt 0.00098 0.15631
vt 0.00098 0.35394
vt 0.02865 0.35394
vt 0.02865 0.29746
vt 0.00098 0.29746
vt 0.00098 0.37682
vt 0.02865 0.37682
vt 0.02865 0.35394
vt 0.00098 0.35394
vt 0.00098 0.38745
vt 0.02865 0.38745
vt 0.02865 0.37682
vt 0.00098 0.37682
vt 0.00098 0.39703
vt 0.02865 0.39703
vt 0.02865 0.38745
vt 0.00098 0.38745
vt 0.00098 0.41602
vt 0.02865 0.41602
vt 0.02865 0.39703
vt 0.00098 0.39703
vt 0.02865 0.00673
vt 0.05632 0.00673
vt 0.05632 0.00065
vt 0.02865 0.00065
vt 0.02865 0.01492
vt 0.05632 0.01492
vt 0.05632 0.00673
vt 0.02865 0.00673
vt 0.02865 0.02616
vt 0.05632 0.02616
vt 0.05632 0.01492
vt 0.02865 0.01492
vt 0.02865 0.04338
vt 0.05632 0.04338
vt 0.05632 0.02616
vt 0.02865 0.02616
vt 0.02865 0.15631
vt 0.05632 0.15631
vt 0.05632 0.04338
vt 0.02865 0.04338
vt 0.02865 0.29746
vt 0.05632 0.29746
vt 0.05632 0.15631
vt 0.02865 0.15631
vt 0.02865 0.35394
vt 0.05632 0.35394
vt 0.05632 0.29746
vt 0.02865 0.29746
vt 0.02865 0.37682
vt 0.05632 0.37682
vt 0.05632 0.35394
vt 0.02865 0.35394
vt 0.02865 0.38745
vt 0.05632 0.38745
vt 0.05632 0.37682
vt 0.02865 0.37682
vt 0.02865 0.39703
vt 0.05632 0.39703
vt 0.05632 0.38745
vt 0.02865 0.38745
vt 0.02865 0.41602
vt 0.05632 0.41602
vt 0.05632 0.39703
vt 0.02865 0.39703
vt 0.05632 0.00673
vt 0.09782 0.00673
vt 0.09782 0.00065
vt 0.05632 0.00065
vt 0.05632 0.01492
vt 0.09782 0.01492
vt 0.09782 0.00673
vt 0.05632 0.00673
vt 0.05632 0.02616
vt 0.09782 0.02616
vt 0.09782 0.01492
vt 0.05632 0.01492
vt 0.05632 0.04338
vt 0.09782 0.04338
vt 0.09782 0.02616
vt 0.05632 0.02616
vt 0.05632 0.15631
vt 0.09782 0.15631
vt 0.09782 0.04338
vt 0.05632 0.04338
vt 0.05632 0.29746
vt 0.09782 0.29746
vt 0.09782 0.15631
vt 0.05632 0.15631
vt 0.05632 0.35394
vt 0.09782 0.35394
vt 0.09782 0.29746
vt 0.05632 0.29746
vt 0.05632 0.37682
vt 0.09782 0.37682
vt 0.09782 0.35394
vt 0.05632 0.35394
vt 0.05632 0.38745
vt 0.09782 0.38745
vt 0.09782 0.37682
vt 0.05632 0.37682
vt 0.05632 0.39703
vt 0.09782 0.39703
vt 0.09782 0.38745
vt 0.05632 0.38745
vt 0.05632 0.41602
vt 0.09782 0.41602
vt 0.09782 0.39703
vt 0.05632 0.39703
vt 0.09782 0.00673
vt 0.12549 0.00673
vt 0.12549 0.00065
vt 0.09782 0.00065
vt 0.09782 0.01492
vt 0.12549 0.01492
vt 0.12549 0.00673
vt 0.09782 0.00673
vt 0.09782 0.02616
vt 0.12549 0.02616
vt 0.12549 0.01492
vt 0.09782 0.01492
vt 0.09782 0.04338
vt 0.12549 0.04338
vt 0.12549 0.02616
vt 0.09782 0.02616
vt 0.09782 0.15631
vt 0.12549 0.15631
vt 0.12549 0.04338
vt 0.09782 0.04338
vt 0.09782 0.29746
vt 0.12549 0.29746
vt 0.12549 0.15631
vt 0.09782 0.15631
vt 0.09782 0.35394
vt 0.12549 0.35394
vt 0.12549 0.29746
vt 0.09782 0.29746
vt 0.09782 0.37682
vt 0.12549 0.37682
vt 0.12549 0.35394
vt 0.09782 0.35394
vt 0.09782 0.38745
vt 0.12549 0.38745
vt 0.12549 0.37682
vt 0.09782 0.37682
vt 0.09782 0.39703
vt 0.12549 0.39703
vt 0.12549 0.38745
vt 0.09782 0.38745
vt 0.09782 0.41602
vt 0.12549 0.41602
vt 0.12549 0.39703
vt 0.09782 0.39703
vt 0.12549 0.00673
vt 0.15316 0.00673
vt 0.15316 0.00065
vt 0.12549 0.00065
vt 0.12549 0.01492
vt 0.15316 0.01492
vt 0.15316 0.00673
vt 0.12549 0.00673
vt 0.12549 0.02616
vt 0.15316 0.02616
vt 0.15316 0.01492
vt 0.12549 0.01492
vt 0.12549 0.04338
vt 0.15316 0.04338
vt 0.15316 0.02616
vt 0.12549 0.02616
vt 0.12549 0.15631
vt 0.15316 0.15631
vt 0.15316 0.04338
vt 0.12549 0.04338
vt 0.12549 0.29746
vt 0.15316 0.29746
vt 0.15316 0.15631
vt 0.12549 0.15631
vt 0.12549 0.35394
vt 0.15316 0.35394
vt 0.15316 0.29746
vt 0.12549 0.29746
vt 0.12549 0.37682
vt 0.15316 0.37682
vt 0.15316 0.35394
vt 0.12549 0.35394
vt 0.12549 0.38745
vt 0.15316 0.38745
vt 0.15316 0.37682
vt 0.12549 0.37682
vt 0.12549 0.39703
vt 0.15316 0.39703
vt 0.15316 0.38745
vt 0.12549 0.38745
vt 0.12549 0.41602
vt 0.15316 0.41602
vt 0.15316 0.39703
vt 0.12549 0.39703
vt 0.15316 0.00673
vt 0.18083 0.00673
vt 0.18083 0.00065
vt 0.15316 0.00065
vt 0.15316 0.01492
vt 0.18083 0.01492
vt 0.18083 0.00673
vt 0.15316 0.00673
vt 0.15316 0.02616
vt 0.18083 0.02616
vt 0.18083 0.01492
vt 0.15316 0.01492
vt 0.15316 0.04338
vt 0.18083 0.04338
vt 0.18083 0.02616
vt 0.15316 0.02616
vt 0.15316 0.15631
vt 0.18083 0.15631
vt 0.18083 0.04338
vt 0.15316 0.04338
vt 0.15316 0.29746
vt 0.18083 0.29746
vt 0.18083 0.15631
vt 0.15316 0.15631
vt 0.15316 0.35394
vt 0.18083 0.35394
vt 0.18083 0.29746
vt 0.15316 0.29746
vt 0.15316 0.37682
vt 0.18083 0.37682
vt 0.18083 0.35394
vt 0.15316 0.35394
vt 0.15316 0.38745
vt 0.18083 0.38745
vt 0.18083 0.37682
vt 0.15316 0.37682
vt 0.15316 0.39703
vt 0.18083 0.39703
vt 0.18083 0.38745
vt 0.15316 0.38745
vt 0.15316 0.41602
vt 0.18083 0.41602
vt 0.18083 0.39703
vt 0.15316 0.39703
vt 0.18083 0.00673
vt 0.22233 0.00673
vt 0.22233 0.00065
vt 0.18083 0.00065
vt 0.18083 0.01492
vt 0.22233 0.01492
vt 0.22233 0.00673
vt 0.18083 0.00673
vt 0.18083 0.02616
vt 0.22233 0.02616
vt 0.22233 0.01492
vt 0.18083 0.01492
vt 0.18083 0.04338
vt 0.22233 0.04338
vt 0.22233 0.02616
vt 0.18083 0.02616
vt 0.18083 0.15631
vt 0.22233 0.15631
vt 0.22233 0.04338
vt 0.18083 0.04338
vt 0.18083 0.29746
vt 0.22233 0.29746
vt 0.22233 0.15631
vt 0.18083 0.15631
vt 0.18083 0.35394
vt 0.22233 0.35394
vt 0.22233 0.29746
vt 0.18083 0.29746
vt 0.18083 0.37682
vt 0.22233 0.37682
vt 0.22233 0.35394
vt 0.18083 0.35394
vt 0.18083 0.38745
vt 0.22233 0.38745
vt 0.22233 0.37682
vt 0.18083 0.37682
vt 0.18083 0.39703
vt 0.22233 0.39703
vt 0.22233 0.38745
vt 0.18083 0.38745
vt 0.18083 0.41602
vt 0.22233 0.41602
vt 0.22233 0.39703
vt 0.18083 0.39703
vt 0.22233 0.00673
vt 0.25000 0.00673
vt 0.25000 0.00065
vt 0.22233 0.00065
vt 0.22233 0.01492
vt 0.25000 0.01492
vt 0.25000 0.00673
vt 0.22233 0.00673
vt 0.22233 0.02616
vt 0.25000 0.02616
vt 0.25000 0.01492
vt 0.22233 0.01492
vt 0.22233 0.04338
vt 0.25000 0.04338
vt 0.25000 0.02616
vt 0.22233 0.02616
vt 0.22233 0.15631
vt 0.25000 0.15631
vt 0.25000 0.04338
vt 0.22233 0.04338
vt 0.22233 0.29746
vt 0.25000 0.29746
vt 0.25000 0.15631
vt 0.22233 0.15631
vt 0.22233 0.35394
vt 0.25000 0.35394
vt 0.25000 0.29746
vt 0.22233 0.29746
vt 0.22233 0.37682
vt 0.25000 0.37682
vt 0.25000 0.35394
vt 0.22233 0.35394
vt 0.22233 0.38745
vt 0.25000 0.38745
vt 0.25000 0.37682
vt 0.22233 0.37682
vt 0.22233 0.39703
vt 0.25000 0.39703
vt 0.25000 0.38745
vt 0.22233 0.38745
vt 0.22233 0.41602
vt 0.25000 0.41602
vt 0.25000 0.39703
vt 0.22233 0.39703
vt 0.25000 0.00673
vt 0.27767 0.00673
vt 0.27767 0.00065
vt 0.25000 0.00065
vt 0.25000 0.01492
vt 0.27767 0.01492
vt 0.27767 0.00673
vt 0.25000 0.00673
vt 0.25000 0.02616
vt 0.27767 0.02616
vt 0.27767 0.01492
vt 0.25000 0.01492
vt 0.25000 0.04338
vt 0.27767 0.04338
vt 0.27767 0.02616
vt 0.25000 0.02616
vt 0.25000 0.15631
vt 0.27767 0.15631
vt 0.27767 0.04338
vt 0.25000 0.04338
vt 0.25000 0.29746
vt 0.27767 0.29746
vt 0.27767 0.15631
vt 0.25000 0.15631
vt 0.25000 0.35394
vt 0.27767 0.35394
vt 0.27767 0.29746
vt 0.25000 0.29746
vt 0.25000 0.37682
vt 0.27767 0.37682
vt 0.27767 0.35394
vt 0.25000 0.35394
vt 0.25000 0.38745
vt 0.27767 0.38745
vt 0.27767 0.37682
vt 0.25000 0.37682
vt 0.25000 0.39703
vt 0.27767 0.39703
vt 0.27767 0.38745
vt 0.25000 0.38745
vt 0.25000 0.41602
vt 0.27767 0.41602
vt 0.27767 0.39703
vt 0.25000 0.39703
vt 0.27767 0.00673
vt 0.30534 0.00673
vt 0.30534 0.00065
vt 0.27767 0.00065
vt 0.27767 0.01492
vt 0.30534 0.01492
vt 0.30534 0.00673
vt 0.27767 0.00673
vt 0.27767 0.02616
vt 0.30534 0.02616
vt 0.30534 0.01492
vt 0.27767 0.01492
vt 0.27767 0.04338
vt 0.30534 0.04338
vt 0.30534 0.02616
vt 0.27767 0.02616
vt 0.27767 0.15631
vt 0.30534 0.15631
vt 0.30534 0.04338
vt 0.27767 0.04338
vt 0.27767 0.29746
vt 0.30534 0.29746
vt 0.30534 0.15631
vt 0.27767 0.15631
vt 0.27767 0.35394
vt 0.30534 0.35394
vt 0.30534 0.29746
vt 0.27767 0.29746
vt 0.27767 0.37682
vt 0.30534 0.37682
vt 0.30534 0.35394
vt 0.27767 0.35394
vt 0.27767 0.38745
vt 0.30534 0.38745
vt 0.30534 0.37682
vt 0.27767 0.37682
vt 0.27767 0.39703
vt 0.30534 0.39703
vt 0.30534 0.38745
vt 0.27767 0.38745
vt 0.27767 0.41602
vt 0.30534 0.41602
vt 0.30534 0.39703
vt 0.27767 0.39703
vt 0.30534 0.00673
vt 0.33301 0.00673
vt 0.33301 0.00065
vt 0.30534 0.00065
vt 0.30534 0.01492
vt 0.33301 0.01492
vt 0.33301 0.00673
vt 0.30534 0.00673
vt 0.30534 0.02616
vt 0.33301 0.02616
vt 0.33301 0.01492
vt 0.30534 0.01492
vt 0.30534 0.04338
vt 0.33301 0.04338
vt 0.33301 0.02616
vt 0.30534 0.02616
vt 0.30534 0.15631
vt 0.33301 0.15631
vt 0.33301 0.04338
vt 0.30534 0.04338
vt 0.30534 0.29746
vt 0.33301 0.29746
vt 0.33301 0.15631
vt 0.30534 0.15631
vt 0.30534 0.35394
vt 0.33301 0.35394
vt 0.33301 0.29746
vt 0.30534 0.29746
vt 0.30534 0.37682
vt 0.33301 0.37682
vt 0.33301 0.35394
vt 0.30534 0.35394
vt 0.30534 0.38745
vt 0.33301 0.38745
vt 0.33301 0.37682
vt 0.30534 0.37682
vt 0.30534 0.39703
vt 0.33301 0.39703
vt 0.33301 0.38745
vt 0.30534 0.38745
vt 0.30534 0.41602
vt 0.33301 0.41602
vt 0.33301 0.39703
vt 0.30534 0.39703
vt 0.33301 0.00673
vt 0.37451 0.00673
vt 0.37451 0.00065
vt 0.33301 0.00065
vt 0.33301 0.01492
vt 0.37451 0.01492
vt 0.37451 0.00673
vt 0.33301 0.00673
vt 0.33301 0.02616
vt 0.37451 0.02616
vt 0.37451 0.01492
vt 0.33301 0.01492
vt 0.33301 0.04338
vt 0.37451 0.04338
vt 0.37451 0.02616
vt 0.33301 0.02616
vt 0.33301 0.15631
vt 0.37451 0.15631
vt 0.37451 0.04338
vt 0.33301 0.04338
vt 0.33301 0.29746
vt 0.37451 0.29746
vt 0.37451 0.15631
vt 0.33301 0.15631
vt 0.33301 0.35394
vt 0.37451 0.35394
vt 0.37451 0.29746
vt 0.33301 0.29746
vt 0.33301 0.37682
vt 0.37451 0.37682
vt 0.37451 0.35394
vt 0.33301 0.35394
vt 0.33301 0.38745
vt 0.37451 0.38745
vt 0.37451 0.37682
vt 0.33301 0.37682
vt 0.33301 0.39703
vt 0.37451 0.39703
vt 0.37451 0.38745
vt 0.33301 0.38745
vt 0.33301 0.41602
vt 0.37451 0.41602
vt 0.37451 0.39703
vt 0.33301 0.39703
vt 0.37451 0.00673
vt 0.40218 0.00673
vt 0.40218 0.00065
vt 0.37451 0.00065
vt 0.37451 0.01492
vt 0.40218 0.01492
vt 0.40218 0.00673
vt 0.37451 0.00673
vt 0.37451 0.02616
vt 0.40218 0.02616
vt 0.40218 0.01492
vt 0.37451 0.01492
vt 0.37451 0.04338
vt 0.40218 0.04338
vt 0.40218 0.02616
vt 0.37451 0.02616
vt 0.37451 0.15631
vt 0.40218 0.15631
vt 0.40218 0.04338
vt 0.37451 0.04338
vt 0.37451 0.29746
vt 0.40218 0.29746
vt 0.40218 0.15631
vt 0.37451 0.15631
vt 0.37451 0.35394
vt 0.40218 0.35394
vt 0.40218 0.29746
vt 0.37451 0.29746
vt 0.37451 0.37682
vt 0.40218 0.37682
vt 0.40218 0.35394
vt 0.37451 0.35394
vt 0.37451 0.38745
vt 0.40218 0.38745
vt 0.40218 0.37682
vt 0.37451 0.37682
vt 0.37451 0.39703
vt 0.40218 0.39703
vt 0.40218 0.38745
vt 0.37451 0.38745
vt 0.37451 0.41602
vt 0.40218 0.41602
vt 0.40218 0.39703
vt 0.37451 0.39703
vt 0.40218 0.00673
vt 0.42985 0.00673
vt 0.42985 0.00065
vt 0.40218 0.00065
vt 0.40218 0.01492
vt 0.42985 0.01492
vt 0.42985 0.00673
vt 0.40218 0.00673
vt 0.40218 0.02616
vt 0.42985 0.02616
vt 0.42985 0.01492
vt 0.40218 0.01492
vt 0.40218 0.04338
vt 0.42985 0.04338
vt 0.42985 0.02616
vt 0.40218 0.02616
vt 0.40218 0.15631
vt 0.42985 0.15631
vt 0.42985 0.04338
vt 0.40218 0.04338
vt 0.40218 0.29746
vt 0.42985 0.29746
vt 0.42985 0.15631
vt 0.40218 0.15631
vt 0.40218 0.35394
vt 0.42985 0.35394
vt 0.42985 0.29746
vt 0.40218 0.29746
vt 0.40218 0.37682
vt 0.42985 0.37682
vt 0.42985 0.35394
vt 0.40218 0.35394
vt 0.40218 0.38745
vt 0.42985 0.38745
vt 0.42985 0.37682
vt 0.40218 0.37682
vt 0.40218 0.39703
vt 0.42985 0.39703
vt 0.42985 0.38745
vt 0.40218 0.38745
vt 0.40218 0.41602
vt 0.42985 0.41602
vt 0.42985 0.39703
vt 0.40218 0.39703
vt 0.42985 0.00673
vt 0.45752 0.00673
vt 0.45752 0.00065
vt 0.42985 0.00065
vt 0.42985 0.01492
vt 0.45752 0.01492
vt 0.45752 0.00673
vt 0.42985 0.00673
vt 0.42985 0.02616
vt 0.45752 0.02616
vt 0.45752 0.01492
vt 0.42985 0.01492
vt 0.42985 0.04338
vt 0.45752 0.04338
vt 0.45752 0.02616
vt 0.42985 0.02616
vt 0.42985 0.15631
vt 0.45752 0.15631
vt 0.45752 0.04338
vt 0.42985 0.04338
vt 0.42985 0.29746
vt 0.45752 0.29746
vt 0.45752 0.15631
vt 0.42985 0.15631
vt 0.42985 0.35394
vt 0.45752 0.35394
vt 0.45752 0.29746
vt 0.42985 0.29746
vt 0.42985 0.37682
vt 0.45752 0.37682
vt 0.45752 0.35394
vt 0.42985 0.35394
vt 0.42985 0.38745
vt 0.45752 0.38745
vt 0.45752 0.37682
vt 0.42985 0.37682
vt 0.42985 0.39703
vt 0.45752 0.39703
vt 0.45752 0.38745
vt 0.42985 0.38745
vt 0.42985 0.41602
vt 0.45752 0.41602
vt 0.45752 0.39703
vt 0.42985 0.39703
vt 0.45752 0.00673
vt 0.49902 0.00673
vt 0.49902 0.00065
vt 0.45752 0.00065
vt 0.45752 0.01492
vt 0.49902 0.01492
vt 0.49902 0.00673
vt 0.45752 0.00673
vt 0.45752 0.02616
vt 0.49902 0.02616
vt 0.49902 0.01492
vt 0.45752 0.01492
vt 0.45752 0.04338
vt 0.49902 0.04338
vt 0.49902 0.02616
vt 0.45752 0.02616
vt 0.45752 0.15631
vt 0.49902 0.15631
vt 0.49902 0.04338
vt 0.45752 0.04338
vt 0.45752 0.29746
vt 0.49902 0.29746
vt 0.49902 0.15631
vt 0.45752 0.15631
vt 0.45752 0.35394
vt 0.49902 0.35394
vt 0.49902 0.29746
vt 0.45752 0.29746
vt 0.45752 0.37682
vt 0.49902 0.37682
vt 0.49902 0.35394
vt 0.45752 0.35394
vt 0.45752 0.38745
vt 0.49902 0.38745
vt 0.49902 0.37682
vt 0.45752 0.37682
vt 0.45752 0.39703
vt 0.49902 0.39703
vt 0.49902 0.38745
vt 0.45752 0.38745
vt 0.45752 0.41602
vt 0.49902 0.41602
vt 0.49902 0.39703
vt 0.45752 0.39703
vt 0.00098 0.41992
vt 0.49902 0.41992
vt 0.49902 0.42275
vt 0.00098 0.42275
vt 0.00098 0.42275
vt 0.49902 0.42275
vt 0.49902 0.43104
vt 0.00098 0.43104
vt 0.00098 0.43104
vt 0.49902 0.43104
vt 0.49902 0.46143
vt 0.00098 0.46143
vt 0.00098 0.46143
vt 0.49902 0.46143
vt 0.49902 0.52441
vt 0.00098 0.52441
vt 0.00098 0.52441
vt 0.49902 0.52441
vt 0.49902 0.58594
vt 0.00098 0.58594
vt 0.00098 0.58877
vt 0.49902 0.58877
vt 0.49902 0.58594
vt 0.00098 0.58594
vt 0.00098 0.59706
vt 0.49902 0.59706
vt 0.49902 0.58877
vt 0.00098 0.58877
vt 0.00098 0.62744
vt 0.49902 0.62744
vt 0.49902 0.59706
vt 0.00098 0.59706
vt 0.00098 0.69043
vt 0.49902 0.69043
vt 0.49902 0.62744
vt 0.00098 0.62744
vt 0.00098 0.75195
vt 0.49902 0.75195
vt 0.49902 0.69043
vt 0.00098 0.69043
vt 0.49902 0.41992
vt 0.49902 0.58594
vt 0.49902 0.62744
vt 0.49902 0.46143
vt 0.49902 0.46143
vt 0.49902 0.62744
vt 0.49902 0.75195
vt 0.49902 0.58594
vt 0.00098 0.42275
vt 0.49902 0.42275
vt 0.49902 0.41992
vt 0.00098 0.41992
vt 0.00098 0.43104
vt 0.49902 0.43104
vt 0.49902 0.42275
vt 0.00098 0.42275
vt 0.00098 0.46143
vt 0.49902 0.46143
vt 0.49902 0.43104
vt 0.00098 0.43104
vt 0.00098 0.52441
vt 0.49902 0.52441
vt 0.49902 0.46143
vt 0.00098 0.46143
vt 0.00098 0.58594
vt 0.49902 0.58594
vt 0.49902 0.52441
vt 0.00098 0.52441
vt 0.00098 0.58594
vt 0.49902 0.58594
vt 0.49902 0.58877
vt 0.00098 0.58877
vt 0.00098 0.58877
vt 0.49902 0.58877
vt 0.49902 0.59706
vt 0.00098 0.59706
vt 0.00098 0.59706
vt 0.49902 0.59706
vt 0.49902 0.62744
vt 0.00098 0.62744
vt 0.00098 0.62744
vt 0.49902 0.62744
vt 0.49902 0.69043
vt 0.00098 0.69043
vt 0.00098 0.69043
vt 0.49902 0.69043
vt 0.49902 0.75195
vt 0.00098 0.75195
vt 0.49902 0.46143
vt 0.49902 0.62744
vt 0.49902 0.58594
vt 0.49902 0.41992
vt 0.49902 0.58594
vt 0.49902 0.75195
vt 0.49902 0.62744
vt 0.49902 0.46143
vt 0.50488 0.42898
vt 0.69043 0.42898
vt 0.69043 0.41992
vt 0.50488 0.41992
vt 0.50488 0.43901
vt 0.69043 0.43901
vt 0.69043 0.42898
vt 0.50488 0.42898
vt 0.50488 0.48177
vt 0.69043 0.48177
vt 0.69043 0.43901
vt 0.50488 0.43901
vt 0.50488 0.48177
vt 0.69043 0.48177
vt 0.69043 0.49083
vt 0.50488 0.49083
vt 0.50488 0.49083
vt 0.69043 0.49083
vt 0.69043 0.50086
vt 0.50488 0.50086
vt 0.50488 0.50086
vt 0.69043 0.50086
vt 0.69043 0.54362
vt 0.50488 0.54362
vt 0.69043 0.43901
vt 0.69043 0.50086
vt 0.69043 0.48177
vt 0.69043 0.41992
vt 0.69043 0.48177
vt 0.69043 0.54362
vt 0.69043 0.50086
vt 0.69043 0.43901
vt 0.50488 0.41992
vt 0.69043 0.41992
vt 0.69043 0.42898
vt 0.50488 0.42898
vt 0.50488 0.42898
vt 0.69043 0.42898
vt 0.69043 0.43901
vt 0.50488 0.43901
vt 0.50488 0.43901
vt 0.69043 0.43901
vt 0.69043 0.48177
vt 0.50488 0.48177
vt 0.50488 0.49083
vt 0.69043 0.49083
vt 0.69043 0.48177
vt 0.50488 0.48177
vt 0.50488 0.50086
vt 0.69043 0.50086
vt 0.69043 0.49083
vt 0.50488 0.49083
vt 0.50488 0.54362
vt 0.69043 0.54362
vt 0.69043 0.50086
vt 0.50488 0.50086
vt 0.69043 0.41992
vt 0.69043 0.48177
vt 0.69043 0.50086
vt 0.69043 0.43901
vt 0.69043 0.43901
vt 0.69043 0.50086
vt 0.69043 0.54362
vt 0.69043 0.48177
vn 0.0485 -0.5540 0.8311
vn 0.1905 -0.5233 0.8306
vn 0.0000 0.0000 1.0000
vn 0.0000 0.0000 1.0000
vn 0.0745 -0.8115 0.5796
vn 0.2917 -0.7633 0.5765
vn 0.1905 -0.5233 0.8306
vn 0.0485 -0.5540 0.8311
vn 0.0891 -0.9507 0.2971
vn 0.3473 -0.8906 0.2937
vn 0.2917 -0.7633 0.5765
vn 0.0745 -0.8115 0.5796
vn 0.0945 -0.9899 0.1061
vn 0.3670 -0.9243 0.1047
vn 0.3473 -0.8906 0.2937
vn 0.0891 -0.9507 0.2971
vn 0.0946 -0.9955 0.0012
vn 0.3675 -0.9300 0.0012
vn 0.3670 -0.9243 0.1047
vn 0.0945 -0.9899 0.1061
vn 0.0946 -0.9955 -0.0085
vn 0.3675 -0.9300 -0.0082
vn 0.3675 -0.9300 0.0012
vn 0.0946 -0.9955 0.0012
vn 0.0922 -0.9932 -0.0709
vn 0.3593 -0.9306 -0.0695
vn 0.3675 -0.9300 -0.0082
vn 0.0946 -0.9955 -0.0085
vn 0.0882 -0.9720 -0.2179
vn 0.3449 -0.9137 -0.2148
vn 0.3593 -0.9306 -0.0695
vn 0.0922 -0.9932 -0.0709
vn 0.0780 -0.8917 -0.4459
vn 0.3065 -0.8421 -0.4437
vn 0.3449 -0.9137 -0.2148
vn 0.0882 -0.9720 -0.2179
vn 0.0795 -0.9090 -0.4091
vn 0.3119 -0.8569 -0.4104
vn 0.3065 -0.8421 -0.4437
vn 0.0780 -0.8917 -0.4459
vn 0.0000 0.0000 -1.0000
vn 0.0000 0.0000 -1.0000
vn 0.3119 -0.8569 -0.4104
vn 0.0795 -0.9090 -0.4091
vn 0.1905 -0.5233 0.8306
vn 0.3615 -0.4308 0.8269
vn 0.0000 0.0000 1.0000
vn 0.0000 0.0000 1.0000
vn 0.2917 -0.7633 0.5765
vn 0.5457 -0.6194 0.5644
vn 0.3615 -0.4308 0.8269
vn 0.1905 -0.5233 0.8306
vn 0.3473 -0.8906 0.2937
vn 0.6414 -0.7134 0.2824
vn 0.5457 -0.6194 0.5644
vn 0.2917 -0.7633 0.5765
vn 0.3670 -0.9243 0.1047
vn 0.6718 -0.7339 0.1003
vn 0.6414 -0.7134 0.2824
vn 0.3473 -0.8906 0.2937
vn 0.3675 -0.9300 0.0012
vn 0.6735 -0.7392 0.0012
vn 0.6718 -0.7339 0.1003
vn 0.3670 -0.9243 0.1047
vn 0.3675 -0.9300 -0.0082
vn 0.6734 -0.7392 -0.0073
vn 0.6735 -0.7392 0.0012
vn 0.3675 -0.9300 0.0012
vn 0.3593 -0.9306 -0.0695
vn 0.6634 -0.7454 -0.0652
vn 0.6734 -0.7392 -0.0073
vn 0.3675 -0.9300 -0.0082
vn 0.3449 -0.9137 -0.2148
vn 0.6425 -0.7383 -0.2051
vn 0.6634 -0.7454 -0.0652
vn 0.3593 -0.9306 -0.0695
vn 0.3065 -0.8421 -0.4437
vn 0.5789 -0.6899 -0.4348
vn 0.6425 -0.7383 -0.2051
vn 0.3449 -0.9137 -0.2148
vn 0.3119 -0.8569 -0.4104
vn 0.5862 -0.6986 -0.4104
vn 0.5789 -0.6899 -0.4348
vn 0.3065 -0.8421 -0.4437
vn 0.0000 0.0000 -1.0000
vn 0.0000 0.0000 -1.0000
vn 0.5862 -0.6986 -0.4104
vn 0.3119 -0.8569 -0.4104
vn 0.3615 -0.4308 0.8269
vn 0.5368 -0.1954 0.8208
vn 0.0000 0.0000 1.0000
vn 0.0000 0.0000 1.0000
vn 0.5457 -0.6194 0.5644
vn 0.7919 -0.2745 0.5454
vn 0.5368 -0.1954 0.8208
vn 0.3615 -0.4308 0.8269
vn 0.6414 -0.7134 0.2824
vn 0.9129 -0.3101 0.2655
vn 0.7919 -0.2745 0.5454
vn 0.5457 -0.6194 0.5644
vn 0.6718 -0.7339 0.1003
vn 0.9444 -0.3151 0.0940
vn 0.9129 -0.3101 0.2655
vn 0.6414 -0.7134 0.2824
vn 0.6735 -0.7392 0.0012
vn 0.9481 -0.3179 0.0012
vn 0.9444 -0.3151 0.0940
vn 0.6718 -0.7339 0.1003
vn 0.6734 -0.7392 -0.0073
vn 0.9481 -0.3178 -0.0060
vn 0.9481 -0.3179 0.0012
vn 0.6735 -0.7392 0.0012
vn 0.6634 -0.7454 -0.0652
vn 0.9442 -0.3240 -0.0586
vn 0.9481 -0.3178 -0.0060
vn 0.6734 -0.7392 -0.0073
vn 0.6425 -0.7383 -0.2051
vn 0.9264 -0.3251 -0.1900
vn 0.9442 -0.3240 -0.0586
vn 0.6634 -0.7454 -0.0652
vn 0.5789 -0.6899 -0.4348
vn 0.8527 -0.3103 -0.4203
vn 0.9264 -0.3251 -0.1900
vn 0.6425 -0.7383 -0.2051
vn 0.5862 -0.6986 -0.4104
vn 0.8569 -0.3119 -0.4104
vn 0.8527 -0.3103 -0.4203
vn 0.5789 -0.6899 -0.4348
vn 0.0000 0.0000 -1.0000
vn 0.0000 0.0000 -1.0000
vn 0.8569 -0.3119 -0.4104
vn 0.5862 -0.6986 -0.4104
vn 0.5368 -0.1954 0.8208
vn 0.5735 -0.0000 0.8192
vn 0.0000 0.0000 1.0000
vn 0.0000 0.0000 1.0000
vn 0.7919 -0.2745 0.5454
vn 0.8412 -0.0000 0.5408
vn 0.5735 -0.0000 0.8192
vn 0.5368 -0.1954 0.8208
vn 0.9129 -0.3101 0.2655
vn 0.9652 -0.0000 0.2614
vn 0.8412 -0.0000 0.5408
vn 0.7919 -0.2745 0.5454
vn 0.9444 -0.3151 0.0940
vn 0.9957 -0.0000 0.0925
vn 0.9652 -0.0000 0.2614
vn 0.9129 -0.3101 0.2655
vn 0.9481 -0.3179 0.0012
vn 1.0000 -0.0000 0.0012
vn 0.9957 -0.0000 0.0925
vn 0.9444 -0.3151 0.0940
vn 0.9481 -0.3178 -0.0060
vn 1.0000 -0.0000 -0.0057
vn 1.0000 -0.0000 0.0012
vn 0.9481 -0.3179 0.0012
vn 0.9442 -0.3240 -0.0586
vn 0.9984 -0.0000 -0.0570
vn 1.0000 -0.0000 -0.0057
vn 0.9481 -0.3178 -0.0060
vn 0.9264 -0.3251 -0.1900
vn 0.9825 -0.0000 -0.1863
vn 0.9984 -0.0000 -0.0570
vn 0.9442 -0.3240 -0.0586
vn 0.8527 -0.3103 -0.4203
vn 0.9091 -0.0000 -0.4167
vn 0.9825 -0.0000 -0.1863
vn 0.9264 -0.3251 -0.1900
vn 0.8569 -0.3119 -0.4104
vn 0.9119 -0.0000 -0.4104
vn 0.9091 -0.0000 -0.4167
vn 0.8527 -0.3103 -0.4203
vn 0.0000 0.0000 -1.0000
vn 0.0000 0.0000 -1.0000
vn 0.9119 -0.0000 -0.4104
vn 0.8569 -0.3119 -0.4104
vn 0.5735 -0.0000 0.8192
vn 0.5368 0.1954 0.8208
vn 0.0000 0.0000 1.0000
vn 0.0000 0.0000 1.0000
vn 0.8412 -0.0000 0.5408
vn 0.7919 0.2745 0.5454
vn 0.5368 0.1954 0.8208
vn 0.5735 -0.0000 0.8192
vn 0.9652 -0.0000 0.2614
vn 0.9129 0.3101 0.2655
vn 0.7919 0.2745 0.5454
vn 0.8412 -0.0000 0.5408
vn 0.9957 -0.0000 0.0925
vn 0.9444 0.3151 0.0940
vn 0.9129 0.3101 0.2655
vn 0.9652 -0.0000 0.2614
vn 1.0000 -0.0000 0.0012
vn 0.9481 0.3179 0.0012
vn 0.9444 0.3151 0.0940
vn 0.9957 -0.0000 0.0925
vn 1.0000 -0.0000 -0.0057
vn 0.9481 0.3178 -0.0060
vn 0.9481 0.3179 0.0012
vn 1.0000 -0.0000 0.0012
vn 0.9984 -0.0000 -0.0570
vn 0.9442 0.3240 -0.0586
vn 0.9481 0.3178 -0.0060
vn 1.0000 -0.0000 -0.0057
vn 0.9825 -0.0000 -0.1863
vn 0.9264 0.3251 -0.1900
vn 0.9442 0.3240 -0.0586
vn 0.9984 -0.0000 -0.0570
vn 0.9091 -0.0000 -0.4167
vn 0.8527 0.3103 -0.4203
vn 0.9264 0.3251 -0.1900
vn 0.9825 -0.0000 -0.1863
vn 0.9119 -0.0000 -0.4104
vn 0.8569 0.3119 -0.4104
vn 0.8527 0.3103 -0.4203
vn 0.9091 -0.0000 -0.4167
vn 0.0000 0.0000 -1.0000
vn 0.0000 0.0000 -1.0000
vn 0.8569 0.3119 -0.4104
vn 0.9119 -0.0000 -0.4104
vn 0.5368 0.1954 0.8208
vn 0.4333 0.3636 0.8247
vn 0.0000 0.0000 1.0000
vn 0.0000 0.0000 1.0000
vn 0.7919 0.2745 0.5454
vn 0.6486 0.5183 0.5574
vn 0.4333 0.3636 0.8247
vn 0.5368 0.1954 0.8208
vn 0.9129 0.3101 0.2655
vn 0.7567 0.5926 0.2760
vn 0.6486 0.5183 0.5574
vn 0.7919 0.2745 0.5454
vn 0.9444 0.3151 0.0940
vn 0.7888 0.6068 0.0979
vn 0.7567 0.5926 0.2760
vn 0.9129 0.3101 0.2655
vn 0.9481 0.3179 0.0012
vn 0.7912 0.6115 0.0012
vn 0.7888 0.6068 0.0979
vn 0.9444 0.3151 0.0940
vn 0.9481 0.3178 -0.0060
vn 0.7912 0.6115 -0.0068
vn 0.7912 0.6115 0.0012
vn 0.9481 0.3179 0.0012
vn 0.9442 0.3240 -0.0586
vn 0.7827 0.6192 -0.0627
vn 0.7912 0.6115 -0.0068
vn 0.9481 0.3178 -0.0060
vn 0.9264 0.3251 -0.1900
vn 0.7618 0.6164 -0.1995
vn 0.7827 0.6192 -0.0627
vn 0.9442 0.3240 -0.0586
vn 0.8527 0.3103 -0.4203
vn 0.6918 0.5805 -0.4295
vn 0.7618 0.6164 -0.1995
vn 0.9264 0.3251 -0.1900
vn 0.8569 0.3119 -0.4104
vn 0.6986 0.5862 -0.4104
vn 0.6918 0.5805 -0.4295
vn 0.8527 0.3103 -0.4203
vn 0.0000 0.0000 -1.0000
vn 0.0000 0.0000 -1.0000
vn 0.6986 0.5862 -0.4104
vn 0.8569 0.3119 -0.4104
vn 0.4333 0.3636 0.8247
vn 0.1905 0.5233 0.8306
vn 0.0000 0.0000 1.0000
vn 0.0000 0.0000 1.0000
vn 0.6486 0.5183 0.5574
vn 0.2917 0.7633 0.5765
vn 0.1905 0.5233 0.8306
vn 0.4333 0.3636 0.8247
vn 0.7567 0.5926 0.2760
vn 0.3473 0.8906 0.2937
vn 0.2917 0.7633 0.5765
vn 0.6486 0.5183 0.5574
vn 0.7888 0.6068 0.0979
vn 0.3670 0.9243 0.1047
vn 0.3473 0.8906 0.2937
vn 0.7567 0.5926 0.2760
vn 0.7912 0.6115 0.0012
vn 0.3675 0.9300 0.0012
vn 0.3670 0.9243 0.1047
vn 0.7888 0.6068 0.0979
vn 0.7912 0.6115 -0.0068
vn 0.3675 0.9300 -0.0082
vn 0.3675 0.9300 0.0012
vn 0.7912 0.6115 0.0012
vn 0.7827 0.6192 -0.0627
vn 0.3593 0.9306 -0.0695
vn 0.3675 0.9300 -0.0082
vn 0.7912 0.6115 -0.0068
vn 0.7618 0.6164 -0.1995
vn 0.3449 0.9137 -0.2148
vn 0.3593 0.9306 -0.0695
vn 0.7827 0.6192 -0.0627
vn 0.6918 0.5805 -0.4295
vn 0.3065 0.8421 -0.4437
vn 0.3449 0.9137 -0.2148
vn 0.7618 0.6164 -0.1995
vn 0.6986 0.5862 -0.4104
vn 0.3119 0.8569 -0.4104
vn 0.3065 0.8421 -0.4437
vn 0.6918 0.5805 -0.4295
vn 0.0000 0.0000 -1.0000
vn 0.0000 0.0000 -1.0000
vn 0.3119 0.8569 -0.4104
vn 0.6986 0.5862 -0.4104
vn 0.1905 0.5233 0.8306
vn 0.0000 0.5547 0.8321
vn 0.0000 0.0000 1.0000
vn 0.0000 0.0000 1.0000
vn 0.2917 0.7633 0.5765
vn 0.0000 0.8137 0.5812
vn 0.0000 0.5547 0.8321
vn 0.1905 0.5233 0.8306
vn 0.3473 0.8906 0.2937
vn 0.0000 0.9545 0.2983
vn 0.0000 0.8137 0.5812
vn 0.2917 0.7633 0.5765
vn 0.3670 0.9243 0.1047
vn 0.0000 0.9943 0.1065
vn 0.0000 0.9545 0.2983
vn 0.3473 0.8906 0.2937
vn 0.3675 0.9300 0.0012
vn 0.0000 1.0000 0.0012
vn 0.0000 0.9943 0.1065
vn 0.3670 0.9243 0.1047
vn 0.3675 0.9300 -0.0082
vn -0.0000 1.0000 -0.0086
vn 0.0000 1.0000 0.0012
vn 0.3675 0.9300 0.0012
vn 0.3593 0.9306 -0.0695
vn -0.0000 0.9975 -0.0712
vn -0.0000 1.0000 -0.0086
vn 0.3675 0.9300 -0.0082
vn 0.3449 0.9137 -0.2148
vn -0.0000 0.9758 -0.2187
vn -0.0000 0.9975 -0.0712
vn 0.3593 0.9306 -0.0695
vn 0.3065 0.8421 -0.4437
vn -0.0000 0.8944 -0.4472
vn -0.0000 0.9758 -0.2187
vn 0.3449 0.9137 -0.2148
vn 0.3119 0.8569 -0.4104
vn -0.0000 0.9119 -0.4104
vn -0.0000 0.8944 -0.4472
vn 0.3065 0.8421 -0.4437
vn 0.0000 0.0000 -1.0000
vn 0.0000 0.0000 -1.0000
vn -0.0000 0.9119 -0.4104
vn 0.3119 0.8569 -0.4104
vn 0.0000 0.5547 0.8321
vn -0.1905 0.5233 0.8306
vn 0.0000 0.0000 1.0000
vn 0.0000 0.0000 1.0000
vn 0.0000 0.8137 0.5812
vn -0.2917 0.7633 0.5765
vn -0.1905 0.5233 0.8306
vn 0.0000 0.5547 0.8321
vn 0.0000 0.9545 0.2983
vn -0.3473 0.8906 0.2937
vn -0.2917 0.7633 0.5765
vn 0.0000 0.8137 0.5812
vn 0.0000 0.9943 0.1065
vn -0.3670 0.9243 0.1047
vn -0.3473 0.8906 0.2937
vn 0.0000 0.9545 0.2983
vn 0.0000 1.0000 0.0012
vn -0.3675 0.9300 0.0012
vn -0.3670 0.9243 0.1047
vn 0.0000 0.9943 0.1065
vn -0.0000 1.0000 -0.0086
vn -0.3675 0.9300 -0.0082
vn -0.3675 0.9300 0.0012
vn 0.0000 1.0000 0.0012
vn -0.0000 0.9975 -0.0712
vn -0.3593 0.9306 -0.0695
vn -0.3675 0.9300 -0.0082
vn -0.0000 1.0000 -0.0086
vn -0.0000 0.9758 -0.2187
vn -0.3449 0.9137 -0.2148
vn -0.3593 0.9306 -0.0695
vn -0.0000 0.9975 -0.0712
vn -0.0000 0.8944 -0.4472
vn -0.3065 0.8421 -0.4437
vn -0.3449 0.9137 -0.2148
vn -0.0000 0.9758 -0.2187
vn -0.0000 0.9119 -0.4104
vn -0.3119 0.8569 -0.4104
vn -0.3065 0.8421 -0.4437
vn -0.0000 0.8944 -0.4472
vn 0.0000 0.0000 -1.0000
vn 0.0000 0.0000 -1.0000
vn -0.3119 0.8569 -0.4104
vn -0.0000 0.9119 -0.4104
vn -0.1905 0.5233 0.8306
vn -0.3615 0.4308 0.8269
vn 0.0000 0.0000 1.0000
vn 0.0000 0.0000 1.0000
vn -0.2917 0.7633 0.5765
vn -0.5457 0.6194 0.5644
vn -0.3615 0.4308 0.8269
vn -0.1905 0.5233 0.8306
vn -0.3473 0.8906 0.2937
vn -0.6414 0.7134 0.2824
vn -0.5457 0.6194 0.5644
vn -0.2917 0.7633 0.5765
vn -0.3670 0.9243 0.1047
vn -0.6718 0.7339 0.1003
vn -0.6414 0.7134 0.2824
vn -0.3473 0.8906 0.2937
vn -0.3675 0.9300 0.0012
vn -0.6735 0.7392 0.0012
vn -0.6718 0.7339 0.1003
vn -0.3670 0.9243 0.1047
vn -0.3675 0.9300 -0.0082
vn -0.6734 0.7392 -0.0073
vn -0.6735 0.7392 0.0012
vn -0.3675 0.9300 0.0012
vn -0.3593 0.9306 -0.0695
vn -0.6634 0.7454 -0.0652
vn -0.6734 0.7392 -0.0073
vn -0.3675 0.9300 -0.0082
vn -0.3449 0.9137 -0.2148
vn -0.6425 0.7383 -0.2051
vn -0.6634 0.7454 -0.0652
vn -0.3593 0.9306 -0.0695
vn -0.3065 0.8421 -0.4437
vn -0.5789 0.6899 -0.4348
vn -0.6425 0.7383 -0.2051
vn -0.3449 0.9137 -0.2148
vn -0.3119 0.8569 -0.4104
vn -0.5862 0.6986 -0.4104
vn -0.5789 0.6899 -0.4348
vn -0.3065 0.8421 -0.4437
vn 0.0000 0.0000 -1.0000
vn 0.0000 0.0000 -1.0000
vn -0.5862 0.6986 -0.4104
vn -0.3119 0.8569 -0.4104
vn -0.3615 0.4308 0.8269
vn -0.4925 0.2843 0.8226
vn 0.0000 0.0000 1.0000
vn 0.0000 0.0000 1.0000
vn -0.5457 0.6194 0.5644
vn -0.7314 0.4021 0.5508
vn -0.4925 0.2843 0.8226
vn -0.3615 0.4308 0.8269
vn -0.6414 0.7134 0.2824
vn -0.8476 0.4567 0.2702
vn -0.7314 0.4021 0.5508
vn -0.5457 0.6194 0.5644
vn -0.6718 0.7339 0.1003
vn -0.8798 0.4656 0.0957
vn -0.8476 0.4567 0.2702
vn -0.6414 0.7134 0.2824
vn -0.6735 0.7392 0.0012
vn -0.8829 0.4695 0.0012
vn -0.8798 0.4656 0.0957
vn -0.6718 0.7339 0.1003
vn -0.6734 0.7392 -0.0073
vn -0.8829 0.4695 -0.0064
vn -0.8829 0.4695 0.0012
vn -0.6735 0.7392 0.0012
vn -0.6634 0.7454 -0.0652
vn -0.8767 0.4772 -0.0604
vn -0.8829 0.4695 -0.0064
vn -0.6734 0.7392 -0.0073
vn -0.6425 0.7383 -0.2051
vn -0.8571 0.4772 -0.1942
vn -0.8767 0.4772 -0.0604
vn -0.6634 0.7454 -0.0652
vn -0.5789 0.6899 -0.4348
vn -0.7842 0.4527 -0.4244
vn -0.8571 0.4772 -0.1942
vn -0.6425 0.7383 -0.2051
vn -0.5862 0.6986 -0.4104
vn -0.7897 0.4560 -0.4104
vn -0.7842 0.4527 -0.4244
vn -0.5789 0.6899 -0.4348
vn 0.0000 0.0000 -1.0000
vn 0.0000 0.0000 -1.0000
vn -0.7897 0.4560 -0.4104
vn -0.5862 0.6986 -0.4104
vn -0.4925 0.2843 0.8226
vn -0.5735 0.0000 0.8192
vn 0.0000 0.0000 1.0000
vn 0.0000 0.0000 1.0000
vn -0.7314 0.4021 0.5508
vn -0.8412 0.0000 0.5408
vn -0.5735 0.0000 0.8192
vn -0.4925 0.2843 0.8226
vn -0.8476 0.4567 0.2702
vn -0.9652 -0.0000 0.2614
vn -0.8412 0.0000 0.5408
vn -0.7314 0.4021 0.5508
vn -0.8798 0.4656 0.0957
vn -0.9957 -0.0000 0.0925
vn -0.9652 -0.0000 0.2614
vn -0.8476 0.4567 0.2702
vn -0.8829 0.4695 0.0012
vn -1.0000 0.0000 0.0012
vn -0.9957 -0.0000 0.0925
vn -0.8798 0.4656 0.0957
vn -0.8829 0.4695 -0.0064
vn -1.0000 0.0000 -0.0057
vn -1.0000 0.0000 0.0012
vn -0.8829 0.4695 0.0012
vn -0.8767 0.4772 -0.0604
vn -0.9984 -0.0000 -0.0570
vn -1.0000 0.0000 -0.0057
vn -0.8829 0.4695 -0.0064
vn -0.8571 0.4772 -0.1942
vn -0.9825 0.0000 -0.1863
vn -0.9984 -0.0000 -0.0570
vn -0.8767 0.4772 -0.0604
vn -0.7842 0.4527 -0.4244
vn -0.9091 0.0000 -0.4167
vn -0.9825 0.0000 -0.1863
vn -0.8571 0.4772 -0.1942
vn -0.7897 0.4560 -0.4104
vn -0.9119 0.0000 -0.4104
vn -0.9091 0.0000 -0.4167
vn -0.7842 0.4527 -0.4244
vn 0.0000 0.0000 -1.0000
vn 0.0000 0.0000 -1.0000
vn -0.9119 0.0000 -0.4104
vn -0.7897 0.4560 -0.4104
vn -0.5735 0.0000 0.8192
vn -0.5368 -0.1954 0.8208
vn 0.0000 0.0000 1.0000
vn 0.0000 0.0000 1.0000
vn -0.8412 0.0000 0.5408
vn -0.7919 -0.2745 0.5454
vn -0.5368 -0.1954 0.8208
vn -0.5735 0.0000 0.8192
vn -0.9652 -0.0000 0.2614
vn -0.9129 -0.3101 0.2655
vn -0.7919 -0.2745 0.5454
vn -0.8412 0.0000 0.5408
vn -0.9957 -0.0000 0.0925
vn -0.9444 -0.3151 0.0940
vn -0.9129 -0.3101 0.2655
vn -0.9652 -0.0000 0.2614
vn -1.0000 0.0000 0.0012
vn -0.9481 -0.3179 0.0012
vn -0.9444 -0.3151 0.0940
vn -0.9957 -0.0000 0.0925
vn -1.0000 0.0000 -0.0057
vn -0.9481 -0.3178 -0.0060
vn -0.9481 -0.3179 0.0012
vn -1.0000 0.0000 0.0012
vn -0.9984 -0.0000 -0.0570
vn -0.9442 -0.3240 -0.0586
vn -0.9481 -0.3178 -0.0060
vn -1.0000 0.0000 -0.0057
vn -0.9825 0.0000 -0.1863
vn -0.9264 -0.3251 -0.1900
vn -0.9442 -0.3240 -0.0586
vn -0.9984 -0.0000 -0.0570
vn -0.9091 0.0000 -0.4167
vn -0.8527 -0.3103 -0.4203
vn -0.9264 -0.3251 -0.1900
vn -0.9825 0.0000 -0.1863
vn -0.9119 0.0000 -0.4104
vn -0.8569 -0.3119 -0.4104
vn -0.8527 -0.3103 -0.4203
vn -0.9091 0.0000 -0.4167
vn 0.0000 0.0000 -1.0000
vn 0.0000 0.0000 -1.0000
vn -0.8569 -0.3119 -0.4104
vn -0.9119 0.0000 -0.4104
vn -0.5368 -0.1954 0.8208
vn -0.4333 -0.3636 0.8247
vn 0.0000 0.0000 1.0000
vn 0.0000 0.0000 1.0000
vn -0.7919 -0.2745 0.5454
vn -0.6486 -0.5183 0.5574
vn -0.4333 -0.3636 0.8247
vn -0.5368 -0.1954 0.8208
vn -0.9129 -0.3101 0.2655
vn -0.7567 -0.5926 0.2760
vn -0.6486 -0.5183 0.5574
vn -0.7919 -0.2745 0.5454
vn -0.9444 -0.3151 0.0940
vn -0.7888 -0.6068 0.0979
vn -0.7567 -0.5926 0.2760
vn -0.9129 -0.3101 0.2655
vn -0.9481 -0.3179 0.0012
vn -0.7912 -0.6115 0.0012
vn -0.7888 -0.6068 0.0979
vn -0.9444 -0.3151 0.0940
vn -0.9481 -0.3178 -0.0060
vn -0.7912 -0.6115 -0.0068
vn -0.7912 -0.6115 0.0012
vn -0.9481 -0.3179 0.0012
vn -0.9442 -0.3240 -0.0586
vn -0.7827 -0.6192 -0.0627
vn -0.7912 -0.6115 -0.0068
vn -0.9481 -0.3178 -0.0060
vn -0.9264 -0.3251 -0.1900
vn -0.7618 -0.6164 -0.1995
vn -0.7827 -0.6192 -0.0627
vn -0.9442 -0.3240 -0.0586
vn -0.8527 -0.3103 -0.4203
vn -0.6918 -0.5805 -0.4295
vn -0.7618 -0.6164 -0.1995
vn -0.9264 -0.3251 -0.1900
vn -0.8569 -0.3119 -0.4104
vn -0.6986 -0.5862 -0.4104
vn -0.6918 -0.5805 -0.4295
vn -0.8527 -0.3103 -0.4203
vn 0.0000 0.0000 -1.0000
vn 0.0000 0.0000 -1.0000
vn -0.6986 -0.5862 -0.4104
vn -0.8569 -0.3119 -0.4104
vn -0.4333 -0.3636 0.8247
vn -0.2797 -0.4844 0.8290
vn 0.0000 0.0000 1.0000
vn 0.0000 0.0000 1.0000
vn -0.6486 -0.5183 0.5574
vn -0.4256 -0.7020 0.5710
vn -0.2797 -0.4844 0.8290
vn -0.4333 -0.3636 0.8247
vn -0.7567 -0.5926 0.2760
vn -0.5037 -0.8143 0.2886
vn -0.4256 -0.7020 0.5710
vn -0.6486 -0.5183 0.5574
vn -0.7888 -0.6068 0.0979
vn -0.5301 -0.8417 0.1027
vn -0.5037 -0.8143 0.2886
vn -0.7567 -0.5926 0.2760
vn -0.7912 -0.6115 0.0012
vn -0.5311 -0.8473 0.0012
vn -0.5301 -0.8417 0.1027
vn -0.7888 -0.6068 0.0979
vn -0.7912 -0.6115 -0.0068
vn -0.5311 -0.8473 -0.0078
vn -0.5311 -0.8473 0.0012
vn -0.7912 -0.6115 0.0012
vn -0.7827 -0.6192 -0.0627
vn -0.5210 -0.8509 -0.0675
vn -0.5311 -0.8473 -0.0078
vn -0.7912 -0.6115 -0.0068
vn -0.7618 -0.6164 -0.1995
vn -0.5022 -0.8388 -0.2104
vn -0.5210 -0.8509 -0.0675
vn -0.7827 -0.6192 -0.0627
vn -0.6918 -0.5805 -0.4295
vn -0.4491 -0.7778 -0.4397
vn -0.5022 -0.8388 -0.2104
vn -0.7618 -0.6164 -0.1995
vn -0.6986 -0.5862 -0.4104
vn -0.4560 -0.7897 -0.4104
vn -0.4491 -0.7778 -0.4397
vn -0.6918 -0.5805 -0.4295
vn 0.0000 0.0000 -1.0000
vn 0.0000 0.0000 -1.0000
vn -0.4560 -0.7897 -0.4104
vn -0.6986 -0.5862 -0.4104
vn -0.2797 -0.4844 0.8290
vn -0.0485 -0.5540 0.8311
vn 0.0000 0.0000 1.0000
vn 0.0000 0.0000 1.0000
vn -0.4256 -0.7020 0.5710
vn -0.0745 -0.8115 0.5796
vn -0.0485 -0.5540 0.8311
vn -0.2797 -0.4844 0.8290
vn -0.5037 -0.8143 0.2886
vn -0.0891 -0.9507 0.2971
vn -0.0745 -0.8115 0.5796
vn -0.4256 -0.7020 0.5710
vn -0.5301 -0.8417 0.1027
vn -0.0945 -0.9899 0.1061
vn -0.0891 -0.9507 0.2971
vn -0.5037 -0.8143 0.2886
vn -0.5311 -0.8473 0.0012
vn -0.0946 -0.9955 0.0012
vn -0.0945 -0.9899 0.1061
vn -0.5301 -0.8417 0.1027
vn -0.5311 -0.8473 -0.0078
vn -0.0946 -0.9955 -0.0085
vn -0.0946 -0.9955 0.0012
vn -0.5311 -0.8473 0.0012
vn -0.5210 -0.8509 -0.0675
vn -0.0922 -0.9932 -0.0709
vn -0.0946 -0.9955 -0.0085
vn -0.5311 -0.8473 -0.0078
vn -0.5022 -0.8388 -0.2104
vn -0.0882 -0.9720 -0.2179
vn -0.0922 -0.9932 -0.0709
vn -0.5210 -0.8509 -0.0675
vn -0.4491 -0.7778 -0.4397
vn -0.0780 -0.8917 -0.4459
vn -0.0882 -0.9720 -0.2179
vn -0.5022 -0.8388 -0.2104
vn -0.4560 -0.7897 -0.4104
vn -0.0795 -0.9090 -0.4091
vn -0.0780 -0.8917 -0.4459
vn -0.4491 -0.7778 -0.4397
vn 0.0000 0.0000 -1.0000
vn 0.0000 0.0000 -1.0000
vn -0.0795 -0.9090 -0.4091
vn -0.4560 -0.7897 -0.4104
vn 0.5679 0.7309 0.3786
vn 0.7122 0.5170 0.4748
vn 0.5079 0.7919 0.3390
vn 0.3354 0.9158 0.2211
vn 0.3354 0.9158 0.2211
vn 0.5079 0.7919 0.3390
vn 0.2478 0.9548 0.1643
vn 0.1521 0.9837 0.0955
vn 0.1521 0.9837 0.0955
vn 0.2478 0.9548 0.1643
vn 0.0489 0.9986 0.0187
vn 0.0398 0.9992 0.0106
vn 0.0398 0.9992 0.0106
vn 0.0489 0.9986 0.0187
vn -0.0133 0.9980 -0.0618
vn 0.0013 0.9994 -0.0349
vn 0.0013 0.9994 -0.0349
vn -0.0133 0.9980 -0.0618
vn 0.0022 0.9948 -0.1021
vn 0.0013 0.9983 -0.0578
vn 0.3354 -0.9158 0.2211
vn 0.5079 -0.7919 0.3390
vn 0.7122 -0.5170 0.4748
vn 0.5679 -0.7309 0.3786
vn 0.1521 -0.9837 0.0955
vn 0.2478 -0.9548 0.1643
vn 0.5079 -0.7919 0.3390
vn 0.3354 -0.9158 0.2211
vn 0.0398 -0.9992 0.0106
vn 0.0489 -0.9986 0.0187
vn 0.2478 -0.9548 0.1643
vn 0.1521 -0.9837 0.0955
vn 0.0013 -0.9994 -0.0349
vn -0.0133 -0.9980 -0.0618
vn 0.0489 -0.9986 0.0187
vn 0.0398 -0.9992 0.0106
vn 0.0013 -0.9983 -0.0578
vn 0.0022 -0.9948 -0.1021
vn -0.0133 -0.9980 -0.0618
vn 0.0013 -0.9994 -0.0349
vn 1.0000 0.0000 0.0000
vn 1.0000 0.0000 0.0000
vn 1.0000 0.0000 0.0000
vn 1.0000 0.0000 0.0000
vn 1.0000 0.0000 0.0000
vn 1.0000 0.0000 0.0000
vn 1.0000 0.0000 0.0000
vn 1.0000 0.0000 0.0000
vn -0.3354 0.9158 0.2211
vn -0.5079 0.7919 0.3390
vn -0.7122 0.5170 0.4748
vn -0.5679 0.7309 0.3786
vn -0.1521 0.9837 0.0955
vn -0.2478 0.9548 0.1643
vn -0.5079 0.7919 0.3390
vn -0.3354 0.9158 0.2211
vn -0.0398 0.9992 0.0106
vn -0.0489 0.9986 0.0187
vn -0.2478 0.9548 0.1643
vn -0.1521 0.9837 0.0955
vn -0.0013 0.9994 -0.0349
vn 0.0133 0.9980 -0.0618
vn -0.0489 0.9986 0.0187
vn -0.0398 0.9992 0.0106
vn -0.0013 0.9983 -0.0578
vn -0.0022 0.9948 -0.1021
vn 0.0133 0.9980 -0.0618
vn -0.0013 0.9994 -0.0349
vn -0.5679 -0.7309 0.3786
vn -0.7122 -0.5170 0.4748
vn -0.5079 -0.7919 0.3390
vn -0.3354 -0.9158 0.2211
vn -0.3354 -0.9158 0.2211
vn -0.5079 -0.7919 0.3390
vn -0.2478 -0.9548 0.1643
vn -0.1521 -0.9837 0.0955
vn -0.1521 -0.9837 0.0955
vn -0.2478 -0.9548 0.1643
vn -0.0489 -0.9986 0.0187
vn -0.0398 -0.9992 0.0106
vn -0.0398 -0.9992 0.0106
vn -0.0489 -0.9986 0.0187
vn 0.0133 -0.9980 -0.0618
vn -0.0013 -0.9994 -0.0349
vn -0.0013 -0.9994 -0.0349
vn 0.0133 -0.9980 -0.0618
vn -0.0022 -0.9948 -0.1021
vn -0.0013 -0.9983 -0.0578
vn -1.0000 -0.0000 -0.0000
vn -1.0000 -0.0000 -0.0000
vn -1.0000 -0.0000 -0.0000
vn -1.0000 -0.0000 -0.0000
vn -1.0000 -0.0000 -0.0000
vn -1.0000 -0.0000 -0.0000
vn -1.0000 -0.0000 -0.0000
vn -1.0000 -0.0000 -0.0000
vn 0.9966 0.0271 0.0778
vn 0.9966 0.0272 0.0782
vn 0.8420 0.1346 0.5225
vn 0.8432 0.1341 0.5206
vn 0.9999 0.0113 -0.0005
vn 0.9999 0.0113 -0.0005
vn 0.9966 0.0272 0.0782
vn 0.9966 0.0271 0.0778
vn 0.9945 -0.0000 -0.1050
vn 0.9944 -0.0000 -0.1055
vn 0.9999 0.0113 -0.0005
vn 0.9999 0.0113 -0.0005
vn -0.8432 0.1341 0.5206
vn -0.8420 0.1346 0.5225
vn -0.9966 0.0272 0.0782
vn -0.9966 0.0271 0.0778
vn -0.9966 0.0271 0.0778
vn -0.9966 0.0272 0.0782
vn -0.9999 0.0113 -0.0005
vn -0.9999 0.0113 -0.0005
vn -0.9999 0.0113 -0.0005
vn -0.9999 0.0113 -0.0005
vn -0.9944 0.0000 -0.1055
vn -0.9945 0.0000 -0.1050
vn -0.0000 1.0000 -0.0000
vn -0.0000 1.0000 -0.0000
vn -0.0000 1.0000 -0.0000
vn -0.0000 1.0000 -0.0000
vn -0.0000 1.0000 -0.0000
vn -0.0000 1.0000 -0.0000
vn -0.0000 1.0000 -0.0000
vn -0.0000 1.0000 -0.0000
vn -0.8432 0.1341 0.5206
vn -0.8420 0.1346 0.5225
vn -0.9966 0.0272 0.0782
vn -0.9966 0.0271 0.0778
vn -0.9966 0.0271 0.0778
vn -0.9966 0.0272 0.0782
vn -0.9999 0.0113 -0.0005
vn -0.9999 0.0113 -0.0005
vn -0.9999 0.0113 -0.0005
vn -0.9999 0.0113 -0.0005
vn -0.9944 0.0000 -0.1055
vn -0.9945 0.0000 -0.1050
vn 0.9966 0.0271 0.0778
vn 0.9966 0.0272 0.0782
vn 0.8420 0.1346 0.5225
vn 0.8432 0.1341 0.5206
vn 0.9999 0.0113 -0.0005
vn 0.9999 0.0113 -0.0005
vn 0.9966 0.0272 0.0782
vn 0.9966 0.0271 0.0778
vn 0.9945 -0.0000 -0.1050
vn 0.9944 -0.0000 -0.1055
vn 0.9999 0.0113 -0.0005
vn 0.9999 0.0113 -0.0005
vn 0.0000 1.0000 0.0000
vn 0.0000 1.0000 0.0000
vn 0.0000 1.0000 0.0000
vn 0.0000 1.0000 0.0000
vn 0.0000 1.0000 0.0000
vn 0.0000 1.0000 0.0000
vn 0.0000 1.0000 0.0000
vn 0.0000 1.0000 0.0000
usemtl paint
f 1/1/1 2/2/2 3/3/3 4/4/4
f 5/5/5 6/6/6 7/7/7 8/8/8
f 9/9/9 10/10/10 11/11/11 12/12/12
f 13/13/13 14/14/14 15/15/15 16/16/16
f 17/17/17 18/18/18 19/19/19 20/20/20
f 21/21/21 22/22/22 23/23/23 24/24/24
f 25/25/25 26/26/26 27/27/27 28/28/28
f 29/29/29 30/30/30 31/31/31 32/32/32
f 33/33/33 34/34/34 35/35/35 36/36/36
f 37/37/37 38/38/38 39/39/39 40/40/40
f 41/41/41 42/42/42 43/43/43 44/44/44
f 45/45/45 46/46/46 47/47/47 48/48/48
f 49/49/49 50/50/50 51/51/51 52/52/52
f 53/53/53 54/54/54 55/55/55 56/56/56
f 57/57/57 58/58/58 59/59/59 60/60/60
f 61/61/61 62/62/62 63/63/63 64/64/64
f 65/65/65 66/66/66 67/67/67 68/68/68
f 69/69/69 70/70/70 71/71/71 72/72/72
f 73/73/73 74/74/74 75/75/75 76/76/76
f 77/77/77 78/78/78 79/79/79 80/80/80
f 81/81/81 82/82/82 83/83/83 84/84/84
f 85/85/85 86/86/86 87/87/87 88/88/88
f 89/89/89 90/90/90 91/91/91 92/92/92
f 93/93/93 94/94/94 95/95/95 96/96/96
f 97/97/97 98/98/98 99/99/99 100/100/100
f 101/101/101 102/102/102 103/103/103 104/104/104
f 105/105/105 106/106/106 107/107/107 108/108/108
f 109/109/109 110/110/110 111/111/111 112/112/112
f 113/113/113 114/114/114 115/115/115 116/116/116
f 117/117/117 118/118/118 119/119/119 120/120/120
f 121/121/121 122/122/122 123/123/123 124/124/124
f 125/125/125 126/126/126 127/127/127 128/128/128
f 129/129/129 130/130/130 131/131/131 132/132/132
f 133/133/133 134/134/134 135/135/135 136/136/136
f 137/137/137 138/138/138 139/139/139 140/140/140
f 141/141/141 142/142/142 143/143/143 144/144/144
f 145/145/145 146/146/146 147/147/147 148/148/148
f 149/149/149 150/150/150 151/151/151 152/152/152
f 153/153/153 154/154/154 155/155/155 156/156/156
f 157/157/157 158/158/158 159/159/159 160/160/160
f 161/161/161 162/162/162 163/163/163 164/164/164
f 165/165/165 166/166/166 167/167/167 168/168/168
f 169/169/169 170/170/170 171/171/171 172/172/172
f 173/173/173 174/174/174 175/175/175 176/176/176
f 177/177/177 178/178/178 179/179/179 180/180/180
f 181/181/181 182/182/182 183/183/183 184/184/184
f 185/185/185 186/186/186 187/187/187 188/188/188
f 189/189/189 190/190/190 191/191/191 192/192/192
f 193/193/193 194/194/194 195/195/195 196/196/196
f 197/197/197 198/198/198 199/199/199 200/200/200
f 201/201/201 202/202/202 203/203/203 204/204/204
f 205/205/205 206/206/206 207/207/207 208/208/208
f 209/209/209 210/210/210 211/211/211 212/212/212
f 213/213/213 214/214/214 215/215/215 216/216/216
f 217/217/217 218/218/218 219/219/219 220/220/220
f 221/221/221 222/222/222 223/223/223 224/224/224
f 225/225/225 226/226/226 227/227/227 228/228/228
f 229/229/229 230/230/230 231/231/231 232/232/232
f 233/233/233 234/234/234 235/235/235 236/236/236
f 237/237/237 238/238/238 239/239/239 240/240/240
f 241/241/241 242/242/242 243/243/243 244/244/244
f 245/245/245 246/246/246 247/247/247 248/248/248
f 249/249/249 250/250/250 251/251/251 252/252/252
f 253/253/253 254/254/254 255/255/255 256/256/256
f 257/257/257 258/258/258 259/259/259 260/260/260
f 261/261/261 262/262/262 263/263/263 264/264/264
f 265/265/265 266/266/266 267/267/267 268/268/268
f 269/269/269 270/270/270 271/271/271 272/272/272
f 273/273/273 274/274/274 275/275/275 276/276/276
f 277/277/277 278/278/278 279/279/279 280/280/280
f 281/281/281 282/282/282 283/283/283 284/284/284
f 285/285/285 286/286/286 287/287/287 288/288/288
f 289/289/289 290/290/290 291/291/291 292/292/292
f 293/293/293 294/294/294 295/295/295 296/296/296
f 297/297/297 298/298/298 299/299/299 300/300/300
f 301/301/301 302/302/302 303/303/303 304/304/304
f 305/305/305 306/306/306 307/307/307 308/308/308
f 309/309/309 310/310/310 311/311/311 312/312/312
f 313/313/313 314/314/314 315/315/315 316/316/316
f 317/317/317 318/318/318 319/319/319 320/320/320
f 321/321/321 322/322/322 323/323/323 324/324/324
f 325/325/325 326/326/326 327/327/327 328/328/328
f 329/329/329 330/330/330 331/331/331 332/332/332
f 333/333/333 334/334/334 335/335/335 336/336/336
f 337/337/337 338/338/338 339/339/339 340/340/340
f 341/341/341 342/342/342 343/343/343 344/344/344
f 345/345/345 346/346/346 347/347/347 348/348/348
f 349/349/349 350/350/350 351/351/351 352/352/352
f 353/353/353 354/354/354 355/355/355 356/356/356
f 357/357/357 358/358/358 359/359/359 360/360/360
f 361/361/361 362/362/362 363/363/363 364/364/364
f 365/365/365 366/366/366 367/367/367 368/368/368
f 369/369/369 370/370/370 371/371/371 372/372/372
f 373/373/373 374/374/374 375/375/375 376/376/376
f 377/377/377 378/378/378 379/379/379 380/380/380
f 381/381/381 382/382/382 383/383/383 384/384/384
f 385/385/385 386/386/386 387/387/387 388/388/388
f 389/389/389 390/390/390 391/391/391 392/392/392
f 393/393/393 394/394/394 395/395/395 396/396/396
f 397/397/397 398/398/398 399/399/399 400/400/400
f 401/401/401 402/402/402 403/403/403 404/404/404
f 405/405/405 406/406/406 407/407/407 408/408/408
f 409/409/409 410/410/410 411/411/411 412/412/412
f 413/413/413 414/414/414 415/415/415 416/416/416
f 417/417/417 418/418/418 419/419/419 420/420/420
f 421/421/421 422/422/422 423/423/423 424/424/424
f 425/425/425 426/426/426 427/427/427 428/428/428
f 429/429/429 430/430/430 431/431/431 432/432/432
f 433/433/433 434/434/434 435/435/435 436/436/436
f 437/437/437 438/438/438 439/439/439 440/440/440
f 441/441/441 442/442/442 443/443/443 444/444/444
f 445/445/445 446/446/446 447/447/447 448/448/448
f 449/449/449 450/450/450 451/451/451 452/452/452
f 453/453/453 454/454/454 455/455/455 456/456/456
f 457/457/457 458/458/458 459/459/459 460/460/460
f 461/461/461 462/462/462 463/463/463 464/464/464
f 465/465/465 466/466/466 467/467/467 468/468/468
f 469/469/469 470/470/470 471/471/471 472/472/472
f 473/473/473 474/474/474 475/475/475 476/476/476
f 477/477/477 478/478/478 479/479/479 480/480/480
f 481/481/481 482/482/482 483/483/483 484/484/484
f 485/485/485 486/486/486 487/487/487 488/488/488
f 489/489/489 490/490/490 491/491/491 492/492/492
f 493/493/493 494/494/494 495/495/495 496/496/496
f 497/497/497 498/498/498 499/499/499 500/500/500
f 501/501/501 502/502/502 503/503/503 504/504/504
f 505/505/505 506/506/506 507/507/507 508/508/508
f 509/509/509 510/510/510 511/511/511 512/512/512
f 513/513/513 514/514/514 515/515/515 516/516/516
f 517/517/517 518/518/518 519/519/519 520/520/520
f 521/521/521 522/522/522 523/523/523 524/524/524
f 525/525/525 526/526/526 527/527/527 528/528/528
f 529/529/529 530/530/530 531/531/531 532/532/532
f 533/533/533 534/534/534 535/535/535 536/536/536
f 537/537/537 538/538/538 539/539/539 540/540/540
f 541/541/541 542/542/542 543/543/543 544/544/544
f 545/545/545 546/546/546 547/547/547 548/548/548
f 549/549/549 550/550/550 551/551/551 552/552/552
f 553/553/553 554/554/554 555/555/555 556/556/556
f 557/557/557 558/558/558 559/559/559 560/560/560
f 561/561/561 562/562/562 563/563/563 564/564/564
f 565/565/565 566/566/566 567/567/567 568/568/568
f 569/569/569 570/570/570 571/571/571 572/572/572
f 573/573/573 574/574/574 575/575/575 576/576/576
f 577/577/577 578/578/578 579/579/579 580/580/580
f 581/581/581 582/582/582 583/583/583 584/584/584
f 585/585/585 586/586/586 587/587/587 588/588/588
f 589/589/589 590/590/590 591/591/591 592/592/592
f 593/593/593 594/594/594 595/595/595 596/596/596
f 597/597/597 598/598/598 599/599/599 600/600/600
f 601/601/601 602/602/602 603/603/603 604/604/604
f 605/605/605 606/606/606 607/607/607 608/608/608
f 609/609/609 610/610/610 611/611/611 612/612/612
f 613/613/613 614/614/614 615/615/615 616/616/616
f 617/617/617 618/618/618 619/619/619 620/620/620
f 621/621/621 622/622/622 623/623/623 624/624/624
f 625/625/625 626/626/626 627/627/627 628/628/628
f 629/629/629 630/630/630 631/631/631 632/632/632
f 633/633/633 634/634/634 635/635/635 636/636/636
f 637/637/637 638/638/638 639/639/639 640/640/640
f 641/641/641 642/642/642 643/643/643 644/644/644
f 645/645/645 646/646/646 647/647/647 648/648/648
f 649/649/649 650/650/650 651/651/651 652/652/652
f 653/653/653 654/654/654 655/655/655 656/656/656
f 657/657/657 658/658/658 659/659/659 660/660/660
f 661/661/661 662/662/662 663/663/663 664/664/664
f 665/665/665 666/666/666 667/667/667 668/668/668
f 669/669/669 670/670/670 671/671/671 672/672/672
f 673/673/673 674/674/674 675/675/675 676/676/676
f 677/677/677 678/678/678 679/679/679 680/680/680
f 681/681/681 682/682/682 683/683/683 684/684/684
f 685/685/685 686/686/686 687/687/687 688/688/688
f 689/689/689 690/690/690 691/691/691 692/692/692
f 693/693/693 694/694/694 695/695/695 696/696/696
f 697/697/697 698/698/698 699/699/699 700/700/700
f 701/701/701 702/702/702 703/703/703 704/704/704
f 705/705/705 706/706/706 707/707/707 708/708/708
f 709/709/709 710/710/710 711/711/711 712/712/712
f 713/713/713 714/714/714 715/715/715 716/716/716
f 717/717/717 718/718/718 719/719/719 720/720/720
f 721/721/721 722/722/722 723/723/723 724/724/724
f 725/725/725 726/726/726 727/727/727 728/728/728
f 729/729/729 730/730/730 731/731/731 732/732/732
f 733/733/733 734/734/734 735/735/735 736/736/736
f 737/737/737 738/738/738 739/739/739 740/740/740
f 741/741/741 742/742/742 743/743/743 744/744/744
f 745/745/745 746/746/746 747/747/747 748/748/748
f 749/749/749 750/750/750 751/751/751 752/752/752
f 753/753/753 754/754/754 755/755/755 756/756/756
f 757/757/757 758/758/758 759/759/759 760/760/760
f 761/761/761 762/762/762 763/763/763 764/764/764
f 765/765/765 766/766/766 767/767/767 768/768/768
f 769/769/769 770/770/770 771/771/771 772/772/772
f 773/773/773 774/774/774 775/775/775 776/776/776
f 777/777/777 778/778/778 779/779/779 780/780/780
f 781/781/781 782/782/782 783/783/783 784/784/784
f 785/785/785 786/786/786 787/787/787 788/788/788
f 789/789/789 790/790/790 791/791/791 792/792/792
f 793/793/793 794/794/794 795/795/795 796/796/796
f 797/797/797 798/798/798 799/799/799 800/800/800
f 801/801/801 802/802/802 803/803/803 804/804/804
f 805/805/805 806/806/806 807/807/807 808/808/808
f 809/809/809 810/810/810 811/811/811 812/812/812
f 813/813/813 814/814/814 815/815/815 816/816/816
f 817/817/817 818/818/818 819/819/819 820/820/820
f 821/821/821 822/822/822 823/823/823 824/824/824
f 825/825/825 826/826/826 827/827/827 828/828/828
f 829/829/829 830/830/830 831/831/831 832/832/832
f 833/833/833 834/834/834 835/835/835 836/836/836
f 837/837/837 838/838/838 839/839/839 840/840/840
f 841/841/841 842/842/842 843/843/843 844/844/844
f 845/845/845 846/846/846 847/847/847 848/848/848
f 849/849/849 850/850/850 851/851/851 852/852/852
f 853/853/853 854/854/854 855/855/855 856/856/856
f 857/857/857 858/858/858 859/859/859 860/860/860
f 861/861/861 862/862/862 863/863/863 864/864/864
