# loiter/prop — сгенерировано tools/gen_models.py, не править руками
mtllib loiter.mtl
v 0.0300 -0.0146 -1.2567
v 0.1367 -0.0194 -1.2588
v 0.1367 -0.0067 -1.2700
v 0.0300 0.0000 -1.2700
v 0.0300 -0.0500 -1.2568
v 0.1367 -0.0500 -1.2588
v 0.1367 -0.0194 -1.2588
v 0.0300 -0.0146 -1.2567
v 0.0300 -0.0854 -1.2651
v 0.1367 -0.0806 -1.2659
v 0.1367 -0.0500 -1.2588
v 0.0300 -0.0500 -1.2568
v 0.0300 -0.1000 -1.2700
v 0.1367 -0.0933 -1.2700
v 0.1367 -0.0806 -1.2659
v 0.0300 -0.0854 -1.2651
v 0.1367 -0.0194 -1.2588
v 0.2433 -0.0241 -1.2609
v 0.2433 -0.0133 -1.2700
v 0.1367 -0.0067 -1.2700
v 0.1367 -0.0500 -1.2588
v 0.2433 -0.0500 -1.2609
v 0.2433 -0.0241 -1.2609
v 0.1367 -0.0194 -1.2588
v 0.1367 -0.0806 -1.2659
v 0.2433 -0.0759 -1.2667
v 0.2433 -0.0500 -1.2609
v 0.1367 -0.0500 -1.2588
v 0.1367 -0.0933 -1.2700
v 0.2433 -0.0867 -1.2700
v 0.2433 -0.0759 -1.2667
v 0.1367 -0.0806 -1.2659
v 0.2433 -0.0241 -1.2609
v 0.3500 -0.0288 -1.2629
v 0.3500 -0.0200 -1.2700
v 0.2433 -0.0133 -1.2700
v 0.2433 -0.0500 -1.2609
v 0.3500 -0.0500 -1.2630
v 0.3500 -0.0288 -1.2629
v 0.2433 -0.0241 -1.2609
v 0.2433 -0.0759 -1.2667
v 0.3500 -0.0712 -1.2674
v 0.3500 -0.0500 -1.2630
v 0.2433 -0.0500 -1.2609
v 0.2433 -0.0867 -1.2700
v 0.3500 -0.0800 -1.2700
v 0.3500 -0.0712 -1.2674
v 0.2433 -0.0759 -1.2667
v 0.0300 0.0000 -1.2700
v 0.1367 -0.0067 -1.2700
v 0.1367 -0.0194 -1.2812
v 0.0300 -0.0146 -1.2833
v 0.0300 -0.0146 -1.2833
v 0.1367 -0.0194 -1.2812
v 0.1367 -0.0500 -1.2812
v 0.0300 -0.0500 -1.2832
v 0.0300 -0.0500 -1.2832
v 0.1367 -0.0500 -1.2812
v 0.1367 -0.0806 -1.2741
v 0.0300 -0.0854 -1.2749
v 0.0300 -0.0854 -1.2749
v 0.1367 -0.0806 -1.2741
v 0.1367 -0.0933 -1.2700
v 0.0300 -0.1000 -1.2700
v 0.1367 -0.0067 -1.2700
v 0.2433 -0.0133 -1.2700
v 0.2433 -0.0241 -1.2791
v 0.1367 -0.0194 -1.2812
v 0.1367 -0.0194 -1.2812
v 0.2433 -0.0241 -1.2791
v 0.2433 -0.0500 -1.2791
v 0.1367 -0.0500 -1.2812
v 0.1367 -0.0500 -1.2812
v 0.2433 -0.0500 -1.2791
v 0.2433 -0.0759 -1.2733
v 0.1367 -0.0806 -1.2741
v 0.1367 -0.0806 -1.2741
v 0.2433 -0.0759 -1.2733
v 0.2433 -0.0867 -1.2700
v 0.1367 -0.0933 -1.2700
v 0.2433 -0.0133 -1.2700
v 0.3500 -0.0200 -1.2700
v 0.3500 -0.0288 -1.2771
v 0.2433 -0.0241 -1.2791
v 0.2433 -0.0241 -1.2791
v 0.3500 -0.0288 -1.2771
v 0.3500 -0.0500 -1.2770
v 0.2433 -0.0500 -1.2791
v 0.2433 -0.0500 -1.2791
v 0.3500 -0.0500 -1.2770
v 0.3500 -0.0712 -1.2726
v 0.2433 -0.0759 -1.2733
v 0.2433 -0.0759 -1.2733
v 0.3500 -0.0712 -1.2726
v 0.3500 -0.0800 -1.2700
v 0.2433 -0.0867 -1.2700
v 0.3500 -0.0288 -1.2629
v 0.3500 -0.0288 -1.2771
v 0.3500 -0.0200 -1.2700
v 0.3500 -0.0200 -1.2700
v 0.3500 -0.0500 -1.2630
v 0.3500 -0.0500 -1.2770
v 0.3500 -0.0288 -1.2771
v 0.3500 -0.0288 -1.2629
v 0.3500 -0.0712 -1.2674
v 0.3500 -0.0712 -1.2726
v 0.3500 -0.0500 -1.2770
v 0.3500 -0.0500 -1.2630
v 0.3500 -0.0800 -1.2700
v 0.3500 -0.0800 -1.2700
v 0.3500 -0.0712 -1.2726
v 0.3500 -0.0712 -1.2674
v -0.0300 0.0146 -1.2567
v -0.1367 0.0194 -1.2588
v -0.1367 0.0067 -1.2700
v -0.0300 0.0000 -1.2700
v -0.0300 0.0500 -1.2568
v -0.1367 0.0500 -1.2588
v -0.1367 0.0194 -1.2588
v -0.0300 0.0146 -1.2567
v -0.0300 0.0854 -1.2651
v -0.1367 0.0806 -1.2659
v -0.1367 0.0500 -1.2588
v -0.0300 0.0500 -1.2568
v -0.0300 0.1000 -1.2700
v -0.1367 0.0933 -1.2700
v -0.1367 0.0806 -1.2659
v -0.0300 0.0854 -1.2651
v -0.1367 0.0194 -1.2588
v -0.2433 0.0241 -1.2609
v -0.2433 0.0133 -1.2700
v -0.1367 0.0067 -1.2700
v -0.1367 0.0500 -1.2588
v -0.2433 0.0500 -1.2609
v -0.2433 0.0241 -1.2609
v -0.1367 0.0194 -1.2588
v -0.1367 0.0806 -1.2659
v -0.2433 0.0759 -1.2667
v -0.2433 0.0500 -1.2609
v -0.1367 0.0500 -1.2588
v -0.1367 0.0933 -1.2700
v -0.2433 0.0867 -1.2700
v -0.2433 0.0759 -1.2667
v -0.1367 0.0806 -1.2659
v -0.2433 0.0241 -1.2609
v -0.3500 0.0288 -1.2629
v -0.3500 0.0200 -1.2700
v -0.2433 0.0133 -1.2700
v -0.2433 0.0500 -1.2609
v -0.3500 0.0500 -1.2630
v -0.3500 0.0288 -1.2629
v -0.2433 0.0241 -1.2609
v -0.2433 0.0759 -1.2667
v -0.3500 0.0712 -1.2674
v -0.3500 0.0500 -1.2630
v -0.2433 0.0500 -1.2609
v -0.2433 0.0867 -1.2700
v -0.3500 0.0800 -1.2700
v -0.3500 0.0712 -1.2674
v -0.2433 0.0759 -1.2667
v -0.0300 0.0000 -1.2700
v -0.1367 0.0067 -1.2700
v -0.1367 0.0194 -1.2812
v -0.0300 0.0146 -1.2833
v -0.0300 0.0146 -1.2833
v -0.1367 0.0194 -1.2812
v -0.1367 0.0500 -1.2812
v -0.0300 0.0500 -1.2832
v -0.0300 0.0500 -1.2832
v -0.1367 0.0500 -1.2812
v -0.1367 0.0806 -1.2741
v -0.0300 0.0854 -1.2749
v -0.0300 0.0854 -1.2749
v -0.1367 0.0806 -1.2741
v -0.1367 0.0933 -1.2700
v -0.0300 0.1000 -1.2700
v -0.1367 0.0067 -1.2700
v -0.2433 0.0133 -1.2700
v -0.2433 0.0241 -1.2791
v -0.1367 0.0194 -1.2812
v -0.1367 0.0194 -1.2812
v -0.2433 0.0241 -1.2791
v -0.2433 0.0500 -1.2791
v -0.1367 0.0500 -1.2812
v -0.1367 0.0500 -1.2812
v -0.2433 0.0500 -1.2791
v -0.2433 0.0759 -1.2733
v -0.1367 0.0806 -1.2741
v -0.1367 0.0806 -1.2741
v -0.2433 0.0759 -1.2733
v -0.2433 0.0867 -1.2700
v -0.1367 0.0933 -1.2700
v -0.2433 0.0133 -1.2700
v -0.3500 0.0200 -1.2700
v -0.3500 0.0288 -1.2771
v -0.2433 0.0241 -1.2791
v -0.2433 0.0241 -1.2791
v -0.3500 0.0288 -1.2771
v -0.3500 0.0500 -1.2770
v -0.2433 0.0500 -1.2791
v -0.2433 0.0500 -1.2791
v -0.3500 0.0500 -1.2770
v -0.3500 0.0712 -1.2726
v -0.2433 0.0759 -1.2733
v -0.2433 0.0759 -1.2733
v -0.3500 0.0712 -1.2726
v -0.3500 0.0800 -1.2700
v -0.2433 0.0867 -1.2700
v -0.3500 0.0288 -1.2629
v -0.3500 0.0288 -1.2771
v -0.3500 0.0200 -1.2700
v -0.3500 0.0200 -1.2700
v -0.3500 0.0500 -1.2630
v -0.3500 0.0500 -1.2770
v -0.3500 0.0288 -1.2771
v -0.3500 0.0288 -1.2629
v -0.3500 0.0712 -1.2674
v -0.3500 0.0712 -1.2726
v -0.3500 0.0500 -1.2770
v -0.3500 0.0500 -1.2630
v -0.3500 0.0800 -1.2700
v -0.3500 0.0800 -1.2700
v -0.3500 0.0712 -1.2726
v -0.3500 0.0712 -1.2674
vt 0.00195 0.51242
vt 0.04232 0.51242
vt 0.04232 0.50651
vt 0.00195 0.50651
vt 0.00195 0.52669
vt 0.04232 0.52669
vt 0.04232 0.51242
vt 0.00195 0.51242
vt 0.00195 0.54096
vt 0.04232 0.54096
vt 0.04232 0.52669
vt 0.00195 0.52669
vt 0.00195 0.54688
vt 0.04232 0.54688
vt 0.04232 0.54096
vt 0.00195 0.54096
vt 0.04232 0.51242
vt 0.08268 0.51242
vt 0.08268 0.50651
vt 0.04232 0.50651
vt 0.04232 0.52669
vt 0.08268 0.52669
vt 0.08268 0.51242
vt 0.04232 0.51242
vt 0.04232 0.54096
vt 0.08268 0.54096
vt 0.08268 0.52669
vt 0.04232 0.52669
vt 0.04232 0.54688
vt 0.08268 0.54688
vt 0.08268 0.54096
vt 0.04232 0.54096
vt 0.08268 0.51242
vt 0.12305 0.51242
vt 0.12305 0.50651
vt 0.08268 0.50651
vt 0.08268 0.52669
vt 0.12305 0.52669
vt 0.12305 0.51242
vt 0.08268 0.51242
vt 0.08268 0.54096
vt 0.12305 0.54096
vt 0.12305 0.52669
vt 0.08268 0.52669
vt 0.08268 0.54688
vt 0.12305 0.54688
vt 0.12305 0.54096
vt 0.08268 0.54096
vt 0.00195 0.54688
vt 0.04232 0.54688
vt 0.04232 0.55279
vt 0.00195 0.55279
vt 0.00195 0.55279
vt 0.04232 0.55279
vt 0.04232 0.56706
vt 0.00195 0.56706
vt 0.00195 0.56706
vt 0.04232 0.56706
vt 0.04232 0.58133
vt 0.00195 0.58133
vt 0.00195 0.58133
vt 0.04232 0.58133
vt 0.04232 0.58724
vt 0.00195 0.58724
vt 0.04232 0.54688
vt 0.08268 0.54688
vt 0.08268 0.55279
vt 0.04232 0.55279
vt 0.04232 0.55279
vt 0.08268 0.55279
vt 0.08268 0.56706
vt 0.04232 0.56706
vt 0.04232 0.56706
vt 0.08268 0.56706
vt 0.08268 0.58133
vt 0.04232 0.58133
vt 0.04232 0.58133
vt 0.08268 0.58133
vt 0.08268 0.58724
vt 0.04232 0.58724
vt 0.08268 0.54688
vt 0.12305 0.54688
vt 0.12305 0.55279
vt 0.08268 0.55279
vt 0.08268 0.55279
vt 0.12305 0.55279
vt 0.12305 0.56706
vt 0.08268 0.56706
vt 0.08268 0.56706
vt 0.12305 0.56706
vt 0.12305 0.58133
vt 0.08268 0.58133
vt 0.08268 0.58133
vt 0.12305 0.58133
vt 0.12305 0.58724
vt 0.08268 0.58724
vt 0.12305 0.51242
vt 0.12305 0.55279
vt 0.12305 0.54688
vt 0.12305 0.50651
vt 0.12305 0.52669
vt 0.12305 0.56706
vt 0.12305 0.55279
vt 0.12305 0.51242
vt 0.12305 0.54096
vt 0.12305 0.58133
vt 0.12305 0.56706
vt 0.12305 0.52669
vt 0.12305 0.54688
vt 0.12305 0.58724
vt 0.12305 0.58133
vt 0.12305 0.54096
vt 0.00195 0.51242
vt 0.04232 0.51242
vt 0.04232 0.50651
vt 0.00195 0.50651
vt 0.00195 0.52669
vt 0.04232 0.52669
vt 0.04232 0.51242
vt 0.00195 0.51242
vt 0.00195 0.54096
vt 0.04232 0.54096
vt 0.04232 0.52669
vt 0.00195 0.52669
vt 0.00195 0.54688
vt 0.04232 0.54688
vt 0.04232 0.54096
vt 0.00195 0.54096
vt 0.04232 0.51242
vt 0.08268 0.51242
vt 0.08268 0.50651
vt 0.04232 0.50651
vt 0.04232 0.52669
vt 0.08268 0.52669
vt 0.08268 0.51242
vt 0.04232 0.51242
vt 0.04232 0.54096
vt 0.08268 0.54096
vt 0.08268 0.52669
vt 0.04232 0.52669
vt 0.04232 0.54688
vt 0.08268 0.54688
vt 0.08268 0.54096
vt 0.04232 0.54096
vt 0.08268 0.51242
vt 0.12305 0.51242
vt 0.12305 0.50651
vt 0.08268 0.50651
vt 0.08268 0.52669
vt 0.12305 0.52669
vt 0.12305 0.51242
vt 0.08268 0.51242
vt 0.08268 0.54096
vt 0.12305 0.54096
vt 0.12305 0.52669
vt 0.08268 0.52669
vt 0.08268 0.54688
vt 0.12305 0.54688
vt 0.12305 0.54096
vt 0.08268 0.54096
vt 0.00195 0.54688
vt 0.04232 0.54688
vt 0.04232 0.55279
vt 0.00195 0.55279
vt 0.00195 0.55279
vt 0.04232 0.55279
vt 0.04232 0.56706
vt 0.00195 0.56706
vt 0.00195 0.56706
vt 0.04232 0.56706
vt 0.04232 0.58133
vt 0.00195 0.58133
vt 0.00195 0.58133
vt 0.04232 0.58133
vt 0.04232 0.58724
vt 0.00195 0.58724
vt 0.04232 0.54688
vt 0.08268 0.54688
vt 0.08268 0.55279
vt 0.04232 0.55279
vt 0.04232 0.55279
vt 0.08268 0.55279
vt 0.08268 0.56706
vt 0.04232 0.56706
vt 0.04232 0.56706
vt 0.08268 0.56706
vt 0.08268 0.58133
vt 0.04232 0.58133
vt 0.04232 0.58133
vt 0.08268 0.58133
vt 0.08268 0.58724
vt 0.04232 0.58724
vt 0.08268 0.54688
vt 0.12305 0.54688
vt 0.12305 0.55279
vt 0.08268 0.55279
vt 0.08268 0.55279
vt 0.12305 0.55279
vt 0.12305 0.56706
vt 0.08268 0.56706
vt 0.08268 0.56706
vt 0.12305 0.56706
vt 0.12305 0.58133
vt 0.08268 0.58133
vt 0.08268 0.58133
vt 0.12305 0.58133
vt 0.12305 0.58724
vt 0.08268 0.58724
vt 0.12305 0.51242
vt 0.12305 0.55279
vt 0.12305 0.54688
vt 0.12305 0.50651
vt 0.12305 0.52669
vt 0.12305 0.56706
vt 0.12305 0.55279
vt 0.12305 0.51242
vt 0.12305 0.54096
vt 0.12305 0.58133
vt 0.12305 0.56706
vt 0.12305 0.52669
vt 0.12305 0.54688
vt 0.12305 0.58724
vt 0.12305 0.58133
vt 0.12305 0.54096
vn 0.0300 0.2554 0.9664
vn 0.0298 0.2493 0.9680
vn 0.0413 0.6613 0.7490
vn 0.0419 0.6709 0.7404
vn 0.0191 -0.1181 0.9928
vn 0.0191 -0.1151 0.9932
vn 0.0298 0.2493 0.9680
vn 0.0300 0.2554 0.9664
vn 0.0181 -0.2555 0.9666
vn 0.0179 -0.2494 0.9682
vn 0.0191 -0.1151 0.9932
vn 0.0191 -0.1181 0.9928
vn 0.0197 -0.3149 0.9489
vn 0.0192 -0.3076 0.9513
vn 0.0179 -0.2494 0.9682
vn 0.0181 -0.2555 0.9666
vn 0.0298 0.2493 0.9680
vn 0.0294 0.2409 0.9701
vn 0.0405 0.6477 0.7608
vn 0.0413 0.6613 0.7490
vn 0.0191 -0.1151 0.9932
vn 0.0191 -0.1110 0.9936
vn 0.0294 0.2409 0.9701
vn 0.0298 0.2493 0.9680
vn 0.0179 -0.2494 0.9682
vn 0.0175 -0.2409 0.9704
vn 0.0191 -0.1110 0.9936
vn 0.0191 -0.1151 0.9932
vn 0.0192 -0.3076 0.9513
vn 0.0186 -0.2975 0.9545
vn 0.0175 -0.2409 0.9704
vn 0.0179 -0.2494 0.9682
vn 0.0294 0.2409 0.9701
vn 0.0289 0.2286 0.9731
vn 0.0392 0.6268 0.7782
vn 0.0405 0.6477 0.7608
vn 0.0191 -0.1110 0.9936
vn 0.0192 -0.1051 0.9943
vn 0.0289 0.2286 0.9731
vn 0.0294 0.2409 0.9701
vn 0.0175 -0.2409 0.9704
vn 0.0170 -0.2287 0.9734
vn 0.0192 -0.1051 0.9943
vn 0.0191 -0.1110 0.9936
vn 0.0186 -0.2975 0.9545
vn 0.0177 -0.2829 0.9590
vn 0.0170 -0.2287 0.9734
vn 0.0175 -0.2409 0.9704
vn 0.0419 0.6709 -0.7404
vn 0.0413 0.6613 -0.7490
vn 0.0298 0.2493 -0.9680
vn 0.0300 0.2554 -0.9664
vn 0.0300 0.2554 -0.9664
vn 0.0298 0.2493 -0.9680
vn 0.0191 -0.1151 -0.9932
vn 0.0191 -0.1181 -0.9928
vn 0.0191 -0.1181 -0.9928
vn 0.0191 -0.1151 -0.9932
vn 0.0179 -0.2494 -0.9682
vn 0.0181 -0.2555 -0.9666
vn 0.0181 -0.2555 -0.9666
vn 0.0179 -0.2494 -0.9682
vn 0.0192 -0.3076 -0.9513
vn 0.0197 -0.3149 -0.9489
vn 0.0413 0.6613 -0.7490
vn 0.0405 0.6477 -0.7608
vn 0.0294 0.2409 -0.9701
vn 0.0298 0.2493 -0.9680
vn 0.0298 0.2493 -0.9680
vn 0.0294 0.2409 -0.9701
vn 0.0191 -0.1110 -0.9936
vn 0.0191 -0.1151 -0.9932
vn 0.0191 -0.1151 -0.9932
vn 0.0191 -0.1110 -0.9936
vn 0.0175 -0.2409 -0.9704
vn 0.0179 -0.2494 -0.9682
vn 0.0179 -0.2494 -0.9682
vn 0.0175 -0.2409 -0.9704
vn 0.0186 -0.2975 -0.9545
vn 0.0192 -0.3076 -0.9513
vn 0.0405 0.6477 -0.7608
vn 0.0392 0.6268 -0.7782
vn 0.0289 0.2286 -0.9731
vn 0.0294 0.2409 -0.9701
vn 0.0294 0.2409 -0.9701
vn 0.0289 0.2286 -0.9731
vn 0.0192 -0.1051 -0.9943
vn 0.0191 -0.1110 -0.9936
vn 0.0191 -0.1110 -0.9936
vn 0.0192 -0.1051 -0.9943
vn 0.0170 -0.2287 -0.9734
vn 0.0175 -0.2409 -0.9704
vn 0.0175 -0.2409 -0.9704
vn 0.0170 -0.2287 -0.9734
vn 0.0177 -0.2829 -0.9590
vn 0.0186 -0.2975 -0.9545
vn 1.0000 -0.0000 -0.0000
vn 1.0000 -0.0000 -0.0000
vn 1.0000 -0.0000 -0.0000
vn 1.0000 -0.0000 -0.0000
vn 1.0000 -0.0000 -0.0000
vn 1.0000 -0.0000 -0.0000
vn 1.0000 -0.0000 -0.0000
vn 1.0000 -0.0000 -0.0000
vn 1.0000 -0.0000 -0.0000
vn 1.0000 -0.0000 -0.0000
vn 1.0000 -0.0000 -0.0000
vn 1.0000 -0.0000 -0.0000
vn 1.0000 -0.0000 -0.0000
vn 1.0000 -0.0000 -0.0000
vn 1.0000 -0.0000 -0.0000
vn 1.0000 -0.0000 -0.0000
vn -0.0300 -0.2554 0.9664
vn -0.0298 -0.2493 0.9680
vn -0.0413 -0.6613 0.7490
vn -0.0419 -0.6709 0.7404
vn -0.0191 0.1181 0.9928
vn -0.0191 0.1151 0.9932
vn -0.0298 -0.2493 0.9680
vn -0.0300 -0.2554 0.9664
vn -0.0181 0.2555 0.9666
vn -0.0179 0.2494 0.9682
vn -0.0191 0.1151 0.9932
vn -0.0191 0.1181 0.9928
vn -0.0197 0.3149 0.9489
vn -0.0192 0.3076 0.9513
vn -0.0179 0.2494 0.9682
vn -0.0181 0.2555 0.9666
vn -0.0298 -0.2493 0.9680
vn -0.0294 -0.2409 0.9701
vn -0.0405 -0.6477 0.7608
vn -0.0413 -0.6613 0.7490
vn -0.0191 0.1151 0.9932
vn -0.0191 0.1110 0.9936
vn -0.0294 -0.2409 0.9701
vn -0.0298 -0.2493 0.9680
vn -0.0179 0.2494 0.9682
vn -0.0175 0.2409 0.9704
vn -0.0191 0.1110 0.9936
vn -0.0191 0.1151 0.9932
vn -0.0192 0.3076 0.9513
vn -0.0186 0.2975 0.9545
vn -0.0175 0.2409 0.9704
vn -0.0179 0.2494 0.9682
vn -0.0294 -0.2409 0.9701
vn -0.0289 -0.2286 0.9731
vn -0.0392 -0.6268 0.7782
vn -0.0405 -0.6477 0.7608
vn -0.0191 0.1110 0.9936
vn -0.0192 0.1051 0.9943
vn -0.0289 -0.2286 0.9731
vn -0.0294 -0.2409 0.9701
vn -0.0175 0.2409 0.9704
vn -0.0170 0.2287 0.9734
vn -0.0192 0.1051 0.9943
vn -0.0191 0.1110 0.9936
vn -0.0186 0.2975 0.9545
vn -0.0177 0.2829 0.9590
vn -0.0170 0.2287 0.9734
vn -0.0175 0.2409 0.9704
vn -0.0419 -0.6709 -0.7404
vn -0.0413 -0.6613 -0.7490
vn -0.0298 -0.2493 -0.9680
vn -0.0300 -0.2554 -0.9664
vn -0.0300 -0.2554 -0.9664
vn -0.0298 -0.2493 -0.9680
vn -0.0191 0.1151 -0.9932
vn -0.0191 0.1181 -0.9928
vn -0.0191 0.1181 -0.9928
vn -0.0191 0.1151 -0.9932
vn -0.0179 0.2494 -0.9682
vn -0.0181 0.2555 -0.9666
vn -0.0181 0.2555 -0.9666
vn -0.0179 0.2494 -0.9682
vn -0.0192 0.3076 -0.9513
vn -0.0197 0.3149 -0.9489
vn -0.0413 -0.6613 -0.7490
vn -0.0405 -0.6477 -0.7608
vn -0.0294 -0.2409 -0.9701
vn -0.0298 -0.2493 -0.9680
vn -0.0298 -0.2493 -0.9680
vn -0.0294 -0.2409 -0.9701
vn -0.0191 0.1110 -0.9936
vn -0.0191 0.1151 -0.9932
vn -0.0191 0.1151 -0.9932
vn -0.0191 0.1110 -0.9936
vn -0.0175 0.2409 -0.9704
vn -0.0179 0.2494 -0.9682
vn -0.0179 0.2494 -0.9682
vn -0.0175 0.2409 -0.9704
vn -0.0186 0.2975 -0.9545
vn -0.0192 0.3076 -0.9513
vn -0.0405 -0.6477 -0.7608
vn -0.0392 -0.6268 -0.7782
vn -0.0289 -0.2286 -0.9731
vn -0.0294 -0.2409 -0.9701
vn -0.0294 -0.2409 -0.9701
vn -0.0289 -0.2286 -0.9731
vn -0.0192 0.1051 -0.9943
vn -0.0191 0.1110 -0.9936
vn -0.0191 0.1110 -0.9936
vn -0.0192 0.1051 -0.9943
vn -0.0170 0.2287 -0.9734
vn -0.0175 0.2409 -0.9704
vn -0.0175 0.2409 -0.9704
vn -0.0170 0.2287 -0.9734
vn -0.0177 0.2829 -0.9590
vn -0.0186 0.2975 -0.9545
vn -1.0000 -0.0000 -0.0000
vn -1.0000 -0.0000 -0.0000
vn -1.0000 -0.0000 -0.0000
vn -1.0000 -0.0000 -0.0000
vn -1.0000 -0.0000 -0.0000
vn -1.0000 -0.0000 -0.0000
vn -1.0000 -0.0000 -0.0000
vn -1.0000 -0.0000 -0.0000
vn -1.0000 -0.0000 -0.0000
vn -1.0000 -0.0000 -0.0000
vn -1.0000 -0.0000 -0.0000
vn -1.0000 -0.0000 -0.0000
vn -1.0000 -0.0000 -0.0000
vn -1.0000 -0.0000 -0.0000
vn -1.0000 -0.0000 -0.0000
vn -1.0000 -0.0000 -0.0000
usemtl paint
f 1/1/1 2/2/2 3/3/3 4/4/4
f 5/5/5 6/6/6 7/7/7 8/8/8
f 9/9/9 10/10/10 11/11/11 12/12/12
f 13/13/13 14/14/14 15/15/15 16/16/16
f 17/17/17 18/18/18 19/19/19 20/20/20
f 21/21/21 22/22/22 23/23/23 24/24/24
f 25/25/25 26/26/26 27/27/27 28/28/28
f 29/29/29 30/30/30 31/31/31 32/32/32
f 33/33/33 34/34/34 35/35/35 36/36/36
f 37/37/37 38/38/38 39/39/39 40/40/40
f 41/41/41 42/42/42 43/43/43 44/44/44
f 45/45/45 46/46/46 47/47/47 48/48/48
f 49/49/49 50/50/50 51/51/51 52/52/52
f 53/53/53 54/54/54 55/55/55 56/56/56
f 57/57/57 58/58/58 59/59/59 60/60/60
f 61/61/61 62/62/62 63/63/63 64/64/64
f 65/65/65 66/66/66 67/67/67 68/68/68
f 69/69/69 70/70/70 71/71/71 72/72/72
f 73/73/73 74/74/74 75/75/75 76/76/76
f 77/77/77 78/78/78 79/79/79 80/80/80
f 81/81/81 82/82/82 83/83/83 84/84/84
f 85/85/85 86/86/86 87/87/87 88/88/88
f 89/89/89 90/90/90 91/91/91 92/92/92
f 93/93/93 94/94/94 95/95/95 96/96/96
f 97/97/97 98/98/98 99/99/99 100/100/100
f 101/101/101 102/102/102 103/103/103 104/104/104
f 105/105/105 106/106/106 107/107/107 108/108/108
f 109/109/109 110/110/110 111/111/111 112/112/112
f 113/113/113 114/114/114 115/115/115 116/116/116
f 117/117/117 118/118/118 119/119/119 120/120/120
f 121/121/121 122/122/122 123/123/123 124/124/124
f 125/125/125 126/126/126 127/127/127 128/128/128
f 129/129/129 130/130/130 131/131/131 132/132/132
f 133/133/133 134/134/134 135/135/135 136/136/136
f 137/137/137 138/138/138 139/139/139 140/140/140
f 141/141/141 142/142/142 143/143/143 144/144/144
f 145/145/145 146/146/146 147/147/147 148/148/148
f 149/149/149 150/150/150 151/151/151 152/152/152
f 153/153/153 154/154/154 155/155/155 156/156/156
f 157/157/157 158/158/158 159/159/159 160/160/160
f 161/161/161 162/162/162 163/163/163 164/164/164
f 165/165/165 166/166/166 167/167/167 168/168/168
f 169/169/169 170/170/170 171/171/171 172/172/172
f 173/173/173 174/174/174 175/175/175 176/176/176
f 177/177/177 178/178/178 179/179/179 180/180/180
f 181/181/181 182/182/182 183/183/183 184/184/184
f 185/185/185 186/186/186 187/187/187 188/188/188
f 189/189/189 190/190/190 191/191/191 192/192/192
f 193/193/193 194/194/194 195/195/195 196/196/196
f 197/197/197 198/198/198 199/199/199 200/200/200
f 201/201/201 202/202/202 203/203/203 204/204/204
f 205/205/205 206/206/206 207/207/207 208/208/208
f 209/209/209 210/210/210 211/211/211 212/212/212
f 213/213/213 214/214/214 215/215/215 216/216/216
f 217/217/217 218/218/218 219/219/219 220/220/220
f 221/221/221 222/222/222 223/223/223 224/224/224
