# loiter/prop, упрощённая копия — сгенерировано tools/gen_models.py, не править руками
mtllib loiter.mtl
v 0.0300 -0.0146 -1.2567
v 0.3500 -0.0288 -1.2629
v 0.3500 -0.0200 -1.2700
v 0.0300 0.0000 -1.2700
v 0.0300 -0.1000 -1.2700
v 0.3500 -0.0800 -1.2700
v 0.3500 -0.0288 -1.2629
v 0.0300 -0.0146 -1.2567
v 0.0300 0.0000 -1.2700
v 0.3500 -0.0200 -1.2700
v 0.3500 -0.0288 -1.2771
v 0.0300 -0.0146 -1.2833
v 0.0300 -0.0146 -1.2833
v 0.3500 -0.0288 -1.2771
v 0.3500 -0.0800 -1.2700
v 0.0300 -0.1000 -1.2700
v 0.3500 -0.0288 -1.2629
v 0.3500 -0.0288 -1.2771
v 0.3500 -0.0200 -1.2700
v 0.3500 -0.0200 -1.2700
v 0.3500 -0.0800 -1.2700
v 0.3500 -0.0800 -1.2700
v 0.3500 -0.0288 -1.2771
v 0.3500 -0.0288 -1.2629
v -0.0300 0.0146 -1.2567
v -0.3500 0.0288 -1.2629
v -0.3500 0.0200 -1.2700
v -0.0300 0.0000 -1.2700
v -0.0300 0.1000 -1.2700
v -0.3500 0.0800 -1.2700
v -0.3500 0.0288 -1.2629
v -0.0300 0.0146 -1.2567
v -0.0300 0.0000 -1.2700
v -0.3500 0.0200 -1.2700
v -0.3500 0.0288 -1.2771
v -0.0300 0.0146 -1.2833
v -0.0300 0.0146 -1.2833
v -0.3500 0.0288 -1.2771
v -0.3500 0.0800 -1.2700
v -0.0300 0.1000 -1.2700
v -0.3500 0.0288 -1.2629
v -0.3500 0.0288 -1.2771
v -0.3500 0.0200 -1.2700
v -0.3500 0.0200 -1.2700
v -0.3500 0.0800 -1.2700
v -0.3500 0.0800 -1.2700
v -0.3500 0.0288 -1.2771
v -0.3500 0.0288 -1.2629
vt 0.00195 0.51242
vt 0.12305 0.51242
vt 0.12305 0.50651
vt 0.00195 0.50651
vt 0.00195 0.54688
vt 0.12305 0.54688
vt 0.12305 0.51242
vt 0.00195 0.51242
vt 0.00195 0.54688
vt 0.12305 0.54688
vt 0.12305 0.55279
vt 0.00195 0.55279
vt 0.00195 0.55279
vt 0.12305 0.55279
vt 0.12305 0.58724
vt 0.00195 0.58724
vt 0.12305 0.51242
vt 0.12305 0.55279
vt 0.12305 0.54688
vt 0.12305 0.50651
vt 0.12305 0.54688
vt 0.12305 0.58724
vt 0.12305 0.55279
vt 0.12305 0.51242
vt 0.00195 0.51242
vt 0.12305 0.51242
vt 0.12305 0.50651
vt 0.00195 0.50651
vt 0.00195 0.54688
vt 0.12305 0.54688
vt 0.12305 0.51242
vt 0.00195 0.51242
vt 0.00195 0.54688
vt 0.12305 0.54688
vt 0.12305 0.55279
vt 0.00195 0.55279
vt 0.00195 0.55279
vt 0.12305 0.55279
vt 0.12305 0.58724
vt 0.00195 0.58724
vt 0.12305 0.51242
vt 0.12305 0.55279
vt 0.12305 0.54688
vt 0.12305 0.50651
vt 0.12305 0.54688
vt 0.12305 0.58724
vt 0.12305 0.55279
vt 0.12305 0.51242
vn 0.0300 0.2554 0.9664
vn 0.0289 0.2286 0.9731
vn 0.0392 0.6268 0.7782
vn 0.0419 0.6709 0.7404
vn 0.0197 -0.3149 0.9489
vn 0.0177 -0.2829 0.9590
vn 0.0289 0.2286 0.9731
vn 0.0300 0.2554 0.9664
vn 0.0419 0.6709 -0.7404
vn 0.0392 0.6268 -0.7782
vn 0.0289 0.2286 -0.9731
vn 0.0300 0.2554 -0.9664
vn 0.0300 0.2554 -0.9664
vn 0.0289 0.2286 -0.9731
vn 0.0177 -0.2829 -0.9590
vn 0.0197 -0.3149 -0.9489
vn 1.0000 -0.0000 -0.0000
vn 1.0000 -0.0000 -0.0000
vn 1.0000 -0.0000 -0.0000
vn 1.0000 -0.0000 -0.0000
vn 1.0000 -0.0000 -0.0000
vn 1.0000 -0.0000 -0.0000
vn 1.0000 -0.0000 -0.0000
vn 1.0000 -0.0000 -0.0000
vn -0.0300 -0.2554 0.9664
vn -0.0289 -0.2286 0.9731
vn -0.0392 -0.6268 0.7782
vn -0.0419 -0.6709 0.7404
vn -0.0197 0.3149 0.9489
vn -0.0177 0.2829 0.9590
vn -0.0289 -0.2286 0.9731
vn -0.0300 -0.2554 0.9664
vn -0.0419 -0.6709 -0.7404
vn -0.0392 -0.6268 -0.7782
vn -0.0289 -0.2286 -0.9731
vn -0.0300 -0.2554 -0.9664
vn -0.0300 -0.2554 -0.9664
vn -0.0289 -0.2286 -0.9731
vn -0.0177 0.2829 -0.9590
vn -0.0197 0.3149 -0.9489
vn -1.0000 -0.0000 -0.0000
vn -1.0000 -0.0000 -0.0000
vn -1.0000 -0.0000 -0.0000
vn -1.0000 -0.0000 -0.0000
vn -1.0000 -0.0000 -0.0000
vn -1.0000 -0.0000 -0.0000
vn -1.0000 -0.0000 -0.0000
vn -1.0000 -0.0000 -0.0000
usemtl paint
f 1/1/1 2/2/2 3/3/3 4/4/4
f 5/5/5 6/6/6 7/7/7 8/8/8
f 9/9/9 10/10/10 11/11/11 12/12/12
f 13/13/13 14/14/14 15/15/15 16/16/16
f 17/17/17 18/18/18 19/19/19 20/20/20
f 21/21/21 22/22/22 23/23/23 24/24/24
f 25/25/25 26/26/26 27/27/27 28/28/28
f 29/29/29 30/30/30 31/31/31 32/32/32
f 33/33/33 34/34/34 35/35/35 36/36/36
f 37/37/37 38/38/38 39/39/39 40/40/40
f 41/41/41 42/42/42 43/43/43 44/44/44
f 45/45/45 46/46/46 47/47/47 48/48/48
