# loiter/disc — сгенерировано tools/gen_models.py, не править руками
mtllib loiter.mtl
v 0.3600 -0.3600 -1.2800
v -0.3600 -0.3600 -1.2800
v -0.3600 0.3600 -1.2800
v 0.3600 0.3600 -1.2800
v 0.3600 0.3600 -1.2800
v -0.3600 0.3600 -1.2800
v -0.3600 -0.3600 -1.2800
v 0.3600 -0.3600 -1.2800
vt 0.13477 0.67057
vt 0.38086 0.67057
vt 0.38086 0.50651
vt 0.13477 0.50651
vt 0.13477 0.50651
vt 0.38086 0.50651
vt 0.38086 0.67057
vt 0.13477 0.67057
vn 0.0000 0.0000 -1.0000
vn 0.0000 0.0000 -1.0000
vn 0.0000 0.0000 -1.0000
vn 0.0000 0.0000 -1.0000
vn -0.0000 -0.0000 1.0000
vn -0.0000 -0.0000 1.0000
vn -0.0000 -0.0000 1.0000
vn -0.0000 -0.0000 1.0000
usemtl paint
f 1/1/1 2/2/2 3/3/3 4/4/4
f 5/5/5 6/6/6 7/7/7 8/8/8
