# missile/wing_l, упрощённая копия — сгенерировано tools/gen_models.py, не править руками
mtllib missile.mtl
v 0.2100 0.0600 0.6250
v 1.3100 0.0600 0.5350
v 1.3100 0.0749 0.4279
v 0.2100 0.0848 0.4695
v 0.2100 0.0848 0.4695
v 1.3100 0.0749 0.4279
v 1.3100 0.0600 0.2250
v 0.2100 0.0600 0.1750
v 0.2100 0.0352 0.4695
v 1.3100 0.0451 0.4279
v 1.3100 0.0600 0.5350
v 0.2100 0.0600 0.6250
v 0.2100 0.0600 0.1750
v 1.3100 0.0600 0.2250
v 1.3100 0.0451 0.4279
v 0.2100 0.0352 0.4695
vt 0.00098 0.52409
vt 0.49902 0.52409
vt 0.49902 0.55265
vt 0.00098 0.55265
vt 0.00098 0.55265
vt 0.49902 0.55265
vt 0.49902 0.60677
vt 0.00098 0.60677
vt 0.00098 0.63534
vt 0.49902 0.63534
vt 0.49902 0.60677
vt 0.00098 0.60677
vt 0.00098 0.68945
vt 0.49902 0.68945
vt 0.49902 0.63534
vt 0.00098 0.63534
vn 0.0572 0.7131 0.6987
vn 0.0530 0.7596 0.6482
vn 0.0085 0.9999 -0.0133
vn 0.0084 0.9998 -0.0153
vn 0.0084 0.9998 -0.0153
vn 0.0085 0.9999 -0.0133
vn 0.0052 0.9934 -0.1146
vn 0.0060 0.9913 -0.1313
vn 0.0084 -0.9998 -0.0153
vn 0.0085 -0.9999 -0.0133
vn 0.0530 -0.7596 0.6482
vn 0.0572 -0.7131 0.6987
vn 0.0060 -0.9913 -0.1313
vn 0.0052 -0.9934 -0.1146
vn 0.0085 -0.9999 -0.0133
vn 0.0084 -0.9998 -0.0153
usemtl paint
f 1/1/1 2/2/2 3/3/3 4/4/4
f 5/5/5 6/6/6 7/7/7 8/8/8
f 9/9/9 10/10/10 11/11/11 12/12/12
f 13/13/13 14/14/14 15/15/15 16/16/16
