# missile/intake, упрощённая копия — сгенерировано tools/gen_models.py, не править руками
mtllib missile.mtl
v 0.0000 -0.3000 -0.8600
v 0.0707 -0.2780 -0.8600
v 0.0000 -0.2250 -0.8500
v 0.0000 -0.2250 -0.8500
v 0.0000 -0.3250 -0.9500
v 0.0849 -0.2957 -0.9500
v 0.0707 -0.2780 -0.8600
v 0.0000 -0.3000 -0.8600
v 0.0000 -0.3150 -1.5000
v 0.0778 -0.2886 -1.5000
v 0.0849 -0.2957 -0.9500
v 0.0000 -0.3250 -0.9500
v 0.0000 -0.2250 -1.6750
v 0.0000 -0.2250 -1.6750
v 0.0778 -0.2886 -1.5000
v 0.0000 -0.3150 -1.5000
v 0.0707 -0.2780 -0.8600
v 0.1000 -0.2250 -0.8600
v 0.0000 -0.2250 -0.8500
v 0.0000 -0.2250 -0.8500
v 0.0849 -0.2957 -0.9500
v 0.1200 -0.2250 -0.9500
v 0.1000 -0.2250 -0.8600
v 0.0707 -0.2780 -0.8600
v 0.0778 -0.2886 -1.5000
v 0.1100 -0.2250 -1.5000
v 0.1200 -0.2250 -0.9500
v 0.0849 -0.2957 -0.9500
v 0.0000 -0.2250 -1.6750
v 0.0000 -0.2250 -1.6750
v 0.1100 -0.2250 -1.5000
v 0.0778 -0.2886 -1.5000
v 0.1000 -0.2250 -0.8600
v 0.0707 -0.1720 -0.8600
v 0.0000 -0.2250 -0.8500
v 0.0000 -0.2250 -0.8500
v 0.1200 -0.2250 -0.9500
v 0.0849 -0.1543 -0.9500
v 0.0707 -0.1720 -0.8600
v 0.1000 -0.2250 -0.8600
v 0.1100 -0.2250 -1.5000
v 0.0778 -0.1614 -1.5000
v 0.0849 -0.1543 -0.9500
v 0.1200 -0.2250 -0.9500
v 0.0000 -0.2250 -1.6750
v 0.0000 -0.2250 -1.6750
v 0.0778 -0.1614 -1.5000
v 0.1100 -0.2250 -1.5000
v 0.0707 -0.1720 -0.8600
v 0.0000 -0.1500 -0.8600
v 0.0000 -0.2250 -0.8500
v 0.0000 -0.2250 -0.8500
v 0.0849 -0.1543 -0.9500
v 0.0000 -0.1250 -0.9500
v 0.0000 -0.1500 -0.8600
v 0.0707 -0.1720 -0.8600
v 0.0778 -0.1614 -1.5000
v 0.0000 -0.1350 -1.5000
v 0.0000 -0.1250 -0.9500
v 0.0849 -0.1543 -0.9500
v 0.0000 -0.2250 -1.6750
v 0.0000 -0.2250 -1.6750
v 0.0000 -0.1350 -1.5000
v 0.0778 -0.1614 -1.5000
v 0.0000 -0.1500 -0.8600
v -0.0707 -0.1720 -0.8600
v 0.0000 -0.2250 -0.8500
v 0.0000 -0.2250 -0.8500
v 0.0000 -0.1250 -0.9500
v -0.0849 -0.1543 -0.9500
v -0.0707 -0.1720 -0.8600
v 0.0000 -0.1500 -0.8600
v 0.0000 -0.1350 -1.5000
v -0.0778 -0.1614 -1.5000
v -0.0849 -0.1543 -0.9500
v 0.0000 -0.1250 -0.9500
v 0.0000 -0.2250 -1.6750
v 0.0000 -0.2250 -1.6750
v -0.0778 -0.1614 -1.5000
v 0.0000 -0.1350 -1.5000
v -0.0707 -0.1720 -0.8600
v -0.1000 -0.2250 -0.8600
v 0.0000 -0.2250 -0.8500
v 0.0000 -0.2250 -0.8500
v -0.0849 -0.1543 -0.9500
v -0.1200 -0.2250 -0.9500
v -0.1000 -0.2250 -0.8600
v -0.0707 -0.1720 -0.8600
v -0.0778 -0.1614 -1.5000
v -0.1100 -0.2250 -1.5000
v -0.1200 -0.2250 -0.9500
v -0.0849 -0.1543 -0.9500
v 0.0000 -0.2250 -1.6750
v 0.0000 -0.2250 -1.6750
v -0.1100 -0.2250 -1.5000
v -0.0778 -0.1614 -1.5000
v -0.1000 -0.2250 -0.8600
v -0.0707 -0.2780 -0.8600
v 0.0000 -0.2250 -0.8500
v 0.0000 -0.2250 -0.8500
v -0.1200 -0.2250 -0.9500
v -0.0849 -0.2957 -0.9500
v -0.0707 -0.2780 -0.8600
v -0.1000 -0.2250 -0.8600
v -0.1100 -0.2250 -1.5000
v -0.0778 -0.2886 -1.5000
v -0.0849 -0.2957 -0.9500
v -0.1200 -0.2250 -0.9500
v 0.0000 -0.2250 -1.6750
v 0.0000 -0.2250 -1.6750
v -0.0778 -0.2886 -1.5000
v -0.1100 -0.2250 -1.5000
v -0.0707 -0.2780 -0.8600
v -0.0000 -0.3000 -0.8600
v 0.0000 -0.2250 -0.8500
v 0.0000 -0.2250 -0.8500
v -0.0849 -0.2957 -0.9500
v -0.0000 -0.3250 -0.9500
v -0.0000 -0.3000 -0.8600
v -0.0707 -0.2780 -0.8600
v -0.0778 -0.2886 -1.5000
v -0.0000 -0.3150 -1.5000
v -0.0000 -0.3250 -0.9500
v -0.0849 -0.2957 -0.9500
v 0.0000 -0.2250 -1.6750
v 0.0000 -0.2250 -1.6750
v -0.0000 -0.3150 -1.5000
v -0.0778 -0.2886 -1.5000
vt 0.00098 0.70504
vt 0.03198 0.70504
vt 0.03198 0.69336
vt 0.00098 0.69336
vt 0.00098 0.71735
vt 0.03198 0.71735
vt 0.03198 0.70504
vt 0.00098 0.70504
vt 0.00098 0.79032
vt 0.03198 0.79032
vt 0.03198 0.71735
vt 0.00098 0.71735
vt 0.00098 0.81706
vt 0.03198 0.81706
vt 0.03198 0.79032
vt 0.00098 0.79032
vt 0.03198 0.70504
vt 0.06299 0.70504
vt 0.06299 0.69336
vt 0.03198 0.69336
vt 0.03198 0.71735
vt 0.06299 0.71735
vt 0.06299 0.70504
vt 0.03198 0.70504
vt 0.03198 0.79032
vt 0.06299 0.79032
vt 0.06299 0.71735
vt 0.03198 0.71735
vt 0.03198 0.81706
vt 0.06299 0.81706
vt 0.06299 0.79032
vt 0.03198 0.79032
vt 0.06299 0.70504
vt 0.09399 0.70504
vt 0.09399 0.69336
vt 0.06299 0.69336
vt 0.06299 0.71735
vt 0.09399 0.71735
vt 0.09399 0.70504
vt 0.06299 0.70504
vt 0.06299 0.79032
vt 0.09399 0.79032
vt 0.09399 0.71735
vt 0.06299 0.71735
vt 0.06299 0.81706
vt 0.09399 0.81706
vt 0.09399 0.79032
vt 0.06299 0.79032
vt 0.09399 0.70504
vt 0.12500 0.70504
vt 0.12500 0.69336
vt 0.09399 0.69336
vt 0.09399 0.71735
vt 0.12500 0.71735
vt 0.12500 0.70504
vt 0.09399 0.70504
vt 0.09399 0.79032
vt 0.12500 0.79032
vt 0.12500 0.71735
vt 0.09399 0.71735
vt 0.09399 0.81706
vt 0.12500 0.81706
vt 0.12500 0.79032
vt 0.09399 0.79032
vt 0.12500 0.70504
vt 0.15601 0.70504
vt 0.15601 0.69336
vt 0.12500 0.69336
vt 0.12500 0.71735
vt 0.15601 0.71735
vt 0.15601 0.70504
vt 0.12500 0.70504
vt 0.12500 0.79032
vt 0.15601 0.79032
vt 0.15601 0.71735
vt 0.12500 0.71735
vt 0.12500 0.81706
vt 0.15601 0.81706
vt 0.15601 0.79032
vt 0.12500 0.79032
vt 0.15601 0.70504
vt 0.18701 0.70504
vt 0.18701 0.69336
vt 0.15601 0.69336
vt 0.15601 0.71735
vt 0.18701 0.71735
vt 0.18701 0.70504
vt 0.15601 0.70504
vt 0.15601 0.79032
vt 0.18701 0.79032
vt 0.18701 0.71735
vt 0.15601 0.71735
vt 0.15601 0.81706
vt 0.18701 0.81706
vt 0.18701 0.79032
vt 0.15601 0.79032
vt 0.18701 0.70504
vt 0.21802 0.70504
vt 0.21802 0.69336
vt 0.18701 0.69336
vt 0.18701 0.71735
vt 0.21802 0.71735
vt 0.21802 0.70504
vt 0.18701 0.70504
vt 0.18701 0.79032
vt 0.21802 0.79032
vt 0.21802 0.71735
vt 0.18701 0.71735
vt 0.18701 0.81706
vt 0.21802 0.81706
vt 0.21802 0.79032
vt 0.18701 0.79032
vt 0.21802 0.70504
vt 0.24902 0.70504
vt 0.24902 0.69336
vt 0.21802 0.69336
vt 0.21802 0.71735
vt 0.24902 0.71735
vt 0.24902 0.70504
vt 0.21802 0.70504
vt 0.21802 0.79032
vt 0.24902 0.79032
vt 0.24902 0.71735
vt 0.21802 0.71735
vt 0.21802 0.81706
vt 0.24902 0.81706
vt 0.24902 0.79032
vt 0.21802 0.79032
vn 0.1049 -0.7032 0.7032
vn 0.4087 -0.5449 0.7321
vn 0.0000 0.0000 1.0000
vn 0.0000 0.0000 1.0000
vn 0.1635 -0.9863 0.0231
vn 0.6401 -0.7681 0.0198
vn 0.4087 -0.5449 0.7321
vn 0.1049 -0.7032 0.7032
vn 0.1592 -0.9780 -0.1349
vn 0.6263 -0.7654 -0.1480
vn 0.6401 -0.7681 0.0198
vn 0.1635 -0.9863 0.0231
vn 0.0000 0.0000 -1.0000
vn 0.0000 0.0000 -1.0000
vn 0.6263 -0.7654 -0.1480
vn 0.1592 -0.9780 -0.1349
vn 0.4087 -0.5449 0.7321
vn 0.6402 -0.0000 0.7682
vn 0.0000 0.0000 1.0000
vn 0.0000 0.0000 1.0000
vn 0.6401 -0.7681 0.0198
vn 0.9999 -0.0000 0.0156
vn 0.6402 -0.0000 0.7682
vn 0.4087 -0.5449 0.7321
vn 0.6263 -0.7654 -0.1480
vn 0.9866 -0.0000 -0.1633
vn 0.9999 -0.0000 0.0156
vn 0.6401 -0.7681 0.0198
vn 0.0000 0.0000 -1.0000
vn 0.0000 0.0000 -1.0000
vn 0.9866 -0.0000 -0.1633
vn 0.6263 -0.7654 -0.1480
vn 0.6402 -0.0000 0.7682
vn 0.4087 0.5449 0.7321
vn 0.0000 0.0000 1.0000
vn 0.0000 0.0000 1.0000
vn 0.9999 -0.0000 0.0156
vn 0.6401 0.7681 0.0198
vn 0.4087 0.5449 0.7321
vn 0.6402 -0.0000 0.7682
vn 0.9866 -0.0000 -0.1633
vn 0.6263 0.7654 -0.1480
vn 0.6401 0.7681 0.0198
vn 0.9999 -0.0000 0.0156
vn 0.0000 0.0000 -1.0000
vn 0.0000 0.0000 -1.0000
vn 0.6263 0.7654 -0.1480
vn 0.9866 -0.0000 -0.1633
vn 0.4087 0.5449 0.7321
vn 0.0000 0.7071 0.7071
vn 0.0000 0.0000 1.0000
vn 0.0000 0.0000 1.0000
vn 0.6401 0.7681 0.0198
vn 0.0000 0.9997 0.0234
vn 0.0000 0.7071 0.7071
vn 0.4087 0.5449 0.7321
vn 0.6263 0.7654 -0.1480
vn -0.0000 0.9906 -0.1366
vn 0.0000 0.9997 0.0234
vn 0.6401 0.7681 0.0198
vn 0.0000 0.0000 -1.0000
vn 0.0000 0.0000 -1.0000
vn -0.0000 0.9906 -0.1366
vn 0.6263 0.7654 -0.1480
vn 0.0000 0.7071 0.7071
vn -0.4087 0.5449 0.7321
vn 0.0000 0.0000 1.0000
vn 0.0000 0.0000 1.0000
vn 0.0000 0.9997 0.0234
vn -0.6401 0.7681 0.0198
vn -0.4087 0.5449 0.7321
vn 0.0000 0.7071 0.7071
vn -0.0000 0.9906 -0.1366
vn -0.6263 0.7654 -0.1480
vn -0.6401 0.7681 0.0198
vn 0.0000 0.9997 0.0234
vn 0.0000 0.0000 -1.0000
vn 0.0000 0.0000 -1.0000
vn -0.6263 0.7654 -0.1480
vn -0.0000 0.9906 -0.1366
vn -0.4087 0.5449 0.7321
vn -0.6402 0.0000 0.7682
vn 0.0000 0.0000 1.0000
vn 0.0000 0.0000 1.0000
vn -0.6401 0.7681 0.0198
vn -0.9999 0.0000 0.0156
vn -0.6402 0.0000 0.7682
vn -0.4087 0.5449 0.7321
vn -0.6263 0.7654 -0.1480
vn -0.9866 0.0000 -0.1633
vn -0.9999 0.0000 0.0156
vn -0.6401 0.7681 0.0198
vn 0.0000 0.0000 -1.0000
vn 0.0000 0.0000 -1.0000
vn -0.9866 0.0000 -0.1633
vn -0.6263 0.7654 -0.1480
vn -0.6402 0.0000 0.7682
vn -0.4087 -0.5449 0.7321
vn 0.0000 0.0000 1.0000
vn 0.0000 0.0000 1.0000
vn -0.9999 0.0000 0.0156
vn -0.6401 -0.7681 0.0198
vn -0.4087 -0.5449 0.7321
vn -0.6402 0.0000 0.7682
vn -0.9866 0.0000 -0.1633
vn -0.6263 -0.7654 -0.1480
vn -0.6401 -0.7681 0.0198
vn -0.9999 0.0000 0.0156
vn 0.0000 0.0000 -1.0000
vn 0.0000 0.0000 -1.0000
vn -0.6263 -0.7654 -0.1480
vn -0.9866 0.0000 -0.1633
vn -0.4087 -0.5449 0.7321
vn -0.1049 -0.7032 0.7032
vn 0.0000 0.0000 1.0000
vn 0.0000 0.0000 1.0000
vn -0.6401 -0.7681 0.0198
vn -0.1635 -0.9863 0.0231
vn -0.1049 -0.7032 0.7032
vn -0.4087 -0.5449 0.7321
vn -0.6263 -0.7654 -0.1480
vn -0.1592 -0.9780 -0.1349
vn -0.1635 -0.9863 0.0231
vn -0.6401 -0.7681 0.0198
vn 0.0000 0.0000 -1.0000
vn 0.0000 0.0000 -1.0000
vn -0.1592 -0.9780 -0.1349
vn -0.6263 -0.7654 -0.1480
usemtl paint
f 1/1/1 2/2/2 3/3/3 4/4/4
f 5/5/5 6/6/6 7/7/7 8/8/8
f 9/9/9 10/10/10 11/11/11 12/12/12
f 13/13/13 14/14/14 15/15/15 16/16/16
f 17/17/17 18/18/18 19/19/19 20/20/20
f 21/21/21 22/22/22 23/23/23 24/24/24
f 25/25/25 26/26/26 27/27/27 28/28/28
f 29/29/29 30/30/30 31/31/31 32/32/32
f 33/33/33 34/34/34 35/35/35 36/36/36
f 37/37/37 38/38/38 39/39/39 40/40/40
f 41/41/41 42/42/42 43/43/43 44/44/44
f 45/45/45 46/46/46 47/47/47 48/48/48
f 49/49/49 50/50/50 51/51/51 52/52/52
f 53/53/53 54/54/54 55/55/55 56/56/56
f 57/57/57 58/58/58 59/59/59 60/60/60
f 61/61/61 62/62/62 63/63/63 64/64/64
f 65/65/65 66/66/66 67/67/67 68/68/68
f 69/69/69 70/70/70 71/71/71 72/72/72
f 73/73/73 74/74/74 75/75/75 76/76/76
f 77/77/77 78/78/78 79/79/79 80/80/80
f 81/81/81 82/82/82 83/83/83 84/84/84
f 85/85/85 86/86/86 87/87/87 88/88/88
f 89/89/89 90/90/90 91/91/91 92/92/92
f 93/93/93 94/94/94 95/95/95 96/96/96
f 97/97/97 98/98/98 99/99/99 100/100/100
f 101/101/101 102/102/102 103/103/103 104/104/104
f 105/105/105 106/106/106 107/107/107 108/108/108
f 109/109/109 110/110/110 111/111/111 112/112/112
f 113/113/113 114/114/114 115/115/115 116/116/116
f 117/117/117 118/118/118 119/119/119 120/120/120
f 121/121/121 122/122/122 123/123/123 124/124/124
f 125/125/125 126/126/126 127/127/127 128/128/128
