# missile/body, упрощённая копия — сгенерировано tools/gen_models.py, не править руками
mtllib missile.mtl
v 0.0000 -0.0700 2.9250
v 0.0216 -0.0666 2.9250
v 0.0000 0.0000 2.9600
v 0.0000 0.0000 2.9600
v 0.0000 -0.1450 2.8000
v 0.0448 -0.1379 2.8000
v 0.0216 -0.0666 2.9250
v 0.0000 -0.0700 2.9250
v 0.0000 -0.2000 2.6000
v 0.0618 -0.1902 2.6000
v 0.0448 -0.1379 2.8000
v 0.0000 -0.1450 2.8000
v 0.0000 -0.2500 1.9000
v 0.0773 -0.2378 1.9000
v 0.0618 -0.1902 2.6000
v 0.0000 -0.2000 2.6000
v 0.0000 -0.2500 -2.3000
v 0.0773 -0.2378 -2.3000
v 0.0773 -0.2378 1.9000
v 0.0000 -0.2500 1.9000
v 0.0000 -0.2000 -2.8000
v 0.0618 -0.1902 -2.8000
v 0.0773 -0.2378 -2.3000
v 0.0000 -0.2500 -2.3000
v 0.0000 -0.1650 -2.8900
v 0.0510 -0.1569 -2.8900
v 0.0618 -0.1902 -2.8000
v 0.0000 -0.2000 -2.8000
v 0.0000 -0.1200 -2.9000
v 0.0371 -0.1141 -2.9000
v 0.0510 -0.1569 -2.8900
v 0.0000 -0.1650 -2.8900
v 0.0000 -0.1200 -2.9000
v 0.0371 -0.1141 -2.9000
v 0.0309 -0.0951 -2.8500
v 0.0000 -0.1000 -2.8500
v 0.0216 -0.0666 2.9250
v 0.0495 -0.0495 2.9250
v 0.0000 0.0000 2.9600
v 0.0000 0.0000 2.9600
v 0.0448 -0.1379 2.8000
v 0.1025 -0.1025 2.8000
v 0.0495 -0.0495 2.9250
v 0.0216 -0.0666 2.9250
v 0.0618 -0.1902 2.6000
v 0.1414 -0.1414 2.6000
v 0.1025 -0.1025 2.8000
v 0.0448 -0.1379 2.8000
v 0.0773 -0.2378 1.9000
v 0.1768 -0.1768 1.9000
v 0.1414 -0.1414 2.6000
v 0.0618 -0.1902 2.6000
v 0.0773 -0.2378 -2.3000
v 0.1768 -0.1768 -2.3000
v 0.1768 -0.1768 1.9000
v 0.0773 -0.2378 1.9000
v 0.0618 -0.1902 -2.8000
v 0.1414 -0.1414 -2.8000
v 0.1768 -0.1768 -2.3000
v 0.0773 -0.2378 -2.3000
v 0.0510 -0.1569 -2.8900
v 0.1167 -0.1167 -2.8900
v 0.1414 -0.1414 -2.8000
v 0.0618 -0.1902 -2.8000
v 0.0371 -0.1141 -2.9000
v 0.0849 -0.0849 -2.9000
v 0.1167 -0.1167 -2.8900
v 0.0510 -0.1569 -2.8900
v 0.0371 -0.1141 -2.9000
v 0.0849 -0.0849 -2.9000
v 0.0707 -0.0707 -2.8500
v 0.0309 -0.0951 -2.8500
v 0.0495 -0.0495 2.9250
v 0.0624 -0.0318 2.9250
v 0.0000 0.0000 2.9600
v 0.0000 0.0000 2.9600
v 0.1025 -0.1025 2.8000
v 0.1292 -0.0658 2.8000
v 0.0624 -0.0318 2.9250
v 0.0495 -0.0495 2.9250
v 0.1414 -0.1414 2.6000
v 0.1782 -0.0908 2.6000
v 0.1292 -0.0658 2.8000
v 0.1025 -0.1025 2.8000
v 0.1768 -0.1768 1.9000
v 0.2228 -0.1135 1.9000
v 0.1782 -0.0908 2.6000
v 0.1414 -0.1414 2.6000
v 0.1768 -0.1768 -2.3000
v 0.2228 -0.1135 -2.3000
v 0.2228 -0.1135 1.9000
v 0.1768 -0.1768 1.9000
v 0.1414 -0.1414 -2.8000
v 0.1782 -0.0908 -2.8000
v 0.2228 -0.1135 -2.3000
v 0.1768 -0.1768 -2.3000
v 0.1167 -0.1167 -2.8900
v 0.1470 -0.0749 -2.8900
v 0.1782 -0.0908 -2.8000
v 0.1414 -0.1414 -2.8000
v 0.0849 -0.0849 -2.9000
v 0.1069 -0.0545 -2.9000
v 0.1470 -0.0749 -2.8900
v 0.1167 -0.1167 -2.8900
v 0.0849 -0.0849 -2.9000
v 0.1069 -0.0545 -2.9000
v 0.0891 -0.0454 -2.8500
v 0.0707 -0.0707 -2.8500
v 0.0624 -0.0318 2.9250
v 0.0700 0.0000 2.9250
v 0.0000 0.0000 2.9600
v 0.0000 0.0000 2.9600
v 0.1292 -0.0658 2.8000
v 0.1450 0.0000 2.8000
v 0.0700 0.0000 2.9250
v 0.0624 -0.0318 2.9250
v 0.1782 -0.0908 2.6000
v 0.2000 0.0000 2.6000
v 0.1450 0.0000 2.8000
v 0.1292 -0.0658 2.8000
v 0.2228 -0.1135 1.9000
v 0.2500 0.0000 1.9000
v 0.2000 0.0000 2.6000
v 0.1782 -0.0908 2.6000
v 0.2228 -0.1135 -2.3000
v 0.2500 0.0000 -2.3000
v 0.2500 0.0000 1.9000
v 0.2228 -0.1135 1.9000
v 0.1782 -0.0908 -2.8000
v 0.2000 0.0000 -2.8000
v 0.2500 0.0000 -2.3000
v 0.2228 -0.1135 -2.3000
v 0.1470 -0.0749 -2.8900
v 0.1650 0.0000 -2.8900
v 0.2000 0.0000 -2.8000
v 0.1782 -0.0908 -2.8000
v 0.1069 -0.0545 -2.9000
v 0.1200 0.0000 -2.9000
v 0.1650 0.0000 -2.8900
v 0.1470 -0.0749 -2.8900
v 0.1069 -0.0545 -2.9000
v 0.1200 0.0000 -2.9000
v 0.1000 0.0000 -2.8500
v 0.0891 -0.0454 -2.8500
v 0.0700 0.0000 2.9250
v 0.0624 0.0318 2.9250
v 0.0000 0.0000 2.9600
v 0.0000 0.0000 2.9600
v 0.1450 0.0000 2.8000
v 0.1292 0.0658 2.8000
v 0.0624 0.0318 2.9250
v 0.0700 0.0000 2.9250
v 0.2000 0.0000 2.6000
v 0.1782 0.0908 2.6000
v 0.1292 0.0658 2.8000
v 0.1450 0.0000 2.8000
v 0.2500 0.0000 1.9000
v 0.2228 0.1135 1.9000
v 0.1782 0.0908 2.6000
v 0.2000 0.0000 2.6000
v 0.2500 0.0000 -2.3000
v 0.2228 0.1135 -2.3000
v 0.2228 0.1135 1.9000
v 0.2500 0.0000 1.9000
v 0.2000 0.0000 -2.8000
v 0.1782 0.0908 -2.8000
v 0.2228 0.1135 -2.3000
v 0.2500 0.0000 -2.3000
v 0.1650 0.0000 -2.8900
v 0.1470 0.0749 -2.8900
v 0.1782 0.0908 -2.8000
v 0.2000 0.0000 -2.8000
v 0.1200 0.0000 -2.9000
v 0.1069 0.0545 -2.9000
v 0.1470 0.0749 -2.8900
v 0.1650 0.0000 -2.8900
v 0.1200 0.0000 -2.9000
v 0.1069 0.0545 -2.9000
v 0.0891 0.0454 -2.8500
v 0.1000 0.0000 -2.8500
v 0.0624 0.0318 2.9250
v 0.0495 0.0495 2.9250
v 0.0000 0.0000 2.9600
v 0.0000 0.0000 2.9600
v 0.1292 0.0658 2.8000
v 0.1025 0.1025 2.8000
v 0.0495 0.0495 2.9250
v 0.0624 0.0318 2.9250
v 0.1782 0.0908 2.6000
v 0.1414 0.1414 2.6000
v 0.1025 0.1025 2.8000
v 0.1292 0.0658 2.8000
v 0.2228 0.1135 1.9000
v 0.1768 0.1768 1.9000
v 0.1414 0.1414 2.6000
v 0.1782 0.0908 2.6000
v 0.2228 0.1135 -2.3000
v 0.1768 0.1768 -2.3000
v 0.1768 0.1768 1.9000
v 0.2228 0.1135 1.9000
v 0.1782 0.0908 -2.8000
v 0.1414 0.1414 -2.8000
v 0.1768 0.1768 -2.3000
v 0.2228 0.1135 -2.3000
v 0.1470 0.0749 -2.8900
v 0.1167 0.1167 -2.8900
v 0.1414 0.1414 -2.8000
v 0.1782 0.0908 -2.8000
v 0.1069 0.0545 -2.9000
v 0.0849 0.0849 -2.9000
v 0.1167 0.1167 -2.8900
v 0.1470 0.0749 -2.8900
v 0.1069 0.0545 -2.9000
v 0.0849 0.0849 -2.9000
v 0.0707 0.0707 -2.8500
v 0.0891 0.0454 -2.8500
v 0.0495 0.0495 2.9250
v 0.0216 0.0666 2.9250
v 0.0000 0.0000 2.9600
v 0.0000 0.0000 2.9600
v 0.1025 0.1025 2.8000
v 0.0448 0.1379 2.8000
v 0.0216 0.0666 2.9250
v 0.0495 0.0495 2.9250
v 0.1414 0.1414 2.6000
v 0.0618 0.1902 2.6000
v 0.0448 0.1379 2.8000
v 0.1025 0.1025 2.8000
v 0.1768 0.1768 1.9000
v 0.0773 0.2378 1.9000
v 0.0618 0.1902 2.6000
v 0.1414 0.1414 2.6000
v 0.1768 0.1768 -2.3000
v 0.0773 0.2378 -2.3000
v 0.0773 0.2378 1.9000
v 0.1768 0.1768 1.9000
v 0.1414 0.1414 -2.8000
v 0.0618 0.1902 -2.8000
v 0.0773 0.2378 -2.3000
v 0.1768 0.1768 -2.3000
v 0.1167 0.1167 -2.8900
v 0.0510 0.1569 -2.8900
v 0.0618 0.1902 -2.8000
v 0.1414 0.1414 -2.8000
v 0.0849 0.0849 -2.9000
v 0.0371 0.1141 -2.9000
v 0.0510 0.1569 -2.8900
v 0.1167 0.1167 -2.8900
v 0.0849 0.0849 -2.9000
v 0.0371 0.1141 -2.9000
v 0.0309 0.0951 -2.8500
v 0.0707 0.0707 -2.8500
v 0.0216 0.0666 2.9250
v 0.0000 0.0700 2.9250
v 0.0000 0.0000 2.9600
v 0.0000 0.0000 2.9600
v 0.0448 0.1379 2.8000
v 0.0000 0.1450 2.8000
v 0.0000 0.0700 2.9250
v 0.0216 0.0666 2.9250
v 0.0618 0.1902 2.6000
v 0.0000 0.2000 2.6000
v 0.0000 0.1450 2.8000
v 0.0448 0.1379 2.8000
v 0.0773 0.2378 1.9000
v 0.0000 0.2500 1.9000
v 0.0000 0.2000 2.6000
v 0.0618 0.1902 2.6000
v 0.0773 0.2378 -2.3000
v 0.0000 0.2500 -2.3000
v 0.0000 0.2500 1.9000
v 0.0773 0.2378 1.9000
v 0.0618 0.1902 -2.8000
v 0.0000 0.2000 -2.8000
v 0.0000 0.2500 -2.3000
v 0.0773 0.2378 -2.3000
v 0.0510 0.1569 -2.8900
v 0.0000 0.1650 -2.8900
v 0.0000 0.2000 -2.8000
v 0.0618 0.1902 -2.8000
v 0.0371 0.1141 -2.9000
v 0.0000 0.1200 -2.9000
v 0.0000 0.1650 -2.8900
v 0.0510 0.1569 -2.8900
v 0.0371 0.1141 -2.9000
v 0.0000 0.1200 -2.9000
v 0.0000 0.1000 -2.8500
v 0.0309 0.0951 -2.8500
v 0.0000 0.0700 2.9250
v -0.0216 0.0666 2.9250
v 0.0000 0.0000 2.9600
v 0.0000 0.0000 2.9600
v 0.0000 0.1450 2.8000
v -0.0448 0.1379 2.8000
v -0.0216 0.0666 2.9250
v 0.0000 0.0700 2.9250
v 0.0000 0.2000 2.6000
v -0.0618 0.1902 2.6000
v -0.0448 0.1379 2.8000
v 0.0000 0.1450 2.8000
v 0.0000 0.2500 1.9000
v -0.0773 0.2378 1.9000
v -0.0618 0.1902 2.6000
v 0.0000 0.2000 2.6000
v 0.0000 0.2500 -2.3000
v -0.0773 0.2378 -2.3000
v -0.0773 0.2378 1.9000
v 0.0000 0.2500 1.9000
v 0.0000 0.2000 -2.8000
v -0.0618 0.1902 -2.8000
v -0.0773 0.2378 -2.3000
v 0.0000 0.2500 -2.3000
v 0.0000 0.1650 -2.8900
v -0.0510 0.1569 -2.8900
v -0.0618 0.1902 -2.8000
v 0.0000 0.2000 -2.8000
v 0.0000 0.1200 -2.9000
v -0.0371 0.1141 -2.9000
v -0.0510 0.1569 -2.8900
v 0.0000 0.1650 -2.8900
v 0.0000 0.1200 -2.9000
v -0.0371 0.1141 -2.9000
v -0.0309 0.0951 -2.8500
v 0.0000 0.1000 -2.8500
v -0.0216 0.0666 2.9250
v -0.0495 0.0495 2.9250
v 0.0000 0.0000 2.9600
v 0.0000 0.0000 2.9600
v -0.0448 0.1379 2.8000
v -0.1025 0.1025 2.8000
v -0.0495 0.0495 2.9250
v -0.0216 0.0666 2.9250
v -0.0618 0.1902 2.6000
v -0.1414 0.1414 2.6000
v -0.1025 0.1025 2.8000
v -0.0448 0.1379 2.8000
v -0.0773 0.2378 1.9000
v -0.1768 0.1768 1.9000
v -0.1414 0.1414 2.6000
v -0.0618 0.1902 2.6000
v -0.0773 0.2378 -2.3000
v -0.1768 0.1768 -2.3000
v -0.1768 0.1768 1.9000
v -0.0773 0.2378 1.9000
v -0.0618 0.1902 -2.8000
v -0.1414 0.1414 -2.8000
v -0.1768 0.1768 -2.3000
v -0.0773 0.2378 -2.3000
v -0.0510 0.1569 -2.8900
v -0.1167 0.1167 -2.8900
v -0.1414 0.1414 -2.8000
v -0.0618 0.1902 -2.8000
v -0.0371 0.1141 -2.9000
v -0.0849 0.0849 -2.9000
v -0.1167 0.1167 -2.8900
v -0.0510 0.1569 -2.8900
v -0.0371 0.1141 -2.9000
v -0.0849 0.0849 -2.9000
v -0.0707 0.0707 -2.8500
v -0.0309 0.0951 -2.8500
v -0.0495 0.0495 2.9250
v -0.0666 0.0216 2.9250
v 0.0000 0.0000 2.9600
v 0.0000 0.0000 2.9600
v -0.1025 0.1025 2.8000
v -0.1379 0.0448 2.8000
v -0.0666 0.0216 2.9250
v -0.0495 0.0495 2.9250
v -0.1414 0.1414 2.6000
v -0.1902 0.0618 2.6000
v -0.1379 0.0448 2.8000
v -0.1025 0.1025 2.8000
v -0.1768 0.1768 1.9000
v -0.2378 0.0773 1.9000
v -0.1902 0.0618 2.6000
v -0.1414 0.1414 2.6000
v -0.1768 0.1768 -2.3000
v -0.2378 0.0773 -2.3000
v -0.2378 0.0773 1.9000
v -0.1768 0.1768 1.9000
v -0.1414 0.1414 -2.8000
v -0.1902 0.0618 -2.8000
v -0.2378 0.0773 -2.3000
v -0.1768 0.1768 -2.3000
v -0.1167 0.1167 -2.8900
v -0.1569 0.0510 -2.8900
v -0.1902 0.0618 -2.8000
v -0.1414 0.1414 -2.8000
v -0.0849 0.0849 -2.9000
v -0.1141 0.0371 -2.9000
v -0.1569 0.0510 -2.8900
v -0.1167 0.1167 -2.8900
v -0.0849 0.0849 -2.9000
v -0.1141 0.0371 -2.9000
v -0.0951 0.0309 -2.8500
v -0.0707 0.0707 -2.8500
v -0.0666 0.0216 2.9250
v -0.0700 0.0000 2.9250
v 0.0000 0.0000 2.9600
v 0.0000 0.0000 2.9600
v -0.1379 0.0448 2.8000
v -0.1450 0.0000 2.8000
v -0.0700 0.0000 2.9250
v -0.0666 0.0216 2.9250
v -0.1902 0.0618 2.6000
v -0.2000 0.0000 2.6000
v -0.1450 0.0000 2.8000
v -0.1379 0.0448 2.8000
v -0.2378 0.0773 1.9000
v -0.2500 0.0000 1.9000
v -0.2000 0.0000 2.6000
v -0.1902 0.0618 2.6000
v -0.2378 0.0773 -2.3000
v -0.2500 0.0000 -2.3000
v -0.2500 0.0000 1.9000
v -0.2378 0.0773 1.9000
v -0.1902 0.0618 -2.8000
v -0.2000 0.0000 -2.8000
v -0.2500 0.0000 -2.3000
v -0.2378 0.0773 -2.3000
v -0.1569 0.0510 -2.8900
v -0.1650 0.0000 -2.8900
v -0.2000 0.0000 -2.8000
v -0.1902 0.0618 -2.8000
v -0.1141 0.0371 -2.9000
v -0.1200 0.0000 -2.9000
v -0.1650 0.0000 -2.8900
v -0.1569 0.0510 -2.8900
v -0.1141 0.0371 -2.9000
v -0.1200 0.0000 -2.9000
v -0.1000 0.0000 -2.8500
v -0.0951 0.0309 -2.8500
v -0.0700 0.0000 2.9250
v -0.0666 -0.0216 2.9250
v 0.0000 0.0000 2.9600
v 0.0000 0.0000 2.9600
v -0.1450 0.0000 2.8000
v -0.1379 -0.0448 2.8000
v -0.0666 -0.0216 2.9250
v -0.0700 0.0000 2.9250
v -0.2000 0.0000 2.6000
v -0.1902 -0.0618 2.6000
v -0.1379 -0.0448 2.8000
v -0.1450 0.0000 2.8000
v -0.2500 0.0000 1.9000
v -0.2378 -0.0773 1.9000
v -0.1902 -0.0618 2.6000
v -0.2000 0.0000 2.6000
v -0.2500 0.0000 -2.3000
v -0.2378 -0.0773 -2.3000
v -0.2378 -0.0773 1.9000
v -0.2500 0.0000 1.9000
v -0.2000 0.0000 -2.8000
v -0.1902 -0.0618 -2.8000
v -0.2378 -0.0773 -2.3000
v -0.2500 0.0000 -2.3000
v -0.1650 0.0000 -2.8900
v -0.1569 -0.0510 -2.8900
v -0.1902 -0.0618 -2.8000
v -0.2000 0.0000 -2.8000
v -0.1200 0.0000 -2.9000
v -0.1141 -0.0371 -2.9000
v -0.1569 -0.0510 -2.8900
v -0.1650 0.0000 -2.8900
v -0.1200 0.0000 -2.9000
v -0.1141 -0.0371 -2.9000
v -0.0951 -0.0309 -2.8500
v -0.1000 0.0000 -2.8500
v -0.0666 -0.0216 2.9250
v -0.0495 -0.0495 2.9250
v 0.0000 0.0000 2.9600
v 0.0000 0.0000 2.9600
v -0.1379 -0.0448 2.8000
v -0.1025 -0.1025 2.8000
v -0.0495 -0.0495 2.9250
v -0.0666 -0.0216 2.9250
v -0.1902 -0.0618 2.6000
v -0.1414 -0.1414 2.6000
v -0.1025 -0.1025 2.8000
v -0.1379 -0.0448 2.8000
v -0.2378 -0.0773 1.9000
v -0.1768 -0.1768 1.9000
v -0.1414 -0.1414 2.6000
v -0.1902 -0.0618 2.6000
v -0.2378 -0.0773 -2.3000
v -0.1768 -0.1768 -2.3000
v -0.1768 -0.1768 1.9000
v -0.2378 -0.0773 1.9000
v -0.1902 -0.0618 -2.8000
v -0.1414 -0.1414 -2.8000
v -0.1768 -0.1768 -2.3000
v -0.2378 -0.0773 -2.3000
v -0.1569 -0.0510 -2.8900
v -0.1167 -0.1167 -2.8900
v -0.1414 -0.1414 -2.8000
v -0.1902 -0.0618 -2.8000
v -0.1141 -0.0371 -2.9000
v -0.0849 -0.0849 -2.9000
v -0.1167 -0.1167 -2.8900
v -0.1569 -0.0510 -2.8900
v -0.1141 -0.0371 -2.9000
v -0.0849 -0.0849 -2.9000
v -0.0707 -0.0707 -2.8500
v -0.0951 -0.0309 -2.8500
v -0.0495 -0.0495 2.9250
v -0.0216 -0.0666 2.9250
v 0.0000 0.0000 2.9600
v 0.0000 0.0000 2.9600
v -0.1025 -0.1025 2.8000
v -0.0448 -0.1379 2.8000
v -0.0216 -0.0666 2.9250
v -0.0495 -0.0495 2.9250
v -0.1414 -0.1414 2.6000
v -0.0618 -0.1902 2.6000
v -0.0448 -0.1379 2.8000
v -0.1025 -0.1025 2.8000
v -0.1768 -0.1768 1.9000
v -0.0773 -0.2378 1.9000
v -0.0618 -0.1902 2.6000
v -0.1414 -0.1414 2.6000
v -0.1768 -0.1768 -2.3000
v -0.0773 -0.2378 -2.3000
v -0.0773 -0.2378 1.9000
v -0.1768 -0.1768 1.9000
v -0.1414 -0.1414 -2.8000
v -0.0618 -0.1902 -2.8000
v -0.0773 -0.2378 -2.3000
v -0.1768 -0.1768 -2.3000
v -0.1167 -0.1167 -2.8900
v -0.0510 -0.1569 -2.8900
v -0.0618 -0.1902 -2.8000
v -0.1414 -0.1414 -2.8000
v -0.0849 -0.0849 -2.9000
v -0.0371 -0.1141 -2.9000
v -0.0510 -0.1569 -2.8900
v -0.1167 -0.1167 -2.8900
v -0.0849 -0.0849 -2.9000
v -0.0371 -0.1141 -2.9000
v -0.0309 -0.0951 -2.8500
v -0.0707 -0.0707 -2.8500
v -0.0216 -0.0666 2.9250
v -0.0000 -0.0700 2.9250
v 0.0000 0.0000 2.9600
v 0.0000 0.0000 2.9600
v -0.0448 -0.1379 2.8000
v -0.0000 -0.1450 2.8000
v -0.0000 -0.0700 2.9250
v -0.0216 -0.0666 2.9250
v -0.0618 -0.1902 2.6000
v -0.0000 -0.2000 2.6000
v -0.0000 -0.1450 2.8000
v -0.0448 -0.1379 2.8000
v -0.0773 -0.2378 1.9000
v -0.0000 -0.2500 1.9000
v -0.0000 -0.2000 2.6000
v -0.0618 -0.1902 2.6000
v -0.0773 -0.2378 -2.3000
v -0.0000 -0.2500 -2.3000
v -0.0000 -0.2500 1.9000
v -0.0773 -0.2378 1.9000
v -0.0618 -0.1902 -2.8000
v -0.0000 -0.2000 -2.8000
v -0.0000 -0.2500 -2.3000
v -0.0773 -0.2378 -2.3000
v -0.0510 -0.1569 -2.8900
v -0.0000 -0.1650 -2.8900
v -0.0000 -0.2000 -2.8000
v -0.0618 -0.1902 -2.8000
v -0.0371 -0.1141 -2.9000
v -0.0000 -0.1200 -2.9000
v -0.0000 -0.1650 -2.8900
v -0.0510 -0.1569 -2.8900
v -0.0371 -0.1141 -2.9000
v -0.0000 -0.1200 -2.9000
v -0.0000 -0.1000 -2.8500
v -0.0309 -0.0951 -2.8500
v 0.1000 -0.1000 -2.8500
v -0.1000 -0.1000 -2.8500
v -0.1000 0.1000 -2.8500
v 0.1000 0.1000 -2.8500
v 0.1273 0.1273 -2.2750
v 0.4985 0.4985 -2.4650
v 0.4897 0.5073 -2.5499
v 0.1114 0.1432 -2.4216
v 0.1114 0.1432 -2.4216
v 0.4897 0.5073 -2.5499
v 0.4985 0.4985 -2.7400
v 0.1273 0.1273 -2.7500
v 0.1432 0.1114 -2.4216
v 0.5073 0.4897 -2.5499
v 0.4985 0.4985 -2.4650
v 0.1273 0.1273 -2.2750
v 0.1273 0.1273 -2.7500
v 0.4985 0.4985 -2.7400
v 0.5073 0.4897 -2.5499
v 0.1432 0.1114 -2.4216
v -0.1273 0.1273 -2.2750
v -0.4985 0.4985 -2.4650
v -0.5073 0.4897 -2.5499
v -0.1432 0.1114 -2.4216
v -0.1432 0.1114 -2.4216
v -0.5073 0.4897 -2.5499
v -0.4985 0.4985 -2.7400
v -0.1273 0.1273 -2.7500
v -0.1114 0.1432 -2.4216
v -0.4897 0.5073 -2.5499
v -0.4985 0.4985 -2.4650
v -0.1273 0.1273 -2.2750
v -0.1273 0.1273 -2.7500
v -0.4985 0.4985 -2.7400
v -0.4897 0.5073 -2.5499
v -0.1114 0.1432 -2.4216
v -0.1273 -0.1273 -2.2750
v -0.4985 -0.4985 -2.4650
v -0.4897 -0.5073 -2.5499
v -0.1114 -0.1432 -2.4216
v -0.1114 -0.1432 -2.4216
v -0.4897 -0.5073 -2.5499
v -0.4985 -0.4985 -2.7400
v -0.1273 -0.1273 -2.7500
v -0.1432 -0.1114 -2.4216
v -0.5073 -0.4897 -2.5499
v -0.4985 -0.4985 -2.4650
v -0.1273 -0.1273 -2.2750
v -0.1273 -0.1273 -2.7500
v -0.4985 -0.4985 -2.7400
v -0.5073 -0.4897 -2.5499
v -0.1432 -0.1114 -2.4216
v 0.1273 -0.1273 -2.2750
v 0.4985 -0.4985 -2.4650
v 0.5073 -0.4897 -2.5499
v 0.1432 -0.1114 -2.4216
v 0.1432 -0.1114 -2.4216
v 0.5073 -0.4897 -2.5499
v 0.4985 -0.4985 -2.7400
v 0.1273 -0.1273 -2.7500
v 0.1114 -0.1432 -2.4216
v 0.4897 -0.5073 -2.5499
v 0.4985 -0.4985 -2.4650
v 0.1273 -0.1273 -2.2750
v 0.1273 -0.1273 -2.7500
v 0.4985 -0.4985 -2.7400
v 0.4897 -0.5073 -2.5499
v 0.1114 -0.1432 -2.4216
vt 0.00098 0.00739
vt 0.02588 0.00739
vt 0.02588 0.00065
vt 0.00098 0.00065
vt 0.00098 0.01994
vt 0.02588 0.01994
vt 0.02588 0.00739
vt 0.00098 0.00739
vt 0.00098 0.03780
vt 0.02588 0.03780
vt 0.02588 0.01994
vt 0.00098 0.01994
vt 0.00098 0.09827
vt 0.02588 0.09827
vt 0.02588 0.03780
vt 0.00098 0.03780
vt 0.00098 0.45991
vt 0.02588 0.45991
vt 0.02588 0.09827
vt 0.00098 0.09827
vt 0.00098 0.50326
vt 0.02588 0.50326
vt 0.02588 0.45991
vt 0.00098 0.45991
vt 0.00098 0.51158
vt 0.02588 0.51158
vt 0.02588 0.50326
vt 0.00098 0.50326
vt 0.00098 0.51555
vt 0.02588 0.51555
vt 0.02588 0.51158
vt 0.00098 0.51158
vt 0.00098 0.51555
vt 0.02588 0.51555
vt 0.02588 0.52018
vt 0.00098 0.52018
vt 0.02588 0.00739
vt 0.06323 0.00739
vt 0.06323 0.00065
vt 0.02588 0.00065
vt 0.02588 0.01994
vt 0.06323 0.01994
vt 0.06323 0.00739
vt 0.02588 0.00739
vt 0.02588 0.03780
vt 0.06323 0.03780
vt 0.06323 0.01994
vt 0.02588 0.01994
vt 0.02588 0.09827
vt 0.06323 0.09827
vt 0.06323 0.03780
vt 0.02588 0.03780
vt 0.02588 0.45991
vt 0.06323 0.45991
vt 0.06323 0.09827
vt 0.02588 0.09827
vt 0.02588 0.50326
vt 0.06323 0.50326
vt 0.06323 0.45991
vt 0.02588 0.45991
vt 0.02588 0.51158
vt 0.06323 0.51158
vt 0.06323 0.50326
vt 0.02588 0.50326
vt 0.02588 0.51555
vt 0.06323 0.51555
vt 0.06323 0.51158
vt 0.02588 0.51158
vt 0.02588 0.51555
vt 0.06323 0.51555
vt 0.06323 0.52018
vt 0.02588 0.52018
vt 0.06323 0.00739
vt 0.08813 0.00739
vt 0.08813 0.00065
vt 0.06323 0.00065
vt 0.06323 0.01994
vt 0.08813 0.01994
vt 0.08813 0.00739
vt 0.06323 0.00739
vt 0.06323 0.03780
vt 0.08813 0.03780
vt 0.08813 0.01994
vt 0.06323 0.01994
vt 0.06323 0.09827
vt 0.08813 0.09827
vt 0.08813 0.03780
vt 0.06323 0.03780
vt 0.06323 0.45991
vt 0.08813 0.45991
vt 0.08813 0.09827
vt 0.06323 0.09827
vt 0.06323 0.50326
vt 0.08813 0.50326
vt 0.08813 0.45991
vt 0.06323 0.45991
vt 0.06323 0.51158
vt 0.08813 0.51158
vt 0.08813 0.50326
vt 0.06323 0.50326
vt 0.06323 0.51555
vt 0.08813 0.51555
vt 0.08813 0.51158
vt 0.06323 0.51158
vt 0.06323 0.51555
vt 0.08813 0.51555
vt 0.08813 0.52018
vt 0.06323 0.52018
vt 0.08813 0.00739
vt 0.12549 0.00739
vt 0.12549 0.00065
vt 0.08813 0.00065
vt 0.08813 0.01994
vt 0.12549 0.01994
vt 0.12549 0.00739
vt 0.08813 0.00739
vt 0.08813 0.03780
vt 0.12549 0.03780
vt 0.12549 0.01994
vt 0.08813 0.01994
vt 0.08813 0.09827
vt 0.12549 0.09827
vt 0.12549 0.03780
vt 0.08813 0.03780
vt 0.08813 0.45991
vt 0.12549 0.45991
vt 0.12549 0.09827
vt 0.08813 0.09827
vt 0.08813 0.50326
vt 0.12549 0.50326
vt 0.12549 0.45991
vt 0.08813 0.45991
vt 0.08813 0.51158
vt 0.12549 0.51158
vt 0.12549 0.50326
vt 0.08813 0.50326
vt 0.08813 0.51555
vt 0.12549 0.51555
vt 0.12549 0.51158
vt 0.08813 0.51158
vt 0.08813 0.51555
vt 0.12549 0.51555
vt 0.12549 0.52018
vt 0.08813 0.52018
vt 0.12549 0.00739
vt 0.16284 0.00739
vt 0.16284 0.00065
vt 0.12549 0.00065
vt 0.12549 0.01994
vt 0.16284 0.01994
vt 0.16284 0.00739
vt 0.12549 0.00739
vt 0.12549 0.03780
vt 0.16284 0.03780
vt 0.16284 0.01994
vt 0.12549 0.01994
vt 0.12549 0.09827
vt 0.16284 0.09827
vt 0.16284 0.03780
vt 0.12549 0.03780
vt 0.12549 0.45991
vt 0.16284 0.45991
vt 0.16284 0.09827
vt 0.12549 0.09827
vt 0.12549 0.50326
vt 0.16284 0.50326
vt 0.16284 0.45991
vt 0.12549 0.45991
vt 0.12549 0.51158
vt 0.16284 0.51158
vt 0.16284 0.50326
vt 0.12549 0.50326
vt 0.12549 0.51555
vt 0.16284 0.51555
vt 0.16284 0.51158
vt 0.12549 0.51158
vt 0.12549 0.51555
vt 0.16284 0.51555
vt 0.16284 0.52018
vt 0.12549 0.52018
vt 0.16284 0.00739
vt 0.18774 0.00739
vt 0.18774 0.00065
vt 0.16284 0.00065
vt 0.16284 0.01994
vt 0.18774 0.01994
vt 0.18774 0.00739
vt 0.16284 0.00739
vt 0.16284 0.03780
vt 0.18774 0.03780
vt 0.18774 0.01994
vt 0.16284 0.01994
vt 0.16284 0.09827
vt 0.18774 0.09827
vt 0.18774 0.03780
vt 0.16284 0.03780
vt 0.16284 0.45991
vt 0.18774 0.45991
vt 0.18774 0.09827
vt 0.16284 0.09827
vt 0.16284 0.50326
vt 0.18774 0.50326
vt 0.18774 0.45991
vt 0.16284 0.45991
vt 0.16284 0.51158
vt 0.18774 0.51158
vt 0.18774 0.50326
vt 0.16284 0.50326
vt 0.16284 0.51555
vt 0.18774 0.51555
vt 0.18774 0.51158
vt 0.16284 0.51158
vt 0.16284 0.51555
vt 0.18774 0.51555
vt 0.18774 0.52018
vt 0.16284 0.52018
vt 0.18774 0.00739
vt 0.22510 0.00739
vt 0.22510 0.00065
vt 0.18774 0.00065
vt 0.18774 0.01994
vt 0.22510 0.01994
vt 0.22510 0.00739
vt 0.18774 0.00739
vt 0.18774 0.03780
vt 0.22510 0.03780
vt 0.22510 0.01994
vt 0.18774 0.01994
vt 0.18774 0.09827
vt 0.22510 0.09827
vt 0.22510 0.03780
vt 0.18774 0.03780
vt 0.18774 0.45991
vt 0.22510 0.45991
vt 0.22510 0.09827
vt 0.18774 0.09827
vt 0.18774 0.50326
vt 0.22510 0.50326
vt 0.22510 0.45991
vt 0.18774 0.45991
vt 0.18774 0.51158
vt 0.22510 0.51158
vt 0.22510 0.50326
vt 0.18774 0.50326
vt 0.18774 0.51555
vt 0.22510 0.51555
vt 0.22510 0.51158
vt 0.18774 0.51158
vt 0.18774 0.51555
vt 0.22510 0.51555
vt 0.22510 0.52018
vt 0.18774 0.52018
vt 0.22510 0.00739
vt 0.25000 0.00739
vt 0.25000 0.00065
vt 0.22510 0.00065
vt 0.22510 0.01994
vt 0.25000 0.01994
vt 0.25000 0.00739
vt 0.22510 0.00739
vt 0.22510 0.03780
vt 0.25000 0.03780
vt 0.25000 0.01994
vt 0.22510 0.01994
vt 0.22510 0.09827
vt 0.25000 0.09827
vt 0.25000 0.03780
vt 0.22510 0.03780
vt 0.22510 0.45991
vt 0.25000 0.45991
vt 0.25000 0.09827
vt 0.22510 0.09827
vt 0.22510 0.50326
vt 0.25000 0.50326
vt 0.25000 0.45991
vt 0.22510 0.45991
vt 0.22510 0.51158
vt 0.25000 0.51158
vt 0.25000 0.50326
vt 0.22510 0.50326
vt 0.22510 0.51555
vt 0.25000 0.51555
vt 0.25000 0.51158
vt 0.22510 0.51158
vt 0.22510 0.51555
vt 0.25000 0.51555
vt 0.25000 0.52018
vt 0.22510 0.52018
vt 0.25000 0.00739
vt 0.27490 0.00739
vt 0.27490 0.00065
vt 0.25000 0.00065
vt 0.25000 0.01994
vt 0.27490 0.01994
vt 0.27490 0.00739
vt 0.25000 0.00739
vt 0.25000 0.03780
vt 0.27490 0.03780
vt 0.27490 0.01994
vt 0.25000 0.01994
vt 0.25000 0.09827
vt 0.27490 0.09827
vt 0.27490 0.03780
vt 0.25000 0.03780
vt 0.25000 0.45991
vt 0.27490 0.45991
vt 0.27490 0.09827
vt 0.25000 0.09827
vt 0.25000 0.50326
vt 0.27490 0.50326
vt 0.27490 0.45991
vt 0.25000 0.45991
vt 0.25000 0.51158
vt 0.27490 0.51158
vt 0.27490 0.50326
vt 0.25000 0.50326
vt 0.25000 0.51555
vt 0.27490 0.51555
vt 0.27490 0.51158
vt 0.25000 0.51158
vt 0.25000 0.51555
vt 0.27490 0.51555
vt 0.27490 0.52018
vt 0.25000 0.52018
vt 0.27490 0.00739
vt 0.31226 0.00739
vt 0.31226 0.00065
vt 0.27490 0.00065
vt 0.27490 0.01994
vt 0.31226 0.01994
vt 0.31226 0.00739
vt 0.27490 0.00739
vt 0.27490 0.03780
vt 0.31226 0.03780
vt 0.31226 0.01994
vt 0.27490 0.01994
vt 0.27490 0.09827
vt 0.31226 0.09827
vt 0.31226 0.03780
vt 0.27490 0.03780
vt 0.27490 0.45991
vt 0.31226 0.45991
vt 0.31226 0.09827
vt 0.27490 0.09827
vt 0.27490 0.50326
vt 0.31226 0.50326
vt 0.31226 0.45991
vt 0.27490 0.45991
vt 0.27490 0.51158
vt 0.31226 0.51158
vt 0.31226 0.50326
vt 0.27490 0.50326
vt 0.27490 0.51555
vt 0.31226 0.51555
vt 0.31226 0.51158
vt 0.27490 0.51158
vt 0.27490 0.51555
vt 0.31226 0.51555
vt 0.31226 0.52018
vt 0.27490 0.52018
vt 0.31226 0.00739
vt 0.34961 0.00739
vt 0.34961 0.00065
vt 0.31226 0.00065
vt 0.31226 0.01994
vt 0.34961 0.01994
vt 0.34961 0.00739
vt 0.31226 0.00739
vt 0.31226 0.03780
vt 0.34961 0.03780
vt 0.34961 0.01994
vt 0.31226 0.01994
vt 0.31226 0.09827
vt 0.34961 0.09827
vt 0.34961 0.03780
vt 0.31226 0.03780
vt 0.31226 0.45991
vt 0.34961 0.45991
vt 0.34961 0.09827
vt 0.31226 0.09827
vt 0.31226 0.50326
vt 0.34961 0.50326
vt 0.34961 0.45991
vt 0.31226 0.45991
vt 0.31226 0.51158
vt 0.34961 0.51158
vt 0.34961 0.50326
vt 0.31226 0.50326
vt 0.31226 0.51555
vt 0.34961 0.51555
vt 0.34961 0.51158
vt 0.31226 0.51158
vt 0.31226 0.51555
vt 0.34961 0.51555
vt 0.34961 0.52018
vt 0.31226 0.52018
vt 0.34961 0.00739
vt 0.37451 0.00739
vt 0.37451 0.00065
vt 0.34961 0.00065
vt 0.34961 0.01994
vt 0.37451 0.01994
vt 0.37451 0.00739
vt 0.34961 0.00739
vt 0.34961 0.03780
vt 0.37451 0.03780
vt 0.37451 0.01994
vt 0.34961 0.01994
vt 0.34961 0.09827
vt 0.37451 0.09827
vt 0.37451 0.03780
vt 0.34961 0.03780
vt 0.34961 0.45991
vt 0.37451 0.45991
vt 0.37451 0.09827
vt 0.34961 0.09827
vt 0.34961 0.50326
vt 0.37451 0.50326
vt 0.37451 0.45991
vt 0.34961 0.45991
vt 0.34961 0.51158
vt 0.37451 0.51158
vt 0.37451 0.50326
vt 0.34961 0.50326
vt 0.34961 0.51555
vt 0.37451 0.51555
vt 0.37451 0.51158
vt 0.34961 0.51158
vt 0.34961 0.51555
vt 0.37451 0.51555
vt 0.37451 0.52018
vt 0.34961 0.52018
vt 0.37451 0.00739
vt 0.39941 0.00739
vt 0.39941 0.00065
vt 0.37451 0.00065
vt 0.37451 0.01994
vt 0.39941 0.01994
vt 0.39941 0.00739
vt 0.37451 0.00739
vt 0.37451 0.03780
vt 0.39941 0.03780
vt 0.39941 0.01994
vt 0.37451 0.01994
vt 0.37451 0.09827
vt 0.39941 0.09827
vt 0.39941 0.03780
vt 0.37451 0.03780
vt 0.37451 0.45991
vt 0.39941 0.45991
vt 0.39941 0.09827
vt 0.37451 0.09827
vt 0.37451 0.50326
vt 0.39941 0.50326
vt 0.39941 0.45991
vt 0.37451 0.45991
vt 0.37451 0.51158
vt 0.39941 0.51158
vt 0.39941 0.50326
vt 0.37451 0.50326
vt 0.37451 0.51555
vt 0.39941 0.51555
vt 0.39941 0.51158
vt 0.37451 0.51158
vt 0.37451 0.51555
vt 0.39941 0.51555
vt 0.39941 0.52018
vt 0.37451 0.52018
vt 0.39941 0.00739
vt 0.43677 0.00739
vt 0.43677 0.00065
vt 0.39941 0.00065
vt 0.39941 0.01994
vt 0.43677 0.01994
vt 0.43677 0.00739
vt 0.39941 0.00739
vt 0.39941 0.03780
vt 0.43677 0.03780
vt 0.43677 0.01994
vt 0.39941 0.01994
vt 0.39941 0.09827
vt 0.43677 0.09827
vt 0.43677 0.03780
vt 0.39941 0.03780
vt 0.39941 0.45991
vt 0.43677 0.45991
vt 0.43677 0.09827
vt 0.39941 0.09827
vt 0.39941 0.50326
vt 0.43677 0.50326
vt 0.43677 0.45991
vt 0.39941 0.45991
vt 0.39941 0.51158
vt 0.43677 0.51158
vt 0.43677 0.50326
vt 0.39941 0.50326
vt 0.39941 0.51555
vt 0.43677 0.51555
vt 0.43677 0.51158
vt 0.39941 0.51158
vt 0.39941 0.51555
vt 0.43677 0.51555
vt 0.43677 0.52018
vt 0.39941 0.52018
vt 0.43677 0.00739
vt 0.47412 0.00739
vt 0.47412 0.00065
vt 0.43677 0.00065
vt 0.43677 0.01994
vt 0.47412 0.01994
vt 0.47412 0.00739
vt 0.43677 0.00739
vt 0.43677 0.03780
vt 0.47412 0.03780
vt 0.47412 0.01994
vt 0.43677 0.01994
vt 0.43677 0.09827
vt 0.47412 0.09827
vt 0.47412 0.03780
vt 0.43677 0.03780
vt 0.43677 0.45991
vt 0.47412 0.45991
vt 0.47412 0.09827
vt 0.43677 0.09827
vt 0.43677 0.50326
vt 0.47412 0.50326
vt 0.47412 0.45991
vt 0.43677 0.45991
vt 0.43677 0.51158
vt 0.47412 0.51158
vt 0.47412 0.50326
vt 0.43677 0.50326
vt 0.43677 0.51555
vt 0.47412 0.51555
vt 0.47412 0.51158
vt 0.43677 0.51158
vt 0.43677 0.51555
vt 0.47412 0.51555
vt 0.47412 0.52018
vt 0.43677 0.52018
vt 0.47412 0.00739
vt 0.49902 0.00739
vt 0.49902 0.00065
vt 0.47412 0.00065
vt 0.47412 0.01994
vt 0.49902 0.01994
vt 0.49902 0.00739
vt 0.47412 0.00739
vt 0.47412 0.03780
vt 0.49902 0.03780
vt 0.49902 0.01994
vt 0.47412 0.01994
vt 0.47412 0.09827
vt 0.49902 0.09827
vt 0.49902 0.03780
vt 0.47412 0.03780
vt 0.47412 0.45991
vt 0.49902 0.45991
vt 0.49902 0.09827
vt 0.47412 0.09827
vt 0.47412 0.50326
vt 0.49902 0.50326
vt 0.49902 0.45991
vt 0.47412 0.45991
vt 0.47412 0.51158
vt 0.49902 0.51158
vt 0.49902 0.50326
vt 0.47412 0.50326
vt 0.47412 0.51555
vt 0.49902 0.51555
vt 0.49902 0.51158
vt 0.47412 0.51158
vt 0.47412 0.51555
vt 0.49902 0.51555
vt 0.49902 0.52018
vt 0.47412 0.52018
vt 0.50488 0.04102
vt 0.56543 0.04102
vt 0.56543 0.00065
vt 0.50488 0.00065
vt 0.50488 0.52409
vt 0.75293 0.52409
vt 0.75293 0.54318
vt 0.50488 0.54318
vt 0.50488 0.54318
vt 0.75293 0.54318
vt 0.75293 0.58594
vt 0.50488 0.58594
vt 0.50488 0.60503
vt 0.75293 0.60503
vt 0.75293 0.58594
vt 0.50488 0.58594
vt 0.50488 0.64779
vt 0.75293 0.64779
vt 0.75293 0.60503
vt 0.50488 0.60503
vt 0.50488 0.52409
vt 0.75293 0.52409
vt 0.75293 0.54318
vt 0.50488 0.54318
vt 0.50488 0.54318
vt 0.75293 0.54318
vt 0.75293 0.58594
vt 0.50488 0.58594
vt 0.50488 0.60503
vt 0.75293 0.60503
vt 0.75293 0.58594
vt 0.50488 0.58594
vt 0.50488 0.64779
vt 0.75293 0.64779
vt 0.75293 0.60503
vt 0.50488 0.60503
vt 0.50488 0.52409
vt 0.75293 0.52409
vt 0.75293 0.54318
vt 0.50488 0.54318
vt 0.50488 0.54318
vt 0.75293 0.54318
vt 0.75293 0.58594
vt 0.50488 0.58594
vt 0.50488 0.60503
vt 0.75293 0.60503
vt 0.75293 0.58594
vt 0.50488 0.58594
vt 0.50488 0.64779
vt 0.75293 0.64779
vt 0.75293 0.60503
vt 0.50488 0.60503
vt 0.50488 0.52409
vt 0.75293 0.52409
vt 0.75293 0.54318
vt 0.50488 0.54318
vt 0.50488 0.54318
vt 0.75293 0.54318
vt 0.75293 0.58594
vt 0.50488 0.58594
vt 0.50488 0.60503
vt 0.75293 0.60503
vt 0.75293 0.58594
vt 0.50488 0.58594
vt 0.50488 0.64779
vt 0.75293 0.64779
vt 0.75293 0.60503
vt 0.50488 0.60503
vn 0.0582 -0.7397 0.6704
vn 0.2290 -0.7047 0.6715
vn 0.0000 0.0000 1.0000
vn 0.0000 0.0000 1.0000
vn 0.0729 -0.9260 0.3704
vn 0.2869 -0.8830 0.3714
vn 0.2290 -0.7047 0.6715
vn 0.0582 -0.7397 0.6704
vn 0.0772 -0.9812 0.1766
vn 0.3041 -0.9360 0.1772
vn 0.2869 -0.8830 0.3714
vn 0.0729 -0.9260 0.3704
vn 0.0785 -0.9969 0.0033
vn 0.3090 -0.9511 0.0033
vn 0.3041 -0.9360 0.1772
vn 0.0772 -0.9812 0.1766
vn 0.0785 -0.9969 -0.0033
vn 0.3090 -0.9511 -0.0033
vn 0.3090 -0.9511 0.0033
vn 0.0785 -0.9969 0.0033
vn 0.0763 -0.9692 -0.2340
vn 0.3004 -0.9245 -0.2346
vn 0.3090 -0.9511 -0.0033
vn 0.0785 -0.9969 -0.0033
vn 0.0613 -0.7794 -0.6235
vn 0.2413 -0.7427 -0.6247
vn 0.3004 -0.9245 -0.2346
vn 0.0763 -0.9692 -0.2340
vn 0.0412 -0.5237 0.8509
vn 0.1620 -0.4984 0.8517
vn 0.2413 -0.7427 -0.6247
vn 0.0613 -0.7794 -0.6235
vn 0.0412 -0.5237 0.8509
vn 0.1620 -0.4984 0.8517
vn 0.2869 -0.8830 0.3714
vn 0.0729 -0.9260 0.3704
vn 0.2290 -0.7047 0.6715
vn 0.5240 -0.5240 0.6715
vn 0.0000 0.0000 1.0000
vn 0.0000 0.0000 1.0000
vn 0.2869 -0.8830 0.3714
vn 0.6565 -0.6565 0.3714
vn 0.5240 -0.5240 0.6715
vn 0.2290 -0.7047 0.6715
vn 0.3041 -0.9360 0.1772
vn 0.6959 -0.6959 0.1772
vn 0.6565 -0.6565 0.3714
vn 0.2869 -0.8830 0.3714
vn 0.3090 -0.9511 0.0033
vn 0.7071 -0.7071 0.0033
vn 0.6959 -0.6959 0.1772
vn 0.3041 -0.9360 0.1772
vn 0.3090 -0.9511 -0.0033
vn 0.7071 -0.7071 -0.0033
vn 0.7071 -0.7071 0.0033
vn 0.3090 -0.9511 0.0033
vn 0.3004 -0.9245 -0.2346
vn 0.6874 -0.6874 -0.2346
vn 0.7071 -0.7071 -0.0033
vn 0.3090 -0.9511 -0.0033
vn 0.2413 -0.7427 -0.6247
vn 0.5522 -0.5522 -0.6247
vn 0.6874 -0.6874 -0.2346
vn 0.3004 -0.9245 -0.2346
vn 0.1620 -0.4984 0.8517
vn 0.3706 -0.3706 0.8517
vn 0.5522 -0.5522 -0.6247
vn 0.2413 -0.7427 -0.6247
vn 0.1620 -0.4984 0.8517
vn 0.3706 -0.3706 0.8517
vn 0.6565 -0.6565 0.3714
vn 0.2869 -0.8830 0.3714
vn 0.5240 -0.5240 0.6715
vn 0.6602 -0.3364 0.6715
vn 0.0000 0.0000 1.0000
vn 0.0000 0.0000 1.0000
vn 0.6565 -0.6565 0.3714
vn 0.8273 -0.4215 0.3714
vn 0.6602 -0.3364 0.6715
vn 0.5240 -0.5240 0.6715
vn 0.6959 -0.6959 0.1772
vn 0.8769 -0.4468 0.1772
vn 0.8273 -0.4215 0.3714
vn 0.6565 -0.6565 0.3714
vn 0.7071 -0.7071 0.0033
vn 0.8910 -0.4540 0.0033
vn 0.8769 -0.4468 0.1772
vn 0.6959 -0.6959 0.1772
vn 0.7071 -0.7071 -0.0033
vn 0.8910 -0.4540 -0.0033
vn 0.8910 -0.4540 0.0033
vn 0.7071 -0.7071 0.0033
vn 0.6874 -0.6874 -0.2346
vn 0.8661 -0.4413 -0.2346
vn 0.8910 -0.4540 -0.0033
vn 0.7071 -0.7071 -0.0033
vn 0.5522 -0.5522 -0.6247
vn 0.6958 -0.3545 -0.6247
vn 0.8661 -0.4413 -0.2346
vn 0.6874 -0.6874 -0.2346
vn 0.3706 -0.3706 0.8517
vn 0.4670 -0.2379 0.8517
vn 0.6958 -0.3545 -0.6247
vn 0.5522 -0.5522 -0.6247
vn 0.3706 -0.3706 0.8517
vn 0.4670 -0.2379 0.8517
vn 0.8273 -0.4215 0.3714
vn 0.6565 -0.6565 0.3714
vn 0.6602 -0.3364 0.6715
vn 0.7410 -0.0000 0.6715
vn 0.0000 0.0000 1.0000
vn 0.0000 0.0000 1.0000
vn 0.8273 -0.4215 0.3714
vn 0.9285 -0.0000 0.3714
vn 0.7410 -0.0000 0.6715
vn 0.6602 -0.3364 0.6715
vn 0.8769 -0.4468 0.1772
vn 0.9842 -0.0000 0.1772
vn 0.9285 -0.0000 0.3714
vn 0.8273 -0.4215 0.3714
vn 0.8910 -0.4540 0.0033
vn 1.0000 -0.0000 0.0033
vn 0.9842 -0.0000 0.1772
vn 0.8769 -0.4468 0.1772
vn 0.8910 -0.4540 -0.0033
vn 1.0000 -0.0000 -0.0033
vn 1.0000 -0.0000 0.0033
vn 0.8910 -0.4540 0.0033
vn 0.8661 -0.4413 -0.2346
vn 0.9721 -0.0000 -0.2346
vn 1.0000 -0.0000 -0.0033
vn 0.8910 -0.4540 -0.0033
vn 0.6958 -0.3545 -0.6247
vn 0.7809 -0.0000 -0.6247
vn 0.9721 -0.0000 -0.2346
vn 0.8661 -0.4413 -0.2346
vn 0.4670 -0.2379 0.8517
vn 0.5241 -0.0000 0.8517
vn 0.7809 -0.0000 -0.6247
vn 0.6958 -0.3545 -0.6247
vn 0.4670 -0.2379 0.8517
vn 0.5241 -0.0000 0.8517
vn 0.9285 -0.0000 0.3714
vn 0.8273 -0.4215 0.3714
vn 0.7410 -0.0000 0.6715
vn 0.6602 0.3364 0.6715
vn 0.0000 0.0000 1.0000
vn 0.0000 0.0000 1.0000
vn 0.9285 -0.0000 0.3714
vn 0.8273 0.4215 0.3714
vn 0.6602 0.3364 0.6715
vn 0.7410 -0.0000 0.6715
vn 0.9842 -0.0000 0.1772
vn 0.8769 0.4468 0.1772
vn 0.8273 0.4215 0.3714
vn 0.9285 -0.0000 0.3714
vn 1.0000 -0.0000 0.0033
vn 0.8910 0.4540 0.0033
vn 0.8769 0.4468 0.1772
vn 0.9842 -0.0000 0.1772
vn 1.0000 -0.0000 -0.0033
vn 0.8910 0.4540 -0.0033
vn 0.8910 0.4540 0.0033
vn 1.0000 -0.0000 0.0033
vn 0.9721 -0.0000 -0.2346
vn 0.8661 0.4413 -0.2346
vn 0.8910 0.4540 -0.0033
vn 1.0000 -0.0000 -0.0033
vn 0.7809 -0.0000 -0.6247
vn 0.6958 0.3545 -0.6247
vn 0.8661 0.4413 -0.2346
vn 0.9721 -0.0000 -0.2346
vn 0.5241 -0.0000 0.8517
vn 0.4670 0.2379 0.8517
vn 0.6958 0.3545 -0.6247
vn 0.7809 -0.0000 -0.6247
vn 0.5241 -0.0000 0.8517
vn 0.4670 0.2379 0.8517
vn 0.8273 0.4215 0.3714
vn 0.9285 -0.0000 0.3714
vn 0.6602 0.3364 0.6715
vn 0.5240 0.5240 0.6715
vn 0.0000 0.0000 1.0000
vn 0.0000 0.0000 1.0000
vn 0.8273 0.4215 0.3714
vn 0.6565 0.6565 0.3714
vn 0.5240 0.5240 0.6715
vn 0.6602 0.3364 0.6715
vn 0.8769 0.4468 0.1772
vn 0.6959 0.6959 0.1772
vn 0.6565 0.6565 0.3714
vn 0.8273 0.4215 0.3714
vn 0.8910 0.4540 0.0033
vn 0.7071 0.7071 0.0033
vn 0.6959 0.6959 0.1772
vn 0.8769 0.4468 0.1772
vn 0.8910 0.4540 -0.0033
vn 0.7071 0.7071 -0.0033
vn 0.7071 0.7071 0.0033
vn 0.8910 0.4540 0.0033
vn 0.8661 0.4413 -0.2346
vn 0.6874 0.6874 -0.2346
vn 0.7071 0.7071 -0.0033
vn 0.8910 0.4540 -0.0033
vn 0.6958 0.3545 -0.6247
vn 0.5522 0.5522 -0.6247
vn 0.6874 0.6874 -0.2346
vn 0.8661 0.4413 -0.2346
vn 0.4670 0.2379 0.8517
vn 0.3706 0.3706 0.8517
vn 0.5522 0.5522 -0.6247
vn 0.6958 0.3545 -0.6247
vn 0.4670 0.2379 0.8517
vn 0.3706 0.3706 0.8517
vn 0.6565 0.6565 0.3714
vn 0.8273 0.4215 0.3714
vn 0.5240 0.5240 0.6715
vn 0.2290 0.7047 0.6715
vn 0.0000 0.0000 1.0000
vn 0.0000 0.0000 1.0000
vn 0.6565 0.6565 0.3714
vn 0.2869 0.8830 0.3714
vn 0.2290 0.7047 0.6715
vn 0.5240 0.5240 0.6715
vn 0.6959 0.6959 0.1772
vn 0.3041 0.9360 0.1772
vn 0.2869 0.8830 0.3714
vn 0.6565 0.6565 0.3714
vn 0.7071 0.7071 0.0033
vn 0.3090 0.9511 0.0033
vn 0.3041 0.9360 0.1772
vn 0.6959 0.6959 0.1772
vn 0.7071 0.7071 -0.0033
vn 0.3090 0.9511 -0.0033
vn 0.3090 0.9511 0.0033
vn 0.7071 0.7071 0.0033
vn 0.6874 0.6874 -0.2346
vn 0.3004 0.9245 -0.2346
vn 0.3090 0.9511 -0.0033
vn 0.7071 0.7071 -0.0033
vn 0.5522 0.5522 -0.6247
vn 0.2413 0.7427 -0.6247
vn 0.3004 0.9245 -0.2346
vn 0.6874 0.6874 -0.2346
vn 0.3706 0.3706 0.8517
vn 0.1620 0.4984 0.8517
vn 0.2413 0.7427 -0.6247
vn 0.5522 0.5522 -0.6247
vn 0.3706 0.3706 0.8517
vn 0.1620 0.4984 0.8517
vn 0.2869 0.8830 0.3714
vn 0.6565 0.6565 0.3714
vn 0.2290 0.7047 0.6715
vn 0.0000 0.7410 0.6715
vn 0.0000 0.0000 1.0000
vn 0.0000 0.0000 1.0000
vn 0.2869 0.8830 0.3714
vn 0.0000 0.9285 0.3714
vn 0.0000 0.7410 0.6715
vn 0.2290 0.7047 0.6715
vn 0.3041 0.9360 0.1772
vn 0.0000 0.9842 0.1772
vn 0.0000 0.9285 0.3714
vn 0.2869 0.8830 0.3714
vn 0.3090 0.9511 0.0033
vn 0.0000 1.0000 0.0033
vn 0.0000 0.9842 0.1772
vn 0.3041 0.9360 0.1772
vn 0.3090 0.9511 -0.0033
vn -0.0000 1.0000 -0.0033
vn 0.0000 1.0000 0.0033
vn 0.3090 0.9511 0.0033
vn 0.3004 0.9245 -0.2346
vn -0.0000 0.9721 -0.2346
vn -0.0000 1.0000 -0.0033
vn 0.3090 0.9511 -0.0033
vn 0.2413 0.7427 -0.6247
vn -0.0000 0.7809 -0.6247
vn -0.0000 0.9721 -0.2346
vn 0.3004 0.9245 -0.2346
vn 0.1620 0.4984 0.8517
vn 0.0000 0.5241 0.8517
vn -0.0000 0.7809 -0.6247
vn 0.2413 0.7427 -0.6247
vn 0.1620 0.4984 0.8517
vn 0.0000 0.5241 0.8517
vn 0.0000 0.9285 0.3714
vn 0.2869 0.8830 0.3714
vn 0.0000 0.7410 0.6715
vn -0.2290 0.7047 0.6715
vn 0.0000 0.0000 1.0000
vn 0.0000 0.0000 1.0000
vn 0.0000 0.9285 0.3714
vn -0.2869 0.8830 0.3714
vn -0.2290 0.7047 0.6715
vn 0.0000 0.7410 0.6715
vn 0.0000 0.9842 0.1772
vn -0.3041 0.9360 0.1772
vn -0.2869 0.8830 0.3714
vn 0.0000 0.9285 0.3714
vn 0.0000 1.0000 0.0033
vn -0.3090 0.9511 0.0033
vn -0.3041 0.9360 0.1772
vn 0.0000 0.9842 0.1772
vn -0.0000 1.0000 -0.0033
vn -0.3090 0.9511 -0.0033
vn -0.3090 0.9511 0.0033
vn 0.0000 1.0000 0.0033
vn -0.0000 0.9721 -0.2346
vn -0.3004 0.9245 -0.2346
vn -0.3090 0.9511 -0.0033
vn -0.0000 1.0000 -0.0033
vn -0.0000 0.7809 -0.6247
vn -0.2413 0.7427 -0.6247
vn -0.3004 0.9245 -0.2346
vn -0.0000 0.9721 -0.2346
vn 0.0000 0.5241 0.8517
vn -0.1620 0.4984 0.8517
vn -0.2413 0.7427 -0.6247
vn -0.0000 0.7809 -0.6247
vn 0.0000 0.5241 0.8517
vn -0.1620 0.4984 0.8517
vn -0.2869 0.8830 0.3714
vn 0.0000 0.9285 0.3714
vn -0.2290 0.7047 0.6715
vn -0.5240 0.5240 0.6715
vn 0.0000 0.0000 1.0000
vn 0.0000 0.0000 1.0000
vn -0.2869 0.8830 0.3714
vn -0.6565 0.6565 0.3714
vn -0.5240 0.5240 0.6715
vn -0.2290 0.7047 0.6715
vn -0.3041 0.9360 0.1772
vn -0.6959 0.6959 0.1772
vn -0.6565 0.6565 0.3714
vn -0.2869 0.8830 0.3714
vn -0.3090 0.9511 0.0033
vn -0.7071 0.7071 0.0033
vn -0.6959 0.6959 0.1772
vn -0.3041 0.9360 0.1772
vn -0.3090 0.9511 -0.0033
vn -0.7071 0.7071 -0.0033
vn -0.7071 0.7071 0.0033
vn -0.3090 0.9511 0.0033
vn -0.3004 0.9245 -0.2346
vn -0.6874 0.6874 -0.2346
vn -0.7071 0.7071 -0.0033
vn -0.3090 0.9511 -0.0033
vn -0.2413 0.7427 -0.6247
vn -0.5522 0.5522 -0.6247
vn -0.6874 0.6874 -0.2346
vn -0.3004 0.9245 -0.2346
vn -0.1620 0.4984 0.8517
vn -0.3706 0.3706 0.8517
vn -0.5522 0.5522 -0.6247
vn -0.2413 0.7427 -0.6247
vn -0.1620 0.4984 0.8517
vn -0.3706 0.3706 0.8517
vn -0.6565 0.6565 0.3714
vn -0.2869 0.8830 0.3714
vn -0.5240 0.5240 0.6715
vn -0.7047 0.2290 0.6715
vn 0.0000 0.0000 1.0000
vn 0.0000 0.0000 1.0000
vn -0.6565 0.6565 0.3714
vn -0.8830 0.2869 0.3714
vn -0.7047 0.2290 0.6715
vn -0.5240 0.5240 0.6715
vn -0.6959 0.6959 0.1772
vn -0.9360 0.3041 0.1772
vn -0.8830 0.2869 0.3714
vn -0.6565 0.6565 0.3714
vn -0.7071 0.7071 0.0033
vn -0.9511 0.3090 0.0033
vn -0.9360 0.3041 0.1772
vn -0.6959 0.6959 0.1772
vn -0.7071 0.7071 -0.0033
vn -0.9511 0.3090 -0.0033
vn -0.9511 0.3090 0.0033
vn -0.7071 0.7071 0.0033
vn -0.6874 0.6874 -0.2346
vn -0.9245 0.3004 -0.2346
vn -0.9511 0.3090 -0.0033
vn -0.7071 0.7071 -0.0033
vn -0.5522 0.5522 -0.6247
vn -0.7427 0.2413 -0.6247
vn -0.9245 0.3004 -0.2346
vn -0.6874 0.6874 -0.2346
vn -0.3706 0.3706 0.8517
vn -0.4984 0.1620 0.8517
vn -0.7427 0.2413 -0.6247
vn -0.5522 0.5522 -0.6247
vn -0.3706 0.3706 0.8517
vn -0.4984 0.1620 0.8517
vn -0.8830 0.2869 0.3714
vn -0.6565 0.6565 0.3714
vn -0.7047 0.2290 0.6715
vn -0.7410 0.0000 0.6715
vn 0.0000 0.0000 1.0000
vn 0.0000 0.0000 1.0000
vn -0.8830 0.2869 0.3714
vn -0.9285 0.0000 0.3714
vn -0.7410 0.0000 0.6715
vn -0.7047 0.2290 0.6715
vn -0.9360 0.3041 0.1772
vn -0.9842 0.0000 0.1772
vn -0.9285 0.0000 0.3714
vn -0.8830 0.2869 0.3714
vn -0.9511 0.3090 0.0033
vn -1.0000 0.0000 0.0033
vn -0.9842 0.0000 0.1772
vn -0.9360 0.3041 0.1772
vn -0.9511 0.3090 -0.0033
vn -1.0000 0.0000 -0.0033
vn -1.0000 0.0000 0.0033
vn -0.9511 0.3090 0.0033
vn -0.9245 0.3004 -0.2346
vn -0.9721 0.0000 -0.2346
vn -1.0000 0.0000 -0.0033
vn -0.9511 0.3090 -0.0033
vn -0.7427 0.2413 -0.6247
vn -0.7809 0.0000 -0.6247
vn -0.9721 0.0000 -0.2346
vn -0.9245 0.3004 -0.2346
vn -0.4984 0.1620 0.8517
vn -0.5241 0.0000 0.8517
vn -0.7809 0.0000 -0.6247
vn -0.7427 0.2413 -0.6247
vn -0.4984 0.1620 0.8517
vn -0.5241 0.0000 0.8517
vn -0.9285 0.0000 0.3714
vn -0.8830 0.2869 0.3714
vn -0.7410 0.0000 0.6715
vn -0.7047 -0.2290 0.6715
vn 0.0000 0.0000 1.0000
vn 0.0000 0.0000 1.0000
vn -0.9285 0.0000 0.3714
vn -0.8830 -0.2869 0.3714
vn -0.7047 -0.2290 0.6715
vn -0.7410 0.0000 0.6715
vn -0.9842 0.0000 0.1772
vn -0.9360 -0.3041 0.1772
vn -0.8830 -0.2869 0.3714
vn -0.9285 0.0000 0.3714
vn -1.0000 0.0000 0.0033
vn -0.9511 -0.3090 0.0033
vn -0.9360 -0.3041 0.1772
vn -0.9842 0.0000 0.1772
vn -1.0000 0.0000 -0.0033
vn -0.9511 -0.3090 -0.0033
vn -0.9511 -0.3090 0.0033
vn -1.0000 0.0000 0.0033
vn -0.9721 0.0000 -0.2346
vn -0.9245 -0.3004 -0.2346
vn -0.9511 -0.3090 -0.0033
vn -1.0000 0.0000 -0.0033
vn -0.7809 0.0000 -0.6247
vn -0.7427 -0.2413 -0.6247
vn -0.9245 -0.3004 -0.2346
vn -0.9721 0.0000 -0.2346
vn -0.5241 0.0000 0.8517
vn -0.4984 -0.1620 0.8517
vn -0.7427 -0.2413 -0.6247
vn -0.7809 0.0000 -0.6247
vn -0.5241 0.0000 0.8517
vn -0.4984 -0.1620 0.8517
vn -0.8830 -0.2869 0.3714
vn -0.9285 0.0000 0.3714
vn -0.7047 -0.2290 0.6715
vn -0.5240 -0.5240 0.6715
vn 0.0000 0.0000 1.0000
vn 0.0000 0.0000 1.0000
vn -0.8830 -0.2869 0.3714
vn -0.6565 -0.6565 0.3714
vn -0.5240 -0.5240 0.6715
vn -0.7047 -0.2290 0.6715
vn -0.9360 -0.3041 0.1772
vn -0.6959 -0.6959 0.1772
vn -0.6565 -0.6565 0.3714
vn -0.8830 -0.2869 0.3714
vn -0.9511 -0.3090 0.0033
vn -0.7071 -0.7071 0.0033
vn -0.6959 -0.6959 0.1772
vn -0.9360 -0.3041 0.1772
vn -0.9511 -0.3090 -0.0033
vn -0.7071 -0.7071 -0.0033
vn -0.7071 -0.7071 0.0033
vn -0.9511 -0.3090 0.0033
vn -0.9245 -0.3004 -0.2346
vn -0.6874 -0.6874 -0.2346
vn -0.7071 -0.7071 -0.0033
vn -0.9511 -0.3090 -0.0033
vn -0.7427 -0.2413 -0.6247
vn -0.5522 -0.5522 -0.6247
vn -0.6874 -0.6874 -0.2346
vn -0.9245 -0.3004 -0.2346
vn -0.4984 -0.1620 0.8517
vn -0.3706 -0.3706 0.8517
vn -0.5522 -0.5522 -0.6247
vn -0.7427 -0.2413 -0.6247
vn -0.4984 -0.1620 0.8517
vn -0.3706 -0.3706 0.8517
vn -0.6565 -0.6565 0.3714
vn -0.8830 -0.2869 0.3714
vn -0.5240 -0.5240 0.6715
vn -0.2290 -0.7047 0.6715
vn 0.0000 0.0000 1.0000
vn 0.0000 0.0000 1.0000
vn -0.6565 -0.6565 0.3714
vn -0.2869 -0.8830 0.3714
vn -0.2290 -0.7047 0.6715
vn -0.5240 -0.5240 0.6715
vn -0.6959 -0.6959 0.1772
vn -0.3041 -0.9360 0.1772
vn -0.2869 -0.8830 0.3714
vn -0.6565 -0.6565 0.3714
vn -0.7071 -0.7071 0.0033
vn -0.3090 -0.9511 0.0033
vn -0.3041 -0.9360 0.1772
vn -0.6959 -0.6959 0.1772
vn -0.7071 -0.7071 -0.0033
vn -0.3090 -0.9511 -0.0033
vn -0.3090 -0.9511 0.0033
vn -0.7071 -0.7071 0.0033
vn -0.6874 -0.6874 -0.2346
vn -0.3004 -0.9245 -0.2346
vn -0.3090 -0.9511 -0.0033
vn -0.7071 -0.7071 -0.0033
vn -0.5522 -0.5522 -0.6247
vn -0.2413 -0.7427 -0.6247
vn -0.3004 -0.9245 -0.2346
vn -0.6874 -0.6874 -0.2346
vn -0.3706 -0.3706 0.8517
vn -0.1620 -0.4984 0.8517
vn -0.2413 -0.7427 -0.6247
vn -0.5522 -0.5522 -0.6247
vn -0.3706 -0.3706 0.8517
vn -0.1620 -0.4984 0.8517
vn -0.2869 -0.8830 0.3714
vn -0.6565 -0.6565 0.3714
vn -0.2290 -0.7047 0.6715
vn -0.0582 -0.7397 0.6704
vn 0.0000 0.0000 1.0000
vn 0.0000 0.0000 1.0000
vn -0.2869 -0.8830 0.3714
vn -0.0729 -0.9260 0.3704
vn -0.0582 -0.7397 0.6704
vn -0.2290 -0.7047 0.6715
vn -0.3041 -0.9360 0.1772
vn -0.0772 -0.9812 0.1766
vn -0.0729 -0.9260 0.3704
vn -0.2869 -0.8830 0.3714
vn -0.3090 -0.9511 0.0033
vn -0.0785 -0.9969 0.0033
vn -0.0772 -0.9812 0.1766
vn -0.3041 -0.9360 0.1772
vn -0.3090 -0.9511 -0.0033
vn -0.0785 -0.9969 -0.0033
vn -0.0785 -0.9969 0.0033
vn -0.3090 -0.9511 0.0033
vn -0.3004 -0.9245 -0.2346
vn -0.0763 -0.9692 -0.2340
vn -0.0785 -0.9969 -0.0033
vn -0.3090 -0.9511 -0.0033
vn -0.2413 -0.7427 -0.6247
vn -0.0613 -0.7794 -0.6235
vn -0.0763 -0.9692 -0.2340
vn -0.3004 -0.9245 -0.2346
vn -0.1620 -0.4984 0.8517
vn -0.0412 -0.5237 0.8509
vn -0.0613 -0.7794 -0.6235
vn -0.2413 -0.7427 -0.6247
vn -0.1620 -0.4984 0.8517
vn -0.0412 -0.5237 0.8509
vn -0.0729 -0.9260 0.3704
vn -0.2869 -0.8830 0.3714
vn 0.0000 0.0000 -1.0000
vn 0.0000 0.0000 -1.0000
vn 0.0000 0.0000 -1.0000
vn 0.0000 0.0000 -1.0000
vn -0.4427 0.7177 0.5375
vn -0.4541 0.7216 0.5226
vn -0.6936 0.7204 -0.0005
vn -0.6936 0.7204 -0.0005
vn -0.6936 0.7204 -0.0005
vn -0.6936 0.7204 -0.0005
vn -0.7016 0.7045 -0.1068
vn -0.7012 0.7042 -0.1113
vn 0.7204 -0.6936 -0.0005
vn 0.7204 -0.6936 -0.0005
vn 0.7216 -0.4541 0.5226
vn 0.7177 -0.4427 0.5375
vn 0.7042 -0.7012 -0.1113
vn 0.7045 -0.7016 -0.1068
vn 0.7204 -0.6936 -0.0005
vn 0.7204 -0.6936 -0.0005
vn -0.7177 -0.4427 0.5375
vn -0.7216 -0.4541 0.5226
vn -0.7204 -0.6936 -0.0005
vn -0.7204 -0.6936 -0.0005
vn -0.7204 -0.6936 -0.0005
vn -0.7204 -0.6936 -0.0005
vn -0.7045 -0.7016 -0.1068
vn -0.7042 -0.7012 -0.1113
vn 0.6936 0.7204 -0.0005
vn 0.6936 0.7204 -0.0005
vn 0.4541 0.7216 0.5226
vn 0.4427 0.7177 0.5375
vn 0.7012 0.7042 -0.1113
vn 0.7016 0.7045 -0.1068
vn 0.6936 0.7204 -0.0005
vn 0.6936 0.7204 -0.0005
vn 0.4427 -0.7177 0.5375
vn 0.4541 -0.7216 0.5226
vn 0.6936 -0.7204 -0.0005
vn 0.6936 -0.7204 -0.0005
vn 0.6936 -0.7204 -0.0005
vn 0.6936 -0.7204 -0.0005
vn 0.7016 -0.7045 -0.1068
vn 0.7012 -0.7042 -0.1113
vn -0.7204 0.6936 -0.0005
vn -0.7204 0.6936 -0.0005
vn -0.7216 0.4541 0.5226
vn -0.7177 0.4427 0.5375
vn -0.7042 0.7012 -0.1113
vn -0.7045 0.7016 -0.1068
vn -0.7204 0.6936 -0.0005
vn -0.7204 0.6936 -0.0005
vn 0.7177 0.4427 0.5375
vn 0.7216 0.4541 0.5226
vn 0.7204 0.6936 -0.0005
vn 0.7204 0.6936 -0.0005
vn 0.7204 0.6936 -0.0005
vn 0.7204 0.6936 -0.0005
vn 0.7045 0.7016 -0.1068
vn 0.7042 0.7012 -0.1113
vn -0.6936 -0.7204 -0.0005
vn -0.6936 -0.7204 -0.0005
vn -0.4541 -0.7216 0.5226
vn -0.4427 -0.7177 0.5375
vn -0.7012 -0.7042 -0.1113
vn -0.7016 -0.7045 -0.1068
vn -0.6936 -0.7204 -0.0005
vn -0.6936 -0.7204 -0.0005
usemtl paint
f 1/1/1 2/2/2 3/3/3 4/4/4
f 5/5/5 6/6/6 7/7/7 8/8/8
f 9/9/9 10/10/10 11/11/11 12/12/12
f 13/13/13 14/14/14 15/15/15 16/16/16
f 17/17/17 18/18/18 19/19/19 20/20/20
f 21/21/21 22/22/22 23/23/23 24/24/24
f 25/25/25 26/26/26 27/27/27 28/28/28
f 29/29/29 30/30/30 31/31/31 32/32/32
f 33/33/33 34/34/34 35/35/35 36/36/36
f 37/37/37 38/38/38 39/39/39 40/40/40
f 41/41/41 42/42/42 43/43/43 44/44/44
f 45/45/45 46/46/46 47/47/47 48/48/48
f 49/49/49 50/50/50 51/51/51 52/52/52
f 53/53/53 54/54/54 55/55/55 56/56/56
f 57/57/57 58/58/58 59/59/59 60/60/60
f 61/61/61 62/62/62 63/63/63 64/64/64
f 65/65/65 66/66/66 67/67/67 68/68/68
f 69/69/69 70/70/70 71/71/71 72/72/72
f 73/73/73 74/74/74 75/75/75 76/76/76
f 77/77/77 78/78/78 79/79/79 80/80/80
f 81/81/81 82/82/82 83/83/83 84/84/84
f 85/85/85 86/86/86 87/87/87 88/88/88
f 89/89/89 90/90/90 91/91/91 92/92/92
f 93/93/93 94/94/94 95/95/95 96/96/96
f 97/97/97 98/98/98 99/99/99 100/100/100
f 101/101/101 102/102/102 103/103/103 104/104/104
f 105/105/105 106/106/106 107/107/107 108/108/108
f 109/109/109 110/110/110 111/111/111 112/112/112
f 113/113/113 114/114/114 115/115/115 116/116/116
f 117/117/117 118/118/118 119/119/119 120/120/120
f 121/121/121 122/122/122 123/123/123 124/124/124
f 125/125/125 126/126/126 127/127/127 128/128/128
f 129/129/129 130/130/130 131/131/131 132/132/132
f 133/133/133 134/134/134 135/135/135 136/136/136
f 137/137/137 138/138/138 139/139/139 140/140/140
f 141/141/141 142/142/142 143/143/143 144/144/144
f 145/145/145 146/146/146 147/147/147 148/148/148
f 149/149/149 150/150/150 151/151/151 152/152/152
f 153/153/153 154/154/154 155/155/155 156/156/156
f 157/157/157 158/158/158 159/159/159 160/160/160
f 161/161/161 162/162/162 163/163/163 164/164/164
f 165/165/165 166/166/166 167/167/167 168/168/168
f 169/169/169 170/170/170 171/171/171 172/172/172
f 173/173/173 174/174/174 175/175/175 176/176/176
f 177/177/177 178/178/178 179/179/179 180/180/180
f 181/181/181 182/182/182 183/183/183 184/184/184
f 185/185/185 186/186/186 187/187/187 188/188/188
f 189/189/189 190/190/190 191/191/191 192/192/192
f 193/193/193 194/194/194 195/195/195 196/196/196
f 197/197/197 198/198/198 199/199/199 200/200/200
f 201/201/201 202/202/202 203/203/203 204/204/204
f 205/205/205 206/206/206 207/207/207 208/208/208
f 209/209/209 210/210/210 211/211/211 212/212/212
f 213/213/213 214/214/214 215/215/215 216/216/216
f 217/217/217 218/218/218 219/219/219 220/220/220
f 221/221/221 222/222/222 223/223/223 224/224/224
f 225/225/225 226/226/226 227/227/227 228/228/228
f 229/229/229 230/230/230 231/231/231 232/232/232
f 233/233/233 234/234/234 235/235/235 236/236/236
f 237/237/237 238/238/238 239/239/239 240/240/240
f 241/241/241 242/242/242 243/243/243 244/244/244
f 245/245/245 246/246/246 247/247/247 248/248/248
f 249/249/249 250/250/250 251/251/251 252/252/252
f 253/253/253 254/254/254 255/255/255 256/256/256
f 257/257/257 258/258/258 259/259/259 260/260/260
f 261/261/261 262/262/262 263/263/263 264/264/264
f 265/265/265 266/266/266 267/267/267 268/268/268
f 269/269/269 270/270/270 271/271/271 272/272/272
f 273/273/273 274/274/274 275/275/275 276/276/276
f 277/277/277 278/278/278 279/279/279 280/280/280
f 281/281/281 282/282/282 283/283/283 284/284/284
f 285/285/285 286/286/286 287/287/287 288/288/288
f 289/289/289 290/290/290 291/291/291 292/292/292
f 293/293/293 294/294/294 295/295/295 296/296/296
f 297/297/297 298/298/298 299/299/299 300/300/300
f 301/301/301 302/302/302 303/303/303 304/304/304
f 305/305/305 306/306/306 307/307/307 308/308/308
f 309/309/309 310/310/310 311/311/311 312/312/312
f 313/313/313 314/314/314 315/315/315 316/316/316
f 317/317/317 318/318/318 319/319/319 320/320/320
f 321/321/321 322/322/322 323/323/323 324/324/324
f 325/325/325 326/326/326 327/327/327 328/328/328
f 329/329/329 330/330/330 331/331/331 332/332/332
f 333/333/333 334/334/334 335/335/335 336/336/336
f 337/337/337 338/338/338 339/339/339 340/340/340
f 341/341/341 342/342/342 343/343/343 344/344/344
f 345/345/345 346/346/346 347/347/347 348/348/348
f 349/349/349 350/350/350 351/351/351 352/352/352
f 353/353/353 354/354/354 355/355/355 356/356/356
f 357/357/357 358/358/358 359/359/359 360/360/360
f 361/361/361 362/362/362 363/363/363 364/364/364
f 365/365/365 366/366/366 367/367/367 368/368/368
f 369/369/369 370/370/370 371/371/371 372/372/372
f 373/373/373 374/374/374 375/375/375 376/376/376
f 377/377/377 378/378/378 379/379/379 380/380/380
f 381/381/381 382/382/382 383/383/383 384/384/384
f 385/385/385 386/386/386 387/387/387 388/388/388
f 389/389/389 390/390/390 391/391/391 392/392/392
f 393/393/393 394/394/394 395/395/395 396/396/396
f 397/397/397 398/398/398 399/399/399 400/400/400
f 401/401/401 402/402/402 403/403/403 404/404/404
f 405/405/405 406/406/406 407/407/407 408/408/408
f 409/409/409 410/410/410 411/411/411 412/412/412
f 413/413/413 414/414/414 415/415/415 416/416/416
f 417/417/417 418/418/418 419/419/419 420/420/420
f 421/421/421 422/422/422 423/423/423 424/424/424
f 425/425/425 426/426/426 427/427/427 428/428/428
f 429/429/429 430/430/430 431/431/431 432/432/432
f 433/433/433 434/434/434 435/435/435 436/436/436
f 437/437/437 438/438/438 439/439/439 440/440/440
f 441/441/441 442/442/442 443/443/443 444/444/444
f 445/445/445 446/446/446 447/447/447 448/448/448
f 449/449/449 450/450/450 451/451/451 452/452/452
f 453/453/453 454/454/454 455/455/455 456/456/456
f 457/457/457 458/458/458 459/459/459 460/460/460
f 461/461/461 462/462/462 463/463/463 464/464/464
f 465/465/465 466/466/466 467/467/467 468/468/468
f 469/469/469 470/470/470 471/471/471 472/472/472
f 473/473/473 474/474/474 475/475/475 476/476/476
f 477/477/477 478/478/478 479/479/479 480/480/480
f 481/481/481 482/482/482 483/483/483 484/484/484
f 485/485/485 486/486/486 487/487/487 488/488/488
f 489/489/489 490/490/490 491/491/491 492/492/492
f 493/493/493 494/494/494 495/495/495 496/496/496
f 497/497/497 498/498/498 499/499/499 500/500/500
f 501/501/501 502/502/502 503/503/503 504/504/504
f 505/505/505 506/506/506 507/507/507 508/508/508
f 509/509/509 510/510/510 511/511/511 512/512/512
f 513/513/513 514/514/514 515/515/515 516/516/516
f 517/517/517 518/518/518 519/519/519 520/520/520
f 521/521/521 522/522/522 523/523/523 524/524/524
f 525/525/525 526/526/526 527/527/527 528/528/528
f 529/529/529 530/530/530 531/531/531 532/532/532
f 533/533/533 534/534/534 535/535/535 536/536/536
f 537/537/537 538/538/538 539/539/539 540/540/540
f 541/541/541 542/542/542 543/543/543 544/544/544
f 545/545/545 546/546/546 547/547/547 548/548/548
f 549/549/549 550/550/550 551/551/551 552/552/552
f 553/553/553 554/554/554 555/555/555 556/556/556
f 557/557/557 558/558/558 559/559/559 560/560/560
f 561/561/561 562/562/562 563/563/563 564/564/564
f 565/565/565 566/566/566 567/567/567 568/568/568
f 569/569/569 570/570/570 571/571/571 572/572/572
f 573/573/573 574/574/574 575/575/575 576/576/576
usemtl glow
f 577/577/577 578/578/578 579/579/579 580/580/580
usemtl paint
f 581/581/581 582/582/582 583/583/583 584/584/584
f 585/585/585 586/586/586 587/587/587 588/588/588
f 589/589/589 590/590/590 591/591/591 592/592/592
f 593/593/593 594/594/594 595/595/595 596/596/596
f 597/597/597 598/598/598 599/599/599 600/600/600
f 601/601/601 602/602/602 603/603/603 604/604/604
f 605/605/605 606/606/606 607/607/607 608/608/608
f 609/609/609 610/610/610 611/611/611 612/612/612
f 613/613/613 614/614/614 615/615/615 616/616/616
f 617/617/617 618/618/618 619/619/619 620/620/620
f 621/621/621 622/622/622 623/623/623 624/624/624
f 625/625/625 626/626/626 627/627/627 628/628/628
f 629/629/629 630/630/630 631/631/631 632/632/632
f 633/633/633 634/634/634 635/635/635 636/636/636
f 637/637/637 638/638/638 639/639/639 640/640/640
f 641/641/641 642/642/642 643/643/643 644/644/644
