# missile/wing_l — сгенерировано tools/gen_models.py, не править руками
mtllib missile.mtl
v 0.2100 0.0600 0.6250
v 0.3933 0.0600 0.6100
v 0.3933 0.0701 0.5996
v 0.2100 0.0708 0.6140
v 0.2100 0.0708 0.6140
v 0.3933 0.0701 0.5996
v 0.3933 0.0779 0.5693
v 0.2100 0.0792 0.5820
v 0.2100 0.0792 0.5820
v 0.3933 0.0779 0.5693
v 0.3933 0.0824 0.5221
v 0.2100 0.0840 0.5323
v 0.2100 0.0840 0.5323
v 0.3933 0.0824 0.5221
v 0.3933 0.0832 0.4626
v 0.2100 0.0848 0.4695
v 0.2100 0.0848 0.4695
v 0.3933 0.0832 0.4626
v 0.3933 0.0806 0.3967
v 0.2100 0.0820 0.4000
v 0.2100 0.0820 0.4000
v 0.3933 0.0806 0.3967
v 0.3933 0.0758 0.3307
v 0.2100 0.0770 0.3305
v 0.2100 0.0770 0.3305
v 0.3933 0.0758 0.3307
v 0.3933 0.0703 0.2713
v 0.2100 0.0710 0.2677
v 0.2100 0.0710 0.2677
v 0.3933 0.0703 0.2713
v 0.3933 0.0651 0.2241
v 0.2100 0.0654 0.2180
v 0.2100 0.0654 0.2180
v 0.3933 0.0651 0.2241
v 0.3933 0.0614 0.1938
v 0.2100 0.0615 0.1860
v 0.2100 0.0615 0.1860
v 0.3933 0.0614 0.1938
v 0.3933 0.0600 0.1833
v 0.2100 0.0600 0.1750
v 0.3933 0.0600 0.6100
v 0.5767 0.0600 0.5950
v 0.5767 0.0694 0.5851
v 0.3933 0.0701 0.5996
v 0.3933 0.0701 0.5996
v 0.5767 0.0694 0.5851
v 0.5767 0.0766 0.5565
v 0.3933 0.0779 0.5693
v 0.3933 0.0779 0.5693
v 0.5767 0.0766 0.5565
v 0.5767 0.0808 0.5119
v 0.3933 0.0824 0.5221
v 0.3933 0.0824 0.5221
v 0.5767 0.0808 0.5119
v 0.5767 0.0815 0.4557
v 0.3933 0.0832 0.4626
v 0.3933 0.0832 0.4626
v 0.5767 0.0815 0.4557
v 0.5767 0.0791 0.3933
v 0.3933 0.0806 0.3967
v 0.3933 0.0806 0.3967
v 0.5767 0.0791 0.3933
v 0.5767 0.0747 0.3310
v 0.3933 0.0758 0.3307
v 0.3933 0.0758 0.3307
v 0.5767 0.0747 0.3310
v 0.5767 0.0695 0.2748
v 0.3933 0.0703 0.2713
v 0.3933 0.0703 0.2713
v 0.5767 0.0695 0.2748
v 0.5767 0.0647 0.2302
v 0.3933 0.0651 0.2241
v 0.3933 0.0651 0.2241
v 0.5767 0.0647 0.2302
v 0.5767 0.0613 0.2015
v 0.3933 0.0614 0.1938
v 0.3933 0.0614 0.1938
v 0.5767 0.0613 0.2015
v 0.5767 0.0600 0.1917
v 0.3933 0.0600 0.1833
v 0.5767 0.0600 0.5950
v 0.7600 0.0600 0.5800
v 0.7600 0.0686 0.5707
v 0.5767 0.0694 0.5851
v 0.5767 0.0694 0.5851
v 0.7600 0.0686 0.5707
v 0.7600 0.0753 0.5437
v 0.5767 0.0766 0.5565
v 0.5767 0.0766 0.5565
v 0.7600 0.0753 0.5437
v 0.7600 0.0792 0.5017
v 0.5767 0.0808 0.5119
v 0.5767 0.0808 0.5119
v 0.7600 0.0792 0.5017
v 0.7600 0.0799 0.4487
v 0.5767 0.0815 0.4557
v 0.5767 0.0815 0.4557
v 0.7600 0.0799 0.4487
v 0.7600 0.0776 0.3900
v 0.5767 0.0791 0.3933
v 0.5767 0.0791 0.3933
v 0.7600 0.0776 0.3900
v 0.7600 0.0736 0.3313
v 0.5767 0.0747 0.3310
v 0.5767 0.0747 0.3310
v 0.7600 0.0736 0.3313
v 0.7600 0.0688 0.2783
v 0.5767 0.0695 0.2748
v 0.5767 0.0695 0.2748
v 0.7600 0.0688 0.2783
v 0.7600 0.0644 0.2363
v 0.5767 0.0647 0.2302
v 0.5767 0.0647 0.2302
v 0.7600 0.0644 0.2363
v 0.7600 0.0612 0.2093
v 0.5767 0.0613 0.2015
v 0.5767 0.0613 0.2015
v 0.7600 0.0612 0.2093
v 0.7600 0.0600 0.2000
v 0.5767 0.0600 0.1917
v 0.7600 0.0600 0.5800
v 0.9433 0.0600 0.5650
v 0.9433 0.0679 0.5563
v 0.7600 0.0686 0.5707
v 0.7600 0.0686 0.5707
v 0.9433 0.0679 0.5563
v 0.9433 0.0741 0.5309
v 0.7600 0.0753 0.5437
v 0.7600 0.0753 0.5437
v 0.9433 0.0741 0.5309
v 0.9433 0.0776 0.4915
v 0.7600 0.0792 0.5017
v 0.7600 0.0792 0.5017
v 0.9433 0.0776 0.4915
v 0.9433 0.0782 0.4418
v 0.7600 0.0799 0.4487
v 0.7600 0.0799 0.4487
v 0.9433 0.0782 0.4418
v 0.9433 0.0762 0.3867
v 0.7600 0.0776 0.3900
v 0.7600 0.0776 0.3900
v 0.9433 0.0762 0.3867
v 0.9433 0.0724 0.3316
v 0.7600 0.0736 0.3313
v 0.7600 0.0736 0.3313
v 0.9433 0.0724 0.3316
v 0.9433 0.0681 0.2818
v 0.7600 0.0688 0.2783
v 0.7600 0.0688 0.2783
v 0.9433 0.0681 0.2818
v 0.9433 0.0640 0.2424
v 0.7600 0.0644 0.2363
v 0.7600 0.0644 0.2363
v 0.9433 0.0640 0.2424
v 0.9433 0.0611 0.2171
v 0.7600 0.0612 0.2093
v 0.7600 0.0612 0.2093
v 0.9433 0.0611 0.2171
v 0.9433 0.0600 0.2083
v 0.7600 0.0600 0.2000
v 0.9433 0.0600 0.5650
v 1.1267 0.0600 0.5500
v 1.1267 0.0672 0.5418
v 0.9433 0.0679 0.5563
v 0.9433 0.0679 0.5563
v 1.1267 0.0672 0.5418
v 1.1267 0.0728 0.5182
v 0.9433 0.0741 0.5309
v 0.9433 0.0741 0.5309
v 1.1267 0.0728 0.5182
v 1.1267 0.0760 0.4813
v 0.9433 0.0776 0.4915
v 0.9433 0.0776 0.4915
v 1.1267 0.0760 0.4813
v 1.1267 0.0765 0.4348
v 0.9433 0.0782 0.4418
v 0.9433 0.0782 0.4418
v 1.1267 0.0765 0.4348
v 1.1267 0.0747 0.3833
v 0.9433 0.0762 0.3867
v 0.9433 0.0762 0.3867
v 1.1267 0.0747 0.3833
v 1.1267 0.0713 0.3318
v 0.9433 0.0724 0.3316
v 0.9433 0.0724 0.3316
v 1.1267 0.0713 0.3318
v 1.1267 0.0673 0.2854
v 0.9433 0.0681 0.2818
v 0.9433 0.0681 0.2818
v 1.1267 0.0673 0.2854
v 1.1267 0.0636 0.2485
v 0.9433 0.0640 0.2424
v 0.9433 0.0640 0.2424
v 1.1267 0.0636 0.2485
v 1.1267 0.0610 0.2248
v 0.9433 0.0611 0.2171
v 0.9433 0.0611 0.2171
v 1.1267 0.0610 0.2248
v 1.1267 0.0600 0.2167
v 0.9433 0.0600 0.2083
v 1.1267 0.0600 0.5500
v 1.3100 0.0600 0.5350
v 1.3100 0.0665 0.5274
v 1.1267 0.0672 0.5418
v 1.1267 0.0672 0.5418
v 1.3100 0.0665 0.5274
v 1.3100 0.0715 0.5054
v 1.1267 0.0728 0.5182
v 1.1267 0.0728 0.5182
v 1.3100 0.0715 0.5054
v 1.3100 0.0744 0.4711
v 1.1267 0.0760 0.4813
v 1.1267 0.0760 0.4813
v 1.3100 0.0744 0.4711
v 1.3100 0.0749 0.4279
v 1.1267 0.0765 0.4348
v 1.1267 0.0765 0.4348
v 1.3100 0.0749 0.4279
v 1.3100 0.0732 0.3800
v 1.1267 0.0747 0.3833
v 1.1267 0.0747 0.3833
v 1.3100 0.0732 0.3800
v 1.3100 0.0702 0.3321
v 1.1267 0.0713 0.3318
v 1.1267 0.0713 0.3318
v 1.3100 0.0702 0.3321
v 1.3100 0.0666 0.2889
v 1.1267 0.0673 0.2854
v 1.1267 0.0673 0.2854
v 1.3100 0.0666 0.2889
v 1.3100 0.0633 0.2546
v 1.1267 0.0636 0.2485
v 1.1267 0.0636 0.2485
v 1.3100 0.0633 0.2546
v 1.3100 0.0609 0.2326
v 1.1267 0.0610 0.2248
v 1.1267 0.0610 0.2248
v 1.3100 0.0609 0.2326
v 1.3100 0.0600 0.2250
v 1.1267 0.0600 0.2167
v 0.2100 0.0492 0.6140
v 0.3933 0.0499 0.5996
v 0.3933 0.0600 0.6100
v 0.2100 0.0600 0.6250
v 0.2100 0.0408 0.5820
v 0.3933 0.0421 0.5693
v 0.3933 0.0499 0.5996
v 0.2100 0.0492 0.6140
v 0.2100 0.0360 0.5323
v 0.3933 0.0376 0.5221
v 0.3933 0.0421 0.5693
v 0.2100 0.0408 0.5820
v 0.2100 0.0352 0.4695
v 0.3933 0.0368 0.4626
v 0.3933 0.0376 0.5221
v 0.2100 0.0360 0.5323
v 0.2100 0.0380 0.4000
v 0.3933 0.0394 0.3967
v 0.3933 0.0368 0.4626
v 0.2100 0.0352 0.4695
v 0.2100 0.0430 0.3305
v 0.3933 0.0442 0.3307
v 0.3933 0.0394 0.3967
v 0.2100 0.0380 0.4000
v 0.2100 0.0490 0.2677
v 0.3933 0.0497 0.2713
v 0.3933 0.0442 0.3307
v 0.2100 0.0430 0.3305
v 0.2100 0.0546 0.2180
v 0.3933 0.0549 0.2241
v 0.3933 0.0497 0.2713
v 0.2100 0.0490 0.2677
v 0.2100 0.0585 0.1860
v 0.3933 0.0586 0.1938
v 0.3933 0.0549 0.2241
v 0.2100 0.0546 0.2180
v 0.2100 0.0600 0.1750
v 0.3933 0.0600 0.1833
v 0.3933 0.0586 0.1938
v 0.2100 0.0585 0.1860
v 0.3933 0.0499 0.5996
v 0.5767 0.0506 0.5851
v 0.5767 0.0600 0.5950
v 0.3933 0.0600 0.6100
v 0.3933 0.0421 0.5693
v 0.5767 0.0434 0.5565
v 0.5767 0.0506 0.5851
v 0.3933 0.0499 0.5996
v 0.3933 0.0376 0.5221
v 0.5767 0.0392 0.5119
v 0.5767 0.0434 0.5565
v 0.3933 0.0421 0.5693
v 0.3933 0.0368 0.4626
v 0.5767 0.0385 0.4557
v 0.5767 0.0392 0.5119
v 0.3933 0.0376 0.5221
v 0.3933 0.0394 0.3967
v 0.5767 0.0409 0.3933
v 0.5767 0.0385 0.4557
v 0.3933 0.0368 0.4626
v 0.3933 0.0442 0.3307
v 0.5767 0.0453 0.3310
v 0.5767 0.0409 0.3933
v 0.3933 0.0394 0.3967
v 0.3933 0.0497 0.2713
v 0.5767 0.0505 0.2748
v 0.5767 0.0453 0.3310
v 0.3933 0.0442 0.3307
v 0.3933 0.0549 0.2241
v 0.5767 0.0553 0.2302
v 0.5767 0.0505 0.2748
v 0.3933 0.0497 0.2713
v 0.3933 0.0586 0.1938
v 0.5767 0.0587 0.2015
v 0.5767 0.0553 0.2302
v 0.3933 0.0549 0.2241
v 0.3933 0.0600 0.1833
v 0.5767 0.0600 0.1917
v 0.5767 0.0587 0.2015
v 0.3933 0.0586 0.1938
v 0.5767 0.0506 0.5851
v 0.7600 0.0514 0.5707
v 0.7600 0.0600 0.5800
v 0.5767 0.0600 0.5950
v 0.5767 0.0434 0.5565
v 0.7600 0.0447 0.5437
v 0.7600 0.0514 0.5707
v 0.5767 0.0506 0.5851
v 0.5767 0.0392 0.5119
v 0.7600 0.0408 0.5017
v 0.7600 0.0447 0.5437
v 0.5767 0.0434 0.5565
v 0.5767 0.0385 0.4557
v 0.7600 0.0401 0.4487
v 0.7600 0.0408 0.5017
v 0.5767 0.0392 0.5119
v 0.5767 0.0409 0.3933
v 0.7600 0.0424 0.3900
v 0.7600 0.0401 0.4487
v 0.5767 0.0385 0.4557
v 0.5767 0.0453 0.3310
v 0.7600 0.0464 0.3313
v 0.7600 0.0424 0.3900
v 0.5767 0.0409 0.3933
v 0.5767 0.0505 0.2748
v 0.7600 0.0512 0.2783
v 0.7600 0.0464 0.3313
v 0.5767 0.0453 0.3310
v 0.5767 0.0553 0.2302
v 0.7600 0.0556 0.2363
v 0.7600 0.0512 0.2783
v 0.5767 0.0505 0.2748
v 0.5767 0.0587 0.2015
v 0.7600 0.0588 0.2093
v 0.7600 0.0556 0.2363
v 0.5767 0.0553 0.2302
v 0.5767 0.0600 0.1917
v 0.7600 0.0600 0.2000
v 0.7600 0.0588 0.2093
v 0.5767 0.0587 0.2015
v 0.7600 0.0514 0.5707
v 0.9433 0.0521 0.5563
v 0.9433 0.0600 0.5650
v 0.7600 0.0600 0.5800
v 0.7600 0.0447 0.5437
v 0.9433 0.0459 0.5309
v 0.9433 0.0521 0.5563
v 0.7600 0.0514 0.5707
v 0.7600 0.0408 0.5017
v 0.9433 0.0424 0.4915
v 0.9433 0.0459 0.5309
v 0.7600 0.0447 0.5437
v 0.7600 0.0401 0.4487
v 0.9433 0.0418 0.4418
v 0.9433 0.0424 0.4915
v 0.7600 0.0408 0.5017
v 0.7600 0.0424 0.3900
v 0.9433 0.0438 0.3867
v 0.9433 0.0418 0.4418
v 0.7600 0.0401 0.4487
v 0.7600 0.0464 0.3313
v 0.9433 0.0476 0.3316
v 0.9433 0.0438 0.3867
v 0.7600 0.0424 0.3900
v 0.7600 0.0512 0.2783
v 0.9433 0.0519 0.2818
v 0.9433 0.0476 0.3316
v 0.7600 0.0464 0.3313
v 0.7600 0.0556 0.2363
v 0.9433 0.0560 0.2424
v 0.9433 0.0519 0.2818
v 0.7600 0.0512 0.2783
v 0.7600 0.0588 0.2093
v 0.9433 0.0589 0.2171
v 0.9433 0.0560 0.2424
v 0.7600 0.0556 0.2363
v 0.7600 0.0600 0.2000
v 0.9433 0.0600 0.2083
v 0.9433 0.0589 0.2171
v 0.7600 0.0588 0.2093
v 0.9433 0.0521 0.5563
v 1.1267 0.0528 0.5418
v 1.1267 0.0600 0.5500
v 0.9433 0.0600 0.5650
v 0.9433 0.0459 0.5309
v 1.1267 0.0472 0.5182
v 1.1267 0.0528 0.5418
v 0.9433 0.0521 0.5563
v 0.9433 0.0424 0.4915
v 1.1267 0.0440 0.4813
v 1.1267 0.0472 0.5182
v 0.9433 0.0459 0.5309
v 0.9433 0.0418 0.4418
v 1.1267 0.0435 0.4348
v 1.1267 0.0440 0.4813
v 0.9433 0.0424 0.4915
v 0.9433 0.0438 0.3867
v 1.1267 0.0453 0.3833
v 1.1267 0.0435 0.4348
v 0.9433 0.0418 0.4418
v 0.9433 0.0476 0.3316
v 1.1267 0.0487 0.3318
v 1.1267 0.0453 0.3833
v 0.9433 0.0438 0.3867
v 0.9433 0.0519 0.2818
v 1.1267 0.0527 0.2854
v 1.1267 0.0487 0.3318
v 0.9433 0.0476 0.3316
v 0.9433 0.0560 0.2424
v 1.1267 0.0564 0.2485
v 1.1267 0.0527 0.2854
v 0.9433 0.0519 0.2818
v 0.9433 0.0589 0.2171
v 1.1267 0.0590 0.2248
v 1.1267 0.0564 0.2485
v 0.9433 0.0560 0.2424
v 0.9433 0.0600 0.2083
v 1.1267 0.0600 0.2167
v 1.1267 0.0590 0.2248
v 0.9433 0.0589 0.2171
v 1.1267 0.0528 0.5418
v 1.3100 0.0535 0.5274
v 1.3100 0.0600 0.5350
v 1.1267 0.0600 0.5500
v 1.1267 0.0472 0.5182
v 1.3100 0.0485 0.5054
v 1.3100 0.0535 0.5274
v 1.1267 0.0528 0.5418
v 1.1267 0.0440 0.4813
v 1.3100 0.0456 0.4711
v 1.3100 0.0485 0.5054
v 1.1267 0.0472 0.5182
v 1.1267 0.0435 0.4348
v 1.3100 0.0451 0.4279
v 1.3100 0.0456 0.4711
v 1.1267 0.0440 0.4813
v 1.1267 0.0453 0.3833
v 1.3100 0.0468 0.3800
v 1.3100 0.0451 0.4279
v 1.1267 0.0435 0.4348
v 1.1267 0.0487 0.3318
v 1.3100 0.0498 0.3321
v 1.3100 0.0468 0.3800
v 1.1267 0.0453 0.3833
v 1.1267 0.0527 0.2854
v 1.3100 0.0534 0.2889
v 1.3100 0.0498 0.3321
v 1.1267 0.0487 0.3318
v 1.1267 0.0564 0.2485
v 1.3100 0.0567 0.2546
v 1.3100 0.0534 0.2889
v 1.1267 0.0527 0.2854
v 1.1267 0.0590 0.2248
v 1.3100 0.0591 0.2326
v 1.3100 0.0567 0.2546
v 1.1267 0.0564 0.2485
v 1.1267 0.0600 0.2167
v 1.3100 0.0600 0.2250
v 1.3100 0.0591 0.2326
v 1.1267 0.0590 0.2248
v 1.3100 0.0600 0.5350
v 1.3100 0.0600 0.5350
v 1.3100 0.0535 0.5274
v 1.3100 0.0665 0.5274
v 1.3100 0.0665 0.5274
v 1.3100 0.0535 0.5274
v 1.3100 0.0485 0.5054
v 1.3100 0.0715 0.5054
v 1.3100 0.0715 0.5054
v 1.3100 0.0485 0.5054
v 1.3100 0.0456 0.4711
v 1.3100 0.0744 0.4711
v 1.3100 0.0744 0.4711
v 1.3100 0.0456 0.4711
v 1.3100 0.0451 0.4279
v 1.3100 0.0749 0.4279
v 1.3100 0.0749 0.4279
v 1.3100 0.0451 0.4279
v 1.3100 0.0468 0.3800
v 1.3100 0.0732 0.3800
v 1.3100 0.0732 0.3800
v 1.3100 0.0468 0.3800
v 1.3100 0.0498 0.3321
v 1.3100 0.0702 0.3321
v 1.3100 0.0702 0.3321
v 1.3100 0.0498 0.3321
v 1.3100 0.0534 0.2889
v 1.3100 0.0666 0.2889
v 1.3100 0.0666 0.2889
v 1.3100 0.0534 0.2889
v 1.3100 0.0567 0.2546
v 1.3100 0.0633 0.2546
v 1.3100 0.0633 0.2546
v 1.3100 0.0567 0.2546
v 1.3100 0.0591 0.2326
v 1.3100 0.0609 0.2326
v 1.3100 0.0609 0.2326
v 1.3100 0.0591 0.2326
v 1.3100 0.0600 0.2250
v 1.3100 0.0600 0.2250
vt 0.00098 0.52409
vt 0.08398 0.52409
vt 0.08398 0.52611
vt 0.00098 0.52611
vt 0.00098 0.52611
vt 0.08398 0.52611
vt 0.08398 0.53198
vt 0.00098 0.53198
vt 0.00098 0.53198
vt 0.08398 0.53198
vt 0.08398 0.54113
vt 0.00098 0.54113
vt 0.00098 0.54113
vt 0.08398 0.54113
vt 0.08398 0.55265
vt 0.00098 0.55265
vt 0.00098 0.55265
vt 0.08398 0.55265
vt 0.08398 0.56543
vt 0.00098 0.56543
vt 0.00098 0.56543
vt 0.08398 0.56543
vt 0.08398 0.57820
vt 0.00098 0.57820
vt 0.00098 0.57820
vt 0.08398 0.57820
vt 0.08398 0.58973
vt 0.00098 0.58973
vt 0.00098 0.58973
vt 0.08398 0.58973
vt 0.08398 0.59888
vt 0.00098 0.59888
vt 0.00098 0.59888
vt 0.08398 0.59888
vt 0.08398 0.60475
vt 0.00098 0.60475
vt 0.00098 0.60475
vt 0.08398 0.60475
vt 0.08398 0.60677
vt 0.00098 0.60677
vt 0.08398 0.52409
vt 0.16699 0.52409
vt 0.16699 0.52611
vt 0.08398 0.52611
vt 0.08398 0.52611
vt 0.16699 0.52611
vt 0.16699 0.53198
vt 0.08398 0.53198
vt 0.08398 0.53198
vt 0.16699 0.53198
vt 0.16699 0.54113
vt 0.08398 0.54113
vt 0.08398 0.54113
vt 0.16699 0.54113
vt 0.16699 0.55265
vt 0.08398 0.55265
vt 0.08398 0.55265
vt 0.16699 0.55265
vt 0.16699 0.56543
vt 0.08398 0.56543
vt 0.08398 0.56543
vt 0.16699 0.56543
vt 0.16699 0.57820
vt 0.08398 0.57820
vt 0.08398 0.57820
vt 0.16699 0.57820
vt 0.16699 0.58973
vt 0.08398 0.58973
vt 0.08398 0.58973
vt 0.16699 0.58973
vt 0.16699 0.59888
vt 0.08398 0.59888
vt 0.08398 0.59888
vt 0.16699 0.59888
vt 0.16699 0.60475
vt 0.08398 0.60475
vt 0.08398 0.60475
vt 0.16699 0.60475
vt 0.16699 0.60677
vt 0.08398 0.60677
vt 0.16699 0.52409
vt 0.25000 0.52409
vt 0.25000 0.52611
vt 0.16699 0.52611
vt 0.16699 0.52611
vt 0.25000 0.52611
vt 0.25000 0.53198
vt 0.16699 0.53198
vt 0.16699 0.53198
vt 0.25000 0.53198
vt 0.25000 0.54113
vt 0.16699 0.54113
vt 0.16699 0.54113
vt 0.25000 0.54113
vt 0.25000 0.55265
vt 0.16699 0.55265
vt 0.16699 0.55265
vt 0.25000 0.55265
vt 0.25000 0.56543
vt 0.16699 0.56543
vt 0.16699 0.56543
vt 0.25000 0.56543
vt 0.25000 0.57820
vt 0.16699 0.57820
vt 0.16699 0.57820
vt 0.25000 0.57820
vt 0.25000 0.58973
vt 0.16699 0.58973
vt 0.16699 0.58973
vt 0.25000 0.58973
vt 0.25000 0.59888
vt 0.16699 0.59888
vt 0.16699 0.59888
vt 0.25000 0.59888
vt 0.25000 0.60475
vt 0.16699 0.60475
vt 0.16699 0.60475
vt 0.25000 0.60475
vt 0.25000 0.60677
vt 0.16699 0.60677
vt 0.25000 0.52409
vt 0.33301 0.52409
vt 0.33301 0.52611
vt 0.25000 0.52611
vt 0.25000 0.52611
vt 0.33301 0.52611
vt 0.33301 0.53198
vt 0.25000 0.53198
vt 0.25000 0.53198
vt 0.33301 0.53198
vt 0.33301 0.54113
vt 0.25000 0.54113
vt 0.25000 0.54113
vt 0.33301 0.54113
vt 0.33301 0.55265
vt 0.25000 0.55265
vt 0.25000 0.55265
vt 0.33301 0.55265
vt 0.33301 0.56543
vt 0.25000 0.56543
vt 0.25000 0.56543
vt 0.33301 0.56543
vt 0.33301 0.57820
vt 0.25000 0.57820
vt 0.25000 0.57820
vt 0.33301 0.57820
vt 0.33301 0.58973
vt 0.25000 0.58973
vt 0.25000 0.58973
vt 0.33301 0.58973
vt 0.33301 0.59888
vt 0.25000 0.59888
vt 0.25000 0.59888
vt 0.33301 0.59888
vt 0.33301 0.60475
vt 0.25000 0.60475
vt 0.25000 0.60475
vt 0.33301 0.60475
vt 0.33301 0.60677
vt 0.25000 0.60677
vt 0.33301 0.52409
vt 0.41602 0.52409
vt 0.41602 0.52611
vt 0.33301 0.52611
vt 0.33301 0.52611
vt 0.41602 0.52611
vt 0.41602 0.53198
vt 0.33301 0.53198
vt 0.33301 0.53198
vt 0.41602 0.53198
vt 0.41602 0.54113
vt 0.33301 0.54113
vt 0.33301 0.54113
vt 0.41602 0.54113
vt 0.41602 0.55265
vt 0.33301 0.55265
vt 0.33301 0.55265
vt 0.41602 0.55265
vt 0.41602 0.56543
vt 0.33301 0.56543
vt 0.33301 0.56543
vt 0.41602 0.56543
vt 0.41602 0.57820
vt 0.33301 0.57820
vt 0.33301 0.57820
vt 0.41602 0.57820
vt 0.41602 0.58973
vt 0.33301 0.58973
vt 0.33301 0.58973
vt 0.41602 0.58973
vt 0.41602 0.59888
vt 0.33301 0.59888
vt 0.33301 0.59888
vt 0.41602 0.59888
vt 0.41602 0.60475
vt 0.33301 0.60475
vt 0.33301 0.60475
vt 0.41602 0.60475
vt 0.41602 0.60677
vt 0.33301 0.60677
vt 0.41602 0.52409
vt 0.49902 0.52409
vt 0.49902 0.52611
vt 0.41602 0.52611
vt 0.41602 0.52611
vt 0.49902 0.52611
vt 0.49902 0.53198
vt 0.41602 0.53198
vt 0.41602 0.53198
vt 0.49902 0.53198
vt 0.49902 0.54113
vt 0.41602 0.54113
vt 0.41602 0.54113
vt 0.49902 0.54113
vt 0.49902 0.55265
vt 0.41602 0.55265
vt 0.41602 0.55265
vt 0.49902 0.55265
vt 0.49902 0.56543
vt 0.41602 0.56543
vt 0.41602 0.56543
vt 0.49902 0.56543
vt 0.49902 0.57820
vt 0.41602 0.57820
vt 0.41602 0.57820
vt 0.49902 0.57820
vt 0.49902 0.58973
vt 0.41602 0.58973
vt 0.41602 0.58973
vt 0.49902 0.58973
vt 0.49902 0.59888
vt 0.41602 0.59888
vt 0.41602 0.59888
vt 0.49902 0.59888
vt 0.49902 0.60475
vt 0.41602 0.60475
vt 0.41602 0.60475
vt 0.49902 0.60475
vt 0.49902 0.60677
vt 0.41602 0.60677
vt 0.00098 0.60879
vt 0.08398 0.60879
vt 0.08398 0.60677
vt 0.00098 0.60677
vt 0.00098 0.61467
vt 0.08398 0.61467
vt 0.08398 0.60879
vt 0.00098 0.60879
vt 0.00098 0.62381
vt 0.08398 0.62381
vt 0.08398 0.61467
vt 0.00098 0.61467
vt 0.00098 0.63534
vt 0.08398 0.63534
vt 0.08398 0.62381
vt 0.00098 0.62381
vt 0.00098 0.64811
vt 0.08398 0.64811
vt 0.08398 0.63534
vt 0.00098 0.63534
vt 0.00098 0.66089
vt 0.08398 0.66089
vt 0.08398 0.64811
vt 0.00098 0.64811
vt 0.00098 0.67241
vt 0.08398 0.67241
vt 0.08398 0.66089
vt 0.00098 0.66089
vt 0.00098 0.68156
vt 0.08398 0.68156
vt 0.08398 0.67241
vt 0.00098 0.67241
vt 0.00098 0.68743
vt 0.08398 0.68743
vt 0.08398 0.68156
vt 0.00098 0.68156
vt 0.00098 0.68945
vt 0.08398 0.68945
vt 0.08398 0.68743
vt 0.00098 0.68743
vt 0.08398 0.60879
vt 0.16699 0.60879
vt 0.16699 0.60677
vt 0.08398 0.60677
vt 0.08398 0.61467
vt 0.16699 0.61467
vt 0.16699 0.60879
vt 0.08398 0.60879
vt 0.08398 0.62381
vt 0.16699 0.62381
vt 0.16699 0.61467
vt 0.08398 0.61467
vt 0.08398 0.63534
vt 0.16699 0.63534
vt 0.16699 0.62381
vt 0.08398 0.62381
vt 0.08398 0.64811
vt 0.16699 0.64811
vt 0.16699 0.63534
vt 0.08398 0.63534
vt 0.08398 0.66089
vt 0.16699 0.66089
vt 0.16699 0.64811
vt 0.08398 0.64811
vt 0.08398 0.67241
vt 0.16699 0.67241
vt 0.16699 0.66089
vt 0.08398 0.66089
vt 0.08398 0.68156
vt 0.16699 0.68156
vt 0.16699 0.67241
vt 0.08398 0.67241
vt 0.08398 0.68743
vt 0.16699 0.68743
vt 0.16699 0.68156
vt 0.08398 0.68156
vt 0.08398 0.68945
vt 0.16699 0.68945
vt 0.16699 0.68743
vt 0.08398 0.68743
vt 0.16699 0.60879
vt 0.25000 0.60879
vt 0.25000 0.60677
vt 0.16699 0.60677
vt 0.16699 0.61467
vt 0.25000 0.61467
vt 0.25000 0.60879
vt 0.16699 0.60879
vt 0.16699 0.62381
vt 0.25000 0.62381
vt 0.25000 0.61467
vt 0.16699 0.61467
vt 0.16699 0.63534
vt 0.25000 0.63534
vt 0.25000 0.62381
vt 0.16699 0.62381
vt 0.16699 0.64811
vt 0.25000 0.64811
vt 0.25000 0.63534
vt 0.16699 0.63534
vt 0.16699 0.66089
vt 0.25000 0.66089
vt 0.25000 0.64811
vt 0.16699 0.64811
vt 0.16699 0.67241
vt 0.25000 0.67241
vt 0.25000 0.66089
vt 0.16699 0.66089
vt 0.16699 0.68156
vt 0.25000 0.68156
vt 0.25000 0.67241
vt 0.16699 0.67241
vt 0.16699 0.68743
vt 0.25000 0.68743
vt 0.25000 0.68156
vt 0.16699 0.68156
vt 0.16699 0.68945
vt 0.25000 0.68945
vt 0.25000 0.68743
vt 0.16699 0.68743
vt 0.25000 0.60879
vt 0.33301 0.60879
vt 0.33301 0.60677
vt 0.25000 0.60677
vt 0.25000 0.61467
vt 0.33301 0.61467
vt 0.33301 0.60879
vt 0.25000 0.60879
vt 0.25000 0.62381
vt 0.33301 0.62381
vt 0.33301 0.61467
vt 0.25000 0.61467
vt 0.25000 0.63534
vt 0.33301 0.63534
vt 0.33301 0.62381
vt 0.25000 0.62381
vt 0.25000 0.64811
vt 0.33301 0.64811
vt 0.33301 0.63534
vt 0.25000 0.63534
vt 0.25000 0.66089
vt 0.33301 0.66089
vt 0.33301 0.64811
vt 0.25000 0.64811
vt 0.25000 0.67241
vt 0.33301 0.67241
vt 0.33301 0.66089
vt 0.25000 0.66089
vt 0.25000 0.68156
vt 0.33301 0.68156
vt 0.33301 0.67241
vt 0.25000 0.67241
vt 0.25000 0.68743
vt 0.33301 0.68743
vt 0.33301 0.68156
vt 0.25000 0.68156
vt 0.25000 0.68945
vt 0.33301 0.68945
vt 0.33301 0.68743
vt 0.25000 0.68743
vt 0.33301 0.60879
vt 0.41602 0.60879
vt 0.41602 0.60677
vt 0.33301 0.60677
vt 0.33301 0.61467
vt 0.41602 0.61467
vt 0.41602 0.60879
vt 0.33301 0.60879
vt 0.33301 0.62381
vt 0.41602 0.62381
vt 0.41602 0.61467
vt 0.33301 0.61467
vt 0.33301 0.63534
vt 0.41602 0.63534
vt 0.41602 0.62381
vt 0.33301 0.62381
vt 0.33301 0.64811
vt 0.41602 0.64811
vt 0.41602 0.63534
vt 0.33301 0.63534
vt 0.33301 0.66089
vt 0.41602 0.66089
vt 0.41602 0.64811
vt 0.33301 0.64811
vt 0.33301 0.67241
vt 0.41602 0.67241
vt 0.41602 0.66089
vt 0.33301 0.66089
vt 0.33301 0.68156
vt 0.41602 0.68156
vt 0.41602 0.67241
vt 0.33301 0.67241
vt 0.33301 0.68743
vt 0.41602 0.68743
vt 0.41602 0.68156
vt 0.33301 0.68156
vt 0.33301 0.68945
vt 0.41602 0.68945
vt 0.41602 0.68743
vt 0.33301 0.68743
vt 0.41602 0.60879
vt 0.49902 0.60879
vt 0.49902 0.60677
vt 0.41602 0.60677
vt 0.41602 0.61467
vt 0.49902 0.61467
vt 0.49902 0.60879
vt 0.41602 0.60879
vt 0.41602 0.62381
vt 0.49902 0.62381
vt 0.49902 0.61467
vt 0.41602 0.61467
vt 0.41602 0.63534
vt 0.49902 0.63534
vt 0.49902 0.62381
vt 0.41602 0.62381
vt 0.41602 0.64811
vt 0.49902 0.64811
vt 0.49902 0.63534
vt 0.41602 0.63534
vt 0.41602 0.66089
vt 0.49902 0.66089
vt 0.49902 0.64811
vt 0.41602 0.64811
vt 0.41602 0.67241
vt 0.49902 0.67241
vt 0.49902 0.66089
vt 0.41602 0.66089
vt 0.41602 0.68156
vt 0.49902 0.68156
vt 0.49902 0.67241
vt 0.41602 0.67241
vt 0.41602 0.68743
vt 0.49902 0.68743
vt 0.49902 0.68156
vt 0.41602 0.68156
vt 0.41602 0.68945
vt 0.49902 0.68945
vt 0.49902 0.68743
vt 0.41602 0.68743
vt 0.49902 0.52409
vt 0.49902 0.60677
vt 0.49902 0.60879
vt 0.49902 0.52611
vt 0.49902 0.52611
vt 0.49902 0.60879
vt 0.49902 0.61467
vt 0.49902 0.53198
vt 0.49902 0.53198
vt 0.49902 0.61467
vt 0.49902 0.62381
vt 0.49902 0.54113
vt 0.49902 0.54113
vt 0.49902 0.62381
vt 0.49902 0.63534
vt 0.49902 0.55265
vt 0.49902 0.55265
vt 0.49902 0.63534
vt 0.49902 0.64811
vt 0.49902 0.56543
vt 0.49902 0.56543
vt 0.49902 0.64811
vt 0.49902 0.66089
vt 0.49902 0.57820
vt 0.49902 0.57820
vt 0.49902 0.66089
vt 0.49902 0.67241
vt 0.49902 0.58973
vt 0.49902 0.58973
vt 0.49902 0.67241
vt 0.49902 0.68156
vt 0.49902 0.59888
vt 0.49902 0.59888
vt 0.49902 0.68156
vt 0.49902 0.68743
vt 0.49902 0.60475
vt 0.49902 0.60475
vt 0.49902 0.68743
vt 0.49902 0.68945
vt 0.49902 0.60677
vn 0.0572 0.7131 0.6987
vn 0.0567 0.7186 0.6931
vn 0.0352 0.9149 0.4021
vn 0.0356 0.9125 0.4075
vn 0.0356 0.9125 0.4075
vn 0.0352 0.9149 0.4021
vn 0.0179 0.9873 0.1576
vn 0.0180 0.9869 0.1601
vn 0.0180 0.9869 0.1601
vn 0.0179 0.9873 0.1576
vn 0.0115 0.9987 0.0492
vn 0.0115 0.9987 0.0500
vn 0.0115 0.9987 0.0500
vn 0.0115 0.9987 0.0492
vn 0.0085 0.9999 -0.0150
vn 0.0084 0.9998 -0.0153
vn 0.0084 0.9998 -0.0153
vn 0.0085 0.9999 -0.0150
vn 0.0070 0.9984 -0.0556
vn 0.0070 0.9984 -0.0565
vn 0.0070 0.9984 -0.0565
vn 0.0070 0.9984 -0.0556
vn 0.0063 0.9966 -0.0818
vn 0.0063 0.9965 -0.0831
vn 0.0063 0.9965 -0.0831
vn 0.0063 0.9966 -0.0818
vn 0.0059 0.9950 -0.1002
vn 0.0059 0.9948 -0.1017
vn 0.0059 0.9948 -0.1017
vn 0.0059 0.9950 -0.1002
vn 0.0058 0.9934 -0.1142
vn 0.0058 0.9932 -0.1160
vn 0.0058 0.9932 -0.1160
vn 0.0058 0.9934 -0.1142
vn 0.0058 0.9923 -0.1238
vn 0.0058 0.9920 -0.1257
vn 0.0058 0.9920 -0.1257
vn 0.0058 0.9923 -0.1238
vn 0.0059 0.9916 -0.1293
vn 0.0060 0.9913 -0.1313
vn 0.0567 0.7186 0.6931
vn 0.0562 0.7248 0.6866
vn 0.0348 0.9175 0.3961
vn 0.0352 0.9149 0.4021
vn 0.0352 0.9149 0.4021
vn 0.0348 0.9175 0.3961
vn 0.0177 0.9878 0.1549
vn 0.0179 0.9873 0.1576
vn 0.0179 0.9873 0.1576
vn 0.0177 0.9878 0.1549
vn 0.0114 0.9988 0.0483
vn 0.0115 0.9987 0.0492
vn 0.0115 0.9987 0.0492
vn 0.0114 0.9988 0.0483
vn 0.0085 0.9999 -0.0148
vn 0.0085 0.9999 -0.0150
vn 0.0085 0.9999 -0.0150
vn 0.0085 0.9999 -0.0148
vn 0.0070 0.9985 -0.0546
vn 0.0070 0.9984 -0.0556
vn 0.0070 0.9984 -0.0556
vn 0.0070 0.9985 -0.0546
vn 0.0063 0.9967 -0.0803
vn 0.0063 0.9966 -0.0818
vn 0.0063 0.9966 -0.0818
vn 0.0063 0.9967 -0.0803
vn 0.0059 0.9951 -0.0984
vn 0.0059 0.9950 -0.1002
vn 0.0059 0.9950 -0.1002
vn 0.0059 0.9951 -0.0984
vn 0.0057 0.9937 -0.1122
vn 0.0058 0.9934 -0.1142
vn 0.0058 0.9934 -0.1142
vn 0.0057 0.9937 -0.1122
vn 0.0057 0.9926 -0.1216
vn 0.0058 0.9923 -0.1238
vn 0.0058 0.9923 -0.1238
vn 0.0057 0.9926 -0.1216
vn 0.0058 0.9919 -0.1271
vn 0.0059 0.9916 -0.1293
vn 0.0562 0.7248 0.6866
vn 0.0556 0.7318 0.6792
vn 0.0343 0.9204 0.3894
vn 0.0348 0.9175 0.3961
vn 0.0348 0.9175 0.3961
vn 0.0343 0.9204 0.3894
vn 0.0175 0.9882 0.1519
vn 0.0177 0.9878 0.1549
vn 0.0177 0.9878 0.1549
vn 0.0175 0.9882 0.1519
vn 0.0114 0.9988 0.0473
vn 0.0114 0.9988 0.0483
vn 0.0114 0.9988 0.0483
vn 0.0114 0.9988 0.0473
vn 0.0085 0.9999 -0.0145
vn 0.0085 0.9999 -0.0148
vn 0.0085 0.9999 -0.0148
vn 0.0085 0.9999 -0.0145
vn 0.0070 0.9985 -0.0535
vn 0.0070 0.9985 -0.0546
vn 0.0070 0.9985 -0.0546
vn 0.0070 0.9985 -0.0535
vn 0.0063 0.9969 -0.0787
vn 0.0063 0.9967 -0.0803
vn 0.0063 0.9967 -0.0803
vn 0.0063 0.9969 -0.0787
vn 0.0058 0.9953 -0.0964
vn 0.0059 0.9951 -0.0984
vn 0.0059 0.9951 -0.0984
vn 0.0058 0.9953 -0.0964
vn 0.0056 0.9939 -0.1099
vn 0.0057 0.9937 -0.1122
vn 0.0057 0.9937 -0.1122
vn 0.0056 0.9939 -0.1099
vn 0.0056 0.9929 -0.1192
vn 0.0057 0.9926 -0.1216
vn 0.0057 0.9926 -0.1216
vn 0.0056 0.9929 -0.1192
vn 0.0057 0.9922 -0.1245
vn 0.0058 0.9919 -0.1271
vn 0.0556 0.7318 0.6792
vn 0.0549 0.7398 0.6706
vn 0.0337 0.9237 0.3816
vn 0.0343 0.9204 0.3894
vn 0.0343 0.9204 0.3894
vn 0.0337 0.9237 0.3816
vn 0.0172 0.9888 0.1484
vn 0.0175 0.9882 0.1519
vn 0.0175 0.9882 0.1519
vn 0.0172 0.9888 0.1484
vn 0.0113 0.9989 0.0462
vn 0.0114 0.9988 0.0473
vn 0.0114 0.9988 0.0473
vn 0.0113 0.9989 0.0462
vn 0.0085 0.9999 -0.0141
vn 0.0085 0.9999 -0.0145
vn 0.0085 0.9999 -0.0145
vn 0.0085 0.9999 -0.0141
vn 0.0070 0.9986 -0.0522
vn 0.0070 0.9985 -0.0535
vn 0.0070 0.9985 -0.0535
vn 0.0070 0.9986 -0.0522
vn 0.0063 0.9970 -0.0769
vn 0.0063 0.9969 -0.0787
vn 0.0063 0.9969 -0.0787
vn 0.0063 0.9970 -0.0769
vn 0.0058 0.9955 -0.0942
vn 0.0058 0.9953 -0.0964
vn 0.0058 0.9953 -0.0964
vn 0.0058 0.9955 -0.0942
vn 0.0055 0.9942 -0.1074
vn 0.0056 0.9939 -0.1099
vn 0.0056 0.9939 -0.1099
vn 0.0055 0.9942 -0.1074
vn 0.0055 0.9932 -0.1165
vn 0.0056 0.9929 -0.1192
vn 0.0056 0.9929 -0.1192
vn 0.0055 0.9932 -0.1165
vn 0.0055 0.9926 -0.1217
vn 0.0057 0.9922 -0.1245
vn 0.0549 0.7398 0.6706
vn 0.0540 0.7490 0.6604
vn 0.0330 0.9274 0.3727
vn 0.0337 0.9237 0.3816
vn 0.0337 0.9237 0.3816
vn 0.0330 0.9274 0.3727
vn 0.0170 0.9894 0.1444
vn 0.0172 0.9888 0.1484
vn 0.0172 0.9888 0.1484
vn 0.0170 0.9894 0.1444
vn 0.0112 0.9989 0.0450
vn 0.0113 0.9989 0.0462
vn 0.0113 0.9989 0.0462
vn 0.0112 0.9989 0.0450
vn 0.0085 0.9999 -0.0138
vn 0.0085 0.9999 -0.0141
vn 0.0085 0.9999 -0.0141
vn 0.0085 0.9999 -0.0138
vn 0.0071 0.9987 -0.0508
vn 0.0070 0.9986 -0.0522
vn 0.0070 0.9986 -0.0522
vn 0.0071 0.9987 -0.0508
vn 0.0063 0.9972 -0.0748
vn 0.0063 0.9970 -0.0769
vn 0.0063 0.9970 -0.0769
vn 0.0063 0.9972 -0.0748
vn 0.0057 0.9958 -0.0917
vn 0.0058 0.9955 -0.0942
vn 0.0058 0.9955 -0.0942
vn 0.0057 0.9958 -0.0917
vn 0.0054 0.9945 -0.1045
vn 0.0055 0.9942 -0.1074
vn 0.0055 0.9942 -0.1074
vn 0.0054 0.9945 -0.1045
vn 0.0053 0.9935 -0.1133
vn 0.0055 0.9932 -0.1165
vn 0.0055 0.9932 -0.1165
vn 0.0053 0.9935 -0.1133
vn 0.0054 0.9930 -0.1184
vn 0.0055 0.9926 -0.1217
vn 0.0540 0.7490 0.6604
vn 0.0530 0.7596 0.6482
vn 0.0322 0.9315 0.3623
vn 0.0330 0.9274 0.3727
vn 0.0330 0.9274 0.3727
vn 0.0322 0.9315 0.3623
vn 0.0167 0.9900 0.1399
vn 0.0170 0.9894 0.1444
vn 0.0170 0.9894 0.1444
vn 0.0167 0.9900 0.1399
vn 0.0112 0.9990 0.0435
vn 0.0112 0.9989 0.0450
vn 0.0112 0.9989 0.0450
vn 0.0112 0.9990 0.0435
vn 0.0085 0.9999 -0.0133
vn 0.0085 0.9999 -0.0138
vn 0.0085 0.9999 -0.0138
vn 0.0085 0.9999 -0.0133
vn 0.0071 0.9988 -0.0492
vn 0.0071 0.9987 -0.0508
vn 0.0071 0.9987 -0.0508
vn 0.0071 0.9988 -0.0492
vn 0.0063 0.9974 -0.0724
vn 0.0063 0.9972 -0.0748
vn 0.0063 0.9972 -0.0748
vn 0.0063 0.9974 -0.0724
vn 0.0057 0.9960 -0.0887
vn 0.0057 0.9958 -0.0917
vn 0.0057 0.9958 -0.0917
vn 0.0057 0.9960 -0.0887
vn 0.0053 0.9949 -0.1012
vn 0.0054 0.9945 -0.1045
vn 0.0054 0.9945 -0.1045
vn 0.0053 0.9949 -0.1012
vn 0.0052 0.9939 -0.1097
vn 0.0053 0.9935 -0.1133
vn 0.0053 0.9935 -0.1133
vn 0.0052 0.9939 -0.1097
vn 0.0052 0.9934 -0.1146
vn 0.0054 0.9930 -0.1184
vn 0.0356 -0.9125 0.4075
vn 0.0352 -0.9149 0.4021
vn 0.0567 -0.7186 0.6931
vn 0.0572 -0.7131 0.6987
vn 0.0180 -0.9869 0.1601
vn 0.0179 -0.9873 0.1576
vn 0.0352 -0.9149 0.4021
vn 0.0356 -0.9125 0.4075
vn 0.0115 -0.9987 0.0500
vn 0.0115 -0.9987 0.0492
vn 0.0179 -0.9873 0.1576
vn 0.0180 -0.9869 0.1601
vn 0.0084 -0.9998 -0.0153
vn 0.0085 -0.9999 -0.0150
vn 0.0115 -0.9987 0.0492
vn 0.0115 -0.9987 0.0500
vn 0.0070 -0.9984 -0.0565
vn 0.0070 -0.9984 -0.0556
vn 0.0085 -0.9999 -0.0150
vn 0.0084 -0.9998 -0.0153
vn 0.0063 -0.9965 -0.0831
vn 0.0063 -0.9966 -0.0818
vn 0.0070 -0.9984 -0.0556
vn 0.0070 -0.9984 -0.0565
vn 0.0059 -0.9948 -0.1017
vn 0.0059 -0.9950 -0.1002
vn 0.0063 -0.9966 -0.0818
vn 0.0063 -0.9965 -0.0831
vn 0.0058 -0.9932 -0.1160
vn 0.0058 -0.9934 -0.1142
vn 0.0059 -0.9950 -0.1002
vn 0.0059 -0.9948 -0.1017
vn 0.0058 -0.9920 -0.1257
vn 0.0058 -0.9923 -0.1238
vn 0.0058 -0.9934 -0.1142
vn 0.0058 -0.9932 -0.1160
vn 0.0060 -0.9913 -0.1313
vn 0.0059 -0.9916 -0.1293
vn 0.0058 -0.9923 -0.1238
vn 0.0058 -0.9920 -0.1257
vn 0.0352 -0.9149 0.4021
vn 0.0348 -0.9175 0.3961
vn 0.0562 -0.7248 0.6866
vn 0.0567 -0.7186 0.6931
vn 0.0179 -0.9873 0.1576
vn 0.0177 -0.9878 0.1549
vn 0.0348 -0.9175 0.3961
vn 0.0352 -0.9149 0.4021
vn 0.0115 -0.9987 0.0492
vn 0.0114 -0.9988 0.0483
vn 0.0177 -0.9878 0.1549
vn 0.0179 -0.9873 0.1576
vn 0.0085 -0.9999 -0.0150
vn 0.0085 -0.9999 -0.0148
vn 0.0114 -0.9988 0.0483
vn 0.0115 -0.9987 0.0492
vn 0.0070 -0.9984 -0.0556
vn 0.0070 -0.9985 -0.0546
vn 0.0085 -0.9999 -0.0148
vn 0.0085 -0.9999 -0.0150
vn 0.0063 -0.9966 -0.0818
vn 0.0063 -0.9967 -0.0803
vn 0.0070 -0.9985 -0.0546
vn 0.0070 -0.9984 -0.0556
vn 0.0059 -0.9950 -0.1002
vn 0.0059 -0.9951 -0.0984
vn 0.0063 -0.9967 -0.0803
vn 0.0063 -0.9966 -0.0818
vn 0.0058 -0.9934 -0.1142
vn 0.0057 -0.9937 -0.1122
vn 0.0059 -0.9951 -0.0984
vn 0.0059 -0.9950 -0.1002
vn 0.0058 -0.9923 -0.1238
vn 0.0057 -0.9926 -0.1216
vn 0.0057 -0.9937 -0.1122
vn 0.0058 -0.9934 -0.1142
vn 0.0059 -0.9916 -0.1293
vn 0.0058 -0.9919 -0.1271
vn 0.0057 -0.9926 -0.1216
vn 0.0058 -0.9923 -0.1238
vn 0.0348 -0.9175 0.3961
vn 0.0343 -0.9204 0.3894
vn 0.0556 -0.7318 0.6792
vn 0.0562 -0.7248 0.6866
vn 0.0177 -0.9878 0.1549
vn 0.0175 -0.9882 0.1519
vn 0.0343 -0.9204 0.3894
vn 0.0348 -0.9175 0.3961
vn 0.0114 -0.9988 0.0483
vn 0.0114 -0.9988 0.0473
vn 0.0175 -0.9882 0.1519
vn 0.0177 -0.9878 0.1549
vn 0.0085 -0.9999 -0.0148
vn 0.0085 -0.9999 -0.0145
vn 0.0114 -0.9988 0.0473
vn 0.0114 -0.9988 0.0483
vn 0.0070 -0.9985 -0.0546
vn 0.0070 -0.9985 -0.0535
vn 0.0085 -0.9999 -0.0145
vn 0.0085 -0.9999 -0.0148
vn 0.0063 -0.9967 -0.0803
vn 0.0063 -0.9969 -0.0787
vn 0.0070 -0.9985 -0.0535
vn 0.0070 -0.9985 -0.0546
vn 0.0059 -0.9951 -0.0984
vn 0.0058 -0.9953 -0.0964
vn 0.0063 -0.9969 -0.0787
vn 0.0063 -0.9967 -0.0803
vn 0.0057 -0.9937 -0.1122
vn 0.0056 -0.9939 -0.1099
vn 0.0058 -0.9953 -0.0964
vn 0.0059 -0.9951 -0.0984
vn 0.0057 -0.9926 -0.1216
vn 0.0056 -0.9929 -0.1192
vn 0.0056 -0.9939 -0.1099
vn 0.0057 -0.9937 -0.1122
vn 0.0058 -0.9919 -0.1271
vn 0.0057 -0.9922 -0.1245
vn 0.0056 -0.9929 -0.1192
vn 0.0057 -0.9926 -0.1216
vn 0.0343 -0.9204 0.3894
vn 0.0337 -0.9237 0.3816
vn 0.0549 -0.7398 0.6706
vn 0.0556 -0.7318 0.6792
vn 0.0175 -0.9882 0.1519
vn 0.0172 -0.9888 0.1484
vn 0.0337 -0.9237 0.3816
vn 0.0343 -0.9204 0.3894
vn 0.0114 -0.9988 0.0473
vn 0.0113 -0.9989 0.0462
vn 0.0172 -0.9888 0.1484
vn 0.0175 -0.9882 0.1519
vn 0.0085 -0.9999 -0.0145
vn 0.0085 -0.9999 -0.0141
vn 0.0113 -0.9989 0.0462
vn 0.0114 -0.9988 0.0473
vn 0.0070 -0.9985 -0.0535
vn 0.0070 -0.9986 -0.0522
vn 0.0085 -0.9999 -0.0141
vn 0.0085 -0.9999 -0.0145
vn 0.0063 -0.9969 -0.0787
vn 0.0063 -0.9970 -0.0769
vn 0.0070 -0.9986 -0.0522
vn 0.0070 -0.9985 -0.0535
vn 0.0058 -0.9953 -0.0964
vn 0.0058 -0.9955 -0.0942
vn 0.0063 -0.9970 -0.0769
vn 0.0063 -0.9969 -0.0787
vn 0.0056 -0.9939 -0.1099
vn 0.0055 -0.9942 -0.1074
vn 0.0058 -0.9955 -0.0942
vn 0.0058 -0.9953 -0.0964
vn 0.0056 -0.9929 -0.1192
vn 0.0055 -0.9932 -0.1165
vn 0.0055 -0.9942 -0.1074
vn 0.0056 -0.9939 -0.1099
vn 0.0057 -0.9922 -0.1245
vn 0.0055 -0.9926 -0.1217
vn 0.0055 -0.9932 -0.1165
vn 0.0056 -0.9929 -0.1192
vn 0.0337 -0.9237 0.3816
vn 0.0330 -0.9274 0.3727
vn 0.0540 -0.7490 0.6604
vn 0.0549 -0.7398 0.6706
vn 0.0172 -0.9888 0.1484
vn 0.0170 -0.9894 0.1444
vn 0.0330 -0.9274 0.3727
vn 0.0337 -0.9237 0.3816
vn 0.0113 -0.9989 0.0462
vn 0.0112 -0.9989 0.0450
vn 0.0170 -0.9894 0.1444
vn 0.0172 -0.9888 0.1484
vn 0.0085 -0.9999 -0.0141
vn 0.0085 -0.9999 -0.0138
vn 0.0112 -0.9989 0.0450
vn 0.0113 -0.9989 0.0462
vn 0.0070 -0.9986 -0.0522
vn 0.0071 -0.9987 -0.0508
vn 0.0085 -0.9999 -0.0138
vn 0.0085 -0.9999 -0.0141
vn 0.0063 -0.9970 -0.0769
vn 0.0063 -0.9972 -0.0748
vn 0.0071 -0.9987 -0.0508
vn 0.0070 -0.9986 -0.0522
vn 0.0058 -0.9955 -0.0942
vn 0.0057 -0.9958 -0.0917
vn 0.0063 -0.9972 -0.0748
vn 0.0063 -0.9970 -0.0769
vn 0.0055 -0.9942 -0.1074
vn 0.0054 -0.9945 -0.1045
vn 0.0057 -0.9958 -0.0917
vn 0.0058 -0.9955 -0.0942
vn 0.0055 -0.9932 -0.1165
vn 0.0053 -0.9935 -0.1133
vn 0.0054 -0.9945 -0.1045
vn 0.0055 -0.9942 -0.1074
vn 0.0055 -0.9926 -0.1217
vn 0.0054 -0.9930 -0.1184
vn 0.0053 -0.9935 -0.1133
vn 0.0055 -0.9932 -0.1165
vn 0.0330 -0.9274 0.3727
vn 0.0322 -0.9315 0.3623
vn 0.0530 -0.7596 0.6482
vn 0.0540 -0.7490 0.6604
vn 0.0170 -0.9894 0.1444
vn 0.0167 -0.9900 0.1399
vn 0.0322 -0.9315 0.3623
vn 0.0330 -0.9274 0.3727
vn 0.0112 -0.9989 0.0450
vn 0.0112 -0.9990 0.0435
vn 0.0167 -0.9900 0.1399
vn 0.0170 -0.9894 0.1444
vn 0.0085 -0.9999 -0.0138
vn 0.0085 -0.9999 -0.0133
vn 0.0112 -0.9990 0.0435
vn 0.0112 -0.9989 0.0450
vn 0.0071 -0.9987 -0.0508
vn 0.0071 -0.9988 -0.0492
vn 0.0085 -0.9999 -0.0133
vn 0.0085 -0.9999 -0.0138
vn 0.0063 -0.9972 -0.0748
vn 0.0063 -0.9974 -0.0724
vn 0.0071 -0.9988 -0.0492
vn 0.0071 -0.9987 -0.0508
vn 0.0057 -0.9958 -0.0917
vn 0.0057 -0.9960 -0.0887
vn 0.0063 -0.9974 -0.0724
vn 0.0063 -0.9972 -0.0748
vn 0.0054 -0.9945 -0.1045
vn 0.0053 -0.9949 -0.1012
vn 0.0057 -0.9960 -0.0887
vn 0.0057 -0.9958 -0.0917
vn 0.0053 -0.9935 -0.1133
vn 0.0052 -0.9939 -0.1097
vn 0.0053 -0.9949 -0.1012
vn 0.0054 -0.9945 -0.1045
vn 0.0054 -0.9930 -0.1184
vn 0.0052 -0.9934 -0.1146
vn 0.0052 -0.9939 -0.1097
vn 0.0053 -0.9935 -0.1133
vn 1.0000 0.0000 0.0000
vn 1.0000 0.0000 0.0000
vn 1.0000 0.0000 0.0000
vn 1.0000 0.0000 0.0000
vn 1.0000 0.0000 0.0000
vn 1.0000 0.0000 0.0000
vn 1.0000 0.0000 0.0000
vn 1.0000 0.0000 0.0000
vn 1.0000 0.0000 0.0000
vn 1.0000 0.0000 0.0000
vn 1.0000 0.0000 0.0000
vn 1.0000 0.0000 0.0000
vn 1.0000 0.0000 0.0000
vn 1.0000 0.0000 0.0000
vn 1.0000 0.0000 0.0000
vn 1.0000 0.0000 0.0000
vn 1.0000 0.0000 0.0000
vn 1.0000 0.0000 0.0000
vn 1.0000 0.0000 0.0000
vn 1.0000 0.0000 0.0000
vn 1.0000 0.0000 0.0000
vn 1.0000 0.0000 0.0000
vn 1.0000 0.0000 0.0000
vn 1.0000 0.0000 0.0000
vn 1.0000 0.0000 0.0000
vn 1.0000 0.0000 0.0000
vn 1.0000 0.0000 0.0000
vn 1.0000 0.0000 0.0000
vn 1.0000 0.0000 0.0000
vn 1.0000 0.0000 0.0000
vn 1.0000 0.0000 0.0000
vn 1.0000 0.0000 0.0000
vn 1.0000 0.0000 0.0000
vn 1.0000 0.0000 0.0000
vn 1.0000 0.0000 0.0000
vn 1.0000 0.0000 0.0000
vn 1.0000 0.0000 0.0000
vn 1.0000 0.0000 0.0000
vn 1.0000 0.0000 0.0000
vn 1.0000 0.0000 0.0000
usemtl paint
f 1/1/1 2/2/2 3/3/3 4/4/4
f 5/5/5 6/6/6 7/7/7 8/8/8
f 9/9/9 10/10/10 11/11/11 12/12/12
f 13/13/13 14/14/14 15/15/15 16/16/16
f 17/17/17 18/18/18 19/19/19 20/20/20
f 21/21/21 22/22/22 23/23/23 24/24/24
f 25/25/25 26/26/26 27/27/27 28/28/28
f 29/29/29 30/30/30 31/31/31 32/32/32
f 33/33/33 34/34/34 35/35/35 36/36/36
f 37/37/37 38/38/38 39/39/39 40/40/40
f 41/41/41 42/42/42 43/43/43 44/44/44
f 45/45/45 46/46/46 47/47/47 48/48/48
f 49/49/49 50/50/50 51/51/51 52/52/52
f 53/53/53 54/54/54 55/55/55 56/56/56
f 57/57/57 58/58/58 59/59/59 60/60/60
f 61/61/61 62/62/62 63/63/63 64/64/64
f 65/65/65 66/66/66 67/67/67 68/68/68
f 69/69/69 70/70/70 71/71/71 72/72/72
f 73/73/73 74/74/74 75/75/75 76/76/76
f 77/77/77 78/78/78 79/79/79 80/80/80
f 81/81/81 82/82/82 83/83/83 84/84/84
f 85/85/85 86/86/86 87/87/87 88/88/88
f 89/89/89 90/90/90 91/91/91 92/92/92
f 93/93/93 94/94/94 95/95/95 96/96/96
f 97/97/97 98/98/98 99/99/99 100/100/100
f 101/101/101 102/102/102 103/103/103 104/104/104
f 105/105/105 106/106/106 107/107/107 108/108/108
f 109/109/109 110/110/110 111/111/111 112/112/112
f 113/113/113 114/114/114 115/115/115 116/116/116
f 117/117/117 118/118/118 119/119/119 120/120/120
f 121/121/121 122/122/122 123/123/123 124/124/124
f 125/125/125 126/126/126 127/127/127 128/128/128
f 129/129/129 130/130/130 131/131/131 132/132/132
f 133/133/133 134/134/134 135/135/135 136/136/136
f 137/137/137 138/138/138 139/139/139 140/140/140
f 141/141/141 142/142/142 143/143/143 144/144/144
f 145/145/145 146/146/146 147/147/147 148/148/148
f 149/149/149 150/150/150 151/151/151 152/152/152
f 153/153/153 154/154/154 155/155/155 156/156/156
f 157/157/157 158/158/158 159/159/159 160/160/160
f 161/161/161 162/162/162 163/163/163 164/164/164
f 165/165/165 166/166/166 167/167/167 168/168/168
f 169/169/169 170/170/170 171/171/171 172/172/172
f 173/173/173 174/174/174 175/175/175 176/176/176
f 177/177/177 178/178/178 179/179/179 180/180/180
f 181/181/181 182/182/182 183/183/183 184/184/184
f 185/185/185 186/186/186 187/187/187 188/188/188
f 189/189/189 190/190/190 191/191/191 192/192/192
f 193/193/193 194/194/194 195/195/195 196/196/196
f 197/197/197 198/198/198 199/199/199 200/200/200
f 201/201/201 202/202/202 203/203/203 204/204/204
f 205/205/205 206/206/206 207/207/207 208/208/208
f 209/209/209 210/210/210 211/211/211 212/212/212
f 213/213/213 214/214/214 215/215/215 216/216/216
f 217/217/217 218/218/218 219/219/219 220/220/220
f 221/221/221 222/222/222 223/223/223 224/224/224
f 225/225/225 226/226/226 227/227/227 228/228/228
f 229/229/229 230/230/230 231/231/231 232/232/232
f 233/233/233 234/234/234 235/235/235 236/236/236
f 237/237/237 238/238/238 239/239/239 240/240/240
f 241/241/241 242/242/242 243/243/243 244/244/244
f 245/245/245 246/246/246 247/247/247 248/248/248
f 249/249/249 250/250/250 251/251/251 252/252/252
f 253/253/253 254/254/254 255/255/255 256/256/256
f 257/257/257 258/258/258 259/259/259 260/260/260
f 261/261/261 262/262/262 263/263/263 264/264/264
f 265/265/265 266/266/266 267/267/267 268/268/268
f 269/269/269 270/270/270 271/271/271 272/272/272
f 273/273/273 274/274/274 275/275/275 276/276/276
f 277/277/277 278/278/278 279/279/279 280/280/280
f 281/281/281 282/282/282 283/283/283 284/284/284
f 285/285/285 286/286/286 287/287/287 288/288/288
f 289/289/289 290/290/290 291/291/291 292/292/292
f 293/293/293 294/294/294 295/295/295 296/296/296
f 297/297/297 298/298/298 299/299/299 300/300/300
f 301/301/301 302/302/302 303/303/303 304/304/304
f 305/305/305 306/306/306 307/307/307 308/308/308
f 309/309/309 310/310/310 311/311/311 312/312/312
f 313/313/313 314/314/314 315/315/315 316/316/316
f 317/317/317 318/318/318 319/319/319 320/320/320
f 321/321/321 322/322/322 323/323/323 324/324/324
f 325/325/325 326/326/326 327/327/327 328/328/328
f 329/329/329 330/330/330 331/331/331 332/332/332
f 333/333/333 334/334/334 335/335/335 336/336/336
f 337/337/337 338/338/338 339/339/339 340/340/340
f 341/341/341 342/342/342 343/343/343 344/344/344
f 345/345/345 346/346/346 347/347/347 348/348/348
f 349/349/349 350/350/350 351/351/351 352/352/352
f 353/353/353 354/354/354 355/355/355 356/356/356
f 357/357/357 358/358/358 359/359/359 360/360/360
f 361/361/361 362/362/362 363/363/363 364/364/364
f 365/365/365 366/366/366 367/367/367 368/368/368
f 369/369/369 370/370/370 371/371/371 372/372/372
f 373/373/373 374/374/374 375/375/375 376/376/376
f 377/377/377 378/378/378 379/379/379 380/380/380
f 381/381/381 382/382/382 383/383/383 384/384/384
f 385/385/385 386/386/386 387/387/387 388/388/388
f 389/389/389 390/390/390 391/391/391 392/392/392
f 393/393/393 394/394/394 395/395/395 396/396/396
f 397/397/397 398/398/398 399/399/399 400/400/400
f 401/401/401 402/402/402 403/403/403 404/404/404
f 405/405/405 406/406/406 407/407/407 408/408/408
f 409/409/409 410/410/410 411/411/411 412/412/412
f 413/413/413 414/414/414 415/415/415 416/416/416
f 417/417/417 418/418/418 419/419/419 420/420/420
f 421/421/421 422/422/422 423/423/423 424/424/424
f 425/425/425 426/426/426 427/427/427 428/428/428
f 429/429/429 430/430/430 431/431/431 432/432/432
f 433/433/433 434/434/434 435/435/435 436/436/436
f 437/437/437 438/438/438 439/439/439 440/440/440
f 441/441/441 442/442/442 443/443/443 444/444/444
f 445/445/445 446/446/446 447/447/447 448/448/448
f 449/449/449 450/450/450 451/451/451 452/452/452
f 453/453/453 454/454/454 455/455/455 456/456/456
f 457/457/457 458/458/458 459/459/459 460/460/460
f 461/461/461 462/462/462 463/463/463 464/464/464
f 465/465/465 466/466/466 467/467/467 468/468/468
f 469/469/469 470/470/470 471/471/471 472/472/472
f 473/473/473 474/474/474 475/475/475 476/476/476
f 477/477/477 478/478/478 479/479/479 480/480/480
f 481/481/481 482/482/482 483/483/483 484/484/484
f 485/485/485 486/486/486 487/487/487 488/488/488
f 489/489/489 490/490/490 491/491/491 492/492/492
f 493/493/493 494/494/494 495/495/495 496/496/496
f 497/497/497 498/498/498 499/499/499 500/500/500
f 501/501/501 502/502/502 503/503/503 504/504/504
f 505/505/505 506/506/506 507/507/507 508/508/508
f 509/509/509 510/510/510 511/511/511 512/512/512
f 513/513/513 514/514/514 515/515/515 516/516/516
f 517/517/517 518/518/518 519/519/519 520/520/520
